<svg xmlns="http://www.w3.org/2000/svg" viewBox="0 0 73.98 73.98">
  <defs>
    <style>
      .fa0aee51-1903-4350-ab20-5e7d4c6ebc05 {
        fill: #f36b3f;
        stroke: #f36b3f;
        stroke-miterlimit: 10;
        stroke-width: 0.28px;
      }

      .f574c050-2ee7-4367-9be3-f446f30913ab {
        fill: #fff;
      }
    </style>
  </defs>
  <g id="b0ecad0d-2b2a-4c8b-9e79-781c989c29e4" data-name="Layer 2">
    <g id="b8cb868b-ca46-486d-975d-04b8ad8e027b" data-name="Layer 1">
      <rect class="fa0aee51-1903-4350-ab20-5e7d4c6ebc05" x="0.14" y="0.14" width="73.7" height="73.7" rx="15.4"/>
      <g>
        <path class="f574c050-2ee7-4367-9be3-f446f30913ab" d="M32.78,10.22v1H28.29v2.73h3.93v1H28.29v3.92H27.15V10.22Z"/>
        <path class="f574c050-2ee7-4367-9be3-f446f30913ab" d="M40,10.22v1H35.18v2.73h4.45v1H35.18v3H40v1H34V10.22Z"/>
        <path class="f574c050-2ee7-4367-9be3-f446f30913ab" d="M43.44,18.79l-3-8.57h1.23l2.44,7.43h0l2.47-7.43h1.19l-3,8.57Z"/>
      </g>
      <g>
        <path class="f574c050-2ee7-4367-9be3-f446f30913ab" d="M16,38.73a12.68,12.68,0,0,1,2.33-4.56,8.19,8.19,0,0,1,3.38-2.43,11,11,0,0,1,4.06-.69,11.27,11.27,0,0,1,4.08.79,8.25,8.25,0,0,1,3.34,2.5A12.49,12.49,0,0,1,35.44,39a25.29,25.29,0,0,1,.76,7,26.36,26.36,0,0,1-.92,7.21,12.52,12.52,0,0,1-2.35,4.59,8.38,8.38,0,0,1-3.4,2.43,11.15,11.15,0,0,1-4.1.69,11,11,0,0,1-4-.78,8.22,8.22,0,0,1-3.32-2.5A12.76,12.76,0,0,1,15.84,53a26.37,26.37,0,0,1-.76-7.22A25.32,25.32,0,0,1,16,38.73Zm5,10.08a17,17,0,0,0,.48,3.38A7.26,7.26,0,0,0,22.79,55a3.34,3.34,0,0,0,2.7,1.18A3.42,3.42,0,0,0,28.27,55a7.11,7.11,0,0,0,1.43-2.76,16.15,16.15,0,0,0,.55-3.36c.07-1.17.11-2.16.12-3V44.15c0-.7-.06-1.42-.14-2.16a20.68,20.68,0,0,0-.39-2.2,6.7,6.7,0,0,0-.78-2,4.55,4.55,0,0,0-1.34-1.42,3.63,3.63,0,0,0-2-.55,3.53,3.53,0,0,0-2,.51,4.39,4.39,0,0,0-1.33,1.38,7.48,7.48,0,0,0-.82,2,14.9,14.9,0,0,0-.44,2.19c-.09.74-.14,1.46-.16,2.16s0,1.29,0,1.78C20.91,46.65,20.92,47.65,21,48.81Z"/>
        <path class="f574c050-2ee7-4367-9be3-f446f30913ab" d="M39.25,38.25a10.59,10.59,0,0,1,2-3.68,9,9,0,0,1,3.34-2.43,11.23,11.23,0,0,1,4.59-.83,11.73,11.73,0,0,1,3.75.66,9.78,9.78,0,0,1,3.13,1.8,8.45,8.45,0,0,1,2.12,2.86A8.65,8.65,0,0,1,59,40.42a9.11,9.11,0,0,1-.74,3.73,9.78,9.78,0,0,1-1.88,2.76,15.85,15.85,0,0,1-2.63,2.16c-1,.65-2,1.29-3,1.92s-2,1.32-2.9,2a13.2,13.2,0,0,0-2.5,2.56l13.6.15,0,5-21.12-.23a12.12,12.12,0,0,1,.76-4.35,11.9,11.9,0,0,1,2-3.29,17.49,17.49,0,0,1,2.93-2.66Q45.13,49,47,47.77c.64-.43,1.31-.87,2-1.32A13.28,13.28,0,0,0,51,45a8.52,8.52,0,0,0,1.5-1.84,4.63,4.63,0,0,0,.62-2.33,4.12,4.12,0,0,0-4.27-4.49,3.79,3.79,0,0,0-2.16.57,4.44,4.44,0,0,0-1.43,1.55,7,7,0,0,0-.79,2.13,12.28,12.28,0,0,0-.25,2.32l-5.59-.07A13.56,13.56,0,0,1,39.25,38.25Z"/>
      </g>
    </g>
  </g>
</svg>
