<svg xmlns="http://www.w3.org/2000/svg" viewBox="0 0 73.98 73.98">
  <defs>
    <style>
      .e72eb322-fb13-4133-a271-6e4c98dc0566 {
        fill: #f36b3f;
        stroke: #f36b3f;
        stroke-miterlimit: 10;
        stroke-width: 0.28px;
      }

      .badda87f-3bb2-40dc-ac62-e97d3b312ee3 {
        fill: #fff;
      }
    </style>
  </defs>
  <g id="b8861a22-1de7-48a8-938b-5f63b545a1d9" data-name="Layer 2">
    <g id="bd76237d-dc1c-4960-ba46-971755883464" data-name="Layer 1">
      <rect class="e72eb322-fb13-4133-a271-6e4c98dc0566" x="0.14" y="0.14" width="73.7" height="73.7" rx="15.4"/>
      <g>
        <path class="badda87f-3bb2-40dc-ac62-e97d3b312ee3" d="M26.28,10.22l2.7,7.2,2.72-7.2h1.56v8.57H32.18V11.66h0l-2.67,7.13h-1l-2.67-7.13h0v7.13H24.72V10.22Z"/>
        <path class="badda87f-3bb2-40dc-ac62-e97d3b312ee3" d="M38.74,10.22l3.35,8.57H40.83l-.94-2.58H36.27l-1,2.58H34.14l3.34-8.57Zm.79,5-1.43-4h0l-1.45,4Z"/>
        <path class="badda87f-3bb2-40dc-ac62-e97d3b312ee3" d="M47,10.22a2.8,2.8,0,0,1,1.91.6,2.07,2.07,0,0,1,.69,1.65,2.59,2.59,0,0,1-.35,1.37,1.81,1.81,0,0,1-1.13.8v0a1.57,1.57,0,0,1,.6.24,1.3,1.3,0,0,1,.37.41,1.72,1.72,0,0,1,.21.52,5.36,5.36,0,0,1,.1.6c0,.21,0,.42,0,.63a3.39,3.39,0,0,0,.06.64,3.41,3.41,0,0,0,.13.59,1.42,1.42,0,0,0,.27.5H48.59a.75.75,0,0,1-.16-.36,2.59,2.59,0,0,1,0-.51q0-.29,0-.6a4.48,4.48,0,0,0-.07-.64,4.72,4.72,0,0,0-.12-.59,1.35,1.35,0,0,0-.23-.5,1,1,0,0,0-.41-.33,1.4,1.4,0,0,0-.67-.13H44.07v3.66H42.93V10.22Zm.24,3.89a1.75,1.75,0,0,0,.63-.23,1.3,1.3,0,0,0,.43-.47,1.56,1.56,0,0,0,.16-.76,1.55,1.55,0,0,0-.36-1.06,1.47,1.47,0,0,0-1.16-.41H44.07v3h2.37A4.59,4.59,0,0,0,47.2,14.11Z"/>
      </g>
      <g>
        <path class="badda87f-3bb2-40dc-ac62-e97d3b312ee3" d="M24.33,60.38l.21-18.66-7.24-.08.05-4.4a13.51,13.51,0,0,0,2.94-.19,7.58,7.58,0,0,0,2.56-.92,6.23,6.23,0,0,0,1.93-1.76,6.3,6.3,0,0,0,1.06-2.74l4.65.05-.32,28.76Z"/>
        <path class="badda87f-3bb2-40dc-ac62-e97d3b312ee3" d="M47.18,60.63,47.38,42l-7.23-.08.05-4.4a14.21,14.21,0,0,0,2.94-.19,7.8,7.8,0,0,0,2.56-.92,6.14,6.14,0,0,0,1.93-1.77,6.37,6.37,0,0,0,1.06-2.74l4.64.05L53,60.7Z"/>
      </g>
    </g>
  </g>
</svg>
