<svg xmlns="http://www.w3.org/2000/svg" viewBox="0 0 73.98 73.98">
  <defs>
    <style>
      .a5db17d6-ff08-4fc5-add0-b3d2f010ce99 {
        fill: #fff;
        stroke: #9b9b9a;
        stroke-miterlimit: 10;
        stroke-width: 0.28px;
      }

      .ac0e73f8-991d-42ba-bc20-0f6431f3a4cf {
        fill: #1d1d1b;
      }
    </style>
  </defs>
  <g id="a06cd609-4fdc-4826-8a40-699fc2c46b14" data-name="Layer 2">
    <g id="e32042e3-458d-4540-98da-600bafe3501e" data-name="Layer 1">
      <g>
        <rect class="a5db17d6-ff08-4fc5-add0-b3d2f010ce99" x="0.14" y="0.14" width="73.7" height="73.7" rx="15.4"/>
        <g>
          <path class="ac0e73f8-991d-42ba-bc20-0f6431f3a4cf" d="M29,11.18v-1h6.86v1H33v7.61H31.87V11.18Z"/>
          <path class="ac0e73f8-991d-42ba-bc20-0f6431f3a4cf" d="M39.71,18.4a2.85,2.85,0,0,1-1.76.52,3.23,3.23,0,0,1-1.29-.24,2.45,2.45,0,0,1-.91-.67,2.78,2.78,0,0,1-.56-1A4.55,4.55,0,0,1,35,15.67a3.79,3.79,0,0,1,.21-1.29,3,3,0,0,1,.61-1,2.79,2.79,0,0,1,.92-.68,2.85,2.85,0,0,1,1.17-.24,2.55,2.55,0,0,1,1.38.35,2.59,2.59,0,0,1,.87.87,3.31,3.31,0,0,1,.46,1.15A4.91,4.91,0,0,1,40.7,16H36.06a2.43,2.43,0,0,0,.09.77,2,2,0,0,0,.35.65,1.73,1.73,0,0,0,.61.45A2.16,2.16,0,0,0,38,18a1.75,1.75,0,0,0,1.06-.3,1.46,1.46,0,0,0,.55-.92h1A2.55,2.55,0,0,1,39.71,18.4Zm-.25-4a2,2,0,0,0-.37-.56,1.9,1.9,0,0,0-.55-.37,1.83,1.83,0,0,0-.71-.14,1.8,1.8,0,0,0-.71.14,1.75,1.75,0,0,0-.55.38,1.92,1.92,0,0,0-.36.56,2.17,2.17,0,0,0-.15.68h3.56A2,2,0,0,0,39.46,14.41Z"/>
          <path class="ac0e73f8-991d-42ba-bc20-0f6431f3a4cf" d="M42.68,12.59V13.9h0a2.67,2.67,0,0,1,.91-1.12A2.33,2.33,0,0,1,45,12.44v1.08a3,3,0,0,0-1.05.17,1.61,1.61,0,0,0-.69.49,2,2,0,0,0-.39.79A4.24,4.24,0,0,0,42.74,16v2.76h-1v-6.2Z"/>
        </g>
        <g>
          <path class="ac0e73f8-991d-42ba-bc20-0f6431f3a4cf" d="M24.33,60.38l.21-18.66-7.24-.08.05-4.4a13.64,13.64,0,0,0,2.95-.19,7.61,7.61,0,0,0,2.55-.92,6.12,6.12,0,0,0,1.93-1.76,6.3,6.3,0,0,0,1.06-2.74l4.65.05-.32,28.76Z"/>
          <path class="ac0e73f8-991d-42ba-bc20-0f6431f3a4cf" d="M39.25,38.25a10.59,10.59,0,0,1,2-3.68,9,9,0,0,1,3.34-2.43,11.23,11.23,0,0,1,4.59-.83,11.73,11.73,0,0,1,3.75.66,10,10,0,0,1,3.13,1.8,8.45,8.45,0,0,1,2.12,2.86A8.65,8.65,0,0,1,59,40.42a9.11,9.11,0,0,1-.74,3.73,9.78,9.78,0,0,1-1.88,2.76,15.85,15.85,0,0,1-2.63,2.16c-1,.65-2,1.29-3,1.92s-2,1.32-2.9,2a13.2,13.2,0,0,0-2.5,2.56l13.6.15,0,5-21.12-.23a12.12,12.12,0,0,1,.76-4.35,11.9,11.9,0,0,1,2-3.29,17,17,0,0,1,2.93-2.65Q45.13,49,47,47.77c.64-.43,1.31-.87,2-1.32A13.28,13.28,0,0,0,51,45a8.28,8.28,0,0,0,1.5-1.84,4.6,4.6,0,0,0,.62-2.33,4.12,4.12,0,0,0-4.27-4.49,3.79,3.79,0,0,0-2.16.57,4.44,4.44,0,0,0-1.43,1.55,7,7,0,0,0-.79,2.13,12.28,12.28,0,0,0-.25,2.32l-5.59-.07A13.56,13.56,0,0,1,39.25,38.25Z"/>
        </g>
      </g>
    </g>
  </g>
</svg>
