<svg xmlns="http://www.w3.org/2000/svg" viewBox="0 0 73.98 73.98">
  <defs>
    <style>
      .e42490c9-1eb4-461a-9b8c-c445e6a24985 {
        fill: #fff;
        stroke: #9b9b9a;
        stroke-miterlimit: 10;
        stroke-width: 0.28px;
      }

      .ad7a734c-8cea-4e6e-a323-3446989a9e38 {
        fill: #1d1d1b;
      }
    </style>
  </defs>
  <g id="bf4750fa-da02-4c99-9fc7-c9e11ba87d6d" data-name="Layer 2">
    <g id="b6e05c46-6022-46a5-9c99-da9d4f393496" data-name="Layer 1">
      <rect class="e42490c9-1eb4-461a-9b8c-c445e6a24985" x="0.14" y="0.14" width="73.7" height="73.7" rx="15.4"/>
      <g>
        <path class="ad7a734c-8cea-4e6e-a323-3446989a9e38" d="M32.48,18.48a3.94,3.94,0,0,1-2,.5,4.17,4.17,0,0,1-1.79-.36,3.83,3.83,0,0,1-1.28-1,4.36,4.36,0,0,1-.78-1.44,5.8,5.8,0,0,1,0-3.37,4.22,4.22,0,0,1,.78-1.43,3.73,3.73,0,0,1,1.28-1,4.51,4.51,0,0,1,3.58,0,3.73,3.73,0,0,1,1.28,1,4.22,4.22,0,0,1,.78,1.43,5.58,5.58,0,0,1,.25,1.69,5.33,5.33,0,0,1-.32,1.87,4.33,4.33,0,0,1-1,1.54l1.13.88-.58.72Zm-.07-1.22A3.08,3.08,0,0,0,33.15,16a4.84,4.84,0,0,0,.24-1.52,5,5,0,0,0-.16-1.28,3.56,3.56,0,0,0-.53-1.13,2.6,2.6,0,0,0-.93-.81,3.05,3.05,0,0,0-2.68,0,2.6,2.6,0,0,0-.93.81,3.56,3.56,0,0,0-.53,1.13,5.2,5.2,0,0,0,0,2.56,3.67,3.67,0,0,0,.53,1.13,2.6,2.6,0,0,0,.93.81,2.79,2.79,0,0,0,1.34.31,3.08,3.08,0,0,0,1.19-.24L30.67,17l.6-.7Z"/>
        <path class="ad7a734c-8cea-4e6e-a323-3446989a9e38" d="M39.93,18.79v-1h0a2.1,2.1,0,0,1-.83.84,2.46,2.46,0,0,1-1.19.27,2.8,2.8,0,0,1-1-.16,1.67,1.67,0,0,1-.66-.46,1.89,1.89,0,0,1-.35-.71,3.82,3.82,0,0,1-.1-.92V12.59h1v4.2a1.24,1.24,0,0,0,.33.91A1.29,1.29,0,0,0,38,18a2,2,0,0,0,.81-.15,1.39,1.39,0,0,0,.57-.41,1.82,1.82,0,0,0,.34-.61,2.45,2.45,0,0,0,.11-.78v-3.5h1v6.2Z"/>
        <path class="ad7a734c-8cea-4e6e-a323-3446989a9e38" d="M47.93,18.77a1.51,1.51,0,0,1-.74.15.88.88,0,0,1-.63-.22,1,1,0,0,1-.23-.72,2.52,2.52,0,0,1-1,.72,3.16,3.16,0,0,1-1.2.22,3.44,3.44,0,0,1-.8-.09,2.22,2.22,0,0,1-.66-.3,1.43,1.43,0,0,1-.43-.54,1.74,1.74,0,0,1-.17-.79,1.84,1.84,0,0,1,.18-.87,1.56,1.56,0,0,1,.48-.54,2.08,2.08,0,0,1,.67-.32c.25-.07.51-.13.77-.18s.55-.1.8-.13a5.09,5.09,0,0,0,.67-.12,1.06,1.06,0,0,0,.45-.23.52.52,0,0,0,.17-.43,1,1,0,0,0-.12-.54,1,1,0,0,0-.33-.32,1.26,1.26,0,0,0-.44-.14,4.22,4.22,0,0,0-.49,0,2.21,2.21,0,0,0-1.08.25,1,1,0,0,0-.47.93h-1a2.31,2.31,0,0,1,.24-1,1.79,1.79,0,0,1,.58-.64,2.25,2.25,0,0,1,.82-.36,4.48,4.48,0,0,1,1-.11,5.93,5.93,0,0,1,.84.06,2.14,2.14,0,0,1,.75.25,1.49,1.49,0,0,1,.54.52,1.7,1.7,0,0,1,.2.87v3.19a2.36,2.36,0,0,0,0,.53c0,.11.12.16.28.16a1.33,1.33,0,0,0,.32,0Zm-1.66-3.18a1.54,1.54,0,0,1-.5.21,6.53,6.53,0,0,1-.66.1l-.69.1a2.66,2.66,0,0,0-.62.17,1.12,1.12,0,0,0-.45.34.94.94,0,0,0-.18.61.82.82,0,0,0,.11.42.7.7,0,0,0,.26.28,1.32,1.32,0,0,0,.38.16,2.15,2.15,0,0,0,.45,0,2.49,2.49,0,0,0,.87-.13,2.09,2.09,0,0,0,.59-.35,1.37,1.37,0,0,0,.33-.45,1.23,1.23,0,0,0,.11-.46Z"/>
      </g>
      <g>
        <path class="ad7a734c-8cea-4e6e-a323-3446989a9e38" d="M24.33,60.38l.21-18.66-7.23-.08,0-4.4a13.51,13.51,0,0,0,2.94-.19,7.58,7.58,0,0,0,2.56-.92,6.23,6.23,0,0,0,1.93-1.76,6.42,6.42,0,0,0,1.06-2.74l4.65.05-.33,28.76Z"/>
        <path class="ad7a734c-8cea-4e6e-a323-3446989a9e38" d="M48.48,43.51a6.43,6.43,0,0,0,2-.45A3.77,3.77,0,0,0,52,42a3.09,3.09,0,0,0,.62-2,3.43,3.43,0,0,0-1.21-2.85,4.47,4.47,0,0,0-2.82-1,4,4,0,0,0-3.36,1.43,5.54,5.54,0,0,0-1.13,3.66l-5.55-.06a12.25,12.25,0,0,1,.84-4A9.46,9.46,0,0,1,41.45,34a9,9,0,0,1,3.13-2,10.63,10.63,0,0,1,4-.67,11.83,11.83,0,0,1,3.45.55,9.75,9.75,0,0,1,3.08,1.57A8.54,8.54,0,0,1,57.36,36a6.68,6.68,0,0,1,.82,3.43,6.78,6.78,0,0,1-1,3.68,5.07,5.07,0,0,1-3,2.15v.08a6.24,6.24,0,0,1,3.71,2.34,6.74,6.74,0,0,1,1.31,4.25,9,9,0,0,1-.93,4,8.79,8.79,0,0,1-2.39,2.93,10.59,10.59,0,0,1-3.44,1.77,12.88,12.88,0,0,1-4,.57,13.36,13.36,0,0,1-4.41-.75,9.29,9.29,0,0,1-3.37-2.07,9,9,0,0,1-2.12-3.29,11.71,11.71,0,0,1-.67-4.45l5.55.07a8,8,0,0,0,.35,2.2,5.47,5.47,0,0,0,.92,1.82,4.62,4.62,0,0,0,1.53,1.23,5.05,5.05,0,0,0,2.19.47,4.76,4.76,0,0,0,3.34-1.17,4.91,4.91,0,0,0,.79-5.81,3.71,3.71,0,0,0-1.61-1.27,6.76,6.76,0,0,0-2.15-.48c-.78,0-1.53-.08-2.24-.08l0-4.11A12.27,12.27,0,0,0,48.48,43.51Z"/>
      </g>
    </g>
  </g>
</svg>
