<svg xmlns="http://www.w3.org/2000/svg" viewBox="0 0 73.98 73.98">
  <defs>
    <style>
      .af445fb4-28d9-448a-83f4-a52f92442847 {
        fill: #f36b3f;
        stroke: #f36b3f;
        stroke-miterlimit: 10;
        stroke-width: 0.28px;
      }

      .f34bc6d9-abb4-495e-8317-925b9a67f96c {
        fill: #fff;
      }
    </style>
  </defs>
  <g id="bd78a374-2c30-4987-a9fb-6ca09b837a87" data-name="Layer 2">
    <g id="e1a09f54-8a23-419c-94b4-0cbc76133f9d" data-name="Layer 1">
      <rect class="af445fb4-28d9-448a-83f4-a52f92442847" x="0.14" y="0.14" width="73.7" height="73.7" rx="15.4"/>
      <g>
        <path class="f34bc6d9-abb4-495e-8317-925b9a67f96c" d="M30.82,17.51a1.86,1.86,0,0,1-.42.75,2.24,2.24,0,0,1-.78.53,3.27,3.27,0,0,1-1.21.19,2.52,2.52,0,0,1-1.84-.63,2.43,2.43,0,0,1-.65-1.85V16h1.14v.36a3.69,3.69,0,0,0,.06.69,1.6,1.6,0,0,0,.21.54,1,1,0,0,0,.42.35,1.7,1.7,0,0,0,.69.13,1.21,1.21,0,0,0,1.07-.42,1.91,1.91,0,0,0,.3-1.13V10.22H31v6.44A3.13,3.13,0,0,1,30.82,17.51Z"/>
        <path class="f34bc6d9-abb4-495e-8317-925b9a67f96c" d="M36.41,10.22l3.34,8.57H38.49l-.93-2.58H33.93l-1,2.58H31.81l3.34-8.57Zm.79,5-1.43-4h0l-1.46,4Z"/>
        <path class="f34bc6d9-abb4-495e-8317-925b9a67f96c" d="M41.79,10.22l4.52,7h0v-7h1.08v8.57H46.16l-4.47-6.87h0v6.87H40.58V10.22Z"/>
      </g>
      <g>
        <path class="f34bc6d9-abb4-495e-8317-925b9a67f96c" d="M24.33,60.38l.21-18.66-7.24-.08.05-4.4a13.51,13.51,0,0,0,2.94-.19,7.58,7.58,0,0,0,2.56-.92,6.23,6.23,0,0,0,1.93-1.76,6.3,6.3,0,0,0,1.06-2.74l4.65.05-.33,28.76Z"/>
        <path class="f34bc6d9-abb4-495e-8317-925b9a67f96c" d="M37.63,53.87l.06-5.34L50.37,31.9l5.22.06-.19,17.3,3.82,0,0,4.81-3.82,0-.08,6.65-5.55-.06L49.8,54ZM49.84,39.21l-7.55,9.9,7.56.09.11-10Z"/>
      </g>
    </g>
  </g>
</svg>
