<svg xmlns="http://www.w3.org/2000/svg" viewBox="0 0 73.98 73.98">
  <defs>
    <style>
      .b64f31fe-8424-438c-9bb8-9547b7b954ea {
        fill: #fff;
        stroke: #9b9b9a;
        stroke-miterlimit: 10;
        stroke-width: 0.28px;
      }

      .f2dab5ef-0209-4062-89b7-0de80e84535c {
        fill: #1d1d1b;
      }
    </style>
  </defs>
  <g id="aa0f54ec-85a6-4baf-8080-73fd0274c8fd" data-name="Layer 2">
    <g id="f77d44a0-070d-4e9c-9b65-54207938783f" data-name="Layer 1">
      <rect class="b64f31fe-8424-438c-9bb8-9547b7b954ea" x="0.14" y="0.14" width="73.7" height="73.7" rx="15.4"/>
      <g>
        <path class="f2dab5ef-0209-4062-89b7-0de80e84535c" d="M34.37,18.48a3.94,3.94,0,0,1-2,.5,4.21,4.21,0,0,1-1.79-.36,3.83,3.83,0,0,1-1.28-1,4.36,4.36,0,0,1-.78-1.44,5.8,5.8,0,0,1,0-3.37,4.22,4.22,0,0,1,.78-1.43,3.73,3.73,0,0,1,1.28-1,4.51,4.51,0,0,1,3.58,0,3.73,3.73,0,0,1,1.28,1,4.22,4.22,0,0,1,.78,1.43,5.58,5.58,0,0,1,.26,1.69,5.34,5.34,0,0,1-.33,1.87,4.2,4.2,0,0,1-1,1.54l1.13.88-.58.72Zm-.07-1.22A3.1,3.1,0,0,0,35.05,16a4.84,4.84,0,0,0,.24-1.52,5.06,5.06,0,0,0-.17-1.28,3.36,3.36,0,0,0-.53-1.13,2.66,2.66,0,0,0-.92-.81A2.75,2.75,0,0,0,32.32,11a2.68,2.68,0,0,0-1.34.31,2.6,2.6,0,0,0-.93.81,3.56,3.56,0,0,0-.53,1.13,5.2,5.2,0,0,0,0,2.56,3.67,3.67,0,0,0,.53,1.13,2.6,2.6,0,0,0,.93.81,2.79,2.79,0,0,0,1.34.31,3,3,0,0,0,1.19-.24L32.56,17l.6-.7Z"/>
        <path class="f2dab5ef-0209-4062-89b7-0de80e84535c" d="M41.83,18.79v-1h0a2,2,0,0,1-.83.84,2.45,2.45,0,0,1-1.18.27,2.82,2.82,0,0,1-1-.16,1.67,1.67,0,0,1-.66-.46,1.89,1.89,0,0,1-.35-.71,3.82,3.82,0,0,1-.1-.92V12.59h1v4.2a1.21,1.21,0,0,0,.34.91,1.25,1.25,0,0,0,.92.34,2,2,0,0,0,.81-.15,1.39,1.39,0,0,0,.57-.41,1.66,1.66,0,0,0,.34-.61,2.45,2.45,0,0,0,.11-.78v-3.5h1v6.2Z"/>
        <path class="f2dab5ef-0209-4062-89b7-0de80e84535c" d="M44.38,11.47V10.22h1v1.25Zm1,1.12v6.2h-1v-6.2Z"/>
      </g>
      <g>
        <path class="f2dab5ef-0209-4062-89b7-0de80e84535c" d="M24.33,60.38l.21-18.66-7.24-.08.05-4.4a13.51,13.51,0,0,0,2.94-.19,7.58,7.58,0,0,0,2.56-.92,6.23,6.23,0,0,0,1.93-1.76,6.3,6.3,0,0,0,1.06-2.74l4.65.05-.33,28.76Z"/>
        <path class="f2dab5ef-0209-4062-89b7-0de80e84535c" d="M54.35,41.81a33.72,33.72,0,0,0-3,6.09,41.66,41.66,0,0,0-1.88,6.55,35.05,35.05,0,0,0-.75,6.2l-6.25-.07A39.35,39.35,0,0,1,45.65,48.2a44,44,0,0,1,6.76-10.85L38.77,37.2l.06-5.43L58.47,32l-.06,5A20.56,20.56,0,0,0,54.35,41.81Z"/>
      </g>
    </g>
  </g>
</svg>
