<svg xmlns="http://www.w3.org/2000/svg" viewBox="0 0 73.98 73.98">
  <defs>
    <style>
      .ae3140fb-e6bb-49f5-b739-9931a1c2e5cf {
        fill: #f36b3f;
        stroke: #f36b3f;
        stroke-miterlimit: 10;
        stroke-width: 0.28px;
      }

      .b84cc496-8e88-4ff6-96f5-25055d52a28c {
        fill: #fff;
      }
    </style>
  </defs>
  <g id="ef61d0c4-6dc6-4cfc-9120-87197abfcae9" data-name="Layer 2">
    <g id="e096ed41-8d82-4931-b9b3-f23f61c39021" data-name="Layer 1">
      <rect class="ae3140fb-e6bb-49f5-b739-9931a1c2e5cf" x="0.14" y="0.14" width="73.7" height="73.7" rx="15.4"/>
      <g>
        <path class="b84cc496-8e88-4ff6-96f5-25055d52a28c" d="M26.28,10.22l2.7,7.2,2.72-7.2h1.56v8.57H32.18V11.66h0l-2.67,7.13h-1l-2.67-7.13h0v7.13H24.72V10.22Z"/>
        <path class="b84cc496-8e88-4ff6-96f5-25055d52a28c" d="M38.74,10.22l3.35,8.57H40.83l-.94-2.58H36.27l-1,2.58H34.14l3.34-8.57Zm.79,5-1.43-4h0l-1.45,4Z"/>
        <path class="b84cc496-8e88-4ff6-96f5-25055d52a28c" d="M47,10.22a2.8,2.8,0,0,1,1.91.6,2.07,2.07,0,0,1,.69,1.65,2.59,2.59,0,0,1-.35,1.37,1.81,1.81,0,0,1-1.13.8v0a1.57,1.57,0,0,1,.6.24,1.3,1.3,0,0,1,.37.41,1.72,1.72,0,0,1,.21.52,5.36,5.36,0,0,1,.1.6c0,.21,0,.42,0,.63a3.39,3.39,0,0,0,.06.64,3.41,3.41,0,0,0,.13.59,1.42,1.42,0,0,0,.27.5H48.59a.75.75,0,0,1-.16-.36,2.59,2.59,0,0,1,0-.51q0-.29,0-.6a4.48,4.48,0,0,0-.07-.64,4.72,4.72,0,0,0-.12-.59,1.35,1.35,0,0,0-.23-.5,1,1,0,0,0-.41-.33,1.4,1.4,0,0,0-.67-.13H44.07v3.66H42.93V10.22Zm.24,3.89a1.75,1.75,0,0,0,.63-.23,1.3,1.3,0,0,0,.43-.47,1.56,1.56,0,0,0,.16-.76,1.55,1.55,0,0,0-.36-1.06,1.47,1.47,0,0,0-1.16-.41H44.07v3h2.37A4.59,4.59,0,0,0,47.2,14.11Z"/>
      </g>
      <g>
        <path class="b84cc496-8e88-4ff6-96f5-25055d52a28c" d="M24.33,60.38l.21-18.66-7.24-.08.05-4.4a13.51,13.51,0,0,0,2.94-.19,7.58,7.58,0,0,0,2.56-.92,6.23,6.23,0,0,0,1.93-1.76,6.3,6.3,0,0,0,1.06-2.74l4.65.05-.33,28.76Z"/>
        <path class="b84cc496-8e88-4ff6-96f5-25055d52a28c" d="M54.35,41.81a33.72,33.72,0,0,0-3,6.09,41.66,41.66,0,0,0-1.88,6.55,35.05,35.05,0,0,0-.75,6.2l-6.25-.07A39.35,39.35,0,0,1,45.65,48.2a44,44,0,0,1,6.76-10.85L38.77,37.2l.06-5.43L58.47,32l-.06,5A20.56,20.56,0,0,0,54.35,41.81Z"/>
      </g>
    </g>
  </g>
</svg>
