<svg xmlns="http://www.w3.org/2000/svg" viewBox="0 0 73.98 73.98">
  <defs>
    <style>
      .bb125d88-e90d-4ccd-b4fc-997bd431d45c {
        fill: #f36b3f;
        stroke: #f36b3f;
        stroke-miterlimit: 10;
        stroke-width: 0.28px;
      }

      .bdfcba9c-3777-4016-adf2-c9749e80768c {
        fill: #fff;
      }
    </style>
  </defs>
  <g id="b556d192-b1bb-42fd-9463-baf678809317" data-name="Layer 2">
    <g id="a1539152-c913-4c7b-85c8-d060ab27ac69" data-name="Layer 1">
      <rect class="bb125d88-e90d-4ccd-b4fc-997bd431d45c" x="0.14" y="0.14" width="73.7" height="73.7" rx="15.4"/>
      <g>
        <path class="bdfcba9c-3777-4016-adf2-c9749e80768c" d="M32,11.39A2.47,2.47,0,0,0,30.54,11a3.35,3.35,0,0,0-.71.07,2,2,0,0,0-.62.24,1.24,1.24,0,0,0-.43.45,1.37,1.37,0,0,0-.16.7.94.94,0,0,0,.23.65,2,2,0,0,0,.63.4,5.77,5.77,0,0,0,.88.26c.33.06.66.14,1,.22s.67.17,1,.28a3.15,3.15,0,0,1,.88.44,2.09,2.09,0,0,1,.63.69,2.25,2.25,0,0,1,.23,1.06,2.17,2.17,0,0,1-.3,1.17,2.59,2.59,0,0,1-.79.79,3.52,3.52,0,0,1-1.07.45,5.36,5.36,0,0,1-1.19.13,5,5,0,0,1-1.36-.18,3.48,3.48,0,0,1-1.13-.54,2.59,2.59,0,0,1-.76-.94A3,3,0,0,1,27.21,16h1.08a1.94,1.94,0,0,0,.21.93,1.83,1.83,0,0,0,.56.64,2.23,2.23,0,0,0,.79.38,3.73,3.73,0,0,0,.94.12,4,4,0,0,0,.77-.08,2.29,2.29,0,0,0,.71-.24,1.53,1.53,0,0,0,.5-.48,1.36,1.36,0,0,0,.19-.76,1.09,1.09,0,0,0-.23-.72,1.64,1.64,0,0,0-.63-.45,4.78,4.78,0,0,0-.88-.29l-1-.22c-.34-.07-.67-.16-1-.26a3.38,3.38,0,0,1-.88-.4,1.9,1.9,0,0,1-.63-.63,2,2,0,0,1-.23-1,2.32,2.32,0,0,1,.26-1.12,2.29,2.29,0,0,1,.7-.78,3.15,3.15,0,0,1,1-.46,4.61,4.61,0,0,1,2.37,0,2.56,2.56,0,0,1,1,.49,2.31,2.31,0,0,1,.67.84,2.85,2.85,0,0,1,.27,1.22H32.66A1.79,1.79,0,0,0,32,11.39Z"/>
        <path class="bdfcba9c-3777-4016-adf2-c9749e80768c" d="M39.71,18.4a2.84,2.84,0,0,1-1.75.52,3.16,3.16,0,0,1-1.29-.24,2.49,2.49,0,0,1-.92-.67,2.78,2.78,0,0,1-.56-1A4.92,4.92,0,0,1,35,15.67a3.57,3.57,0,0,1,.22-1.29,2.87,2.87,0,0,1,.6-1,2.73,2.73,0,0,1,.93-.68,2.77,2.77,0,0,1,1.16-.24,2.55,2.55,0,0,1,1.38.35,2.5,2.5,0,0,1,.87.87,3.13,3.13,0,0,1,.46,1.15A4.46,4.46,0,0,1,40.7,16H36.06a2.18,2.18,0,0,0,.1.77,1.76,1.76,0,0,0,.34.65,1.68,1.68,0,0,0,.62.45A2.11,2.11,0,0,0,38,18a1.75,1.75,0,0,0,1.06-.3,1.46,1.46,0,0,0,.55-.92h1A2.55,2.55,0,0,1,39.71,18.4Zm-.25-4a1.76,1.76,0,0,0-.37-.56,1.9,1.9,0,0,0-.55-.37,1.78,1.78,0,0,0-.7-.14,1.81,1.81,0,0,0-.72.14,1.6,1.6,0,0,0-.54.38,1.76,1.76,0,0,0-.37.56,2.5,2.5,0,0,0-.15.68h3.56A2,2,0,0,0,39.46,14.41Z"/>
        <path class="bdfcba9c-3777-4016-adf2-c9749e80768c" d="M41.27,12.59h1.3l1.49,2.17,1.55-2.17h1.22L44.7,15.44l2.4,3.35H45.79l-1.73-2.57-1.73,2.57H41.1l2.33-3.26Z"/>
      </g>
      <g>
        <path class="bdfcba9c-3777-4016-adf2-c9749e80768c" d="M24.33,60.38l.21-18.66-7.23-.08,0-4.4a13.51,13.51,0,0,0,2.94-.19,7.58,7.58,0,0,0,2.56-.92,6.23,6.23,0,0,0,1.93-1.76,6.3,6.3,0,0,0,1.06-2.74l4.65.05-.32,28.76Z"/>
        <path class="bdfcba9c-3777-4016-adf2-c9749e80768c" d="M39.81,35.65a7.94,7.94,0,0,1,2.27-2.45,10.13,10.13,0,0,1,3.12-1.44,12.21,12.21,0,0,1,3.49-.45,11.16,11.16,0,0,1,4.52.87,9.47,9.47,0,0,1,2.95,2,7.23,7.23,0,0,1,1.6,2.53,6.93,6.93,0,0,1,.46,2.41,6.57,6.57,0,0,1-1.09,3.73A5.77,5.77,0,0,1,54,45.13v.09a6.51,6.51,0,0,1,4,2.48,7.44,7.44,0,0,1,1.35,4.6,8.19,8.19,0,0,1-1,4A8.33,8.33,0,0,1,55.82,59a11,11,0,0,1-3.47,1.63,13.87,13.87,0,0,1-4,.51,15.51,15.51,0,0,1-4-.56A10.33,10.33,0,0,1,40.89,59a8,8,0,0,1-3.32-6.86A7.35,7.35,0,0,1,39,47.51a6.87,6.87,0,0,1,4-2.42V45a5.34,5.34,0,0,1-3.14-2.21,6.57,6.57,0,0,1-1-3.75A6.65,6.65,0,0,1,39.81,35.65Zm4,18.25a4.88,4.88,0,0,0,1.07,1.55,4.72,4.72,0,0,0,1.61,1,5.75,5.75,0,0,0,2,.38,5.64,5.64,0,0,0,2-.33,5,5,0,0,0,1.57-1A4.25,4.25,0,0,0,53,54a5.09,5.09,0,0,0,.4-2,4.56,4.56,0,0,0-.37-1.87A4.47,4.47,0,0,0,52,48.69a4.68,4.68,0,0,0-1.55-1,5.58,5.58,0,0,0-1.9-.35,5.66,5.66,0,0,0-3.63,1.13,4.08,4.08,0,0,0-1.52,3.38A4.76,4.76,0,0,0,43.8,53.9Zm1.69-11.43a5.06,5.06,0,0,0,3.07,1,4.89,4.89,0,0,0,3.09-.93,3.39,3.39,0,0,0,1.27-2.8,5.9,5.9,0,0,0-.15-1.26,3.52,3.52,0,0,0-1.93-2.34,5,5,0,0,0-2.2-.44A5.48,5.48,0,0,0,47,36a4.44,4.44,0,0,0-1.43.75,3.46,3.46,0,0,0-1,1.22,4,4,0,0,0-.36,1.72A3.26,3.26,0,0,0,45.49,42.47Z"/>
      </g>
    </g>
  </g>
</svg>
