<svg xmlns="http://www.w3.org/2000/svg" viewBox="0 0 73.98 73.98">
  <defs>
    <style>
      .e42a222a-6fc3-488f-987b-7e527ce6cfca {
        fill: #f36b3f;
        stroke: #f36b3f;
        stroke-miterlimit: 10;
        stroke-width: 0.28px;
      }

      .bb595760-1baf-4184-adaa-95826cf67e00 {
        fill: #fff;
      }
    </style>
  </defs>
  <g id="a76660c7-a665-4c65-8980-92da8070dde8" data-name="Layer 2">
    <g id="f23aa67e-db56-4466-88f8-54d57f0490ee" data-name="Layer 1">
      <rect class="e42a222a-6fc3-488f-987b-7e527ce6cfca" x="0.14" y="0.14" width="73.7" height="73.7" rx="15.4"/>
      <g>
        <path class="bb595760-1baf-4184-adaa-95826cf67e00" d="M32.78,10.22v1H28.29v2.73h3.94v1H28.29v3.92H27.15V10.22Z"/>
        <path class="bb595760-1baf-4184-adaa-95826cf67e00" d="M40,10.22v1H35.18v2.73h4.45v1H35.18v3H40v1H34V10.22Z"/>
        <path class="bb595760-1baf-4184-adaa-95826cf67e00" d="M43.44,18.79l-3-8.57h1.23l2.44,7.43h0l2.47-7.43h1.19l-3,8.57Z"/>
      </g>
      <g>
        <path class="bb595760-1baf-4184-adaa-95826cf67e00" d="M24.33,60.38l.21-18.66-7.23-.08,0-4.4a13.51,13.51,0,0,0,2.94-.19,7.58,7.58,0,0,0,2.56-.92,6.23,6.23,0,0,0,1.93-1.76,6.3,6.3,0,0,0,1.06-2.74l4.65.05-.33,28.76Z"/>
        <path class="bb595760-1baf-4184-adaa-95826cf67e00" d="M39.81,35.64a8,8,0,0,1,2.27-2.44,10.13,10.13,0,0,1,3.12-1.44,12.21,12.21,0,0,1,3.49-.45,11.16,11.16,0,0,1,4.52.87,9.47,9.47,0,0,1,2.95,2,7.23,7.23,0,0,1,1.6,2.53,6.93,6.93,0,0,1,.46,2.41,6.57,6.57,0,0,1-1.09,3.73A5.77,5.77,0,0,1,54,45.13v.09a6.51,6.51,0,0,1,4,2.48,7.44,7.44,0,0,1,1.35,4.6,8.19,8.19,0,0,1-1,4A8.33,8.33,0,0,1,55.82,59a11,11,0,0,1-3.47,1.63,13.87,13.87,0,0,1-4,.51,15.51,15.51,0,0,1-4-.56A10.33,10.33,0,0,1,40.89,59a8,8,0,0,1-3.32-6.86A7.35,7.35,0,0,1,39,47.51a6.87,6.87,0,0,1,4-2.42V45a5.34,5.34,0,0,1-3.14-2.21,6.57,6.57,0,0,1-1-3.75A6.72,6.72,0,0,1,39.81,35.64Zm4,18.26a4.88,4.88,0,0,0,1.07,1.55,4.72,4.72,0,0,0,1.61,1,5.75,5.75,0,0,0,2,.38,5.64,5.64,0,0,0,2-.33,5,5,0,0,0,1.57-1A4.25,4.25,0,0,0,53,54a5.09,5.09,0,0,0,.4-2,4.56,4.56,0,0,0-.37-1.87A4.47,4.47,0,0,0,52,48.69a4.68,4.68,0,0,0-1.55-1,5.58,5.58,0,0,0-1.9-.35,5.66,5.66,0,0,0-3.63,1.13,4.08,4.08,0,0,0-1.52,3.38A4.76,4.76,0,0,0,43.8,53.9Zm1.69-11.43a5.06,5.06,0,0,0,3.07,1,4.89,4.89,0,0,0,3.09-.93,3.39,3.39,0,0,0,1.27-2.8,5.83,5.83,0,0,0-.15-1.26,3.56,3.56,0,0,0-.63-1.3,3.62,3.62,0,0,0-1.3-1,5,5,0,0,0-2.2-.44A5.48,5.48,0,0,0,47,36a4.44,4.44,0,0,0-1.43.75,3.46,3.46,0,0,0-1,1.22,4,4,0,0,0-.36,1.72A3.26,3.26,0,0,0,45.49,42.47Z"/>
      </g>
    </g>
  </g>
</svg>
