<svg xmlns="http://www.w3.org/2000/svg" viewBox="0 0 73.98 73.98">
  <defs>
    <style>
      .af59c9f4-c129-4696-a15f-0b108d597d1e {
        fill: #fff;
        stroke: #9b9b9a;
        stroke-miterlimit: 10;
        stroke-width: 0.28px;
      }

      .e9b9e641-51c2-45c6-9e33-0b240e1ce617 {
        fill: #1d1d1b;
      }
    </style>
  </defs>
  <g id="b8b671e7-bb51-4273-940c-cd54d3ff5c95" data-name="Layer 2">
    <g id="a264d5ac-d93a-49cf-93fd-56b976ce1dca" data-name="Layer 1">
      <rect class="af59c9f4-c129-4696-a15f-0b108d597d1e" x="0.14" y="0.14" width="73.7" height="73.7" rx="15.4"/>
      <g>
        <path class="e9b9e641-51c2-45c6-9e33-0b240e1ce617" d="M31.55,11.39A2.47,2.47,0,0,0,30.09,11a3.35,3.35,0,0,0-.71.07,2,2,0,0,0-.62.24,1.24,1.24,0,0,0-.43.45,1.37,1.37,0,0,0-.16.7.94.94,0,0,0,.23.65,2,2,0,0,0,.63.4,5.77,5.77,0,0,0,.88.26c.33.06.66.14,1,.22s.67.17,1,.28a3.15,3.15,0,0,1,.88.44,2.09,2.09,0,0,1,.63.69,2.25,2.25,0,0,1,.23,1.06,2.17,2.17,0,0,1-.3,1.17,2.59,2.59,0,0,1-.79.79,3.52,3.52,0,0,1-1.07.45A5.36,5.36,0,0,1,30.3,19a5,5,0,0,1-1.36-.18,3.48,3.48,0,0,1-1.13-.54,2.59,2.59,0,0,1-.76-.94A3,3,0,0,1,26.76,16h1.08a1.94,1.94,0,0,0,.21.93,1.83,1.83,0,0,0,.56.64,2.23,2.23,0,0,0,.79.38,3.73,3.73,0,0,0,.94.12,4,4,0,0,0,.77-.08,2.29,2.29,0,0,0,.71-.24,1.53,1.53,0,0,0,.5-.48,1.36,1.36,0,0,0,.19-.76,1.09,1.09,0,0,0-.23-.72,1.64,1.64,0,0,0-.63-.45,4.78,4.78,0,0,0-.88-.29l-1-.22c-.34-.07-.67-.16-1-.26a3.38,3.38,0,0,1-.88-.4,1.9,1.9,0,0,1-.63-.63,2,2,0,0,1-.23-1,2.32,2.32,0,0,1,.26-1.12,2.29,2.29,0,0,1,.7-.78,3.15,3.15,0,0,1,1-.46,4.61,4.61,0,0,1,2.37,0,2.56,2.56,0,0,1,1,.49,2.31,2.31,0,0,1,.67.84,2.85,2.85,0,0,1,.27,1.22H32.21A1.79,1.79,0,0,0,31.55,11.39Z"/>
        <path class="e9b9e641-51c2-45c6-9e33-0b240e1ce617" d="M40.36,18.77a1.5,1.5,0,0,1-.73.15A.85.85,0,0,1,39,18.7a1,1,0,0,1-.24-.72,2.49,2.49,0,0,1-1,.72,3.21,3.21,0,0,1-1.21.22,3.5,3.5,0,0,1-.8-.09,2.05,2.05,0,0,1-.65-.3,1.46,1.46,0,0,1-.44-.54,1.74,1.74,0,0,1-.16-.79,1.84,1.84,0,0,1,.18-.87,1.64,1.64,0,0,1,.47-.54,2.18,2.18,0,0,1,.67-.32c.26-.07.51-.13.78-.18s.54-.1.8-.13a4.92,4.92,0,0,0,.66-.12,1,1,0,0,0,.46-.23.55.55,0,0,0,.17-.43,1,1,0,0,0-.13-.54.89.89,0,0,0-.32-.32,1.32,1.32,0,0,0-.45-.14,3.88,3.88,0,0,0-.48,0,2.18,2.18,0,0,0-1.08.25,1,1,0,0,0-.47.93h-1a2,2,0,0,1,.24-1,1.63,1.63,0,0,1,.58-.64,2.18,2.18,0,0,1,.82-.36,4.48,4.48,0,0,1,1-.11,5.69,5.69,0,0,1,.83.06,2.21,2.21,0,0,1,.75.25,1.49,1.49,0,0,1,.54.52,1.6,1.6,0,0,1,.2.87v3.19a2.24,2.24,0,0,0,.05.53c0,.11.12.16.28.16a1.25,1.25,0,0,0,.31,0Zm-1.65-3.18a1.51,1.51,0,0,1-.51.21c-.21,0-.43.08-.65.1l-.69.1a2.9,2.9,0,0,0-.63.17,1.28,1.28,0,0,0-.45.34,1,1,0,0,0-.17.61.82.82,0,0,0,.1.42.88.88,0,0,0,.26.28,1.45,1.45,0,0,0,.38.16,2.32,2.32,0,0,0,.46,0,2.47,2.47,0,0,0,.86-.13,1.78,1.78,0,0,0,.59-.35,1.57,1.57,0,0,0,.34-.45,1.23,1.23,0,0,0,.11-.46Z"/>
        <path class="e9b9e641-51c2-45c6-9e33-0b240e1ce617" d="M42.36,10.22v3.21h0a1.49,1.49,0,0,1,.79-.75,2.91,2.91,0,0,1,1.19-.24,2.71,2.71,0,0,1,1.25.27,2.48,2.48,0,0,1,.89.71,3.1,3.1,0,0,1,.53,1,4.24,4.24,0,0,1,.18,1.25A4.29,4.29,0,0,1,47.05,17a2.91,2.91,0,0,1-.53,1,2.45,2.45,0,0,1-.89.69,2.83,2.83,0,0,1-1.24.25,3.25,3.25,0,0,1-.51,0,3.92,3.92,0,0,1-.56-.16,2.44,2.44,0,0,1-.52-.29,1.7,1.7,0,0,1-.41-.47h0v.83h-1V10.22ZM46,14.79a2.3,2.3,0,0,0-.35-.74,1.57,1.57,0,0,0-.6-.51,1.79,1.79,0,0,0-.86-.2,1.7,1.7,0,0,0-.87.21,1.67,1.67,0,0,0-.59.53,2.32,2.32,0,0,0-.33.75,3.53,3.53,0,0,0-.1.85,3.29,3.29,0,0,0,.11.89,2.14,2.14,0,0,0,.34.75,1.78,1.78,0,0,0,.6.52,1.93,1.93,0,0,0,.9.2,1.72,1.72,0,0,0,.89-.21,1.63,1.63,0,0,0,.57-.54,2.54,2.54,0,0,0,.31-.77,4.24,4.24,0,0,0,.09-.88A3.05,3.05,0,0,0,46,14.79Z"/>
      </g>
      <g>
        <path class="e9b9e641-51c2-45c6-9e33-0b240e1ce617" d="M24.33,60.38l.21-18.66-7.24-.08.05-4.4a13.64,13.64,0,0,0,2.95-.19,7.61,7.61,0,0,0,2.55-.92,6.12,6.12,0,0,0,1.93-1.76,6.3,6.3,0,0,0,1.06-2.74l4.65.05-.32,28.76Z"/>
        <path class="e9b9e641-51c2-45c6-9e33-0b240e1ce617" d="M45.18,55.72a3.37,3.37,0,0,0,2.53,1.1,3.78,3.78,0,0,0,2.64-.9A6.85,6.85,0,0,0,52,53.68a11.74,11.74,0,0,0,.92-2.85c.19-1,.31-1.91.38-2.71L53.24,48a7,7,0,0,1-2.83,2.44,8.67,8.67,0,0,1-3.7.69,8.55,8.55,0,0,1-3.61-.84,9.11,9.11,0,0,1-3-2.19,8.47,8.47,0,0,1-1.65-3A11,11,0,0,1,38,41.71a11.56,11.56,0,0,1,.76-4.12,10,10,0,0,1,2.09-3.31A9.76,9.76,0,0,1,44,32.08a9.9,9.9,0,0,1,4.12-.78,10.26,10.26,0,0,1,5.39,1.35A10,10,0,0,1,56.9,36.1a14.21,14.21,0,0,1,1.72,4.81,29.55,29.55,0,0,1,.43,5.39,23.67,23.67,0,0,1-.68,5.33,15.55,15.55,0,0,1-2,4.81,10.8,10.8,0,0,1-3.54,3.45,9.6,9.6,0,0,1-5.23,1.28,11.33,11.33,0,0,1-3.45-.55,8.21,8.21,0,0,1-4.8-4.1,10,10,0,0,1-1-3.38l5.55.06A4.92,4.92,0,0,0,45.18,55.72Zm5-9.34a4.09,4.09,0,0,0,1.45-1.15,5.1,5.1,0,0,0,.89-1.7,7.43,7.43,0,0,0,.31-2,6.54,6.54,0,0,0-.29-2,5.31,5.31,0,0,0-.89-1.74,4.49,4.49,0,0,0-1.44-1.23,4.31,4.31,0,0,0-2-.47,3.8,3.8,0,0,0-1.85.43A4.58,4.58,0,0,0,45,37.72a5,5,0,0,0-.88,1.67,6.34,6.34,0,0,0-.31,1.93,7.41,7.41,0,0,0,.24,2,5.56,5.56,0,0,0,.78,1.73,4.12,4.12,0,0,0,1.37,1.25,3.8,3.8,0,0,0,1.94.49A4.41,4.41,0,0,0,50.21,46.38Z"/>
      </g>
    </g>
  </g>
</svg>
