<svg xmlns="http://www.w3.org/2000/svg" viewBox="0 0 159.98 73.98">
  <defs>
    <style>
      .fe56b33c-6997-41f2-830c-147966a12cc0 {
        fill: #f36b3f;
        stroke: #f36b3f;
        stroke-miterlimit: 10;
        stroke-width: 0.28px;
      }

      .e4367064-2a67-4cfd-bd96-b0e8e8a7636a {
        fill: #fff;
      }
    </style>
  </defs>
  <g id="a8a03776-95d0-4fc2-800b-3db01cbaa977" data-name="Layer 2">
    <g id="bb8cf02b-50d8-4043-b401-d25f3c8a3212" data-name="Layer 1">
      <rect class="fe56b33c-6997-41f2-830c-147966a12cc0" x="0.14" y="0.14" width="159.7" height="73.7" rx="15.4"/>
      <g>
        <path class="e4367064-2a67-4cfd-bd96-b0e8e8a7636a" d="M26.28,10.22l2.7,7.2,2.72-7.2h1.56v8.57H32.18V11.66h0l-2.67,7.13h-1l-2.68-7.13h0v7.13H24.73V10.22Z"/>
        <path class="e4367064-2a67-4cfd-bd96-b0e8e8a7636a" d="M38.74,10.22l3.35,8.57H40.83l-.94-2.58H36.27l-1,2.58H34.14l3.34-8.57Zm.79,5-1.43-4h0l-1.45,4Z"/>
        <path class="e4367064-2a67-4cfd-bd96-b0e8e8a7636a" d="M47,10.22a2.8,2.8,0,0,1,1.91.6,2.07,2.07,0,0,1,.69,1.65,2.59,2.59,0,0,1-.35,1.37,1.79,1.79,0,0,1-1.13.8v0a1.57,1.57,0,0,1,.6.24,1.3,1.3,0,0,1,.37.41,1.72,1.72,0,0,1,.21.52,5.36,5.36,0,0,1,.1.6c0,.21,0,.42,0,.63a3.39,3.39,0,0,0,.06.64,3.41,3.41,0,0,0,.13.59,1.42,1.42,0,0,0,.27.5H48.59a.75.75,0,0,1-.16-.36,2.59,2.59,0,0,1,0-.51q0-.29,0-.6a4.48,4.48,0,0,0-.07-.64,4.72,4.72,0,0,0-.12-.59,1.35,1.35,0,0,0-.23-.5,1,1,0,0,0-.41-.33,1.4,1.4,0,0,0-.67-.13H44.07v3.66H42.93V10.22Zm.24,3.89a1.75,1.75,0,0,0,.63-.23,1.3,1.3,0,0,0,.43-.47,1.56,1.56,0,0,0,.16-.76,1.55,1.55,0,0,0-.36-1.06,1.47,1.47,0,0,0-1.16-.41H44.07v3h2.37A4.59,4.59,0,0,0,47.2,14.11Z"/>
      </g>
      <g>
        <path class="e4367064-2a67-4cfd-bd96-b0e8e8a7636a" d="M24.33,60.38l.21-18.66-7.23-.08,0-4.4a13.51,13.51,0,0,0,2.94-.19,7.58,7.58,0,0,0,2.56-.92,6.23,6.23,0,0,0,1.93-1.76,6.3,6.3,0,0,0,1.06-2.74l4.65.05-.33,28.76Z"/>
        <path class="e4367064-2a67-4cfd-bd96-b0e8e8a7636a" d="M45.18,55.72a3.37,3.37,0,0,0,2.53,1.1,3.78,3.78,0,0,0,2.64-.9A6.85,6.85,0,0,0,52,53.68a11.6,11.6,0,0,0,.92-2.85c.18-1,.31-1.91.38-2.71L53.23,48a6.91,6.91,0,0,1-2.82,2.44,8.67,8.67,0,0,1-3.7.69,8.55,8.55,0,0,1-3.61-.84,9,9,0,0,1-3-2.19,8.47,8.47,0,0,1-1.65-3A11,11,0,0,1,38,41.71a11.56,11.56,0,0,1,.76-4.12,9.87,9.87,0,0,1,2.09-3.31A9.76,9.76,0,0,1,44,32.08a9.87,9.87,0,0,1,4.12-.78,10.26,10.26,0,0,1,5.39,1.35A10,10,0,0,1,56.9,36.1a14.21,14.21,0,0,1,1.72,4.81,29.55,29.55,0,0,1,.43,5.39,23.67,23.67,0,0,1-.68,5.33,15.55,15.55,0,0,1-2,4.81,10.8,10.8,0,0,1-3.54,3.45,9.52,9.52,0,0,1-5.23,1.28,11.22,11.22,0,0,1-3.44-.55,8.19,8.19,0,0,1-4.81-4.1,9.88,9.88,0,0,1-1-3.38l5.55.06A4.92,4.92,0,0,0,45.18,55.72Zm5-9.33a4.23,4.23,0,0,0,1.45-1.16,4.91,4.91,0,0,0,.88-1.7,6.74,6.74,0,0,0,.31-2,6.26,6.26,0,0,0-.28-2,5.31,5.31,0,0,0-.89-1.74,4.49,4.49,0,0,0-1.44-1.23,4.31,4.31,0,0,0-2-.47,3.8,3.8,0,0,0-1.85.43A4.58,4.58,0,0,0,45,37.72a5,5,0,0,0-.88,1.67,6.34,6.34,0,0,0-.31,1.93,7.41,7.41,0,0,0,.24,2,5.56,5.56,0,0,0,.78,1.73,4.12,4.12,0,0,0,1.37,1.25,3.8,3.8,0,0,0,1.94.49A4.54,4.54,0,0,0,50.21,46.39Z"/>
      </g>
      <g>
        <path class="e4367064-2a67-4cfd-bd96-b0e8e8a7636a" d="M111.38,10.22l2.7,7.2,2.71-7.2h1.56v8.57h-1.08V11.66h0l-2.68,7.13h-1l-2.68-7.13h0v7.13h-1.08V10.22Z"/>
        <path class="e4367064-2a67-4cfd-bd96-b0e8e8a7636a" d="M123.83,10.22l3.35,8.57h-1.26L125,16.21h-3.63l-1,2.58h-1.16l3.33-8.57Zm.8,5-1.43-4h0l-1.45,4Z"/>
        <path class="e4367064-2a67-4cfd-bd96-b0e8e8a7636a" d="M132.05,10.22a2.83,2.83,0,0,1,1.92.6,2.07,2.07,0,0,1,.69,1.65,2.59,2.59,0,0,1-.36,1.37,1.79,1.79,0,0,1-1.13.8v0a1.62,1.62,0,0,1,.61.24,1.44,1.44,0,0,1,.37.41,1.71,1.71,0,0,1,.2.52,5.36,5.36,0,0,1,.1.6c0,.21,0,.42,0,.63s0,.43.06.64a3.4,3.4,0,0,0,.14.59,1.42,1.42,0,0,0,.27.5h-1.27a.67.67,0,0,1-.17-.36c0-.15,0-.32-.05-.51s0-.39,0-.6a4.48,4.48,0,0,0-.08-.64,4.72,4.72,0,0,0-.12-.59,1.34,1.34,0,0,0-.22-.5,1.11,1.11,0,0,0-.41-.33,1.43,1.43,0,0,0-.67-.13h-2.79v3.66H128V10.22Zm.24,3.89a1.75,1.75,0,0,0,.63-.23,1.22,1.22,0,0,0,.43-.47,1.76,1.76,0,0,0-.19-1.82,1.5,1.5,0,0,0-1.17-.41h-2.83v3h2.38A4.56,4.56,0,0,0,132.29,14.11Z"/>
      </g>
      <path class="e4367064-2a67-4cfd-bd96-b0e8e8a7636a" d="M81.1,40.17l3.35,8.57H83.19l-.94-2.58H78.63l-1,2.58H76.51l3.33-8.57Zm.79,5-1.42-4h0L79,45.2Z"/>
      <g>
        <path class="e4367064-2a67-4cfd-bd96-b0e8e8a7636a" d="M101.49,38a10.73,10.73,0,0,1,2-3.67,8.8,8.8,0,0,1,3.33-2.43,12.09,12.09,0,0,1,8.35-.17,9.45,9.45,0,0,1,3.12,1.8,8.38,8.38,0,0,1,2.13,2.86,8.8,8.8,0,0,1,.76,3.79,9.31,9.31,0,0,1-.74,3.73,10.09,10.09,0,0,1-1.88,2.75,16.07,16.07,0,0,1-2.64,2.17c-1,.65-2,1.29-3,1.92s-2,1.31-2.9,2a12.87,12.87,0,0,0-2.49,2.56l13.6.15-.06,5L100,60.27a12.12,12.12,0,0,1,.77-4.35,11.61,11.61,0,0,1,2-3.28A17.11,17.11,0,0,1,105.7,50q1.67-1.21,3.54-2.47c.63-.43,1.31-.87,2-1.31a13.24,13.24,0,0,0,2-1.48,7.71,7.71,0,0,0,1.5-1.83,4.55,4.55,0,0,0,.63-2.34,4.36,4.36,0,0,0-1.18-3.28,4.26,4.26,0,0,0-3.09-1.2,3.75,3.75,0,0,0-2.16.57,4.35,4.35,0,0,0-1.44,1.54,7.31,7.31,0,0,0-.78,2.13,11.52,11.52,0,0,0-.25,2.32l-5.59-.06A13.88,13.88,0,0,1,101.49,38Z"/>
        <path class="e4367064-2a67-4cfd-bd96-b0e8e8a7636a" d="M132.27,60.63,132.48,42l-7.23-.08,0-4.4a14.31,14.31,0,0,0,3-.19,7.75,7.75,0,0,0,2.55-.92,6,6,0,0,0,1.93-1.77,6.32,6.32,0,0,0,1.06-2.74l4.65.05L138.1,60.7Z"/>
      </g>
    </g>
  </g>
</svg>
