<svg xmlns="http://www.w3.org/2000/svg" viewBox="0 0 73.98 73.98">
  <defs>
    <style>
      .aceb2269-4b23-4cc5-906f-281eef44a33d {
        fill: #fff;
        stroke: #9b9b9a;
        stroke-miterlimit: 10;
        stroke-width: 0.28px;
      }

      .b5191ec0-c658-44d3-a162-9411e258aec1 {
        fill: #1d1d1b;
      }
    </style>
  </defs>
  <g id="bdad3853-ff6e-4577-9b9c-afbec9871a8f" data-name="Layer 2">
    <g id="a571d33a-2afb-4832-88c4-bd403803724b" data-name="Layer 1">
      <rect class="aceb2269-4b23-4cc5-906f-281eef44a33d" x="0.14" y="0.14" width="73.7" height="73.7" rx="15.4"/>
      <g>
        <path class="b5191ec0-c658-44d3-a162-9411e258aec1" d="M28.08,10.22a4.3,4.3,0,0,1,3.05,1,4,4,0,0,1,1.06,3.07A7,7,0,0,1,32,16.22a3.54,3.54,0,0,1-.74,1.4,3.24,3.24,0,0,1-1.28.87,5.16,5.16,0,0,1-1.85.3H25.14V10.22Zm.09,7.61.48,0a3,3,0,0,0,.62-.14,3.25,3.25,0,0,0,.64-.33,2.3,2.3,0,0,0,.57-.59,3.34,3.34,0,0,0,.41-.93,4.8,4.8,0,0,0,.16-1.35,5.69,5.69,0,0,0-.15-1.37,2.64,2.64,0,0,0-.49-1,2.12,2.12,0,0,0-.88-.64,3.45,3.45,0,0,0-1.33-.23H26.28v6.65Z"/>
        <path class="b5191ec0-c658-44d3-a162-9411e258aec1" d="M33.27,14.42a2.82,2.82,0,0,1,.58-1,2.53,2.53,0,0,1,.95-.69,3.09,3.09,0,0,1,1.29-.26,3.16,3.16,0,0,1,1.31.26,2.58,2.58,0,0,1,.94.69,2.8,2.8,0,0,1,.57,1,4.16,4.16,0,0,1,0,2.55,2.83,2.83,0,0,1-.57,1,2.7,2.7,0,0,1-.94.69,3.33,3.33,0,0,1-1.31.24,3.26,3.26,0,0,1-1.29-.24,2.65,2.65,0,0,1-.95-.69,2.86,2.86,0,0,1-.58-1,4.37,4.37,0,0,1,0-2.55Zm1,2.28a2.09,2.09,0,0,0,.42.73,1.67,1.67,0,0,0,.61.45,1.94,1.94,0,0,0,.75.16,1.87,1.87,0,0,0,.75-.16,1.63,1.63,0,0,0,.62-.45,2.09,2.09,0,0,0,.42-.73,3.09,3.09,0,0,0,.15-1,3.15,3.15,0,0,0-.15-1,2.09,2.09,0,0,0-.42-.73,1.65,1.65,0,0,0-.62-.46,1.87,1.87,0,0,0-.75-.16,1.94,1.94,0,0,0-.75.16,1.7,1.7,0,0,0-.61.46,2.09,2.09,0,0,0-.42.73,3.15,3.15,0,0,0-.15,1A3.09,3.09,0,0,0,34.31,16.7Z"/>
        <path class="b5191ec0-c658-44d3-a162-9411e258aec1" d="M41.27,12.59v.91h0a2.42,2.42,0,0,1,3.05-.82,1.38,1.38,0,0,1,.66.82,2.12,2.12,0,0,1,.82-.78,2.35,2.35,0,0,1,1.12-.28,3.18,3.18,0,0,1,.85.11,1.71,1.71,0,0,1,.65.31,1.48,1.48,0,0,1,.42.56,2,2,0,0,1,.15.82v4.55H48V14.72a3.1,3.1,0,0,0-.05-.54,1,1,0,0,0-.18-.43.85.85,0,0,0-.37-.3,1.46,1.46,0,0,0-.6-.11,1.6,1.6,0,0,0-1.19.44,1.53,1.53,0,0,0-.43,1.15v3.86h-1V14.72a2.38,2.38,0,0,0-.06-.55,1.24,1.24,0,0,0-.18-.44.84.84,0,0,0-.36-.28,1.35,1.35,0,0,0-.57-.11,1.53,1.53,0,0,0-.76.18,1.87,1.87,0,0,0-.52.44,1.65,1.65,0,0,0-.28.52,1.48,1.48,0,0,0-.09.45v3.86h-1v-6.2Z"/>
      </g>
      <g>
        <path class="b5191ec0-c658-44d3-a162-9411e258aec1" d="M16.4,38a10.71,10.71,0,0,1,2-3.67,8.83,8.83,0,0,1,3.34-2.43,11.12,11.12,0,0,1,4.59-.83,11.12,11.12,0,0,1,3.75.66,9.6,9.6,0,0,1,3.13,1.8,8.35,8.35,0,0,1,2.12,2.86,8.51,8.51,0,0,1,.76,3.79,9,9,0,0,1-.74,3.73,9.87,9.87,0,0,1-1.88,2.75,15.58,15.58,0,0,1-2.63,2.17c-1,.65-2,1.29-3,1.92s-2,1.31-2.9,2a13.2,13.2,0,0,0-2.5,2.56l13.61.15-.06,5-21.12-.24a11.9,11.9,0,0,1,.77-4.35,11.58,11.58,0,0,1,2-3.28A17.49,17.49,0,0,1,20.6,50q1.68-1.21,3.54-2.47c.64-.43,1.32-.87,2-1.31a12.83,12.83,0,0,0,2-1.48,7.71,7.71,0,0,0,1.5-1.83,4.54,4.54,0,0,0,.62-2.34,4.32,4.32,0,0,0-1.17-3.28A4.26,4.26,0,0,0,26,36.07a3.8,3.8,0,0,0-2.17.57,4.41,4.41,0,0,0-1.43,1.54,7.32,7.32,0,0,0-.79,2.13,13.17,13.17,0,0,0-.25,2.32l-5.59-.06A14.14,14.14,0,0,1,16.4,38Z"/>
        <path class="b5191ec0-c658-44d3-a162-9411e258aec1" d="M38.85,39a12.68,12.68,0,0,1,2.33-4.56A8.19,8.19,0,0,1,44.56,32a11.61,11.61,0,0,1,8.13.09A8.37,8.37,0,0,1,56,34.59a12.57,12.57,0,0,1,2.25,4.61,25.32,25.32,0,0,1,.76,7.06,26.28,26.28,0,0,1-.92,7.2,12.58,12.58,0,0,1-2.36,4.6,8.28,8.28,0,0,1-3.39,2.43,11.56,11.56,0,0,1-8.14-.1,8.06,8.06,0,0,1-3.32-2.5,12.6,12.6,0,0,1-2.23-4.65A26.32,26.32,0,0,1,37.93,46,25.24,25.24,0,0,1,38.85,39Zm5,10.08a15.56,15.56,0,0,0,.48,3.37,7.11,7.11,0,0,0,1.34,2.79,3.31,3.31,0,0,0,2.7,1.18,3.4,3.4,0,0,0,2.79-1.12,7.11,7.11,0,0,0,1.43-2.76,16,16,0,0,0,.55-3.36c.07-1.16.11-2.16.12-3,0-.49,0-1.09,0-1.78a17.92,17.92,0,0,0-.14-2.16A18.56,18.56,0,0,0,52.69,40a6.81,6.81,0,0,0-.78-2,4.41,4.41,0,0,0-1.34-1.41,3.68,3.68,0,0,0-2-.56,3.53,3.53,0,0,0-2,.52A4.28,4.28,0,0,0,45.23,38,7.55,7.55,0,0,0,44.41,40a15,15,0,0,0-.44,2.2c-.09.73-.14,1.45-.17,2.15s0,1.29,0,1.79C43.75,46.91,43.77,47.9,43.81,49.07Z"/>
      </g>
    </g>
  </g>
</svg>
