<svg xmlns="http://www.w3.org/2000/svg" viewBox="0 0 159.98 73.98">
  <defs>
    <style>
      .b20a396a-6ae7-420a-abd3-fc1f345b78f4 {
        fill: #f36b3f;
        stroke: #f36b3f;
        stroke-miterlimit: 10;
        stroke-width: 0.28px;
      }

      .efad8bff-721d-46bd-84ba-bb42637f3279 {
        fill: #fff;
      }
    </style>
  </defs>
  <g id="faab5baf-9438-487e-8623-46a7758d9bdd" data-name="Layer 2">
    <g id="bf395f5c-0fe1-472c-8681-87fbd51d88a2" data-name="Layer 1">
      <rect class="b20a396a-6ae7-420a-abd3-fc1f345b78f4" x="0.14" y="0.14" width="159.7" height="73.7" rx="15.4"/>
      <g>
        <path class="efad8bff-721d-46bd-84ba-bb42637f3279" d="M30.82,17.51a1.86,1.86,0,0,1-.42.75,2.24,2.24,0,0,1-.78.53,3.27,3.27,0,0,1-1.21.19,2.52,2.52,0,0,1-1.84-.63,2.46,2.46,0,0,1-.65-1.85V16h1.14v.36a3.69,3.69,0,0,0,.06.69,1.6,1.6,0,0,0,.21.54,1,1,0,0,0,.42.35,1.7,1.7,0,0,0,.69.13,1.21,1.21,0,0,0,1.07-.42,1.91,1.91,0,0,0,.3-1.13V10.22H31v6.44A3.13,3.13,0,0,1,30.82,17.51Z"/>
        <path class="efad8bff-721d-46bd-84ba-bb42637f3279" d="M36.41,10.22l3.34,8.57H38.49l-.93-2.58H33.93l-1,2.58H31.81l3.34-8.57Zm.79,5-1.43-4h0l-1.46,4Z"/>
        <path class="efad8bff-721d-46bd-84ba-bb42637f3279" d="M41.79,10.22l4.52,7h0v-7h1.08v8.57H46.16l-4.47-6.87h0v6.87H40.58V10.22Z"/>
      </g>
      <g>
        <path class="efad8bff-721d-46bd-84ba-bb42637f3279" d="M16.4,38a10.54,10.54,0,0,1,2-3.67,8.83,8.83,0,0,1,3.34-2.43,11.09,11.09,0,0,1,4.59-.83,11.22,11.22,0,0,1,3.76.66,9.66,9.66,0,0,1,3.12,1.8,8.35,8.35,0,0,1,2.12,2.86,8.65,8.65,0,0,1,.76,3.79,9,9,0,0,1-.74,3.73,9.87,9.87,0,0,1-1.88,2.75,15.58,15.58,0,0,1-2.63,2.17c-1,.65-2,1.29-3,1.92s-2,1.31-2.9,2a13.2,13.2,0,0,0-2.5,2.56l13.61.15-.06,5-21.12-.24a11.9,11.9,0,0,1,.77-4.35,11.38,11.38,0,0,1,2-3.28A17,17,0,0,1,20.6,50q1.68-1.21,3.54-2.47c.64-.43,1.31-.87,2-1.31a12.83,12.83,0,0,0,2-1.48,7.71,7.71,0,0,0,1.5-1.83,4.54,4.54,0,0,0,.62-2.34,4.32,4.32,0,0,0-1.17-3.28A4.26,4.26,0,0,0,26,36.07a3.8,3.8,0,0,0-2.17.57,4.41,4.41,0,0,0-1.43,1.54,7,7,0,0,0-.79,2.13,12.28,12.28,0,0,0-.25,2.32l-5.59-.06A14.14,14.14,0,0,1,16.4,38Z"/>
        <path class="efad8bff-721d-46bd-84ba-bb42637f3279" d="M38.85,39a12.71,12.71,0,0,1,2.33-4.55A8.19,8.19,0,0,1,44.56,32a11.61,11.61,0,0,1,8.13.09A8.37,8.37,0,0,1,56,34.59a12.72,12.72,0,0,1,2.24,4.61,24.92,24.92,0,0,1,.77,7.06,26.28,26.28,0,0,1-.92,7.2,12.5,12.5,0,0,1-2.36,4.6,8.28,8.28,0,0,1-3.39,2.43,11.15,11.15,0,0,1-4.1.69,11.34,11.34,0,0,1-4-.78,8.18,8.18,0,0,1-3.32-2.51,12.6,12.6,0,0,1-2.23-4.65A26.27,26.27,0,0,1,37.93,46,25.37,25.37,0,0,1,38.85,39Zm5,10.09a15.56,15.56,0,0,0,.48,3.37,7.11,7.11,0,0,0,1.34,2.79,3.29,3.29,0,0,0,2.7,1.18,3.4,3.4,0,0,0,2.79-1.12,7.11,7.11,0,0,0,1.43-2.76,16,16,0,0,0,.55-3.36c.07-1.16.1-2.16.11-3,0-.49,0-1.09,0-1.78a17.92,17.92,0,0,0-.14-2.16A20.83,20.83,0,0,0,52.69,40a6.81,6.81,0,0,0-.78-2,4.41,4.41,0,0,0-1.34-1.41,3.68,3.68,0,0,0-2-.56,3.53,3.53,0,0,0-2,.52A4.28,4.28,0,0,0,45.23,38,7.55,7.55,0,0,0,44.41,40a15,15,0,0,0-.44,2.2c-.09.73-.14,1.45-.17,2.15s0,1.3,0,1.79C43.75,46.91,43.77,47.9,43.81,49.07Z"/>
      </g>
      <g>
        <path class="efad8bff-721d-46bd-84ba-bb42637f3279" d="M117.87,10.22v1h-4.49v2.73h3.94v1h-3.94v3.92h-1.14V10.22Z"/>
        <path class="efad8bff-721d-46bd-84ba-bb42637f3279" d="M125.05,10.22v1h-4.78v2.73h4.45v1h-4.45v3h4.81v1h-6V10.22Z"/>
        <path class="efad8bff-721d-46bd-84ba-bb42637f3279" d="M128.54,18.79l-3-8.57h1.22l2.45,7.43h0l2.47-7.43h1.19l-3,8.57Z"/>
      </g>
      <path class="efad8bff-721d-46bd-84ba-bb42637f3279" d="M81.1,40.17l3.35,8.57H83.19l-.94-2.58H78.63l-1,2.58H76.51l3.33-8.57Zm.79,5-1.42-4h0L79,45.2Z"/>
      <g>
        <path class="efad8bff-721d-46bd-84ba-bb42637f3279" d="M109.42,60.38l.21-18.66-7.23-.08,0-4.4a13.59,13.59,0,0,0,2.94-.19,7.58,7.58,0,0,0,2.56-.92,6.34,6.34,0,0,0,1.93-1.76,6.42,6.42,0,0,0,1.06-2.74l4.64.05-.32,28.76Z"/>
        <path class="efad8bff-721d-46bd-84ba-bb42637f3279" d="M130.94,36.66l-1.23,6.52.08.08a7.32,7.32,0,0,1,2.57-1.67,8.36,8.36,0,0,1,3.09-.48,8.67,8.67,0,0,1,3.77.82A8.18,8.18,0,0,1,142,44.06a9,9,0,0,1,1.69,3.12,11.85,11.85,0,0,1,.55,3.8,9.86,9.86,0,0,1-.91,4.13A10.63,10.63,0,0,1,141,58.39a10.41,10.41,0,0,1-3.42,2.12,10.68,10.68,0,0,1-4.12.67,14.28,14.28,0,0,1-4-.6A9.91,9.91,0,0,1,126,58.84,8.55,8.55,0,0,1,123.71,56a8.89,8.89,0,0,1-.88-4l5.84.06a4.75,4.75,0,0,0,1.44,3.16,4.59,4.59,0,0,0,3.23,1.21,4.44,4.44,0,0,0,2.08-.45A5,5,0,0,0,137,54.75,5.55,5.55,0,0,0,138,53a6.36,6.36,0,0,0,.37-2.07,6.59,6.59,0,0,0-.31-2.1,4.8,4.8,0,0,0-1-1.74,4.51,4.51,0,0,0-1.54-1.16,5.06,5.06,0,0,0-2.09-.44,5.23,5.23,0,0,0-2.56.53A6,6,0,0,0,129,47.73l-5.26-.06,3-15.87,16.06.18-.05,4.81Z"/>
      </g>
    </g>
  </g>
</svg>
