<svg xmlns="http://www.w3.org/2000/svg" viewBox="0 0 73.98 73.98">
  <defs>
    <style>
      .e6428f66-ab20-46fb-a623-0cd28d585f2a {
        fill: #fff;
        stroke: #9b9b9a;
        stroke-miterlimit: 10;
        stroke-width: 0.28px;
      }

      .a98e555a-6a23-4345-ad3f-fbf0221ffdbf {
        fill: #1d1d1b;
      }
    </style>
  </defs>
  <g id="a3dc3299-fbba-4358-b39f-398551bf4d21" data-name="Layer 2">
    <g id="ec0eeb75-d0cf-4ef9-931f-5a5d9dc2ea3d" data-name="Layer 1">
      <rect class="e6428f66-ab20-46fb-a623-0cd28d585f2a" x="0.14" y="0.14" width="73.7" height="73.7" rx="15.4"/>
      <g>
        <path class="a98e555a-6a23-4345-ad3f-fbf0221ffdbf" d="M31.66,11.39A2.45,2.45,0,0,0,30.2,11a3.42,3.42,0,0,0-.71.07,1.94,1.94,0,0,0-.61.24,1.27,1.27,0,0,0-.44.45,1.48,1.48,0,0,0-.16.7.9.9,0,0,0,.24.65,1.8,1.8,0,0,0,.62.4,5.77,5.77,0,0,0,.88.26c.33.06.66.14,1,.22s.68.17,1,.28a3.3,3.3,0,0,1,.88.44,2,2,0,0,1,.62.69,2.13,2.13,0,0,1,.24,1.06,2.08,2.08,0,0,1-.31,1.17,2.56,2.56,0,0,1-.78.79,3.58,3.58,0,0,1-1.08.45,5.33,5.33,0,0,1-1.18.13,5,5,0,0,1-1.36-.18,3.38,3.38,0,0,1-1.13-.54,2.62,2.62,0,0,1-.77-.94A3,3,0,0,1,26.88,16H28a1.94,1.94,0,0,0,.21.93,1.8,1.8,0,0,0,.55.64,2.37,2.37,0,0,0,.8.38,3.65,3.65,0,0,0,.93.12,4.13,4.13,0,0,0,.78-.08,2.23,2.23,0,0,0,.7-.24,1.37,1.37,0,0,0,.7-1.24,1,1,0,0,0-.24-.72,1.53,1.53,0,0,0-.62-.45,4.78,4.78,0,0,0-.88-.29l-1-.22c-.34-.07-.68-.16-1-.26a3.38,3.38,0,0,1-.88-.4,1.78,1.78,0,0,1-.62-.63,1.85,1.85,0,0,1-.24-1,2.25,2.25,0,0,1,1-1.9,3,3,0,0,1,1-.46A4.48,4.48,0,0,1,30.25,10a4.29,4.29,0,0,1,1.22.16,2.67,2.67,0,0,1,1,.49,2.42,2.42,0,0,1,.67.84,3.18,3.18,0,0,1,.27,1.22H32.33A1.83,1.83,0,0,0,31.66,11.39Z"/>
        <path class="a98e555a-6a23-4345-ad3f-fbf0221ffdbf" d="M39.37,18.4a2.82,2.82,0,0,1-1.75.52,3.16,3.16,0,0,1-1.29-.24,2.57,2.57,0,0,1-.92-.67,2.93,2.93,0,0,1-.56-1,5.36,5.36,0,0,1-.21-1.31,3.79,3.79,0,0,1,.22-1.29,2.89,2.89,0,0,1,.61-1,2.6,2.6,0,0,1,.92-.68,2.85,2.85,0,0,1,1.17-.24,2.53,2.53,0,0,1,2.25,1.22,3.29,3.29,0,0,1,.45,1.15A4.93,4.93,0,0,1,40.37,16H35.72a2.76,2.76,0,0,0,.1.77,1.78,1.78,0,0,0,.35.65,1.65,1.65,0,0,0,.61.45,2.16,2.16,0,0,0,.88.17,1.77,1.77,0,0,0,1.06-.3,1.45,1.45,0,0,0,.54-.92h1A2.46,2.46,0,0,1,39.37,18.4Zm-.24-4a2,2,0,0,0-.38-.56,1.77,1.77,0,0,0-.55-.37,1.75,1.75,0,0,0-.7-.14,1.8,1.8,0,0,0-.71.14,1.55,1.55,0,0,0-.55.38,1.92,1.92,0,0,0-.36.56,2.18,2.18,0,0,0-.16.68h3.57A2.31,2.31,0,0,0,39.13,14.41Z"/>
        <path class="a98e555a-6a23-4345-ad3f-fbf0221ffdbf" d="M46.08,20.54a2.83,2.83,0,0,1-2.19.76,3.9,3.9,0,0,1-.88-.1,2.4,2.4,0,0,1-.81-.31,1.82,1.82,0,0,1-.61-.56,1.55,1.55,0,0,1-.26-.85h1a.67.67,0,0,0,.17.46,1.26,1.26,0,0,0,.4.32,1.91,1.91,0,0,0,.51.17,2.4,2.4,0,0,0,.52.05,1.89,1.89,0,0,0,.86-.17,1.66,1.66,0,0,0,.57-.48,2,2,0,0,0,.33-.74,4,4,0,0,0,.1-.95v-.4h0a1.72,1.72,0,0,1-.8.84,2.44,2.44,0,0,1-1.13.27,2.67,2.67,0,0,1-1.21-.25,2.44,2.44,0,0,1-.87-.68,2.92,2.92,0,0,1-.52-1,4,4,0,0,1-.17-1.21,4.92,4.92,0,0,1,.14-1.13,3.29,3.29,0,0,1,.48-1.06,2.5,2.5,0,0,1,.89-.78A2.81,2.81,0,0,1,44,12.44,2.27,2.27,0,0,1,45,12.7a1.76,1.76,0,0,1,.77.78h0v-.89h1v5.67A3.27,3.27,0,0,1,46.08,20.54Zm-1.3-2.79a1.76,1.76,0,0,0,.57-.55,2.39,2.39,0,0,0,.31-.77,3.7,3.7,0,0,0,.11-.87,3.58,3.58,0,0,0-.1-.8,2.16,2.16,0,0,0-.31-.71,1.46,1.46,0,0,0-.54-.51,1.63,1.63,0,0,0-.82-.2,1.8,1.8,0,0,0-.84.19,1.61,1.61,0,0,0-.57.5,2.14,2.14,0,0,0-.32.72,3.36,3.36,0,0,0-.1.85,4,4,0,0,0,.08.84,2.4,2.4,0,0,0,.29.76,1.5,1.5,0,0,0,.54.55,1.54,1.54,0,0,0,.84.21A1.69,1.69,0,0,0,44.78,17.75Z"/>
      </g>
      <g>
        <path class="a98e555a-6a23-4345-ad3f-fbf0221ffdbf" d="M16.4,38a10.71,10.71,0,0,1,2-3.67,8.83,8.83,0,0,1,3.34-2.43,11.09,11.09,0,0,1,4.59-.83,11.12,11.12,0,0,1,3.75.66,9.6,9.6,0,0,1,3.13,1.8,8.35,8.35,0,0,1,2.12,2.86,8.51,8.51,0,0,1,.76,3.79,9,9,0,0,1-.74,3.73,9.87,9.87,0,0,1-1.88,2.75,15.58,15.58,0,0,1-2.63,2.17c-1,.65-2,1.29-3,1.92s-2,1.31-2.9,2a13.2,13.2,0,0,0-2.5,2.56l13.61.15-.06,5-21.12-.24a11.9,11.9,0,0,1,.77-4.35,11.38,11.38,0,0,1,2-3.28A17,17,0,0,1,20.6,50q1.68-1.21,3.54-2.47c.64-.43,1.31-.87,2-1.31a12.83,12.83,0,0,0,2-1.48,7.71,7.71,0,0,0,1.5-1.83,4.54,4.54,0,0,0,.62-2.34,4.32,4.32,0,0,0-1.17-3.28A4.26,4.26,0,0,0,26,36.07a3.8,3.8,0,0,0-2.17.57,4.41,4.41,0,0,0-1.43,1.54,7,7,0,0,0-.79,2.13,12.28,12.28,0,0,0-.25,2.32l-5.59-.06A14.14,14.14,0,0,1,16.4,38Z"/>
        <path class="a98e555a-6a23-4345-ad3f-fbf0221ffdbf" d="M48.48,43.51a6.43,6.43,0,0,0,2-.45A3.77,3.77,0,0,0,52,42a3.09,3.09,0,0,0,.62-2,3.43,3.43,0,0,0-1.21-2.85,4.47,4.47,0,0,0-2.82-1,4,4,0,0,0-3.36,1.43,5.54,5.54,0,0,0-1.13,3.66l-5.55-.06a12.25,12.25,0,0,1,.84-4A9.46,9.46,0,0,1,41.45,34a9,9,0,0,1,3.13-2,10.63,10.63,0,0,1,4-.67,11.83,11.83,0,0,1,3.45.55,9.75,9.75,0,0,1,3.08,1.57A8.54,8.54,0,0,1,57.36,36a6.68,6.68,0,0,1,.82,3.43,6.78,6.78,0,0,1-1,3.68,5.07,5.07,0,0,1-3,2.15v.08a6.24,6.24,0,0,1,3.71,2.34,6.74,6.74,0,0,1,1.31,4.25,9,9,0,0,1-.93,4,8.69,8.69,0,0,1-2.4,2.93,10.44,10.44,0,0,1-3.43,1.77,12.88,12.88,0,0,1-4,.57,13.32,13.32,0,0,1-4.41-.75,9.29,9.29,0,0,1-3.37-2.07,9.15,9.15,0,0,1-2.12-3.29,11.71,11.71,0,0,1-.67-4.45l5.55.07a8,8,0,0,0,.35,2.2,5.57,5.57,0,0,0,.92,1.82,4.62,4.62,0,0,0,1.53,1.23,5.05,5.05,0,0,0,2.19.47,4.76,4.76,0,0,0,3.34-1.17,4.91,4.91,0,0,0,.79-5.81,3.71,3.71,0,0,0-1.61-1.27,6.76,6.76,0,0,0-2.15-.48c-.78,0-1.53-.08-2.24-.08l0-4.11A12.27,12.27,0,0,0,48.48,43.51Z"/>
      </g>
    </g>
  </g>
</svg>
