<svg xmlns="http://www.w3.org/2000/svg" viewBox="0 0 73.98 73.98">
  <defs>
    <style>
      .ecf2008e-da87-4fe2-ba7e-87af9ead454d {
        fill: #f36b3f;
        stroke: #f36b3f;
        stroke-miterlimit: 10;
        stroke-width: 0.28px;
      }

      .f6086882-31f4-4419-950e-e73696e35aaf {
        fill: #fff;
      }
    </style>
  </defs>
  <g id="f4aff5ba-aa80-4057-8ca6-39cd143db503" data-name="Layer 2">
    <g id="ba7c2f08-447e-4eb1-802c-f83e7f7663a4" data-name="Layer 1">
      <rect class="ecf2008e-da87-4fe2-ba7e-87af9ead454d" x="0.14" y="0.14" width="73.7" height="73.7" rx="15.4"/>
      <g>
        <path class="f6086882-31f4-4419-950e-e73696e35aaf" d="M29,11.18v-1h6.86v1H33v7.61H31.87V11.18Z"/>
        <path class="f6086882-31f4-4419-950e-e73696e35aaf" d="M39.71,18.4a2.85,2.85,0,0,1-1.76.52,3.23,3.23,0,0,1-1.29-.24,2.45,2.45,0,0,1-.91-.67,2.78,2.78,0,0,1-.56-1A4.55,4.55,0,0,1,35,15.67a3.79,3.79,0,0,1,.21-1.29,3,3,0,0,1,.61-1,2.79,2.79,0,0,1,.92-.68,2.85,2.85,0,0,1,1.17-.24,2.55,2.55,0,0,1,1.38.35,2.59,2.59,0,0,1,.87.87,3.31,3.31,0,0,1,.46,1.15A4.91,4.91,0,0,1,40.7,16H36.06a2.43,2.43,0,0,0,.09.77,2,2,0,0,0,.35.65,1.73,1.73,0,0,0,.61.45A2.16,2.16,0,0,0,38,18a1.75,1.75,0,0,0,1.06-.3,1.46,1.46,0,0,0,.55-.92h1A2.55,2.55,0,0,1,39.71,18.4Zm-.25-4a2,2,0,0,0-.37-.56,1.9,1.9,0,0,0-.55-.37,1.83,1.83,0,0,0-.71-.14,1.8,1.8,0,0,0-.71.14,1.75,1.75,0,0,0-.55.38,1.92,1.92,0,0,0-.36.56,2.17,2.17,0,0,0-.15.68h3.56A2,2,0,0,0,39.46,14.41Z"/>
        <path class="f6086882-31f4-4419-950e-e73696e35aaf" d="M42.68,12.59V13.9h0a2.67,2.67,0,0,1,.91-1.12A2.35,2.35,0,0,1,45,12.44v1.08a3,3,0,0,0-1.05.17,1.61,1.61,0,0,0-.69.49,2,2,0,0,0-.39.79A4.24,4.24,0,0,0,42.74,16v2.76h-1v-6.2Z"/>
      </g>
      <g>
        <path class="f6086882-31f4-4419-950e-e73696e35aaf" d="M16.4,38a10.71,10.71,0,0,1,2-3.67,8.83,8.83,0,0,1,3.34-2.43,11.09,11.09,0,0,1,4.59-.83,11.22,11.22,0,0,1,3.76.66,9.66,9.66,0,0,1,3.12,1.8,8.35,8.35,0,0,1,2.12,2.86,8.51,8.51,0,0,1,.76,3.79,9,9,0,0,1-.74,3.73,9.87,9.87,0,0,1-1.88,2.75,15.58,15.58,0,0,1-2.63,2.17c-1,.65-2,1.29-3,1.92s-2,1.31-2.9,2a13.2,13.2,0,0,0-2.5,2.56l13.61.15-.06,5-21.12-.24a11.9,11.9,0,0,1,.77-4.35,11.38,11.38,0,0,1,2-3.28A17,17,0,0,1,20.6,50q1.68-1.21,3.54-2.47c.64-.43,1.32-.87,2-1.31a12.83,12.83,0,0,0,2-1.48,7.71,7.71,0,0,0,1.5-1.83,4.54,4.54,0,0,0,.62-2.34,4.32,4.32,0,0,0-1.17-3.28A4.26,4.26,0,0,0,26,36.07a3.8,3.8,0,0,0-2.17.57,4.41,4.41,0,0,0-1.43,1.54,7.32,7.32,0,0,0-.79,2.13,13.17,13.17,0,0,0-.25,2.32l-5.59-.06A14.14,14.14,0,0,1,16.4,38Z"/>
        <path class="f6086882-31f4-4419-950e-e73696e35aaf" d="M37.63,53.87l.06-5.34L50.37,31.9l5.22.06-.19,17.3,3.82,0,0,4.81-3.82,0-.08,6.65-5.55-.06L49.8,54ZM49.84,39.21l-7.55,9.9,7.56.09.11-10Z"/>
      </g>
    </g>
  </g>
</svg>
