<svg xmlns="http://www.w3.org/2000/svg" viewBox="0 0 73.98 73.98">
  <defs>
    <style>
      .b66bf2b8-6206-4f77-a311-2a963fcfc617 {
        fill: #fff;
        stroke: #9b9b9a;
        stroke-miterlimit: 10;
        stroke-width: 0.28px;
      }

      .a9b5e704-000b-43c7-addc-aaf7bb7a02d6 {
        fill: #1d1d1b;
      }
    </style>
  </defs>
  <g id="b09df356-8ce6-43cb-b629-f51f30927da4" data-name="Layer 2">
    <g id="bbd2a6cc-b6cb-4987-9c97-4c52528a2baf" data-name="Layer 1">
      <rect class="b66bf2b8-6206-4f77-a311-2a963fcfc617" x="0.14" y="0.14" width="73.7" height="73.7" rx="15.4"/>
      <g>
        <path class="a9b5e704-000b-43c7-addc-aaf7bb7a02d6" d="M32.48,18.48a3.94,3.94,0,0,1-2,.5,4.17,4.17,0,0,1-1.79-.36,3.83,3.83,0,0,1-1.28-1,4.36,4.36,0,0,1-.78-1.44,5.8,5.8,0,0,1,0-3.37,4.22,4.22,0,0,1,.78-1.43,3.73,3.73,0,0,1,1.28-1,4.51,4.51,0,0,1,3.58,0,3.73,3.73,0,0,1,1.28,1,4.22,4.22,0,0,1,.78,1.43,5.58,5.58,0,0,1,.25,1.69,5.33,5.33,0,0,1-.32,1.87,4.33,4.33,0,0,1-1,1.54l1.13.88-.58.72Zm-.07-1.22A3.08,3.08,0,0,0,33.15,16a4.84,4.84,0,0,0,.24-1.52,5,5,0,0,0-.16-1.28,3.56,3.56,0,0,0-.53-1.13,2.6,2.6,0,0,0-.93-.81,3.05,3.05,0,0,0-2.68,0,2.6,2.6,0,0,0-.93.81,3.56,3.56,0,0,0-.53,1.13,5.2,5.2,0,0,0,0,2.56,3.67,3.67,0,0,0,.53,1.13,2.6,2.6,0,0,0,.93.81,2.79,2.79,0,0,0,1.34.31,3.08,3.08,0,0,0,1.19-.24L30.67,17l.6-.7Z"/>
        <path class="a9b5e704-000b-43c7-addc-aaf7bb7a02d6" d="M39.93,18.79v-1h0a2.1,2.1,0,0,1-.83.84,2.46,2.46,0,0,1-1.19.27,2.8,2.8,0,0,1-1-.16,1.67,1.67,0,0,1-.66-.46,1.89,1.89,0,0,1-.35-.71,3.82,3.82,0,0,1-.1-.92V12.59h1v4.2a1.24,1.24,0,0,0,.33.91A1.29,1.29,0,0,0,38,18a2,2,0,0,0,.81-.15,1.39,1.39,0,0,0,.57-.41,1.82,1.82,0,0,0,.34-.61,2.45,2.45,0,0,0,.11-.78v-3.5h1v6.2Z"/>
        <path class="a9b5e704-000b-43c7-addc-aaf7bb7a02d6" d="M47.93,18.77a1.51,1.51,0,0,1-.74.15.88.88,0,0,1-.63-.22,1,1,0,0,1-.23-.72,2.52,2.52,0,0,1-1,.72,3.16,3.16,0,0,1-1.2.22,3.44,3.44,0,0,1-.8-.09,2.22,2.22,0,0,1-.66-.3,1.43,1.43,0,0,1-.43-.54,1.74,1.74,0,0,1-.17-.79,1.84,1.84,0,0,1,.18-.87,1.56,1.56,0,0,1,.48-.54,2.08,2.08,0,0,1,.67-.32c.25-.07.51-.13.77-.18s.55-.1.8-.13a5.09,5.09,0,0,0,.67-.12,1.06,1.06,0,0,0,.45-.23.52.52,0,0,0,.17-.43,1,1,0,0,0-.12-.54,1,1,0,0,0-.33-.32,1.26,1.26,0,0,0-.44-.14,4.22,4.22,0,0,0-.49,0,2.21,2.21,0,0,0-1.08.25,1,1,0,0,0-.47.93h-1a2.31,2.31,0,0,1,.24-1,1.79,1.79,0,0,1,.58-.64,2.25,2.25,0,0,1,.82-.36,4.48,4.48,0,0,1,1-.11,5.93,5.93,0,0,1,.84.06,2.37,2.37,0,0,1,.75.25,1.49,1.49,0,0,1,.54.52,1.7,1.7,0,0,1,.2.87v3.19a2.36,2.36,0,0,0,0,.53c0,.11.12.16.28.16a1.33,1.33,0,0,0,.32,0Zm-1.66-3.18a1.54,1.54,0,0,1-.5.21,6.53,6.53,0,0,1-.66.1l-.69.1a2.66,2.66,0,0,0-.62.17,1.12,1.12,0,0,0-.45.34.94.94,0,0,0-.18.61.82.82,0,0,0,.11.42.7.7,0,0,0,.26.28,1.32,1.32,0,0,0,.38.16,2.15,2.15,0,0,0,.45,0,2.49,2.49,0,0,0,.87-.13,2.09,2.09,0,0,0,.59-.35,1.37,1.37,0,0,0,.33-.45,1.23,1.23,0,0,0,.11-.46Z"/>
      </g>
      <g>
        <path class="a9b5e704-000b-43c7-addc-aaf7bb7a02d6" d="M16.4,38a10.71,10.71,0,0,1,2-3.67,8.83,8.83,0,0,1,3.34-2.43,11.12,11.12,0,0,1,4.59-.83,11.12,11.12,0,0,1,3.75.66,9.6,9.6,0,0,1,3.13,1.8,8.35,8.35,0,0,1,2.12,2.86,8.51,8.51,0,0,1,.76,3.79,9,9,0,0,1-.74,3.73,9.87,9.87,0,0,1-1.88,2.75,15.58,15.58,0,0,1-2.63,2.17c-1,.65-2,1.29-3,1.92s-2,1.31-2.9,2a13.2,13.2,0,0,0-2.5,2.56l13.61.15-.06,5-21.12-.24a11.9,11.9,0,0,1,.77-4.35,11.58,11.58,0,0,1,2-3.28A17.49,17.49,0,0,1,20.6,50q1.68-1.21,3.54-2.47c.64-.43,1.32-.87,2-1.31a12.83,12.83,0,0,0,2-1.48,7.71,7.71,0,0,0,1.5-1.83,4.54,4.54,0,0,0,.62-2.34,4.32,4.32,0,0,0-1.17-3.28A4.26,4.26,0,0,0,26,36.07a3.8,3.8,0,0,0-2.17.57,4.41,4.41,0,0,0-1.43,1.54,7.32,7.32,0,0,0-.79,2.13,13.17,13.17,0,0,0-.25,2.32l-5.59-.06A14.14,14.14,0,0,1,16.4,38Z"/>
        <path class="a9b5e704-000b-43c7-addc-aaf7bb7a02d6" d="M45.84,36.66l-1.22,6.52.08.08a7.23,7.23,0,0,1,2.57-1.67,8.27,8.27,0,0,1,3.08-.48,8.69,8.69,0,0,1,3.78.82,8.28,8.28,0,0,1,2.75,2.13,9.2,9.2,0,0,1,1.69,3.12,12.13,12.13,0,0,1,.55,3.8,10,10,0,0,1-.91,4.13,10.5,10.5,0,0,1-2.36,3.28,10.26,10.26,0,0,1-3.41,2.12,10.71,10.71,0,0,1-4.12.67,14.23,14.23,0,0,1-4-.6A9.91,9.91,0,0,1,41,58.84,8.43,8.43,0,0,1,38.62,56a8.76,8.76,0,0,1-.88-4l5.83.06A4.81,4.81,0,0,0,45,55.2a4.59,4.59,0,0,0,3.23,1.21A4.44,4.44,0,0,0,50.33,56a5,5,0,0,0,1.58-1.21,5.53,5.53,0,0,0,1-1.76,6.37,6.37,0,0,0,.38-2.07,6.88,6.88,0,0,0-.31-2.1,4.8,4.8,0,0,0-1-1.74,4.55,4.55,0,0,0-1.55-1.16,5,5,0,0,0-2.09-.44,5.19,5.19,0,0,0-2.55.53A6,6,0,0,0,44,47.73l-5.26-.06,3-15.87L57.77,32l-.05,4.81Z"/>
      </g>
    </g>
  </g>
</svg>
