<svg id="b971a86c-901c-4ef2-897e-a1a5927efbed" data-name="Layer 5" xmlns="http://www.w3.org/2000/svg" viewBox="0 0 1000 1000">
  <defs>
    <style>
      .f04f50e6-351e-4dfa-99d8-1ce8e26c343f {
        fill: #471114;
      }
    </style>
  </defs>
  <polygon class="f04f50e6-351e-4dfa-99d8-1ce8e26c343f" points="380.07 894.09 380.07 874.95 375.82 863.05 375.82 851.13 368.16 840.93 368.16 827.33 374.12 814.57 388.58 800.96 407.29 790.76 417.96 779.44 427.7 765.24 433.66 738.02 443.86 721.86 455.01 701.54 471.43 689.07 488.07 680.54 497.06 669.38 497.06 658.06 496.59 647.86 496.75 628.34 497.06 618.07 497.45 609.58 502.82 601.54 509.62 591.32 516.65 580.24 516.65 573.86 504.26 558.54 496.59 550.05 490.65 539.83 479.58 527.09 452.37 521.98 442.4 514.32 421.75 514.32 410.69 525.38 402.19 521.11 400.49 501.13 409.84 493.05 419.19 491.36 416.18 483.66 395.39 471.79 378.37 471.79 352.01 471.79 343.49 455.63 330.73 448.84 316.27 433.53 300.96 433.53 282.25 439.48 272.04 438.62 254.18 433.53 236.33 433.53 215.06 442.87 208.26 448.84 199.75 462.43 199.75 469.25 205.7 473.5 204.85 482.85 199.75 489.65 199.75 501.13 199.75 507.51 192.11 510.92 188.69 519.43 183.6 530.48 183.6 540.68 183.6 549.19 183.6 558.54 183.6 561.95 189.54 573.86 195.49 573.86 197.2 580.24 208.26 590.88 213.36 601.93 221.01 624.9 233.77 635.94 244.83 648.71 255.04 653.81 262.68 659.77 270.35 663.8 275.45 668.27 280.56 672.52 283.1 682.72 287.36 698.04 287.36 709.09 288.21 722.71 289.06 740.58 292.47 752.48 297.56 771.17 301.83 786.5 304.37 800.1 306.93 810.32 312.88 825.62 322.23 846.03 330.73 856.23 340.94 866.45 350.12 878.34 359.66 886.01 365.61 894.09 380.07 894.09"/>
</svg>
