<svg id="ecdf15a5-4c26-4e42-9720-ad73210c7915" data-name="Layer 4" xmlns="http://www.w3.org/2000/svg" viewBox="0 0 1000 1000">
  <defs>
    <style>
      .f60ddef0-d902-426b-accb-8735678914c9 {
        fill: #f26c3d;
      }
    </style>
  </defs>
  <polygon class="f60ddef0-d902-426b-accb-8735678914c9" points="677.77 399.5 668.4 392.69 673.09 385.89 677.77 378.23 677.77 367.17 673.09 355.26 659.91 355.26 652.24 344.22 636.09 331.46 621.63 331.46 602.06 331.46 596.96 311.03 583.34 301.67 575.7 309.33 556.14 310.19 539.13 311.88 532.32 328.06 516.16 327.2 486.39 328.9 462.57 341.65 449.81 350.59 443.86 358.67 439.61 372.27 431.95 378.23 418.34 388.44 411.54 399.5 411.54 410.56 414.95 417.35 414.95 428.43 408.13 435.21 403.88 450.53 410.69 469.25 418.34 473.5 431.54 483.27 434.5 488.8 425.15 490.51 415.79 498.58 417.48 518.58 426 522.83 437.06 511.77 442.16 511.77 457.71 511.77 467.67 519.43 494.89 524.52 505.96 537.3 515.71 551.71 524.42 562 531.95 571.3 529.76 581.52 512.75 607.02 511.9 629.99 511.9 645.31 512.37 663.17 507.65 675.07 493.98 684.42 482.14 687.84 466.83 702.29 459.16 719.3 448.95 735.45 446.42 743.96 443.01 762.69 435.36 773.75 426.85 786.5 426 799.27 420.9 818.81 425.15 835.82 435.36 844.34 462.57 844.34 479.58 844.34 494.89 853.7 509.36 843.48 530.62 840.09 547.63 833.28 569.75 823.92 594.4 815.43 617.37 810.32 662.46 789.05 672.66 784.81 681.16 773.75 702.43 760.12 722.84 747.37 738.14 736.3 758.56 718.46 772.19 696.34 787.48 680.17 801.94 659.77 801.94 649.56 789.19 641.91 771.33 647.86 765.37 635.1 770.47 618.95 773.87 589.16 774.73 564.51 779.82 533.88 781.52 508.37 781.52 497.44 781.52 479.44 771.33 470.94 767.08 457.34 752.61 460.74 750.06 448.84 733.05 448.84 730.5 442.02 723.7 426.71 704.97 434.37 690.53 435.21 686.26 429.26 679.47 418.21 677.77 399.5"/>
</svg>
