<svg id="fcbd4395-bfae-4da6-87b7-1157dd914caf" data-name="Layer 7" xmlns="http://www.w3.org/2000/svg" viewBox="0 0 1000 1000">
  <defs>
    <style>
      .ff5ec771-34f3-4175-971b-4e0e5c38d07d {
        fill: #ec1e24;
      }
    </style>
  </defs>
  <polygon class="ff5ec771-34f3-4175-971b-4e0e5c38d07d" points="660.75 806.91 670.96 806.91 685.41 806.91 693.92 806.91 699.88 802.66 708.38 806.91 708.38 818.81 721.14 818.81 732.2 823.07 736.45 830.73 745.8 830.73 757.72 830.73 757.72 840.06 757.72 851.13 747.51 865.6 734.75 871.56 720.28 884.31 709.24 892.82 693.92 901.31 670.96 915.78 660.75 922.59 636.94 931.93 609.71 942.15 585.05 942.15 568.89 947.25 539.12 947.25 514.46 947.25 500.84 939.6 478.74 939.6 458.31 935.34 443.01 930.25 426 929.39 412.39 926.83 399.63 920.89 389.42 913.24 385.16 909.4 385.16 894.52 385.16 890.26 380.93 866.45 373.27 856.23 374.7 839.56 379.22 829.87 393.68 816.26 414.95 806.06 415.79 817.12 414.09 825.62 410.69 833.27 412.39 845.17 414.95 856.23 421.73 860.49 436.2 861.33 453.22 860.49 462.57 860.49 471.93 863.04 475.32 868.14 484.7 871.56 493.1 865.6 501.69 860.49 520.41 857.93 541.67 848.59 559.53 840.06 573.99 834.99 599.51 829.87 615.67 821.38 630.13 813.71 644.58 808.62 660.75 806.91"/>
</svg>
