<svg id="b5e76f35-bf9b-4d30-adfd-65be0ebdd63d" data-name="Layer 6" xmlns="http://www.w3.org/2000/svg" viewBox="0 0 1000 1000">
  <defs>
    <style>
      .ed32c764-5147-476b-ad31-120f594c5e97 {
        fill: #ec1e24;
      }
    </style>
  </defs>
  <polyline class="ed32c764-5147-476b-ad31-120f594c5e97" points="317.9 46.42 334.36 40.16 355.41 33.76 355.41 43.12 360.32 49.07 360.32 57.57 365.61 64.38 374.12 69.48 380.07 73.73 386.87 81.38 404.74 83.94 414.95 89.05 421.75 99.24 431.96 103.5 442.16 99.24 445.56 113.71 436.21 122.22 426 121.36 409.84 122.22 398.77 125.63 385.18 136.68 369.86 142.63 369 149.43 375.82 157.94 383.47 160.49 389.42 163.89 394.52 172.39 398.77 180.04 398.77 190.25 398.77 200.47 404.74 208.97 413.24 208.97 417.49 200.47 426 190.25 434.5 180.91 437.91 171.55 442.16 154.53 445.56 145.18 459.17 140.92 465.99 135.83 488.87 137.52 500 144.32 500 159.64 510.21 165.6 517.87 174.94 526.85 188.56 532.32 188.56 540.83 180.91 545.08 171.55 554.44 158.8 565.5 154.53 580.8 147.73 585.9 140.92 597.81 138.37 602.06 146.03 602.06 154.53 602.06 174.09 611.43 177.49 616.52 181.75 619.93 196.2 631.83 203.02 642.89 203.02 648 214.06 643.74 226.83 643.74 233.63 634.39 244.68 636.09 251.5 636.09 260.86 648 267.66 659.06 268.51 665.01 268.51 676.92 271.06 686.28 277.86 697.32 288.92 697.32 294.04 719.44 303.38 731.35 315.29 736.45 327.2 736.45 339.96 725.39 342.5 736.45 355.26 732.2 364.62 719.44 368.87 715.2 362.07 706.68 370.58 699.88 367.17 694.77 357.82 690.53 352.71 678.62 356.97 672.66 357.82 667.99 342.5 653.95 339.96 644.59 329.74 633.54 319.54 616.52 318.68 597.81 322.95 596.96 315.29 595.26 306.78 590.16 296.57 578.25 288.92 567.17 296.73 551.03 297.43 538.28 298.28 531.51 305.08 529.3 310.35 527.21 315.29 513.61 314.44 497.45 314.44 484.7 315.29 478.74 316.99 460.04 328.9 444.71 337.82 438.76 345.91 435.57 356.12 431.81 361.62 422.09 369.04 411.03 379.29 406.43 391.85 407.97 400.86 409.84 409.7 409.84 415.65 401.98 426.27 398.77 437.76 405.6 456.49 393.68 458.17 379.22 455.63 362.21 456.49 355.41 439.48 340.94 433.53 327.35 420.76 311.17 418.21 292.47 424.15 271.2 420.76 246.53 418.21 232.08 424.15 221.01 429.26 211.87 444.07 193.79 444.07 181.9 449.68 169.99 449.68 169.99 438.62 169.99 418.21 169.99 390.99 162.33 387.58 169.99 373.98 168.28 368.87 162.33 361.21 162.33 342.5 168.28 328.06 162.33 320.4 162.33 309.33 169.99 297.43 173.38 277.86 182.74 264.26 177.63 251.5 174.25 234.49 176.79 223.42 187.1 209.82 199.76 194.52 217.62 180.91 223.56 169.84 231.23 162.19 242.28 144.32 252.49 130.72 261.85 116.26 283.1 97.54 283.1 86.49 287.36 75.43 294.16 75.43 297.57 65.23 297.97 55.21 313.48 48.27"/>
</svg>
