<?xml version="1.0" encoding="utf-8"?>
<!-- Generator: Adobe Illustrator 24.1.0, SVG Export Plug-In . SVG Version: 6.00 Build 0)  -->
<svg version="1.1" xmlns="http://www.w3.org/2000/svg" xmlns:xlink="http://www.w3.org/1999/xlink" x="0px" y="0px"
	 viewBox="0 0 1000 1000" style="enable-background:new 0 0 1000 1000;" xml:space="preserve">
<style type="text/css">
	.st0{fill:#11B5C8;}
	.st1{fill:#461417;}
	.st2{fill:#F26C3F;}
	.st3{fill:#EA2227;}
	.st4{fill:#48161A;}
	.st5{display:none;}
	.st6{display:inline;fill:#FFFFFF;}
	.st7{fill:#F26C3D;}
	.st8{fill:#471114;}
	.st9{fill:#EC1E24;}
	.st10{fill:#4F1117;}
	.st11{fill:#F26F33;}
	.st12{fill:#EC2224;}
</style>
<g id="Layer_1">
</g>
<g id="Layer_2" class="st5">
	<path class="st6" d="M988.64,499.99c0,269.88-218.76,488.65-488.64,488.65c-269.87,0-488.64-218.77-488.64-488.65
		C11.36,230.14,230.12,11.36,500,11.36C769.88,11.36,988.64,230.14,988.64,499.99z"/>
</g>
<g id="Layer_2_copy">
	<path class="st0" d="M988.64,499.99c0,269.88-218.76,488.65-488.64,488.65c-269.87,0-488.64-218.77-488.64-488.65
		C11.36,230.14,230.12,11.36,500,11.36C769.88,11.36,988.64,230.14,988.64,499.99z"/>
</g>
<g id="Layer_4">
	<polygon class="st7" points="677.77,399.5 668.4,392.69 673.09,385.89 677.77,378.23 677.77,367.17 673.09,355.26 659.91,355.26 
		652.24,344.22 636.09,331.46 621.63,331.46 602.06,331.46 596.96,311.03 583.34,301.67 575.7,309.33 556.14,310.19 539.13,311.88 
		532.32,328.05 516.16,327.2 486.39,328.9 462.57,341.65 449.81,350.59 443.86,358.67 439.61,372.27 431.95,378.23 418.34,388.43 
		411.54,399.5 411.54,410.56 414.95,417.35 414.95,428.43 408.13,435.21 403.88,450.53 410.69,469.25 418.34,473.5 431.54,483.28 
		434.5,488.8 425.15,490.51 415.79,498.58 417.48,518.58 426,522.83 437.06,511.77 442.16,511.77 457.71,511.77 467.67,519.43 
		494.89,524.52 505.96,537.3 515.71,551.71 524.42,562 531.95,571.3 529.76,581.52 512.75,607.02 511.9,629.99 511.9,645.31 
		512.37,663.17 507.65,675.07 493.98,684.42 482.14,687.84 466.83,702.29 459.16,719.3 448.95,735.45 446.42,743.96 443.01,762.69 
		435.36,773.75 426.85,786.5 426,799.27 420.9,818.81 425.15,835.82 435.36,844.34 462.57,844.34 479.58,844.34 494.89,853.7 
		509.36,843.48 530.62,840.09 547.63,833.28 569.75,823.93 594.4,815.43 617.37,810.32 662.46,789.05 672.66,784.81 681.16,773.75 
		702.43,760.12 722.84,747.37 738.14,736.3 758.56,718.46 772.19,696.34 787.48,680.17 801.94,659.77 801.94,649.56 789.19,641.91 
		771.33,647.86 765.37,635.1 770.47,618.95 773.87,589.17 774.72,564.51 779.82,533.88 781.52,508.37 781.52,497.44 781.52,479.44 
		771.33,470.94 767.08,457.34 752.61,460.74 750.06,448.84 733.05,448.84 730.5,442.02 723.69,426.71 704.97,434.37 690.53,435.21 
		686.26,429.26 679.47,418.21 	"/>
</g>
<g id="Layer_5">
	<polygon class="st8" points="380.07,894.09 380.07,874.95 375.82,863.05 375.82,851.13 368.16,840.94 368.16,827.33 374.12,814.57 
		388.58,800.96 407.29,790.76 417.96,779.44 427.7,765.24 433.66,738.02 443.86,721.86 455.01,701.54 471.43,689.07 488.07,680.54 
		497.05,669.38 497.05,658.06 496.59,647.86 496.75,628.34 497.05,618.07 497.45,609.58 502.82,601.54 509.62,591.32 516.65,580.24 
		516.65,573.86 504.26,558.54 496.59,550.05 490.65,539.83 479.58,527.09 452.37,521.98 442.4,514.32 421.75,514.32 410.69,525.38 
		402.19,521.11 400.49,501.13 409.84,493.05 419.19,491.36 416.18,483.66 395.39,471.79 378.37,471.79 352.01,471.79 343.49,455.63 
		330.73,448.84 316.28,433.53 300.97,433.53 282.26,439.48 272.04,438.62 254.18,433.53 236.33,433.53 215.06,442.87 208.26,448.84 
		199.75,462.43 199.75,469.25 205.7,473.5 204.85,482.85 199.75,489.65 199.75,501.13 199.75,507.51 192.11,510.92 188.69,519.43 
		183.6,530.47 183.6,540.68 183.6,549.19 183.6,558.54 183.6,561.95 189.54,573.86 195.49,573.86 197.2,580.24 208.26,590.88 
		213.36,601.93 221.01,624.9 233.77,635.94 244.83,648.71 255.04,653.81 262.68,659.77 270.35,663.8 275.45,668.27 280.55,672.53 
		283.1,682.72 287.36,698.04 287.36,709.09 288.21,722.71 289.06,740.58 292.47,752.48 297.56,771.17 301.83,786.5 304.37,800.1 
		306.92,810.32 312.87,825.62 322.23,846.03 330.73,856.23 340.94,866.45 350.11,878.34 359.66,886.01 365.61,894.09 	"/>
</g>
<g id="Layer_6">
	<polyline class="st9" points="317.9,46.42 334.36,40.16 355.41,33.76 355.41,43.12 360.32,49.07 360.32,57.57 365.61,64.38 
		374.12,69.48 380.07,73.73 386.87,81.38 404.74,83.94 414.95,89.05 421.75,99.24 431.96,103.5 442.16,99.24 445.56,113.71 
		436.21,122.22 426.01,121.36 409.84,122.22 398.77,125.63 385.18,136.68 369.86,142.63 369.01,149.43 375.82,157.94 383.47,160.49 
		389.42,163.89 394.52,172.39 398.77,180.04 398.77,190.25 398.77,200.47 404.74,208.97 413.24,208.97 417.49,200.47 426.01,190.25 
		434.5,180.91 437.91,171.55 442.16,154.53 445.56,145.18 459.17,140.92 465.99,135.83 488.87,137.52 500,144.32 500,159.64 
		510.21,165.6 517.87,174.94 526.85,188.56 532.32,188.56 540.83,180.91 545.08,171.55 554.44,158.8 565.5,154.53 580.8,147.73 
		585.9,140.92 597.81,138.37 602.06,146.03 602.06,154.53 602.06,174.09 611.43,177.49 616.52,181.75 619.93,196.2 631.83,203.02 
		642.89,203.02 648,214.06 643.74,226.83 643.74,233.63 634.39,244.68 636.09,251.5 636.09,260.86 648,267.66 659.06,268.51 
		665.01,268.51 676.92,271.06 686.28,277.86 697.32,288.92 697.32,294.03 719.44,303.38 731.35,315.29 736.45,327.2 736.45,339.96 
		725.4,342.5 736.45,355.26 732.2,364.62 719.44,368.87 715.2,362.07 706.68,370.58 699.88,367.17 694.77,357.82 690.53,352.71 
		678.62,356.97 672.66,357.82 667.99,342.5 653.95,339.96 644.59,329.74 633.54,319.54 616.52,318.68 597.81,322.95 596.96,315.29 
		595.26,306.78 590.16,296.57 578.25,288.92 567.17,296.73 551.04,297.43 538.28,298.28 531.51,305.08 529.3,310.35 527.21,315.29 
		513.61,314.44 497.45,314.44 484.7,315.29 478.74,316.99 460.04,328.9 444.71,337.82 438.76,345.91 435.57,356.12 431.81,361.62 
		422.09,369.04 411.03,379.29 406.43,391.85 407.97,400.86 409.84,409.7 409.84,415.65 401.98,426.27 398.77,437.76 405.6,456.49 
		393.68,458.17 379.22,455.63 362.21,456.49 355.41,439.48 340.94,433.53 327.35,420.76 311.17,418.21 292.47,424.16 271.2,420.76 
		246.53,418.21 232.08,424.16 221.01,429.26 211.87,444.07 193.79,444.07 181.9,449.68 169.99,449.68 169.99,438.62 169.99,418.21 
		169.99,390.99 162.33,387.58 169.99,373.98 168.29,368.87 162.33,361.21 162.33,342.5 168.29,328.05 162.33,320.4 162.33,309.33 
		169.99,297.43 173.38,277.86 182.74,264.26 177.63,251.5 174.25,234.49 176.79,223.42 187.1,209.82 199.76,194.52 217.62,180.91 
		223.56,169.84 231.23,162.19 242.28,144.32 252.49,130.72 261.85,116.26 283.1,97.54 283.1,86.49 287.36,75.43 294.16,75.43 
		297.57,65.23 297.97,55.21 313.48,48.27 	"/>
</g>
<g id="Layer_7">
	<polygon class="st9" points="660.75,806.92 670.96,806.92 685.41,806.92 693.92,806.92 699.88,802.66 708.39,806.92 708.39,818.81 
		721.14,818.81 732.2,823.07 736.45,830.73 745.8,830.73 757.72,830.73 757.72,840.06 757.72,851.13 747.51,865.6 734.75,871.56 
		720.28,884.31 709.24,892.82 693.92,901.31 670.96,915.78 660.75,922.59 636.94,931.93 609.71,942.15 585.05,942.15 568.89,947.26 
		539.12,947.26 514.46,947.26 500.84,939.6 478.74,939.6 458.32,935.34 443.01,930.24 426,929.39 412.39,926.83 399.64,920.89 
		389.42,913.24 385.16,909.4 385.16,894.52 385.16,890.26 380.92,866.45 373.27,856.23 374.7,839.56 379.22,829.87 393.68,816.26 
		414.95,806.06 415.79,817.12 414.09,825.62 410.69,833.27 412.39,845.17 414.95,856.23 421.73,860.49 436.2,861.33 453.22,860.49 
		462.57,860.49 471.93,863.04 475.33,868.14 484.7,871.56 493.1,865.6 501.7,860.49 520.41,857.93 541.67,848.59 559.53,840.06 
		573.99,834.99 599.51,829.87 615.67,821.38 630.13,813.71 644.58,808.62 	"/>
</g>
<g id="Layer_8">
	<polygon class="st10" points="881.9,217.48 871.27,206.43 863.18,191.96 849.58,176.65 831.7,160.49 814.69,144.32 799.39,127.32 
		782.38,115.41 772.19,104.35 754.31,93.29 732.2,78.84 714.33,66.93 695.63,57.57 683.73,49.92 662.46,41.41 645.44,36.31 
		631.83,32.9 615.68,26.94 610.58,26.94 603.77,26.94 603.77,35.46 608.02,36.31 615.68,36.31 628.44,41.41 640.34,42.26 
		647.14,48.22 653.95,49.07 664.16,55.87 676.08,60.12 676.08,74.58 676.08,89.9 665.86,89.05 646.3,88.19 635.24,92.44 
		622.48,108.6 619.93,122.22 615.68,138.37 619.93,146.03 615.68,158.8 619.93,168.14 629.29,177.49 635.48,186.4 637.79,196.2 
		644.39,199.98 654.8,203.02 665.86,214.06 664.72,217.48 661.6,230.24 657.52,238.49 652.25,244.68 653.95,260.86 662.28,265.62 
		682.87,268.51 694.77,271.06 708.8,282.54 715.2,294.03 719.44,281.27 717.74,269.36 710.1,263.42 701.58,254.9 703.27,242.57 
		716.04,232.79 727.1,231.08 736.45,233.63 736.45,218.33 733.9,202.17 747.51,197.05 758.57,200.47 767.08,205.57 773.04,215.78 
		778.13,225.98 789.19,227.69 794.29,221.73 799.39,208.12 814.69,208.97 824.69,214.06 830.01,213.22 824.69,201.32 824.69,190.25 
		824.69,176.65 833.41,179.2 840.22,191.96 851.27,203.86 856.38,209.82 862.34,219.18 867.44,222.58 875.95,225.98 	"/>
</g>
<g id="Layer_9">
	<polygon class="st8" points="794.29,468.82 794.29,484.68 794.29,495.61 794.29,505.4 792.88,516.9 791.1,530.11 788.43,546.04 
		787.18,560.28 787.18,570.46 785.76,584.13 781.52,598.96 781.52,616.4 778.13,622.33 786.21,634.39 794.29,631.7 805.87,628.61 
		812.91,627.63 822.37,628.43 822.37,625.32 829.33,624.71 838.51,625.32 845.33,621.92 847.81,622.82 851.67,617.96 858.49,614.05 
		862.76,615.12 866.16,605.77 871.27,602.79 871.27,593.42 871.27,586.19 867.86,581.11 863.18,576.01 854.67,576.42 851.27,573.01 
		847.02,573.01 850,559.82 848.73,548.78 849.15,537.3 849.15,527.09 851.69,521.57 861.05,513.9 864.46,501.99 864.46,493.92 
		863.18,484.68 862.76,477.75 860.64,468.82 855.52,459.04 851.27,450.11 845.32,444.58 836.81,442.88 831.7,433.1 824.69,433.1 
		814.69,439.9 814.69,450.11 809.17,456.91 801.94,462.02 795.57,464.58 	"/>
</g>
<g id="Layer_10">
	<polygon class="st11" points="531.95,170.7 542.28,166.34 548.18,158.1 556.43,145.17 564.84,138.89 578.96,132.96 591.01,123.06 
		598.95,121.36 598.95,101.8 591.01,89.9 591.01,72.03 581.67,65.23 570.6,56.72 573.15,44.81 565.45,44.81 560.39,44.81 
		547.63,52.47 540.83,59.28 528.07,56.72 517.87,51.61 508.5,44.81 494.89,44.81 493.98,52.47 484.7,60.97 473.63,60.97 
		465.12,55.87 443.02,65.23 438.77,65.23 432.81,62.68 426.86,55.87 416.65,48.22 411.54,44.81 403.88,44.81 392.83,52.47 
		392.83,59.28 392.83,67.78 408.14,66.08 414.1,68.63 421.75,73.73 430.27,81.38 442.16,81.38 454.49,80.53 465.99,79.69 
		477.88,83.08 482.14,89.05 483.84,107.76 473.63,112.01 460.88,117.95 449.64,130.18 464.27,130.72 471.08,124.77 482.99,122.22 
		493.98,115.41 495.9,120.83 505.11,126.47 505.11,134.12 505.11,141.78 504.26,150.28 512.77,155.38 519.57,164.75 	"/>
</g>
<g id="Layer_11">
	<polygon class="st8" points="814.69,675.5 819.81,673.38 824.91,675.5 834.26,681.88 837.66,686.99 844.89,686.99 851.7,689.96 
		855.53,689.96 855.53,695.5 858.49,704.85 858.49,710.8 855.1,718.46 851.7,726.54 847.44,732.5 841.49,738.44 836.6,748.65 
		828.75,760.12 824.06,764.81 821.93,772.9 817.68,781.82 814.69,789.91 804.51,806.92 801.1,815.43 795.57,827.33 791.74,833.28 
		786.64,841.36 782.39,841.36 780.68,837.54 780.68,823.07 761.96,823.07 755.16,815.41 748.25,812.76 744.1,811.15 731.34,811.15 
		731.34,799.24 722,792.88 714.33,799.24 693.92,799.24 683.73,799.24 672.77,800.4 687.13,792.88 692.1,786.31 697.75,782.25 
		706.68,775.01 716.04,768.64 726.67,763.53 733.05,759.71 747.93,747.37 758.14,738.86 770.06,728.24 773.46,723.13 778.56,713.78 
		786.21,704.85 794.72,696.34 801.1,685.71 808.99,678.04 	"/>
</g>
<g id="Layer_12">
	<polygon class="st12" points="869.99,627.02 872.97,635.94 871.49,647.86 869.99,661.47 863.6,675.5 863.6,680.61 860.64,684.02 
		852.51,680.42 846.61,679.33 841.33,677.17 830.01,667.85 819.81,667.85 817.39,665.72 817.39,653.4 813.81,648.52 807.04,644.45 
		822.37,642.33 830.01,644.46 830.86,640.62 850.43,637.23 855.1,638.93 857.24,631.7 	"/>
</g>
</svg>
