<?xml version="1.0" encoding="utf-8"?>
<!-- Generator: Adobe Illustrator 24.1.0, SVG Export Plug-In . SVG Version: 6.00 Build 0)  -->
<svg version="1.1" xmlns="http://www.w3.org/2000/svg" xmlns:xlink="http://www.w3.org/1999/xlink" x="0px" y="0px"
	 viewBox="0 0 512 512" style="enable-background:new 0 0 512 512;" xml:space="preserve">
<style type="text/css">
	.st0{fill:#11B5C8;}
	.st1{fill:#461417;}
	.st2{fill:#F26C3F;}
	.st3{fill:#EA2227;}
	.st4{fill:#000;}

/*
* By Jose Aguinaga
* http://jjperezaguinaga.com
*/
@import url(https://fonts.googleapis.com/css?family=Pathway+Gothic+One);

body {
  background: -webkit-radial-gradient(center, ellipse cover, #ffffff 0%,#f2efd9 100%);
}

@-webkit-keyframes rotate-right {
  from { 
    -webkit-transform: rotate(0deg);
  }
  to {
    -webkit-transform: rotate(360deg);
  }
}

@-webkit-keyframes rotate-left {
  from { 
    -webkit-transform: rotate(0deg);
  }
  to {
    -webkit-transform: rotate(-360deg);
  }
}

@-webkit-keyframes hover {
  0% {
    -webkit-transform: translateY(0%);  
  }
  50% {
    -webkit-transform: translateY(5%);  
  } 
  100% {
    -webkit-transform: translateY(0%);
  }     
}

@-webkit-keyframes pull {
  0% {
    -webkit-transform: scaleY(1);
  }
  40% {
    -webkit-transform: scaleY(1.01);
  }
  60% {
    -webkit-transform: scaleY(0.99);
  }
  80% {
    -webkit-transform: scaleY(1.01);
  }
  100% {
    -webkit-transform: scaleY(0.99);
  }       
  80% {
    -webkit-transform: scaleY(1.01);
  }
  100% {
    -webkit-transform: scaleY(1);
  }   
}

@function getSpeed($speed, $type:turtle) {
  $secs: 360;
  $divider: 1;
  @if($type == turtle) {
    $divider: 1;
  } @else if($type == rabbit) {
    $divider: 10;
  } @else {
    $divider: 60;
  }
  @if $speed == fastest {
    $secs: 60 / $divider;
  } @else if $speed == really-fast {
    $secs: 120 / $divider;
  } @else if $speed == fast {
    $secs: 180 / $divider;
  } @else if $speed == slow {
    $secs: 240 / $divider;
  } @else if $speed == really-slow {
    $secs: 300 / $divider;
  } @else if $speed == slowest {
    $secs: 360 / $divider;
  }
  @return #{$secs}s;
}

@mixin _rotate-animation($direction, $speed, $type) {
  -webkit-transform: translate3d(0, 0, 0);
  -webkit-animation: rotate-#{$direction} getSpeed($speed, $type) linear 0s infinite;
}

@mixin _hover-animation($duration, $delay) {
  -webkit-transform: translate3d(0, 0, 0);
  -webkit-animation: hover #{$duration}s linear #{$delay}s infinite; 
}

@mixin _pull-animation($duration, $delay, $x: 200px, $y: 200px) {
  -webkit-transform: translate3d(0, 0, 0);
  -webkit-transform-origin: $x $y;
  -webkit-animation: pull #{$duration}s linear #{$delay}s infinite alternate; 
}

@mixin rotate($type, $direction: left, $speed: slow, $x: 200px, $y: 200px) {
  -webkit-transform: translate3d(0, 0, 0);
  -webkit-transform-origin: $x $y;
  @include _rotate-animation($direction, $speed, $type);
}

#airplane2, #airplane1 {
  @include rotate(turtle, right, fastest);
}

#countryObjects {
  @include rotate(turtle, right, slow);
}

#floatingGlobe {
  @include rotate(turtle, left, normal);
}

#globe {
  $duration: 0;
  $delay: 0;
  @include _hover-animation($duration, $delay);
}

#windmill {
  @include rotate(flash, right, really-fast, 331px, 201px);
}

// Clouds
@for $i from 1 through 3 {
  #cloud#{$i} {
    @include _hover-animation(3, $i);
  }
}


// Inner Circles
@for $i from 1 through 5 {
  $direction: left;
  $speed: really-fast;
  #circle#{$i} {
    @if $i % 2 == 1 {
      $direction: right;
      $speed: really-fast;
    } @else {
      $direction: left;
      $speed: slow;
    }
    @include rotate(rabbit, $direction, $speed);
  }
}
View Compiled


Resources

</style>

<?xml version="1.0" encoding="utf-8"?>
<!-- Generator: Adobe Illustrator 16.2.1, SVG Export Plug-In . SVG Version: 6.00 Build 0)  -->
<!DOCTYPE svg PUBLIC "-//W3C//DTD SVG 1.1//EN" "http://www.w3.org/Graphics/SVG/1.1/DTD/svg11.dtd">
<svg version="1.1" id="Layer_1" xmlns="http://www.w3.org/2000/svg" xmlns:xlink="http://www.w3.org/1999/xlink" x="0px" y="0px"
 viewBox="0 0 400 400" enable-background="new 0 0 400 400" xml:space="preserve">
<g id="globo">
	<g>
		<path class="st0" d="M144.59,191.18l0.72-0.27C145.07,190.99,144.83,191.09,144.59,191.18z"/>
		<path class="st0" d="M169.21,186.72c-8.26,0-16.18,1.44-23.54,4.07l2.82-0.86v1.34l0.7,0.85v1.22l0.76,0.98l1.22,0.73l0.85,0.61
			l0.97,1.1l2.56,0.37l1.46,0.73l0.98,1.46l1.46,0.61l1.46-0.61l0.49,2.07l-1.34,1.22l-1.46-0.12l-2.32,0.12l-1.59,0.49l-1.95,1.58
			l-2.2,0.85l-0.12,0.97l0.98,1.22l1.1,0.37l0.85,0.49l0.73,1.22l0.61,1.1v1.46v1.46l0.85,1.22h1.22l0.61-1.22l1.22-1.46l1.22-1.34
			l0.49-1.34l0.61-2.44l0.49-1.34l1.95-0.61l0.98-0.73l3.28,0.24l1.59,0.97v2.2l1.46,0.85l1.1,1.34l1.29,1.95h0.78l1.22-1.1
			l0.61-1.34l1.34-1.83l1.58-0.61l2.19-0.97l0.73-0.97l1.71-0.37l0.61,1.1v1.22v2.8l1.34,0.49l0.73,0.61l0.49,2.07l1.71,0.98h1.59
			l0.73,1.58l-0.61,1.83v0.97l-1.34,1.58l0.24,0.98v1.34l1.71,0.97l1.58,0.12h0.85l1.71,0.37l1.34,0.97l1.58,1.59v0.73l3.17,1.34
			l1.71,1.71l0.73,1.71v1.83l-1.58,0.36l1.58,1.83l-0.61,1.34l-1.83,0.61l-0.61-0.97l-1.22,1.22l-0.98-0.49l-0.73-1.34l-0.61-0.73
			l-1.71,0.61l-0.66,0.09l0.54,1.37v1.58l-0.67,1.1l-0.67,0.98l1.34,0.97l0.24,2.68l0.97,1.58l0.61,0.85l2.07-0.12l2.68-1.1
			l0.98,2.19l0.37,0.98h2.44l0.37,1.71l2.07-0.49l0.61,1.95l1.46,1.22v2.58v1.57l-0.24,3.66l-0.73,4.39l-0.12,3.53l-0.49,4.27
			l-0.73,2.31l0.85,1.83l2.56-0.85l1.83,1.1v1.46l-2.07,2.92l-2.19,2.32l-1.95,3.17l-2.93,2.56l-2.19,1.59l-2.93,1.83l-3.05,1.95
			l-1.22,1.58l-1.46,0.61l-6.46,3.05l-3.29,0.73l-3.53,1.22l-3.17,1.34l-2.44,0.98l-3.05,0.49l-2.07,1.46l-2.19-1.34h-2.44h-3.9
			l-1.46-1.22l-0.61-2.44l0.73-2.8l0.12-1.83l1.22-1.83l1.1-1.59l0.49-2.68l0.36-1.22l1.46-2.31l1.1-2.44l2.19-2.07l1.7-0.49
			l1.96-1.34l0.68-1.71l-0.07-2.56v-2.19l0.12-3.29l2.44-3.65l0.31-1.46l-1.08-1.33l-1.25-1.47l-1.4-2.07l-1.59-1.83l-3.9-0.73
			l-1.43-1.1h-2.23h-0.73l-0.37,0.37h1.13l1.43,1.1l3.9,0.73l1.59,1.83l0.85,1.46l1.1,1.22l1.78,2.2v0.92l-1.01,1.59l-0.97,1.46
			l-0.77,1.15l-0.06,1.22l-0.04,1.47l-0.02,2.8l0.07,1.46v1.62l-1.29,1.6l-2.39,1.22l-2.35,1.79l-1.6,2.91l-1.46,2.32l-0.85,3.9
			l-1.4,2.04l-1.53,1.62l-2.68,1.46l-2.07,1.95l-0.85,1.83v1.95l0.83,1.1l0.11-1.3l0.65-1.39l2.07-1.95l3.05-1.46l0.12,1.59
			l-0.24,1.22l-0.49,1.1l0.24,1.71l0.37,1.58l0.97,0.61l2.07,0.12l2.44-0.12h1.34l1.34,0.36l0.49,0.73l1.34,0.49l1.2-0.85l1.23-0.73
			l2.68-0.37l3.05-1.34l2.56-1.22l2.07-0.73l3.66-0.73l2.32-1.22l2.07-1.1l2.07-0.73l2.32-0.24h1.46h2.07h1.22l0.85-0.61l1.22,0.61
			v1.71h1.83l1.58,0.61l0.61,1.1h1.34h1.71v1.34v1.59l-1.46,2.07l-1.83,0.85l-2.07,1.83l-1.58,1.22l-2.19,1.22l-3.29,2.07
			l-1.46,0.98l-3.41,1.34l-3.9,1.46h-3.53l-2.32,0.73h-4.27h-3.53l-1.95-1.1h-3.17l-2.93-0.61l-2.19-0.73l-2.44-0.12l-1.95-0.37
			l-1.83-0.85l-1.46-1.1l-0.61-0.55v-2.13v-0.61l-0.61-3.41l-0.73-0.98v0.49l0.61,1.71v2.74h-2.07l-0.85-1.16l-1.37-1.1l-1.32-1.7
			l-1.46-1.46l-1.22-1.46l-1.34-2.92l-0.85-2.19l-0.37-1.46l-0.36-1.95l-0.61-2.2l-0.73-2.68l-0.49-1.71l-0.12-2.56l-0.12-1.95
			v-1.58l-0.61-2.2l-0.37-1.46l-0.73-0.61l-0.73-0.64l-1.1-0.58l-1.1-0.85l-1.46-0.73l-1.59-1.83l-1.83-1.58l-1.1-3.29l-0.73-1.58
			l-1.58-1.52l-0.25-0.92h-0.85l-0.85-1.71v-0.49v-1.34v-1.22v-1.46l0.73-1.58l0.49-1.22l1.09-0.49v-0.91v-1.65l0.73-0.97l0.12-1.34
			l-0.85-0.61v-0.98l1.22-1.95l0.98-0.85l3.05-1.34h2.56l2.56,0.73l1.46,0.12l2.68-0.85h2.19l2.07,2.19l1.83,0.97l1.22,2.32h3.78
			h2.44l2.98,1.7l0.43,1.1l-1.34,0.24l-1.34,1.16l0.24,2.86l1.22,0.61l0.98-0.97l0,0l-0.24-2.87l1.34-1.16l1.34-0.25l-0.42-0.79
			l-1.89-1.4l-1.1-0.61l-0.98-2.68l0.61-2.19l0.98-0.97v-1.59l-0.49-0.97v-1.58l0.97-1.59l1.95-1.46l1.1-0.85l0.61-1.95l0.85-1.16
			l1.83-1.28l3.41-1.83l4.27-0.24l2.32,0.12l0.98-2.32l2.44-0.24l2.8-0.12l1.1-1.1l1.81,1.24l-0.1-0.51l-0.73-1.46l-1.71-1.1
			l-1.59,1.12l-2.31,0.1l-1.83,0.12l-0.97,0.98l-0.32,0.75l-0.3,0.71l-1.95-0.12h-2.32l-1.83,0.12l-0.85,0.24l-2.68,1.71l-2.2,1.28
			l-0.85,1.16l-0.46,1.46l-0.54,0.79l-1.39,1.06l-1.59,1.47l-0.66,1.8l0.22,1.29l0.27,1.27v0.85l-1.13,1.52l-0.46,1.65l0.98,2.68
			l-1.71,0.24l-2.07-0.36l-2.44,0.12l-0.97-2.44l-2.07-0.85l-1.95-1.83l-2.32-0.37l-2.68,0.85l-3.05-0.49l-3.54-0.37l-2.07,0.85
			l-1.59,0.73l-1.31,2.12h-2.59l-1.7,0.8h-1.71v-1.59v-2.93v-3.9l-1.1-0.49l1.1-1.95l-0.24-0.73l-0.85-1.1v-2.68l0.85-2.07
			l-0.85-1.1v-1.59l1.1-1.71l0.49-2.8l1.34-1.95l-0.73-1.83l-0.49-2.44l0.37-1.59l1.48-1.95l1.81-2.19l2.56-1.95l0.85-1.59l1.1-1.1
			l1.58-2.56l1.46-1.95l1.34-2.07l3.05-2.68v-1.58l0.61-1.59h0.97l0.49-1.46l0.06-1.44l2.13-0.95
			c-25.36,10.53-43.2,35.52-43.2,64.69c0,38.67,31.35,70.02,70.02,70.02c38.67,0,70.02-31.35,70.02-70.02
			C239.23,218.07,207.88,186.72,169.21,186.72z M183.38,202.48l-1.14,0.24l-1.73,1.42l-2.02,0.85l-1.2,0.9l-1.18,1.85l-0.85,1.18
			l-1.48,0.62l-1.77-0.85l-0.97-1.34l-1.22-0.73l0.12-1.22v-1.1v-1.1l-1.32-0.81l-0.27-0.78l-1.57,0.98l-1.71,0.37l-0.98,0.85
			l-2.1-0.08l1.61-1.75l1.83-0.85l1.46-0.61l-0.24-2.68l-0.61-0.85l-1.71-0.49l-1.65,0.12l-1.77,0.12h-1.71l-1.22-1.1l-1.1-0.73
			l-0.85-0.37l-2.19,0.24v-1.22v-0.98l1.58-1.1h1.1l0.73,0.49l1.46,1.1l0.85,0.98l0.85,0.37h0.61l3.17-1.34l1.22,0.73h1.59
			l1.33-1.22l0.13-1.1h1.95l1.34,0.98l1.46,0.73l1.83,0.37l0.98-0.98l1.83-1.1h0.72h1.1l-0.37,1.71l1.59,1.22l1.34,0.98v2.56
			l1.14,1.71V202.48z M211.38,275.61l-1.16,0.38l-1.16-1.73l0.49-0.85v-2.5l0.61-2.13l0.2-1.96v-1.46l0.18-2.04l0.38-2.28l0.25-1.89
			l0.2-1.65v-1.4v-1.57v-2.27l0.18-0.61l0.91-0.37l1.04-0.73l0.79-0.98v-1.46l1.43-0.97h1l0.73,1.4l1.22,0.24l0.85,0.79l0.61,1.28
			l0.73,1.4l0.3,1.28l0.06,0.99l0.18,1.32v1.16l-0.49,1.71l-1.34,1.1l-0.36,0.79v1.46l-0.06,1.65l0.18,1.58l-0.43,1.89h0.61
			l0.49,0.49l1.22-0.06l0.67,0.73l0.49,0.73v1.04v1.34l-0.73,0.43l-0.49,1.34l-0.61-0.15l-0.98,0.56l-0.55,0.7l-0.36-0.13
			l-0.98,0.49l-1.32-0.09l-1,0.09v0.45l-1.36-0.12l-1.01,0.14L211.38,275.61z M220.58,286.95l-0.49,1.1l-0.49,1.16l-0.61,0.85
			l-0.85,0.85l-0.7,1.46l-1.12,1.64l-0.67,0.67l-0.31,1.16l-0.61,1.28l-0.43,1.16l-1.46,2.44l-0.49,1.22l-0.79,1.71l-0.55,0.85
			l-0.73,1.16h-0.61l-0.24-0.55v-2.07h-2.68l-0.98-1.1l-0.99-0.38l-0.59-0.23h-1.83v-1.71l-1.34-0.91l-1.1,0.91h-2.92h-1.46
			l-1.57,0.17l2.06-1.08l0.71-0.94l0.81-0.58l1.28-1.04l1.34-0.91l1.52-0.73l0.91-0.55l2.13-1.77l1.46-1.22l1.71-1.52l0.49-0.73
			l0.73-1.34l1.1-1.28l1.22-1.22l0.91-1.52l1.13-1.1l0.82-0.37l0.73-0.3l0.73,0.3l1.34,0.91l0.49,0.73h1.04l0.98,0.42h0.55v0.79
			l0.42,1.34V286.95z M222.44,277.93l-0.21,1.95l-0.92,2.01v0.73l-0.42,0.49l-1.16-0.52l-0.84-0.16l-0.76-0.31l-1.62-1.34h-1.46
			l-0.35-0.3v-1.77l-0.51-0.7l-0.97-0.58l2.2-0.3l1.09,0.31l0.12-0.55l2.8-0.49l0.67,0.24l0.31-1.04l1.83-0.67l0.43,1.28
			L222.44,277.93z M221.86,216.99l-0.73-0.49l-0.85-1.34l-0.73-0.85l-1.58-1.71l-0.98-1.83l-1.25-0.36v1.95v1.59l0.76,1.71
			l-0.76,0.12l-1.43-0.73l-2.19-0.12l-0.73,1.95l-0.73,0.85l-1.58-0.24l-0.73-1.46l-0.85-1.46l-1.22-0.73l-1.59-0.49l-1.95,0.73
			l0.37,2.32v2.19l-1.34-0.37l-1.59,0.24l-1.83,1.4l-0.24,1.77l1.22,1.22l1.1,0.85l0.24,1.71l-0.61,1.83l-0.92-1.65l-2.01-1.65
			l-1.71-0.37l-2.95-0.41l-1.19-0.68l-0.24-2.32l0.75-0.89l0.59-1.18l0.45-1.83l0.16-0.49l-1.59-1.58l-1.49-0.44l-0.95-0.54
			l-0.33-1.41l-0.89-1.28l-1.34-1.34l-0.61-1.34l0.61-1.83l-0.61-1.1l0.61-2.31l0.37-1.95l1.83-2.32l1.59-0.61l2.8,0.12l1.46,0.12
			v-2.19v-2.07l-1.71-0.61l-1.46-0.97l-0.98-0.12l-0.98-0.85l-1.7-0.12l-1.83-0.73h-1.1l-0.61-0.12v-1.22h0.98h0.73l2.31,0.85
			l1.95,0.49l2.44,0.73l3.05,1.22l1.71,1.1l2.68,1.34l2.56,1.71l3.17,2.07l2.56,1.58l1.46,1.58l2.44,1.71l2.19,2.44l2.44,2.32
			l2.56,2.32l1.95,2.19l1.16,2.07l1.52,1.58l-0.85,1.22L221.86,216.99z"/>
		<polygon class="st0" points="188.71,232.59 191.02,234.42 192.12,236 193.84,236 193.28,234.17 191.27,233.81 189.93,232.34 
			188.34,230.88 185.9,230.76 183.51,231.3 183.83,232.59 186.63,232.59 		"/>

			
	
	</g>
	
</g>
<g id="texto">
	<g id="Slogam">
		<g id="Lisboa_2021">
			<path class="st0" d="M264.61,312.65v3.13h-12.06v-20h3.14v16.87H264.61z"/>
			<path class="st0" d="M267.11,295.77h3.14v20h-3.14V295.77z"/>
			<path class="st0" d="M272.94,312.26l2.48-1.77c0.89,1.56,2.56,2.46,4.48,2.46c2.25,0,3.95-1.08,3.95-2.61
				c0-1.85-2.63-2.96-4.96-3.97c-2.34-1.04-4.95-2.26-4.95-5.4c0-3.27,2.84-5.56,6.44-5.56c2.85,0,4.99,1.38,5.81,3.57l-2.33,1.61
				c-0.62-1.35-2-2.11-3.45-2.11c-1.84,0-3.3,1.14-3.3,2.55c0,1.56,1.85,2.12,4.28,3.16c3.16,1.39,5.62,2.92,5.62,6.07
				c0,3.55-3.08,5.83-7.13,5.83C276.57,316.11,274.08,314.57,272.94,312.26z"/>
			<path class="st0" d="M303.45,309.68c0,3.06-2.32,6.09-6.29,6.09h-7.48v-20h5.46c3.45,0,5.78,2.48,5.78,5.14
				c0,2.16-1.5,3.6-2.25,3.6C300.92,304.51,303.45,306.57,303.45,309.68z M292.8,298.83v4.99l2.48-0.01
				c1.55,0.01,2.69-1.05,2.69-2.48c0-1.43-1.24-2.49-2.65-2.49H292.8z M300.38,309.47c0-1.51-1.29-2.9-3.56-2.9l-4.02,0.01v6.13
				h4.07C298.67,312.71,300.38,311.41,300.38,309.47z"/>
			<path class="st0" d="M304.98,305.8c0-5.71,4.64-10.37,10.33-10.37c5.68,0,10.35,4.66,10.35,10.37c0,5.66-4.66,10.3-10.36,10.3
				C309.62,316.09,304.98,311.45,304.98,305.8z M322.48,305.77c0-3.96-3.24-7.18-7.18-7.18c-3.95,0-7.16,3.23-7.16,7.18
				c0,3.93,3.21,7.15,7.16,7.15C319.24,312.92,322.48,309.7,322.48,305.77z"/>
			<path class="st0" d="M339.28,312.73h-9.47l-1.36,3.04h-3.4l9.4-20.41h0.19l9.4,20.41h-3.4L339.28,312.73z M338.07,310.04
				l-3.51-7.82l-3.52,7.82H338.07z"/>
			<path class="st0" d="M367.73,312.65v3.13h-14.99v-0.67c8.22-6.66,11.57-10.12,11.57-12.55c0-2.26-1.84-3.93-3.75-3.93
				c-2.33,0-4.21,1.86-4.21,4.27l-2.87-0.69c0-3.76,3.11-6.71,6.97-6.71c3.92,0,7,3.23,7,6.91c0,3.46-3.52,7.37-8.05,10.26H367.73z"
				/>
			<path class="st0" d="M369.64,305.77c0-6.03,3.3-10.3,8.16-10.3c4.86,0,8.16,4.27,8.16,10.3c0,6.02-3.3,10.28-8.16,10.28
				C372.94,316.06,369.64,311.79,369.64,305.77z M382.82,305.77c0-4.18-2.01-7.15-5.02-7.15c-3.03,0-5.02,2.96-5.02,7.15
				c0,4.17,2,7.12,5.02,7.12C380.81,312.89,382.82,309.94,382.82,305.77z"/>
			<path class="st0" d="M402.87,312.65v3.13h-14.99v-0.67c8.22-6.66,11.57-10.12,11.57-12.55c0-2.26-1.84-3.93-3.75-3.93
				c-2.33,0-4.21,1.86-4.21,4.27l-2.87-0.69c0-3.76,3.11-6.71,6.97-6.71c3.92,0,7,3.23,7,6.91c0,3.46-3.52,7.37-8.05,10.26H402.87z"
				/>
			<path class="st0" d="M410.63,295.59v20.18h-3.14v-16.15l-2.7,0.81v-3.27l4.92-1.56H410.63z"/>
		</g>
		<g id="Migrações">
			<path class="st1" d="M272.46,268.31v20.43h-2.27v-13.61l-7.54,13.28h-0.03l-7.55-13.3v13.64h-2.26v-20.43h0.26l9.57,15.95
				l9.57-15.95H272.46z"/>
			<path class="st1" d="M276.69,268.69h2.27v20.06h-2.27V268.69z"/>
			<path class="st1" d="M302.02,279.55c0,5.62-4.33,9.47-9.51,9.47c-5.76,0-10.39-4.63-10.39-10.29s4.64-10.31,10.3-10.31
				c2.46,0.01,5.46,1.26,7.27,3.01l-1.27,1.88c-1.55-1.54-3.99-2.62-6.01-2.62c-4.23,0-7.99,3.51-7.99,8.05c0,4.4,3.54,8,8.17,8
				c3.92,0,7-2.62,7-6.17c0-0.15,0-0.29-0.01-0.4h-7.19v-2.04h9.53C301.97,278.44,302.02,278.98,302.02,279.55z"/>
			<path class="st1" d="M316.81,288.74l-5.6-7.83h-3.75v7.83h-2.26l-0.01-20.06h5.92c3.72,0,6.75,2.86,6.75,6.39
				c0,2.6-1.78,4.84-4.22,5.58l5.96,8.09H316.81z M311.18,279.01c2.39,0,4.36-1.82,4.36-3.98c0-2.31-1.99-4.11-4.36-4.11h-3.73V279
				L311.18,279.01z"/>
			<path class="st1" d="M335.01,285.45h-10.95l-1.47,3.3h-2.45l9.27-20.37h0.25l9.28,20.37h-2.46L335.01,285.45z M334.13,283.48
				l-4.59-10.31l-4.6,10.31H334.13z"/>
			<path class="st1" d="M350.75,289l-0.97,1.28c0.22-0.03,0.38-0.04,0.58-0.04c1.12,0,1.8,0.7,1.8,1.63c0,1.56-1.83,2.87-4.67,3
				l-0.58-1.46c2.54-0.12,3.66-0.67,3.66-1.49c0-0.45-0.32-0.75-1.21-0.75c-0.25,0-0.53,0.03-0.86,0.08l-0.36-0.44l1.41-1.87
				c-5.1-0.55-9.26-4.9-9.26-10.23c0-5.64,4.68-10.33,10.3-10.33c2.58,0.02,5.08,1.21,6.89,3.04l-1.32,1.78
				c-1.44-1.48-3.46-2.51-5.66-2.51c-4.03,0-7.92,3.48-7.92,8.02c0,4.53,3.86,8,7.96,8c2.26,0,4.19-1.07,5.63-2.49l1.31,1.82
				C355.85,287.69,353.65,288.97,350.75,289z"/>
			<path class="st1" d="M359.18,278.73c0-5.68,4.64-10.33,10.3-10.33c5.67,0,10.31,4.64,10.31,10.33c0,5.65-4.64,10.28-10.33,10.28
				C363.83,289,359.18,284.38,359.18,278.73z M377.51,278.72c0-4.42-3.61-8.04-8.04-8.04c-4.4,0-8,3.62-8,8.04c0,4.4,3.6,8,8,8
				C373.9,286.72,377.51,283.12,377.51,278.72z M364.83,266.13c0.47-1.98,1.8-2.48,2.8-2.48c1.87,0,2.38,1.79,3.75,1.79
				c0.79,0,1.34-0.63,1.62-1.65l1.17,0.46c-0.46,1.98-1.79,2.48-2.79,2.48c-1.87,0-2.39-1.79-3.76-1.79c-0.79,0-1.33,0.62-1.62,1.64
				L364.83,266.13z"/>
			<path class="st1" d="M385.23,270.91v6.34h8.25v2.26h-8.25v6.97h9.52v2.25h-11.78v-20.06h11.78v2.23H385.23z"/>
			<path class="st1" d="M397.08,285.16l1.74-1.28c0.91,1.72,2.96,2.86,5.09,2.86c2.62,0,4.76-1.42,4.76-3.4
				c0-2.25-2.87-3.33-5.44-4.3c-2.46-0.96-5.21-2.17-5.21-5.26c0-3.08,2.77-5.39,6.3-5.39c2.97,0,5,1.63,5.75,3.61l-1.7,1.14
				c-0.65-1.51-2.27-2.53-4.07-2.53c-2.15,0-3.99,1.42-3.99,3.21c0,1.94,2.2,2.65,4.79,3.65c3.01,1.22,5.86,2.61,5.86,5.84
				c0,3.46-3.2,5.71-7.05,5.71C400.6,289.02,398.03,287.3,397.08,285.16z"/>
		</g>
		<g id="Forum">
			<path class="st1" d="M253.74,254.67v2.72h3.36v0.92h-3.36v3.64h-0.92v-8.2h4.8v0.92H253.74z"/>
			<path class="st1" d="M258.14,257.87c0-2.32,1.89-4.21,4.2-4.21c2.31,0,4.2,1.89,4.2,4.21c0,2.3-1.89,4.19-4.21,4.19
				C260.03,262.05,258.14,260.17,258.14,257.87z M265.6,257.86c0-1.8-1.47-3.27-3.27-3.27c-1.79,0-3.26,1.47-3.26,3.27
				c0,1.79,1.46,3.26,3.26,3.26C264.13,261.12,265.6,259.65,265.6,257.86z"/>
			<path class="st1" d="M272.57,261.94l-2.28-3.19h-1.53v3.19h-0.92l0-8.17h2.41c1.51,0,2.75,1.17,2.75,2.6
				c0,1.06-0.72,1.97-1.72,2.27l2.43,3.29H272.57z M270.28,257.98c0.97,0,1.77-0.74,1.77-1.62c0-0.94-0.81-1.67-1.77-1.67h-1.52
				v3.29L270.28,257.98z"/>
			<path class="st1" d="M274.27,258.77v-5h0.93v4.99c0,1.37,0.89,2.37,2.1,2.37c1.21,0,2.1-1,2.1-2.37v-4.99h0.93v5
				c0,1.9-1.29,3.3-3.03,3.3C275.56,262.07,274.27,260.68,274.27,258.77z"/>
			<path class="st1" d="M289.97,253.62v8.32h-0.92v-5.54l-3.07,5.41h-0.01l-3.08-5.42v5.55h-0.92v-8.32h0.1l3.9,6.5l3.9-6.5H289.97z
				"/>
			<path class="st1" d="M294.22,260.49l0.71-0.52c0.37,0.7,1.21,1.17,2.07,1.17c1.07,0,1.94-0.58,1.94-1.38
				c0-0.92-1.17-1.36-2.21-1.75c-1-0.39-2.12-0.88-2.12-2.14c0-1.26,1.13-2.19,2.56-2.19c1.21,0,2.04,0.66,2.34,1.47l-0.7,0.47
				c-0.26-0.61-0.92-1.03-1.66-1.03c-0.88,0-1.63,0.58-1.63,1.31c0,0.79,0.9,1.08,1.95,1.48c1.23,0.5,2.39,1.06,2.39,2.38
				c0,1.41-1.3,2.33-2.88,2.33C295.66,262.06,294.61,261.36,294.22,260.49z"/>
			<path class="st1" d="M300.65,257.87c0-2.32,1.89-4.21,4.2-4.21c2.31,0,4.2,1.89,4.2,4.21c0,2.3-1.89,4.19-4.2,4.19
				C302.54,262.05,300.65,260.17,300.65,257.87z M308.11,257.86c0-1.8-1.47-3.27-3.27-3.27c-1.79,0-3.26,1.47-3.26,3.27
				c0,1.79,1.46,3.26,3.26,3.26C306.65,261.12,308.11,259.65,308.11,257.86z"/>
			<path class="st1" d="M309.92,257.87c0-2.3,1.91-4.21,4.19-4.21c1.05,0.01,2.07,0.49,2.81,1.24l-0.54,0.72
				c-0.59-0.6-1.41-1.02-2.3-1.02c-1.64,0-3.23,1.42-3.23,3.27c0,1.84,1.57,3.26,3.24,3.26c0.92,0,1.71-0.44,2.3-1.01l0.53,0.74
				c-0.68,0.67-1.6,1.2-2.8,1.2C311.85,262.05,309.92,260.18,309.92,257.87z"/>
			<path class="st1" d="M318.05,253.78h0.92v8.17h-0.92V253.78z"/>
			<path class="st1" d="M326.02,260.6h-4.46l-0.6,1.34h-1l3.78-8.29h0.1l3.78,8.29h-1L326.02,260.6z M325.67,259.8l-1.87-4.2
				l-1.88,4.2H325.67z"/>
			<path class="st1" d="M333.54,261.03v0.92h-4.92v-8.17h0.92v7.25H333.54z"/>
			<path class="st1" d="M338.63,254.68v2.58h3.36v0.92h-3.36v2.84h3.88v0.92h-4.8v-8.17h4.8v0.91H338.63z"/>
			<path class="st1" d="M343.89,258.77v-5h0.93v4.99c0,1.37,0.89,2.37,2.1,2.37c1.21,0,2.1-1,2.1-2.37v-4.99h0.93v5
				c0,1.9-1.29,3.3-3.02,3.3C345.18,262.07,343.89,260.68,343.89,258.77z"/>
			<path class="st1" d="M356.32,261.94l-2.28-3.19h-1.53v3.19h-0.92l-0.01-8.17H354c1.52,0,2.75,1.17,2.75,2.6
				c0,1.06-0.72,1.97-1.72,2.27l2.43,3.29H356.32z M354.03,257.98c0.97,0,1.77-0.74,1.77-1.62c0-0.94-0.81-1.67-1.77-1.67h-1.52
				v3.29L354.03,257.98z"/>
			<path class="st1" d="M357.98,257.87c0-2.32,1.89-4.21,4.2-4.21c2.31,0,4.2,1.89,4.2,4.21c0,2.3-1.89,4.19-4.21,4.19
				C359.87,262.05,357.98,260.17,357.98,257.87z M365.45,257.86c0-1.8-1.47-3.27-3.27-3.27c-1.8,0-3.26,1.47-3.26,3.27
				c0,1.79,1.46,3.26,3.26,3.26C363.98,261.12,365.45,259.65,365.45,257.86z"/>
			<path class="st1" d="M367.68,253.78h2.59c1.58,0,2.87,1.19,2.87,2.63c0,1.39-1.29,2.52-2.87,2.52h-1.67v3.01h-0.92V253.78z
				 M372.22,256.4c0-0.94-0.88-1.71-1.95-1.71h-1.67v3.33l1.67,0.01C371.34,258.03,372.22,257.3,372.22,256.4z"/>
			<path class="st1" d="M375.19,254.68v2.58h3.36v0.92h-3.36v2.84h3.88v0.92h-4.8v-8.17h4.8v0.91H375.19z"/>
			<path class="st1" d="M380.45,258.77v-5h0.93v4.99c0,1.37,0.89,2.37,2.1,2.37c1.21,0,2.1-1,2.1-2.37v-4.99h0.93v5
				c0,1.9-1.29,3.3-3.03,3.3C381.74,262.07,380.45,260.68,380.45,258.77z"/>
			<path class="st1" d="M397.62,257.87c0,2.49-1.62,4.08-4.16,4.08h-2.27v-8.17l2.27-0.01C396,253.77,397.62,255.36,397.62,257.87z
				 M396.7,257.87c0-1.93-1.27-3.18-3.24-3.18h-1.35v6.33h1.37C395.43,261.02,396.7,259.79,396.7,257.87z"/>
			<path class="st1" d="M403.5,260.6h-4.46l-0.6,1.34h-1l3.78-8.29h0.1l3.78,8.29h-1L403.5,260.6z M403.14,259.8l-1.87-4.2
				l-1.88,4.2H403.14z"/>
			<path class="st1" d="M405.32,260.49l0.71-0.52c0.37,0.7,1.21,1.17,2.07,1.17c1.07,0,1.94-0.58,1.94-1.38
				c0-0.92-1.17-1.36-2.21-1.75c-1-0.39-2.12-0.88-2.12-2.14c0-1.26,1.13-2.19,2.56-2.19c1.21,0,2.04,0.66,2.34,1.47l-0.69,0.47
				c-0.27-0.61-0.92-1.03-1.66-1.03c-0.88,0-1.63,0.58-1.63,1.31c0,0.79,0.9,1.08,1.95,1.48c1.23,0.5,2.39,1.06,2.39,2.38
				c0,1.41-1.3,2.33-2.87,2.33C406.76,262.06,405.71,261.36,405.32,260.49z"/>
		</g>
		<g id="M">
			<path class="st3" d="M410.95,198.77v49.63h-13.05V228.9l-13.24,18.67h-0.09L371.3,228.9v19.49h-13.05v-49.63h5.25l21.11,28.92
				l21.11-28.92H410.95z"/>
		</g>
		<g id="E">
			<path class="st2" d="M336,211.24l0.05,6.86l15.62-0.12l0.08,10.89l-15.62,0.12l0.05,7.05l18.97-0.14l0.09,12.23l-31.87,0.24
				l-0.37-49.17l31.87-0.24l0.09,12.14L336,211.24z"/>
		</g>
		<g id="S">
			<path class="st3" d="M285.05,240.07l7.9-7.75c2.04,3.02,5.86,4.85,9.98,4.85c2.77,0,5.49-1.01,5.49-3.02
				c0-2.53-5.03-4.76-9.85-6.89c-6.22-2.68-11.56-6.77-11.56-14.18c0-8.51,8.08-14.58,17.42-14.58c7.5,0,13.36,3.54,15.28,8.39
				l-7.53,7.26c-1.46-2.59-5.25-3.72-7.59-3.72c-2.68,0-4.61,1.37-4.61,3.05c0,2.26,3.48,2.99,8.78,5.22
				c7.69,3.23,12.78,7.93,12.78,15.19c0,9.36-8.72,15.19-18.57,15.19C294.87,249.06,287.52,245.49,285.05,240.07z"/>
		</g>
		<g id="F">
			<path class="st4" d="M265.78,211.37v7.96h15.62v10.92h-15.62v18.21h-12.9V199.1h31.87v12.26H265.78z"
			/>
			
		</g>
	</g>
</g>
</svg>


