<svg xmlns="http://www.w3.org/2000/svg" viewBox="0 0 311.79 140.04"><defs><style>.cls-1{fill:#fff;}</style></defs><g id="Layer_2" data-name="Layer 2"><g id="Layer_1-2" data-name="Layer 1"><g id="Slogam"><g id="Lisboa_2021" data-name="Lisboa 2021"><path class="cls-1" d="M165.42,125.93v3.12h-12v-20h3.13v16.87Z"/><path class="cls-1" d="M167.92,109.06h3.14v20h-3.14Z"/><path class="cls-1" d="M173.75,125.54l2.48-1.77a5,5,0,0,0,4.48,2.46c2.25,0,3.95-1.08,3.95-2.61,0-1.85-2.63-3-5-4s-4.95-2.26-4.95-5.4,2.85-5.55,6.44-5.55c2.86,0,5,1.37,5.81,3.57l-2.33,1.61a3.74,3.74,0,0,0-3.45-2.11c-1.84,0-3.3,1.14-3.3,2.56s1.85,2.12,4.28,3.16c3.16,1.39,5.62,2.92,5.62,6.07,0,3.55-3.08,5.83-7.14,5.83A7.38,7.38,0,0,1,173.75,125.54Z"/><path class="cls-1" d="M204.26,123a6.06,6.06,0,0,1-6.29,6.09h-7.48v-20H196c3.45,0,5.78,2.48,5.78,5.13,0,2.16-1.5,3.6-2.24,3.6A5.08,5.08,0,0,1,204.26,123Zm-10.64-10.85v5h2.48a2.51,2.51,0,0,0,2.69-2.48,2.57,2.57,0,0,0-2.65-2.49Zm7.58,10.64c0-1.51-1.29-2.9-3.56-2.9h-4V126h4.07A3.37,3.37,0,0,0,201.2,122.75Z"/><path class="cls-1" d="M205.79,119.08a10.34,10.34,0,1,1,10.32,10.3A10.37,10.37,0,0,1,205.79,119.08Zm17.51,0a7.17,7.17,0,1,0-7.19,7.15A7.21,7.21,0,0,0,223.3,119.05Z"/><path class="cls-1" d="M240.1,126h-9.47l-1.36,3h-3.4l9.4-20.4h.19l9.4,20.4h-3.4Zm-1.22-2.69-3.51-7.81-3.52,7.81Z"/><path class="cls-1" d="M268.54,125.93v3.12h-15v-.67c8.22-6.66,11.57-10.12,11.57-12.55a3.88,3.88,0,0,0-3.75-3.93,4.19,4.19,0,0,0-4.2,4.26l-2.87-.69a6.81,6.81,0,0,1,7-6.71,7,7,0,0,1,7,6.91c0,3.46-3.52,7.37-8,10.26Z"/><path class="cls-1" d="M270.46,119.05c0-6,3.3-10.29,8.16-10.29s8.16,4.27,8.16,10.29-3.3,10.29-8.16,10.29S270.46,125.07,270.46,119.05Zm13.17,0c0-4.18-2-7.14-5-7.14s-5,3-5,7.14,2,7.13,5,7.13S283.63,123.22,283.63,119.05Z"/><path class="cls-1" d="M303.68,125.93v3.12h-15v-.67c8.22-6.66,11.57-10.12,11.57-12.55a3.88,3.88,0,0,0-3.74-3.93,4.2,4.2,0,0,0-4.21,4.26l-2.86-.69a6.8,6.8,0,0,1,7-6.71,7,7,0,0,1,7,6.91c0,3.46-3.52,7.37-8.05,10.26Z"/><path class="cls-1" d="M311.44,108.87v20.18H308.3V112.9l-2.7.81v-3.28l4.92-1.56Z"/></g><g id="Migrações"><path class="cls-1" d="M173.28,81.6V102H171V88.41l-7.54,13.28h0l-7.56-13.3V102h-2.26V81.6h.26l9.57,16,9.57-16Z"/><path class="cls-1" d="M177.5,82h2.27V102H177.5Z"/><path class="cls-1" d="M202.83,92.83a9.29,9.29,0,0,1-9.5,9.47,10.3,10.3,0,1,1-.09-20.6,11.41,11.41,0,0,1,7.27,3l-1.28,1.88a9.21,9.21,0,0,0-6-2.63,8,8,0,1,0,.18,16.05c3.93,0,7-2.63,7-6.17,0-.15,0-.29,0-.4h-7.2v-2h9.54C202.78,91.72,202.83,92.26,202.83,92.83Z"/><path class="cls-1" d="M217.62,102,212,94.2h-3.74V102H206V82h5.92a6.59,6.59,0,0,1,6.76,6.39,5.88,5.88,0,0,1-4.22,5.58l6,8.09ZM212,92.3a4.06,4.06,0,1,0,0-8.09h-3.73v8.07Z"/><path class="cls-1" d="M235.82,98.73H224.87L223.4,102H221l9.27-20.37h.25L239.75,102h-2.46Zm-.87-2-4.59-10.31-4.6,10.31Z"/><path class="cls-1" d="M251.57,102.29l-1,1.28a4,4,0,0,1,.58,0,1.64,1.64,0,0,1,1.81,1.63c0,1.56-1.83,2.87-4.67,3l-.58-1.46c2.53-.12,3.65-.67,3.65-1.49,0-.45-.32-.75-1.2-.75a5.73,5.73,0,0,0-.86.08l-.36-.44,1.4-1.86a10.31,10.31,0,0,1,1-20.56,10.06,10.06,0,0,1,6.89,3L257,86.5A8,8,0,0,0,251.33,84,8,8,0,1,0,257,97.52l1.31,1.82A9.54,9.54,0,0,1,251.57,102.29Z"/><path class="cls-1" d="M260,92a10.31,10.31,0,1,1,10.29,10.28A10.35,10.35,0,0,1,260,92Zm18.33,0a8,8,0,1,0-8,8A8.06,8.06,0,0,0,278.33,92ZM265.65,79.41a2.82,2.82,0,0,1,2.8-2.48c1.87,0,2.37,1.79,3.74,1.79.79,0,1.35-.63,1.62-1.65l1.17.46A2.8,2.8,0,0,1,272.19,80c-1.86,0-2.39-1.79-3.75-1.79-.79,0-1.34.63-1.62,1.65Z"/><path class="cls-1" d="M286.05,84.2v6.34h8.25v2.27h-8.25v7h9.52V102H283.79V82h11.78V84.2Z"/><path class="cls-1" d="M297.89,98.44l1.74-1.28a5.81,5.81,0,0,0,5.09,2.86c2.62,0,4.77-1.42,4.77-3.4,0-2.25-2.88-3.33-5.44-4.3s-5.21-2.16-5.21-5.26,2.77-5.39,6.29-5.39a5.88,5.88,0,0,1,5.75,3.61l-1.7,1.14a4.41,4.41,0,0,0-4.07-2.52c-2.15,0-4,1.42-4,3.21s2.21,2.65,4.79,3.64c3,1.22,5.86,2.62,5.86,5.84,0,3.46-3.19,5.71-7.05,5.71A7.3,7.3,0,0,1,297.89,98.44Z"/></g><g id="Forum"><path class="cls-1" d="M154.55,68v2.73h3.37v.92h-3.37v3.64h-.92V67h4.8V68Z"/><path class="cls-1" d="M159,71.15a4.2,4.2,0,1,1,4.19,4.18A4.21,4.21,0,0,1,159,71.15Zm7.47,0a3.27,3.27,0,1,0-3.28,3.26A3.28,3.28,0,0,0,166.42,71.14Z"/><path class="cls-1" d="M173.38,75.23,171.1,72h-1.52v3.19h-.93V67.06h2.41a2.67,2.67,0,0,1,2.75,2.6,2.39,2.39,0,0,1-1.71,2.27l2.42,3.3Zm-2.29-4a1.65,1.65,0,1,0,0-3.29h-1.52v3.29Z"/><path class="cls-1" d="M175.09,72.05v-5H176v5a2.12,2.12,0,1,0,4.2,0v-5h.92v5a3,3,0,1,1-6,0Z"/><path class="cls-1" d="M190.78,66.9v8.33h-.92V69.68l-3.07,5.41h0l-3.08-5.42v5.56h-.92V66.9h.1l3.9,6.5,3.9-6.5Z"/><path class="cls-1" d="M195,73.77l.71-.53a2.36,2.36,0,0,0,2.07,1.17c1.07,0,1.94-.58,1.94-1.38s-1.17-1.36-2.21-1.76-2.13-.88-2.13-2.14A2.36,2.36,0,0,1,198,66.94a2.39,2.39,0,0,1,2.34,1.47l-.7.46a1.79,1.79,0,0,0-1.65-1,1.5,1.5,0,0,0-1.63,1.31c0,.79.9,1.08,2,1.48,1.23.5,2.39,1.07,2.39,2.38s-1.31,2.33-2.88,2.33A3,3,0,0,1,195,73.77Z"/><path class="cls-1" d="M201.47,71.15a4.2,4.2,0,1,1,4.19,4.18A4.21,4.21,0,0,1,201.47,71.15Zm7.46,0a3.27,3.27,0,1,0-3.27,3.26A3.28,3.28,0,0,0,208.93,71.14Z"/><path class="cls-1" d="M210.73,71.15a4.24,4.24,0,0,1,4.2-4.21,4.07,4.07,0,0,1,2.81,1.24l-.54.72a3.28,3.28,0,0,0-2.31-1,3.27,3.27,0,0,0,0,6.53,3.26,3.26,0,0,0,2.29-1l.54.74a3.88,3.88,0,0,1-2.81,1.2A4.22,4.22,0,0,1,210.73,71.15Z"/><path class="cls-1" d="M218.86,67.06h.92v8.17h-.92Z"/><path class="cls-1" d="M226.84,73.88h-4.46l-.6,1.35h-1l3.78-8.3h.1l3.78,8.3h-1Zm-.36-.8-1.87-4.2-1.87,4.2Z"/><path class="cls-1" d="M234.36,74.31v.92h-4.93V67.06h.92v7.25Z"/><path class="cls-1" d="M239.45,68v2.59h3.36v.92h-3.36v2.84h3.87v.92h-4.79V67.06h4.79V68Z"/><path class="cls-1" d="M244.71,72.05v-5h.92v5a2.12,2.12,0,1,0,4.2,0v-5h.93v5a3,3,0,1,1-6,0Z"/><path class="cls-1" d="M257.13,75.23,254.85,72h-1.52v3.19h-.92V67.06h2.41a2.67,2.67,0,0,1,2.75,2.6,2.39,2.39,0,0,1-1.71,2.27l2.42,3.3Zm-2.29-4a1.65,1.65,0,1,0,0-3.29h-1.52v3.29Z"/><path class="cls-1" d="M258.8,71.15A4.2,4.2,0,1,1,263,75.33,4.21,4.21,0,0,1,258.8,71.15Zm7.46,0A3.27,3.27,0,1,0,263,74.4,3.28,3.28,0,0,0,266.26,71.14Z"/><path class="cls-1" d="M268.49,67.06h2.59A2.76,2.76,0,0,1,274,69.69a2.72,2.72,0,0,1-2.87,2.52h-1.67v3h-.92ZM273,69.68A1.84,1.84,0,0,0,271.08,68h-1.67V71.3h1.67A1.8,1.8,0,0,0,273,69.68Z"/><path class="cls-1" d="M276,68v2.59h3.36v.92H276v2.84h3.88v.92h-4.8V67.06h4.8V68Z"/><path class="cls-1" d="M281.26,72.05v-5h.93v5a2.11,2.11,0,1,0,4.19,0v-5h.93v5a3,3,0,1,1-6.05,0Z"/><path class="cls-1" d="M298.44,71.15a3.85,3.85,0,0,1-4.17,4.08H292V67.06h2.27A3.86,3.86,0,0,1,298.44,71.15Zm-.93,0A3,3,0,0,0,294.27,68h-1.35V74.3h1.37A3,3,0,0,0,297.51,71.15Z"/><path class="cls-1" d="M304.31,73.88h-4.46l-.59,1.35h-1l3.77-8.3h.1l3.78,8.3h-1Zm-.35-.8-1.87-4.2-1.88,4.2Z"/><path class="cls-1" d="M306.14,73.77l.71-.53a2.36,2.36,0,0,0,2.07,1.17c1.07,0,1.94-.58,1.94-1.38s-1.17-1.36-2.21-1.76-2.13-.88-2.13-2.14a2.6,2.6,0,0,1,4.91-.72l-.7.46a1.79,1.79,0,0,0-1.65-1,1.5,1.5,0,0,0-1.63,1.31c0,.79.9,1.08,1.95,1.48,1.23.5,2.39,1.07,2.39,2.38s-1.3,2.33-2.87,2.33A3,3,0,0,1,306.14,73.77Z"/></g><g id="M"><path class="cls-1" d="M311.76,12.05V61.68H298.71V42.18L285.47,60.85h-.09L272.11,42.18v19.5H259.06V12.05h5.24L285.41,41l21.11-28.91Z"/></g><g id="E"><path class="cls-1" d="M236.82,24.52l.05,6.86,15.62-.11.08,10.88L237,42.27l.05,7,19-.15.09,12.23-31.87.24-.38-49.16,31.88-.24.09,12.14Z"/></g><g id="S"><path class="cls-1" d="M185.86,53.35l7.9-7.75a12,12,0,0,0,10,4.85c2.77,0,5.49-1,5.49-3,0-2.53-5-4.76-9.85-6.89-6.23-2.69-11.57-6.77-11.57-14.19,0-8.51,8.09-14.58,17.42-14.58,7.5,0,13.36,3.54,15.28,8.39L213,27.42c-1.47-2.59-5.25-3.72-7.6-3.72-2.68,0-4.6,1.37-4.6,3.05,0,2.26,3.47,3,8.78,5.22,7.69,3.23,12.78,7.93,12.78,15.19,0,9.36-8.72,15.19-18.57,15.19C195.69,62.35,188.33,58.78,185.86,53.35Z"/></g><g id="F"><path class="cls-1" d="M166.59,24.65v8h15.62V43.53H166.59V61.74h-12.9V12.38h31.87V24.65Z"/></g></g><path class="cls-1" d="M70,0A69.81,69.81,0,0,0,46.48,4.07l2.82-.86V4.55l.7.85V6.62l.76,1L52,8.33l.85.61,1,1.09,2.56.37,1.46.73,1,1.46,1.46.61,1.46-.61.49,2.08-1.34,1.22-1.46-.13-2.32.13-1.58.48-2,1.59-2.2.85-.12,1,1,1.22,1.09.37.85.49.74,1.22.61,1.09V27.1l.85,1.22h1.22l.61-1.22,1.22-1.47,1.21-1.33L61.12,23l.61-2.44.49-1.34,2-.61,1-.73,3.28.24,1.59,1v2.2l1.46.85,1.1,1.34,1.29,1.95h.78l1.22-1.09L76.48,23l1.34-1.83,1.59-.61,2.19-1,.73-1L84,18.2l.61,1.1v4l1.34.49.73.61.49,2.07,1.7,1H90.5l.73,1.59-.61,1.83v1l-1.34,1.58.24,1v1.34l1.71,1,1.58.12h.86l1.7.36,1.34,1,1.59,1.58v.74l3.17,1.34,1.7,1.7.73,1.71v1.83l-1.58.36,1.58,1.83-.6,1.34-1.83.61-.61-1-1.22,1.22-1-.49-.73-1.34-.61-.73-1.7.6-.66.1L95.49,51v1.58l-.67,1.1-.67,1,1.34,1,.25,2.68,1,1.58.61.86,2.07-.12,2.69-1.1,1,2.19.37,1h2.43l.37,1.71,2.07-.49.61,2,1.46,1.22v4.14l-.24,3.66-.73,4.39-.12,3.53-.49,4.27-.73,2.31.85,1.83,2.56-.85,1.83,1.09v1.47l-2.07,2.92L109,98.16l-2,3.17-2.92,2.55-2.2,1.59L99,107.3l-3,2-1.22,1.58-1.46.61-6.46,3-3.29.73L80,116.44l-3.17,1.34-2.44,1-3,.48-2.07,1.47-2.19-1.35H60.76l-1.46-1.22-.61-2.43.73-2.8.12-1.83,1.22-1.83,1.09-1.59.49-2.68.37-1.22,1.46-2.31L65.27,99l2.19-2.07,1.7-.49,2-1.34.67-1.71-.06-2.56V88.65l.12-3.29,2.44-3.66.31-1.46-1.08-1.33-1.25-1.48-1.39-2.06-1.59-1.84-3.9-.72L64,71.71H61l-.36.36h1.13l1.43,1.1,3.9.73,1.58,1.83.85,1.46,1.1,1.22,1.78,2.19v.92l-1,1.59-1,1.46-.77,1.15-.05,1.22,0,1.47,0,2.8.07,1.46v1.62l-1.29,1.6-2.38,1.22L63.57,98.9,62,101.81l-1.47,2.32-.85,3.9-1.4,2-1.53,1.63-2.68,1.46L52,115.1l-.85,1.83v1.95L52,120l.12-1.3.64-1.39,2.08-2,3-1.46.12,1.58-.24,1.22-.49,1.1.25,1.7.36,1.59,1,.61,2.07.12,2.44-.12h1.34L66,122l.48.73,1.35.5,1.2-.86,1.23-.73,2.68-.37L76,120l2.56-1.22,2.07-.73,3.66-.73,2.32-1.22L88.67,115l2.07-.73,2.32-.25h4.75l.85-.61,1.22.61v1.71h1.83l1.58.61.61,1.09h3v2.93l-1.46,2.07-1.83.86-2.07,1.82L100,126.31l-2.19,1.22-3.29,2.07-1.46,1-3.42,1.34-3.9,1.46H82.21l-2.32.73h-7.8l-2-1.09H67l-2.92-.62-2.2-.73-2.43-.12-2-.36-1.83-.86-1.47-1.09-.6-.55v-2.75L53,122.53l-.73-1v.49l.6,1.7v2.74H50.76l-.85-1.15-1.37-1.1-1.31-1.71-1.46-1.46-1.22-1.46-1.34-2.93-.86-2.19L42,113l-.37-1.94-.61-2.2-.73-2.68-.49-1.7-.12-2.56-.12-2V98.4l-.61-2.2-.37-1.46-.73-.61-.73-.64L36,92.92l-1.09-.86-1.46-.73L31.87,89.5,30,87.92,29,84.63,28.21,83l-1.58-1.52-.24-.92h-.86l-.85-1.7V74.39l.73-1.58.49-1.22L27,71.1V68.54l.73-1,.12-1.34L27,65.61v-1l1.21-2,1-.86,3.05-1.33H34.8l2.55.73,1.47.12,2.68-.85h2.19l2.08,2.19,1.82,1L48.81,66H55l3,1.7.43,1.1L57.1,69l-1.34,1.16L56,73.05l1.22.61,1-1h0L58,69.82l1.35-1.16,1.33-.24-.42-.8-1.89-1.4-1.1-.61-1-2.68.61-2.19,1-1V58.18l-.49-1V55.62l1-1.59,2-1.46,1.1-.85L62,49.77l.85-1.16,1.83-1.28,3.41-1.83,4.27-.24,2.31.12,1-2.32,2.44-.24,2.8-.12L82,41.6l1.81,1.25-.1-.52-.73-1.46-1.71-1.1-1.58,1.12-2.32.1-1.82.12-1,1-.32.75-.3.71-2-.12H69.65l-1.82.12L67,43.8l-2.68,1.7L62.1,46.78l-.86,1.16-.45,1.46-.54.79-1.39,1.07-1.59,1.46-.66,1.8.22,1.29.27,1.27v.85L56,59.46l-.45,1.64,1,2.69-1.7.24-2.08-.37-2.43.13-1-2.44-2.07-.85-1.95-1.83L43,58.3l-2.68.85-3.05-.48L33.7,58.3l-2.07.85L30,59.88,28.73,62H26.14l-1.7.8H22.73V54.4l-1.1-.49L22.73,52l-.24-.73-.86-1.1V47.45l.86-2.07-.86-1.1V42.7L22.73,41l.49-2.8,1.34-1.95-.73-1.83L23.34,32l.37-1.58,1.47-1.95L27,26.25l2.56-1.95.85-1.59,1.1-1.1,1.58-2.56,1.46-1.95L35.89,15l3-2.68V10.77l.61-1.59h1L41,7.72l.06-1.44,2.13-1A70,70,0,1,0,70,0ZM84.2,15.76,83.06,16l-1.72,1.41-2,.85-1.2.91L76.92,21l-.84,1.18-1.48.62L72.82,22l-1-1.34-1.22-.73.12-1.22V16.5l-1.32-.81-.27-.78-1.58,1-1.7.36-1,.85L62.8,17l1.62-1.76,1.82-.85,1.46-.61-.24-2.68-.61-.85-1.7-.49-1.65.12L61.73,10H60L58.81,8.94l-1.1-.73-.85-.37-2.2.25V5.89l1.59-1.1h1.09l.74.49,1.46,1.1.85,1,.86.37h.61L65,6.38l1.22.73h1.59l1.33-1.22.13-1.1h1.95l1.34,1L74,6.5l1.83.37,1-1,1.82-1.1H80.5L80.14,6.5l1.58,1.22,1.34,1v2.56L84.2,13Zm28,73.13-1.16.39-1.15-1.73.48-.85V84.2l.61-2.12.2-2V78.66l.18-2,.38-2.28.26-1.9.2-1.64V65.55l.19-.6.91-.37,1-.73.8-1V61.41l1.43-1h1l.74,1.4,1.21.24.86.79.61,1.28.73,1.4.3,1.28.06,1,.19,1.32v1.16l-.49,1.7-1.34,1.1-.37.79v1.47L120,77l.18,1.58-.42,1.89h.61l.48.49,1.22-.06.67.73.49.73v2.38l-.73.43L122,86.52l-.61-.16-1,.57-.55.69-.35-.13-1,.49-1.32-.09-1,.09v.45l-1.36-.12-1,.14Zm9.2,11.34-.48,1.1-.49,1.15-.61.86-.85.85-.71,1.46-1.12,1.65-.67.67-.31,1.16-.61,1.28-.42,1.15L113.66,114l-.49,1.22-.79,1.71-.55.85-.73,1.16h-.61l-.25-.55v-2.07h-2.68l-1-1.1-1-.38-.59-.23h-1.83V112.9l-1.34-.91-1.1.91H96.35l-1.57.17L96.84,112l.71-.94.81-.58,1.28-1,1.34-.91,1.52-.74.92-.54,2.13-1.77,1.46-1.22,1.71-1.52.49-.73.73-1.34L111,99.38l1.22-1.22.92-1.53,1.13-1.1.82-.36.73-.3.73.3,1.34.91.49.74h1l1,.42H121V98l.42,1.34Zm1.86-9-.21,2-.92,2v.73l-.42.49-1.17-.52-.84-.15-.76-.31-1.62-1.34h-1.46l-.35-.3V92l-.51-.7-1-.58,2.2-.3,1.09.3.12-.55,2.81-.48.67.24.3-1,1.83-.67.43,1.28Zm-.58-60.94-.73-.49-.85-1.34-.73-.85-1.59-1.71-1-1.83-1.25-.36v3.53l.76,1.71-.76.12-1.43-.73-2.2-.12-.73,1.95-.73.85-1.58-.25-.73-1.46-.86-1.46-1.22-.73-1.58-.49-1.95.73.36,2.32v2.19l-1.34-.36-1.58.24-1.83,1.4-.24,1.77,1.22,1.22,1.09.85.25,1.71-.61,1.83-.92-1.65-2-1.65-1.7-.36-3-.41-1.2-.69-.24-2.32.75-.88.59-1.19.44-1.82.17-.49L92.2,27.46,90.71,27l-.94-.54-.34-1.41-.88-1.27-1.34-1.34-.61-1.34.61-1.83-.61-1.1.61-2.31.36-2,1.83-2.32L91,11l2.8.12,1.46.12V7l-1.71-.61-1.46-1-1-.12-1-.85-1.7-.12L86.6,3.58H85.5l-.61-.13V2.23H86.6l2.31.86,2,.49,2.44.73,3,1.22,1.7,1.09L100.73,8l2.57,1.71,3.16,2.07L109,13.33l1.46,1.58,2.44,1.71,2.2,2.43,2.43,2.32,2.57,2.32,1.94,2.19L123.22,28l1.53,1.59-.86,1.21Z"/><path class="cls-1" d="M45.4,4.46l.73-.27Z"/><polygon class="cls-1" points="89.52 45.87 91.84 47.7 92.94 49.28 94.65 49.28 94.09 47.45 92.08 47.09 90.74 45.62 89.16 44.16 86.72 44.04 84.33 44.59 84.65 45.87 87.45 45.87 89.52 45.87"/></g></g></svg>