<svg id="bf31d355-f29f-4741-9bea-3459533e9556" data-name="Layer 1" xmlns="http://www.w3.org/2000/svg" viewBox="0 0 397.15 397.15">
  <defs>
    <style>
      .ad70c2f6-b948-46ef-821a-228cd123d2a3 {
        fill: #ec1e24;
      }

      .f4a1d78b-9e9e-4d58-8daa-3a5ff34a01e4 {
        fill: #11b5c8;
      }

      .aea8a0c7-1b07-43b8-9761-bf4c98770c5c {
        fill: #f26c3d;
      }

      .bf76c399-7104-4927-b64f-06eca932e830 {
        fill: #471114;
      }

      .f5b49eb8-27ca-402e-a5f8-e3a5b33dcc5f {
        fill: #ec2224;
      }

      .baf43a71-cfb4-442b-bc20-b80a96c162ec {
        fill: #4f1117;
      }

      .fdc6067a-bff7-4ad2-9f3b-577b441048b7 {
        fill: #f26f33;
      }

      .ef8bcf45-c0b2-497c-85b1-338800a3449e {
        fill: #fff;
      }
    </style>
  </defs>
  <circle class="ad70c2f6-b948-46ef-821a-228cd123d2a3" cx="198.57" cy="198.57" r="198.57"/>
  <g id="a3e4b6b8-6aca-4097-82a9-eae0540c6351" data-name="Pangeia">
    <path class="f4a1d78b-9e9e-4d58-8daa-3a5ff34a01e4" d="M301.93,133.93A37.44,37.44,0,1,1,264.5,96.5,37.43,37.43,0,0,1,301.93,133.93Z" transform="translate(-67.21 -52.89)"/>
    <polygon class="aea8a0c7-1b07-43b8-9761-bf4c98770c5c" points="210.91 73.34 210.19 72.82 210.55 72.3 210.91 71.71 210.91 70.86 210.55 69.95 209.54 69.95 208.95 69.1 207.71 68.13 206.61 68.13 205.11 68.13 204.72 66.56 203.67 65.84 203.09 66.43 201.59 66.5 200.29 66.63 199.76 67.86 198.53 67.8 196.25 67.93 194.42 68.91 193.44 69.59 192.99 70.21 192.66 71.25 192.07 71.71 191.03 72.49 190.51 73.34 190.51 74.19 190.77 74.7 190.77 75.55 190.25 76.07 189.92 77.25 190.45 78.68 191.03 79.01 192.04 79.75 192.27 80.18 191.55 80.31 190.84 80.93 190.97 82.46 191.62 82.78 192.47 81.94 192.86 81.94 194.05 81.94 194.81 82.53 196.9 82.92 197.75 83.89 198.49 85 199.16 85.79 199.74 86.5 199.57 87.28 198.26 89.23 198.2 91 198.2 92.17 198.24 93.54 197.87 94.45 196.83 95.17 195.92 95.43 194.75 96.53 194.16 97.84 193.38 99.07 193.18 99.73 192.92 101.16 192.34 102.01 191.68 102.98 191.62 103.96 191.23 105.46 191.55 106.76 192.34 107.42 194.42 107.42 195.72 107.42 196.9 108.13 198 107.35 199.63 107.09 200.94 106.57 202.63 105.85 204.52 105.2 206.28 104.81 209.73 103.18 210.51 102.86 211.17 102.01 212.79 100.96 214.36 99.99 215.53 99.14 217.1 97.77 218.14 96.08 219.31 94.84 220.42 93.28 220.42 92.49 219.44 91.91 218.07 92.36 217.62 91.39 218.01 90.15 218.27 87.87 218.33 85.98 218.72 83.63 218.85 81.68 218.85 80.84 218.85 79.46 218.07 78.81 217.75 77.77 216.64 78.03 216.44 77.12 215.14 77.12 214.95 76.59 214.43 75.42 212.99 76.01 211.88 76.07 211.56 75.62 211.04 74.77 210.91 73.34"/>
    <polygon class="bf76c399-7104-4927-b64f-06eca932e830" points="188.1 111.23 188.1 109.76 187.78 108.85 187.78 107.94 187.19 107.16 187.19 106.11 187.65 105.14 188.75 104.09 190.19 103.31 191 102.44 191.75 101.36 192.21 99.27 192.99 98.03 193.84 96.48 195.1 95.52 196.37 94.87 197.06 94.01 197.06 93.14 197.03 92.36 197.04 90.87 197.06 90.08 197.09 89.43 197.5 88.81 198.03 88.03 198.56 87.18 198.56 86.69 197.61 85.52 197.03 84.87 196.57 84.09 195.72 83.11 193.64 82.72 192.88 82.13 191.29 82.13 190.45 82.98 189.79 82.65 189.66 81.12 190.38 80.5 191.1 80.38 190.87 79.78 189.27 78.88 187.97 78.88 185.95 78.88 185.3 77.64 184.32 77.12 183.21 75.94 182.04 75.94 180.61 76.4 179.82 76.33 178.46 75.94 177.09 75.94 175.46 76.66 174.94 77.12 174.29 78.16 174.29 78.68 174.74 79.01 174.68 79.72 174.29 80.24 174.29 81.12 174.29 81.61 173.7 81.87 173.44 82.53 173.05 83.37 173.05 84.15 173.05 84.81 173.05 85.52 173.05 85.78 173.5 86.69 173.96 86.69 174.09 87.18 174.94 88 175.33 88.84 175.91 90.6 176.89 91.45 177.74 92.43 178.52 92.82 179.11 93.28 179.69 93.58 180.09 93.93 180.48 94.25 180.67 95.03 181 96.21 181 97.06 181.06 98.1 181.13 99.47 181.39 100.38 181.78 101.81 182.11 102.98 182.3 104.03 182.5 104.81 182.95 105.98 183.67 107.55 184.32 108.33 185.1 109.11 185.81 110.02 186.54 110.61 186.99 111.23 188.1 111.23"/>
    <polygon class="ad70c2f6-b948-46ef-821a-228cd123d2a3" points="209.6 104.55 210.38 104.55 211.49 104.55 212.14 104.55 212.6 104.22 213.25 104.55 213.25 105.46 214.23 105.46 215.08 105.79 215.4 106.37 216.12 106.37 217.03 106.37 217.03 107.09 217.03 107.94 216.25 109.04 215.27 109.5 214.16 110.48 213.32 111.13 212.14 111.78 210.38 112.89 209.6 113.41 207.78 114.13 205.69 114.91 203.8 114.91 202.56 115.3 200.28 115.3 198.4 115.3 197.35 114.71 195.66 114.71 194.09 114.39 192.92 114 191.62 113.93 190.58 113.73 189.6 113.28 188.82 112.69 188.49 112.4 188.49 111.26 188.49 110.93 188.17 109.11 187.58 108.33 187.69 107.05 188.03 106.31 189.14 105.26 190.77 104.48 190.84 105.33 190.71 105.98 190.45 106.57 190.58 107.48 190.77 108.33 191.29 108.65 192.4 108.72 193.7 108.65 194.42 108.65 195.14 108.85 195.4 109.24 196.12 109.5 196.76 109.04 197.42 108.65 198.85 108.46 200.48 107.74 201.85 107.09 202.96 106.7 204.91 106.31 206.15 105.66 207.26 105.07 208.36 104.68 209.6 104.55"/>
    <polygon class="bf76c399-7104-4927-b64f-06eca932e830" points="221.4 94.48 221.79 94.32 222.18 94.48 222.89 94.97 223.16 95.36 223.71 95.36 224.23 95.59 224.52 95.59 224.52 96.01 224.75 96.73 224.75 97.19 224.49 97.77 224.23 98.39 223.91 98.85 223.45 99.3 223.07 100.08 222.47 100.96 222.11 101.32 221.95 101.94 221.63 102.63 221.4 103.25 220.62 104.55 220.35 105.2 219.93 106.11 219.64 106.57 219.25 107.19 218.92 107.19 218.79 106.89 218.79 105.79 217.36 105.79 216.84 105.2 216.31 105 215.99 104.87 215.01 104.87 215.01 103.96 214.29 103.47 213.71 103.96 212.14 103.96 211.36 103.96 210.52 104.05 211.62 103.47 212 102.97 212.44 102.66 213.12 102.1 213.84 101.62 214.65 101.22 215.14 100.93 216.28 99.99 217.06 99.33 217.98 98.52 218.24 98.13 218.63 97.41 219.21 96.73 219.87 96.08 220.35 95.26 220.96 94.68 221.4 94.48"/>
    <polygon class="f5b49eb8-27ca-402e-a5f8-e3a5b33dcc5f" points="225.63 90.77 225.86 91.45 225.75 92.36 225.63 93.41 225.14 94.48 225.14 94.87 224.91 95.13 224.29 94.86 223.84 94.78 223.44 94.61 222.57 93.89 221.79 93.89 221.6 93.73 221.6 92.79 221.33 92.41 220.81 92.1 221.98 91.94 222.57 92.1 222.63 91.81 224.13 91.55 224.49 91.68 224.66 91.13 225.63 90.77"/>
    <polygon class="bf76c399-7104-4927-b64f-06eca932e830" points="219.83 78.65 219.83 79.86 219.83 80.7 219.83 81.45 219.72 82.33 219.59 83.34 219.38 84.56 219.29 85.66 219.29 86.43 219.18 87.48 218.85 88.62 218.85 89.95 218.59 90.41 219.21 91.33 219.83 91.13 220.72 90.89 221.26 90.81 221.98 90.88 221.98 90.64 222.52 90.59 223.22 90.64 223.74 90.38 223.93 90.44 224.23 90.07 224.75 89.77 225.08 89.86 225.34 89.14 225.73 88.91 225.73 88.19 225.73 87.64 225.47 87.25 225.11 86.86 224.46 86.89 224.2 86.63 223.87 86.63 224.1 85.62 224 84.77 224.04 83.89 224.04 83.11 224.23 82.69 224.95 82.1 225.21 81.19 225.21 80.57 225.11 79.86 225.08 79.33 224.91 78.65 224.52 77.9 224.2 77.21 223.74 76.79 223.09 76.66 222.7 75.91 222.16 75.91 221.4 76.43 221.4 77.21 220.97 77.74 220.42 78.13 219.93 78.32 219.83 78.65"/>
    <polyline class="ad70c2f6-b948-46ef-821a-228cd123d2a3" points="183.34 46.29 184.6 45.81 186.21 45.32 186.21 46.04 186.59 46.49 186.59 47.14 186.99 47.66 187.65 48.06 188.1 48.38 188.62 48.97 189.99 49.16 190.77 49.55 191.29 50.34 192.08 50.66 192.86 50.34 193.12 51.44 192.4 52.1 191.62 52.03 190.38 52.1 189.53 52.36 188.49 53.2 187.32 53.66 187.25 54.18 187.78 54.83 188.36 55.03 188.82 55.29 189.21 55.94 189.53 56.53 189.53 57.31 189.53 58.09 189.99 58.74 190.64 58.74 190.97 58.09 191.62 57.31 192.27 56.59 192.53 55.88 192.86 54.57 193.12 53.85 194.16 53.53 194.68 53.14 196.44 53.27 197.29 53.79 197.29 54.96 198.07 55.42 198.66 56.13 199.34 57.18 199.76 57.18 200.42 56.59 200.74 55.88 201.46 54.9 202.31 54.57 203.48 54.05 203.87 53.53 204.78 53.33 205.11 53.92 205.11 54.57 205.11 56.07 205.82 56.33 206.22 56.66 206.48 57.76 207.39 58.29 208.24 58.29 208.63 59.13 208.3 60.11 208.3 60.63 207.58 61.48 207.71 62 207.71 62.72 208.63 63.24 209.47 63.3 209.93 63.3 210.84 63.5 211.56 64.02 212.4 64.87 212.4 65.26 214.1 65.97 215.01 66.89 215.4 67.8 215.4 68.78 214.56 68.97 215.4 69.95 215.08 70.67 214.1 70.99 213.77 70.47 213.12 71.12 212.6 70.86 212.21 70.14 211.88 69.75 210.97 70.08 210.51 70.14 210.16 68.97 209.08 68.78 208.37 67.99 207.52 67.21 206.22 67.15 204.78 67.47 204.72 66.89 204.59 66.23 204.19 65.45 203.28 64.87 202.43 65.47 201.2 65.52 200.22 65.58 199.7 66.1 199.53 66.51 199.37 66.89 198.33 66.82 197.09 66.82 196.12 66.89 195.66 67.02 194.23 67.93 193.05 68.61 192.6 69.23 192.35 70.02 192.06 70.44 191.32 71 190.47 71.79 190.12 72.75 190.24 73.44 190.38 74.12 190.38 74.58 189.78 75.39 189.53 76.27 190.06 77.7 189.14 77.83 188.03 77.64 186.73 77.7 186.21 76.4 185.1 75.94 184.06 74.97 182.82 74.77 181.39 75.23 179.76 74.97 177.87 74.77 176.76 75.23 175.91 75.62 175.22 76.75 173.83 76.75 172.92 77.18 172.01 77.18 172.01 76.33 172.01 74.77 172.01 72.69 171.42 72.42 172.01 71.38 171.88 70.99 171.42 70.4 171.42 68.97 171.88 67.86 171.42 67.28 171.42 66.43 172.01 65.52 172.27 64.02 172.98 62.98 172.59 62 172.33 60.7 172.53 59.85 173.32 58.81 174.29 57.63 175.66 56.59 176.11 55.74 176.7 55.16 177.54 53.79 178.33 52.75 179.04 51.64 180.67 50.21 180.67 49.36 181 48.51 181.52 48.51 181.78 47.73 181.81 46.96 183 46.43"/>
    <polygon class="baf43a71-cfb4-442b-bc20-b80a96c162ec" points="226.54 59.39 225.73 58.55 225.11 57.44 224.07 56.27 222.7 55.03 221.4 53.79 220.22 52.49 218.92 51.57 218.14 50.73 216.77 49.88 215.08 48.77 213.71 47.86 212.28 47.14 211.36 46.56 209.73 45.91 208.43 45.51 207.39 45.25 206.15 44.8 205.76 44.8 205.24 44.8 205.24 45.45 205.56 45.51 206.15 45.51 207.13 45.91 208.04 45.97 208.56 46.43 209.08 46.49 209.86 47.01 210.78 47.34 210.78 48.45 210.78 49.62 209.99 49.55 208.5 49.49 207.65 49.81 206.67 51.05 206.48 52.1 206.15 53.33 206.48 53.92 206.15 54.9 206.48 55.61 207.19 56.33 207.67 57.01 207.84 57.76 208.35 58.05 209.15 58.29 209.99 59.13 209.91 59.39 209.67 60.37 209.35 61 208.95 61.48 209.08 62.72 209.72 63.08 211.3 63.3 212.21 63.5 213.28 64.38 213.77 65.26 214.1 64.28 213.97 63.37 213.38 62.91 212.73 62.26 212.86 61.31 213.84 60.57 214.69 60.44 215.4 60.63 215.4 59.46 215.21 58.22 216.25 57.83 217.1 58.09 217.75 58.48 218.21 59.26 218.59 60.05 219.44 60.18 219.83 59.72 220.22 58.68 221.4 58.74 222.16 59.13 222.57 59.07 222.16 58.16 222.16 57.31 222.16 56.27 222.83 56.46 223.35 57.44 224.2 58.35 224.59 58.81 225.05 59.52 225.44 59.78 226.09 60.05 226.54 59.39"/>
    <polygon class="fdc6067a-bff7-4ad2-9f3b-577b441048b7" points="199.74 55.81 200.53 55.48 200.98 54.84 201.61 53.85 202.25 53.37 203.34 52.92 204.26 52.16 204.87 52.03 204.87 50.53 204.26 49.62 204.26 48.25 203.54 47.73 202.7 47.08 202.89 46.17 202.3 46.17 201.91 46.17 200.94 46.75 200.42 47.27 199.44 47.08 198.66 46.69 197.94 46.17 196.9 46.17 196.83 46.75 196.12 47.4 195.27 47.4 194.62 47.01 192.92 47.73 192.6 47.73 192.14 47.53 191.69 47.01 190.9 46.43 190.51 46.17 189.92 46.17 189.08 46.75 189.08 47.27 189.08 47.92 190.25 47.8 190.71 47.99 191.29 48.38 191.95 48.97 192.86 48.97 193.8 48.9 194.68 48.84 195.59 49.1 195.92 49.55 196.05 50.99 195.27 51.31 194.29 51.77 193.43 52.71 194.55 52.75 195.07 52.29 195.99 52.1 196.83 51.57 196.97 51.99 197.68 52.42 197.68 53.01 197.68 53.59 197.61 54.25 198.27 54.64 198.79 55.35 199.74 55.81"/>
  </g>
  <g>
    <path class="ef8bcf45-c0b2-497c-85b1-338800a3449e" d="M167.45,197.13l13.47,36H172.7l-2.72-8H156.51l-2.83,8h-8l13.62-36Zm.46,22.1L163.37,206h-.1l-4.7,13.22Z" transform="translate(-67.21 -52.89)"/>
    <path class="ef8bcf45-c0b2-497c-85b1-338800a3449e" d="M176.59,203.79v-6.66H206.1v6.66H195.3v29.36h-7.92V203.79Z" transform="translate(-67.21 -52.89)"/>
    <path class="ef8bcf45-c0b2-497c-85b1-338800a3449e" d="M237.18,197.13v6.66h-19v7.72h17.45v6.16H218.16v8.82h19.42v6.66H210.24v-36Z" transform="translate(-67.21 -52.89)"/>
    <path class="ef8bcf45-c0b2-497c-85b1-338800a3449e" d="M250.8,197.13l15,24.17h.11V197.13h7.41v36h-7.92l-15-24.11h-.11v24.11h-7.41v-36Z" transform="translate(-67.21 -52.89)"/>
    <path class="ef8bcf45-c0b2-497c-85b1-338800a3449e" d="M303.42,206.74a8,8,0,0,0-1.77-2,8.1,8.1,0,0,0-2.39-1.34,8.24,8.24,0,0,0-2.8-.48,9.21,9.21,0,0,0-4.54,1,8.5,8.5,0,0,0-3,2.77,12.16,12.16,0,0,0-1.69,4,19.88,19.88,0,0,0-.53,4.59,18.51,18.51,0,0,0,.53,4.42,11.9,11.9,0,0,0,1.69,3.86,8.63,8.63,0,0,0,3,2.75,9.21,9.21,0,0,0,4.54,1,7.32,7.32,0,0,0,5.67-2.22,10.2,10.2,0,0,0,2.5-5.85h7.67a18.07,18.07,0,0,1-1.56,6.08,14.76,14.76,0,0,1-3.31,4.59,14.5,14.5,0,0,1-4.79,2.93,17.75,17.75,0,0,1-6,1.08l-1.31,1.82h.1a4.54,4.54,0,0,1,1.71-.25,6.85,6.85,0,0,1,1.69.2,4.53,4.53,0,0,1,1.49.63,3.22,3.22,0,0,1,1.06,1.11,3,3,0,0,1,.4,1.59,5.25,5.25,0,0,1-.5,2.44,4.21,4.21,0,0,1-1.34,1.57,5.36,5.36,0,0,1-1.89.81,10.37,10.37,0,0,1-2.17.22c-.81,0-1.49,0-2.07-.07a11.84,11.84,0,0,1-1.53-.23c-.46-.1-.9-.22-1.32-.35L289.6,243l1.06-2.42a11.53,11.53,0,0,0,1.86.63,9.17,9.17,0,0,0,2.37.28,2.51,2.51,0,0,0,1.47-.4,1.52,1.52,0,0,0,.55-1.32,1.33,1.33,0,0,0-.58-1.28,2.89,2.89,0,0,0-1.44-.33,5.58,5.58,0,0,0-2,.35l-1.06-1.21,2.42-3.48a16.76,16.76,0,0,1-6.56-1.94,16.43,16.43,0,0,1-4.87-4.06,17.52,17.52,0,0,1-3-5.68,22.07,22.07,0,0,1-1-6.84A22.45,22.45,0,0,1,280,207.8a18.19,18.19,0,0,1,3.48-6,15.92,15.92,0,0,1,5.58-4,19.23,19.23,0,0,1,13.06-.61,15.3,15.3,0,0,1,4.75,2.5,13.6,13.6,0,0,1,3.45,4.06,14.63,14.63,0,0,1,1.72,5.55h-7.67A6.6,6.6,0,0,0,303.42,206.74Z" transform="translate(-67.21 -52.89)"/>
    <path class="ef8bcf45-c0b2-497c-85b1-338800a3449e" d="M335.66,197.13l13.47,36h-8.22l-2.73-8H324.71l-2.82,8h-8l13.63-36Zm1.84-4.82a4.8,4.8,0,0,0,1.64-1.43,7.42,7.42,0,0,0,1-2.07,18.2,18.2,0,0,0,.63-2.47h-3.22a3.34,3.34,0,0,1-.76,1.66,1.9,1.9,0,0,1-1.41.5,4.39,4.39,0,0,1-1.64-.32c-.56-.22-1.14-.47-1.74-.76a17.85,17.85,0,0,0-1.87-.76,6,6,0,0,0-2-.32,4.67,4.67,0,0,0-2.34.58,6.2,6.2,0,0,0-1.8,1.51,7.29,7.29,0,0,0-1.18,2.09,10.51,10.51,0,0,0-.58,2.32h3.18a4.62,4.62,0,0,1,.78-1.79,1.79,1.79,0,0,1,1.49-.68,4.12,4.12,0,0,1,1.66.38c.57.25,1.15.54,1.74.86a16.87,16.87,0,0,0,1.87.86,6,6,0,0,0,2.14.37A4.83,4.83,0,0,0,337.5,192.31Zm-1.39,26.92L331.57,206h-.1l-4.69,13.22Z" transform="translate(-67.21 -52.89)"/>
    <path class="ef8bcf45-c0b2-497c-85b1-338800a3449e" d="M351.9,207.8a18.19,18.19,0,0,1,3.48-6,16,16,0,0,1,5.58-4,19.64,19.64,0,0,1,14.91,0,16.08,16.08,0,0,1,5.55,4,18.19,18.19,0,0,1,3.48,6,22.45,22.45,0,0,1,1.21,7.49,21.76,21.76,0,0,1-1.21,7.35,17.58,17.58,0,0,1-3.48,5.92,16,16,0,0,1-5.55,4,20,20,0,0,1-14.91,0,16,16,0,0,1-5.58-4,17.58,17.58,0,0,1-3.48-5.92,22,22,0,0,1-1.21-7.35A22.71,22.71,0,0,1,351.9,207.8Zm7.24,11.91a12.12,12.12,0,0,0,1.69,3.86,8.81,8.81,0,0,0,3,2.75,10.52,10.52,0,0,0,9.08,0,8.72,8.72,0,0,0,3-2.75,11.9,11.9,0,0,0,1.69-3.86,18.51,18.51,0,0,0,.53-4.42,19.88,19.88,0,0,0-.53-4.59,12.16,12.16,0,0,0-1.69-4,8.58,8.58,0,0,0-3-2.77,10.43,10.43,0,0,0-9.08,0,8.67,8.67,0,0,0-3,2.77,12.38,12.38,0,0,0-1.69,4,19.88,19.88,0,0,0-.53,4.59A18.51,18.51,0,0,0,359.14,219.71Z" transform="translate(-67.21 -52.89)"/>
  </g>
  <g>
    <path class="ef8bcf45-c0b2-497c-85b1-338800a3449e" d="M179.92,267.66l6.44,16.47h-2.43l-1.8-5h-7l-1.84,5h-2.24l6.41-16.47Zm1.52,9.67-2.75-7.69h0l-2.79,7.69Z" transform="translate(-67.21 -52.89)"/>
    <path class="ef8bcf45-c0b2-497c-85b1-338800a3449e" d="M189.15,281.47a2,2,0,0,0,.73.71,3,3,0,0,0,1,.38,5.66,5.66,0,0,0,1.17.12,6.71,6.71,0,0,0,1-.07,3.85,3.85,0,0,0,.93-.25,1.74,1.74,0,0,0,.7-.55,1.39,1.39,0,0,0,.28-.91,1.3,1.3,0,0,0-.58-1.15,5.07,5.07,0,0,0-1.44-.64c-.57-.16-1.2-.3-1.88-.43a10.33,10.33,0,0,1-1.88-.56,3.84,3.84,0,0,1-1.44-1,2.58,2.58,0,0,1-.58-1.8,3,3,0,0,1,.4-1.55,3.36,3.36,0,0,1,1-1,4.81,4.81,0,0,1,1.43-.6,6.71,6.71,0,0,1,1.59-.19,9,9,0,0,1,1.86.17,4.17,4.17,0,0,1,1.52.6,3.24,3.24,0,0,1,1.05,1.15,4.5,4.5,0,0,1,.46,1.81h-2a1.94,1.94,0,0,0-.3-1,2,2,0,0,0-.65-.62,3,3,0,0,0-.87-.33,4.32,4.32,0,0,0-1-.1,5.34,5.34,0,0,0-.89.07,2.61,2.61,0,0,0-.82.24,1.55,1.55,0,0,0-.6.46,1.12,1.12,0,0,0-.23.75,1.09,1.09,0,0,0,.36.84,2.71,2.71,0,0,0,.91.56,10.23,10.23,0,0,0,1.24.37c.47.09.93.2,1.39.31a13.88,13.88,0,0,1,1.44.39,4.69,4.69,0,0,1,1.25.61,2.87,2.87,0,0,1,.87,1,2.73,2.73,0,0,1,.34,1.43,3.34,3.34,0,0,1-.45,1.8,3.42,3.42,0,0,1-1.18,1.15,4.61,4.61,0,0,1-1.64.61,9.26,9.26,0,0,1-1.81.18,8.29,8.29,0,0,1-1.89-.21,4.75,4.75,0,0,1-1.59-.68,3.53,3.53,0,0,1-1.11-1.25,4.24,4.24,0,0,1-.46-1.88h2A2.12,2.12,0,0,0,189.15,281.47Z" transform="translate(-67.21 -52.89)"/>
    <path class="ef8bcf45-c0b2-497c-85b1-338800a3449e" d="M205.72,270.06v-2.4h2v2.4Zm2,2.14v11.93h-2V272.2Z" transform="translate(-67.21 -52.89)"/>
    <path class="ef8bcf45-c0b2-497c-85b1-338800a3449e" d="M212.57,272.2v1.89h.05a4.13,4.13,0,0,1,3.88-2.16,5.12,5.12,0,0,1,2,.32,3.19,3.19,0,0,1,1.27.9,3.33,3.33,0,0,1,.68,1.37,7.45,7.45,0,0,1,.19,1.77v7.84h-2v-8.07a2.38,2.38,0,0,0-.64-1.76,2.41,2.41,0,0,0-1.78-.64,4.11,4.11,0,0,0-1.56.27,3,3,0,0,0-1.1.79,3.27,3.27,0,0,0-.65,1.19,4.69,4.69,0,0,0-.22,1.48v6.74h-2V272.2Z" transform="translate(-67.21 -52.89)"/>
    <path class="ef8bcf45-c0b2-497c-85b1-338800a3449e" d="M225.06,281.47a1.91,1.91,0,0,0,.73.71,2.91,2.91,0,0,0,1,.38,5.66,5.66,0,0,0,1.17.12,6.71,6.71,0,0,0,1-.07,4,4,0,0,0,.93-.25,1.81,1.81,0,0,0,.7-.55,1.39,1.39,0,0,0,.28-.91,1.3,1.3,0,0,0-.58-1.15,5.07,5.07,0,0,0-1.44-.64c-.58-.16-1.2-.3-1.88-.43a10.33,10.33,0,0,1-1.88-.56,3.84,3.84,0,0,1-1.44-1,2.58,2.58,0,0,1-.58-1.8,3,3,0,0,1,.4-1.55,3.36,3.36,0,0,1,1-1,4.81,4.81,0,0,1,1.43-.6,6.62,6.62,0,0,1,1.58-.19,9.09,9.09,0,0,1,1.87.17,4.17,4.17,0,0,1,1.52.6,3.24,3.24,0,0,1,1.05,1.15,4.5,4.5,0,0,1,.46,1.81h-2a2.17,2.17,0,0,0-.3-1,2,2,0,0,0-.65-.62,3,3,0,0,0-.87-.33,4.32,4.32,0,0,0-1-.1,5.34,5.34,0,0,0-.89.07,2.61,2.61,0,0,0-.82.24,1.55,1.55,0,0,0-.6.46,1.25,1.25,0,0,0,.12,1.59,2.86,2.86,0,0,0,.92.56,10.23,10.23,0,0,0,1.24.37c.46.09.93.2,1.39.31a13.88,13.88,0,0,1,1.44.39,4.84,4.84,0,0,1,1.25.61,2.87,2.87,0,0,1,.87,1,2.73,2.73,0,0,1,.34,1.43,3.34,3.34,0,0,1-.45,1.8,3.42,3.42,0,0,1-1.18,1.15,4.61,4.61,0,0,1-1.64.61,9.33,9.33,0,0,1-1.81.18,8.29,8.29,0,0,1-1.89-.21,4.75,4.75,0,0,1-1.59-.68,3.44,3.44,0,0,1-1.11-1.25,4.24,4.24,0,0,1-.46-1.88h2A2.12,2.12,0,0,0,225.06,281.47Z" transform="translate(-67.21 -52.89)"/>
    <path class="ef8bcf45-c0b2-497c-85b1-338800a3449e" d="M242.23,274.28a3,3,0,0,0-2-.62,3.65,3.65,0,0,0-1.77.39,3.21,3.21,0,0,0-1.15,1,4.53,4.53,0,0,0-.61,1.49,8.28,8.28,0,0,0-.18,1.74,6.63,6.63,0,0,0,.19,1.61,4.24,4.24,0,0,0,.62,1.4,3,3,0,0,0,1.08,1,3.72,3.72,0,0,0,3.87-.39,3.45,3.45,0,0,0,1-2.15h2a5.55,5.55,0,0,1-1.65,3.42,5.19,5.19,0,0,1-3.61,1.2,6.29,6.29,0,0,1-2.42-.44,4.64,4.64,0,0,1-1.75-1.25,5.35,5.35,0,0,1-1.06-1.92,8,8,0,0,1-.36-2.46,8.85,8.85,0,0,1,.35-2.51,5.85,5.85,0,0,1,1-2,5,5,0,0,1,1.76-1.36,5.79,5.79,0,0,1,2.47-.49,7.35,7.35,0,0,1,1.91.24,4.66,4.66,0,0,1,1.57.75,4.05,4.05,0,0,1,1.11,1.28,4.63,4.63,0,0,1,.56,1.83h-2A3,3,0,0,0,242.23,274.28Z" transform="translate(-67.21 -52.89)"/>
    <path class="ef8bcf45-c0b2-497c-85b1-338800a3449e" d="M249.27,272.2v2.52h0a5.29,5.29,0,0,1,1.76-2.15,4.35,4.35,0,0,1,2.63-.64V274a5.42,5.42,0,0,0-2,.33,3.19,3.19,0,0,0-1.34.94,4,4,0,0,0-.74,1.51,8.45,8.45,0,0,0-.23,2.05v5.3h-2V272.2Z" transform="translate(-67.21 -52.89)"/>
    <path class="ef8bcf45-c0b2-497c-85b1-338800a3449e" d="M255.29,270.06v-2.4h2v2.4Zm2,2.14v11.93h-2V272.2Z" transform="translate(-67.21 -52.89)"/>
    <path class="ef8bcf45-c0b2-497c-85b1-338800a3449e" d="M267.43,274.28a3,3,0,0,0-2-.62,3.65,3.65,0,0,0-1.77.39,3.21,3.21,0,0,0-1.15,1,4.53,4.53,0,0,0-.61,1.49,8.28,8.28,0,0,0-.18,1.74,6.63,6.63,0,0,0,.19,1.61,4.24,4.24,0,0,0,.62,1.4,3,3,0,0,0,1.08,1,3.72,3.72,0,0,0,3.87-.39,3.45,3.45,0,0,0,1-2.15h2a5.64,5.64,0,0,1-1.57,3.3,5,5,0,0,1-3.35,1.29l-.76,1,.05.05a1.32,1.32,0,0,1,.76-.16,2.35,2.35,0,0,1,1.34.41,1.44,1.44,0,0,1,.6,1.27,1.66,1.66,0,0,1-.27,1,2.08,2.08,0,0,1-.68.64,3.07,3.07,0,0,1-.92.34,4.92,4.92,0,0,1-1,.11,4.32,4.32,0,0,1-1.08-.13c-.34-.08-.69-.19-1.05-.31l.42-1a3.68,3.68,0,0,0,.66.21,3.2,3.2,0,0,0,.75.09l.48,0a1.64,1.64,0,0,0,.46-.13,1.1,1.1,0,0,0,.35-.22.42.42,0,0,0,.14-.33.59.59,0,0,0-.32-.52,1.4,1.4,0,0,0-.77-.2,2.28,2.28,0,0,0-.48.05,3.37,3.37,0,0,0-.46.14l-.4-.65,1.23-1.57a5.38,5.38,0,0,1-2.16-.58,4.82,4.82,0,0,1-1.56-1.26,5.59,5.59,0,0,1-.95-1.85,8.2,8.2,0,0,1-.32-2.33,8.85,8.85,0,0,1,.35-2.51,5.85,5.85,0,0,1,1.05-2,5.05,5.05,0,0,1,1.76-1.36,5.79,5.79,0,0,1,2.47-.49,7.35,7.35,0,0,1,1.91.24,4.66,4.66,0,0,1,1.57.75,4.21,4.21,0,0,1,1.12,1.28,4.8,4.8,0,0,1,.55,1.83h-2A3,3,0,0,0,267.43,274.28Z" transform="translate(-67.21 -52.89)"/>
    <path class="ef8bcf45-c0b2-497c-85b1-338800a3449e" d="M272.41,275.72a5.65,5.65,0,0,1,1.11-2,5.2,5.2,0,0,1,1.82-1.33,6.16,6.16,0,0,1,2.5-.48,6.09,6.09,0,0,1,2.5.48,5.16,5.16,0,0,1,1.81,1.33,5.65,5.65,0,0,1,1.11,2,8.33,8.33,0,0,1,0,4.91,5.69,5.69,0,0,1-1.11,2,5,5,0,0,1-1.81,1.31,6.09,6.09,0,0,1-2.5.48,6.16,6.16,0,0,1-2.5-.48,5,5,0,0,1-1.82-1.31,5.69,5.69,0,0,1-1.11-2,8.33,8.33,0,0,1,0-4.91Zm6.36-7.53c-.28-.13-.56-.26-.84-.42s-.56-.29-.85-.41a2.25,2.25,0,0,0-.91-.19,2,2,0,0,0-1.55.65,3.87,3.87,0,0,0-.82,2.05h1.08a1.22,1.22,0,0,1,1.27-1.18,2,2,0,0,1,.82.19c.27.12.54.26.82.41a8.09,8.09,0,0,0,.83.42,2.2,2.2,0,0,0,.88.18,2.16,2.16,0,0,0,1.53-.58,3.75,3.75,0,0,0,.87-2.21h-1.13a1.79,1.79,0,0,1-.36.94,1,1,0,0,1-.8.33A2.19,2.19,0,0,1,278.77,268.19Zm-4.36,11.92a3.9,3.9,0,0,0,.8,1.4,3.36,3.36,0,0,0,1.18.87,3.59,3.59,0,0,0,1.45.3,3.54,3.54,0,0,0,1.44-.3,3.48,3.48,0,0,0,1.19-.87,3.88,3.88,0,0,0,.79-1.4,6.57,6.57,0,0,0,0-3.86,4.15,4.15,0,0,0-.79-1.42,3.48,3.48,0,0,0-1.19-.87,3.54,3.54,0,0,0-1.44-.3,3.59,3.59,0,0,0-1.45.3,3.36,3.36,0,0,0-1.18.87,4.17,4.17,0,0,0-.8,1.42,6.57,6.57,0,0,0,0,3.86Z" transform="translate(-67.21 -52.89)"/>
    <path class="ef8bcf45-c0b2-497c-85b1-338800a3449e" d="M294.38,283.37a5.38,5.38,0,0,1-3.37,1,6.27,6.27,0,0,1-2.48-.46,4.79,4.79,0,0,1-1.76-1.3,5.42,5.42,0,0,1-1.08-2,9.92,9.92,0,0,1-.4-2.52,7.15,7.15,0,0,1,.42-2.49,5.82,5.82,0,0,1,1.16-2,5.32,5.32,0,0,1,4-1.75,4.88,4.88,0,0,1,2.64.65,5.32,5.32,0,0,1,1.69,1.68,6.55,6.55,0,0,1,.87,2.21,9.64,9.64,0,0,1,.2,2.29h-8.93a4.58,4.58,0,0,0,.18,1.49,3.29,3.29,0,0,0,1.85,2.11,4.16,4.16,0,0,0,1.68.32,3.4,3.4,0,0,0,2.05-.58,2.79,2.79,0,0,0,1.05-1.75h1.93A4.7,4.7,0,0,1,294.38,283.37Zm-.47-7.66a3.33,3.33,0,0,0-.71-1.07,3.47,3.47,0,0,0-1.07-.72,3.42,3.42,0,0,0-1.35-.26,3.56,3.56,0,0,0-1.37.26,3.14,3.14,0,0,0-1.05.73,3.51,3.51,0,0,0-.69,1.07,4,4,0,0,0-.3,1.31h6.85A3.92,3.92,0,0,0,293.91,275.71Z" transform="translate(-67.21 -52.89)"/>
    <path class="ef8bcf45-c0b2-497c-85b1-338800a3449e" d="M299.83,281.47a2,2,0,0,0,.73.71,3.06,3.06,0,0,0,1,.38,5.66,5.66,0,0,0,1.17.12,6.71,6.71,0,0,0,1-.07,3.85,3.85,0,0,0,.93-.25,1.84,1.84,0,0,0,.71-.55,1.45,1.45,0,0,0,.27-.91,1.3,1.3,0,0,0-.58-1.15,5.07,5.07,0,0,0-1.44-.64c-.57-.16-1.2-.3-1.88-.43a10.33,10.33,0,0,1-1.88-.56,3.84,3.84,0,0,1-1.44-1,2.58,2.58,0,0,1-.58-1.8,2.87,2.87,0,0,1,.41-1.55,3.33,3.33,0,0,1,1-1,4.76,4.76,0,0,1,1.44-.6,6.56,6.56,0,0,1,1.58-.19,9.15,9.15,0,0,1,1.87.17,4.2,4.2,0,0,1,1.51.6,3.07,3.07,0,0,1,1,1.15,4.5,4.5,0,0,1,.46,1.81h-2a1.94,1.94,0,0,0-.3-1,2,2,0,0,0-.65-.62,3.07,3.07,0,0,0-.86-.33,4.47,4.47,0,0,0-1-.1,5.34,5.34,0,0,0-.89.07,2.69,2.69,0,0,0-.82.24,1.55,1.55,0,0,0-.6.46,1.18,1.18,0,0,0-.23.75,1.09,1.09,0,0,0,.36.84,2.81,2.81,0,0,0,.91.56,10.23,10.23,0,0,0,1.24.37c.47.09.93.2,1.39.31a13.88,13.88,0,0,1,1.44.39,4.69,4.69,0,0,1,1.25.61,2.87,2.87,0,0,1,.87,1,2.73,2.73,0,0,1,.34,1.43,3.34,3.34,0,0,1-.45,1.8,3.42,3.42,0,0,1-1.18,1.15,4.61,4.61,0,0,1-1.64.61,9.26,9.26,0,0,1-1.81.18,8.29,8.29,0,0,1-1.89-.21,4.75,4.75,0,0,1-1.59-.68,3.53,3.53,0,0,1-1.11-1.25,4.24,4.24,0,0,1-.46-1.88h2A2.12,2.12,0,0,0,299.83,281.47Z" transform="translate(-67.21 -52.89)"/>
    <path class="ef8bcf45-c0b2-497c-85b1-338800a3449e" d="M318.32,272.2v1.62h0a2.93,2.93,0,0,1,1.52-1.44,5.74,5.74,0,0,1,2.29-.45,5.35,5.35,0,0,1,2.41.5,4.92,4.92,0,0,1,1.71,1.38,6.26,6.26,0,0,1,1,2,8.24,8.24,0,0,1,.34,2.4,8.49,8.49,0,0,1-.33,2.4,5.73,5.73,0,0,1-1,2,4.68,4.68,0,0,1-1.71,1.32,5.41,5.41,0,0,1-2.38.49,5.09,5.09,0,0,1-1-.1,6,6,0,0,1-1.08-.29,4.16,4.16,0,0,1-1-.57,3.12,3.12,0,0,1-.8-.89h0v6.14h-2V272.2Zm7.05,4.24a4.43,4.43,0,0,0-.67-1.42,3.18,3.18,0,0,0-1.16-1,3.46,3.46,0,0,0-1.65-.37,3.37,3.37,0,0,0-1.68.39,3.29,3.29,0,0,0-1.13,1,4.09,4.09,0,0,0-.64,1.44,6.94,6.94,0,0,0-.19,1.64,7.24,7.24,0,0,0,.2,1.69,4.14,4.14,0,0,0,.66,1.44,3.38,3.38,0,0,0,1.17,1,3.66,3.66,0,0,0,1.73.38,3.35,3.35,0,0,0,1.69-.39,3.14,3.14,0,0,0,1.1-1,4.35,4.35,0,0,0,.6-1.48,8,8,0,0,0,.18-1.71A6.32,6.32,0,0,0,325.37,276.44Z" transform="translate(-67.21 -52.89)"/>
    <path class="ef8bcf45-c0b2-497c-85b1-338800a3449e" d="M340.54,284.08a2.68,2.68,0,0,1-1.41.31,1.66,1.66,0,0,1-1.21-.43,1.85,1.85,0,0,1-.45-1.4,4.67,4.67,0,0,1-1.88,1.4,6.14,6.14,0,0,1-2.32.43,6,6,0,0,1-1.54-.19,3.5,3.5,0,0,1-1.25-.57,2.85,2.85,0,0,1-.85-1,3.58,3.58,0,0,1-.31-1.54,3.52,3.52,0,0,1,.35-1.66,3,3,0,0,1,.91-1,4.26,4.26,0,0,1,1.29-.61c.49-.14,1-.25,1.49-.35s1.05-.18,1.54-.24a8.2,8.2,0,0,0,1.28-.23,2,2,0,0,0,.87-.44,1,1,0,0,0,.33-.84,1.88,1.88,0,0,0-.25-1,1.62,1.62,0,0,0-.62-.6,2.36,2.36,0,0,0-.85-.27,6,6,0,0,0-.94-.07,4.07,4.07,0,0,0-2.07.47,2,2,0,0,0-.9,1.79h-2a4.33,4.33,0,0,1,.47-1.87,3.46,3.46,0,0,1,1.1-1.24,4.88,4.88,0,0,1,1.58-.68,9,9,0,0,1,1.91-.2,10.67,10.67,0,0,1,1.6.11,4.21,4.21,0,0,1,1.44.47,2.7,2.7,0,0,1,1,1,3.23,3.23,0,0,1,.4,1.69v6.12a4.18,4.18,0,0,0,.08,1q.08.33.54.33a1.87,1.87,0,0,0,.6-.12ZM337.35,278a2.35,2.35,0,0,1-1,.4,11.63,11.63,0,0,1-1.25.21c-.44.05-.88.12-1.33.19a4.57,4.57,0,0,0-1.2.33,2.19,2.19,0,0,0-.87.66,1.84,1.84,0,0,0-.33,1.16,1.49,1.49,0,0,0,.2.82,1.53,1.53,0,0,0,.5.54,2.08,2.08,0,0,0,.73.3,3.6,3.6,0,0,0,.88.1,4.58,4.58,0,0,0,1.66-.27,3.52,3.52,0,0,0,1.13-.67,2.68,2.68,0,0,0,.65-.88,2.14,2.14,0,0,0,.2-.88Z" transform="translate(-67.21 -52.89)"/>
    <path class="ef8bcf45-c0b2-497c-85b1-338800a3449e" d="M344.14,272.2v2.52h0a5.37,5.37,0,0,1,1.76-2.15,4.35,4.35,0,0,1,2.63-.64V274a5.5,5.5,0,0,0-2,.33,3.19,3.19,0,0,0-1.34.94,3.87,3.87,0,0,0-.73,1.51,8,8,0,0,0-.24,2.05v5.3h-2V272.2Z" transform="translate(-67.21 -52.89)"/>
    <path class="ef8bcf45-c0b2-497c-85b1-338800a3449e" d="M360.62,284.08a2.68,2.68,0,0,1-1.41.31A1.66,1.66,0,0,1,358,284a1.85,1.85,0,0,1-.45-1.4,4.67,4.67,0,0,1-1.88,1.4,6.14,6.14,0,0,1-2.32.43,6,6,0,0,1-1.54-.19,3.63,3.63,0,0,1-1.26-.57,2.93,2.93,0,0,1-.84-1,3.44,3.44,0,0,1-.31-1.54,3.52,3.52,0,0,1,.35-1.66,3,3,0,0,1,.91-1,4.26,4.26,0,0,1,1.29-.61c.49-.14,1-.25,1.49-.35s1.05-.18,1.53-.24a7.78,7.78,0,0,0,1.28-.23,2,2,0,0,0,.88-.44,1,1,0,0,0,.33-.84,1.88,1.88,0,0,0-.25-1,1.69,1.69,0,0,0-.62-.6,2.36,2.36,0,0,0-.85-.27,6,6,0,0,0-.94-.07,4.13,4.13,0,0,0-2.08.47,2,2,0,0,0-.9,1.79h-2a4.33,4.33,0,0,1,.46-1.87,3.59,3.59,0,0,1,1.11-1.24,4.79,4.79,0,0,1,1.58-.68,8.88,8.88,0,0,1,1.91-.2,10.67,10.67,0,0,1,1.6.11,4.21,4.21,0,0,1,1.44.47,2.77,2.77,0,0,1,1,1,3.23,3.23,0,0,1,.39,1.69v6.12a4.77,4.77,0,0,0,.08,1c.06.22.24.33.55.33a1.87,1.87,0,0,0,.6-.12ZM357.43,278a2.41,2.41,0,0,1-1,.4,12.06,12.06,0,0,1-1.25.21c-.44.05-.89.12-1.33.19a4.57,4.57,0,0,0-1.2.33,2.13,2.13,0,0,0-.87.66,1.84,1.84,0,0,0-.33,1.16,1.58,1.58,0,0,0,.19.82,1.47,1.47,0,0,0,.51.54,2.08,2.08,0,0,0,.73.3,3.6,3.6,0,0,0,.88.1,4.58,4.58,0,0,0,1.66-.27,3.52,3.52,0,0,0,1.13-.67,2.51,2.51,0,0,0,.64-.88,2.17,2.17,0,0,0,.21-.88Z" transform="translate(-67.21 -52.89)"/>
    <path class="ef8bcf45-c0b2-497c-85b1-338800a3449e" d="M196.49,311.83l-4.43-11.93h2.19l3.35,9.94h0l3.26-9.94h2l-4.36,11.93Z" transform="translate(-67.21 -52.89)"/>
    <path class="ef8bcf45-c0b2-497c-85b1-338800a3449e" d="M204.47,303.42a5.6,5.6,0,0,1,1.11-2,5.33,5.33,0,0,1,1.82-1.33,6.16,6.16,0,0,1,2.5-.48,6.09,6.09,0,0,1,2.5.48,5.29,5.29,0,0,1,1.81,1.33,5.6,5.6,0,0,1,1.11,2,8.11,8.11,0,0,1,.37,2.45,8,8,0,0,1-.37,2.45,5.69,5.69,0,0,1-1.11,2,5.14,5.14,0,0,1-1.81,1.32,6.26,6.26,0,0,1-2.5.47,6.33,6.33,0,0,1-2.5-.47,5.18,5.18,0,0,1-1.82-1.32,5.69,5.69,0,0,1-1.11-2,8,8,0,0,1-.37-2.45A8.11,8.11,0,0,1,204.47,303.42Zm2,4.38a4,4,0,0,0,.8,1.41,3.45,3.45,0,0,0,1.18.86,3.56,3.56,0,0,0,4.08-.86,4,4,0,0,0,.79-1.41,6.53,6.53,0,0,0,0-3.85,4,4,0,0,0-.79-1.42,3.39,3.39,0,0,0-1.19-.88,3.63,3.63,0,0,0-2.89,0,3.27,3.27,0,0,0-1.18.88,4,4,0,0,0-.8,1.42,6.53,6.53,0,0,0,0,3.85Z" transform="translate(-67.21 -52.89)"/>
    <path class="ef8bcf45-c0b2-497c-85b1-338800a3449e" d="M220.07,295.35v16.48h-2V295.35Z" transform="translate(-67.21 -52.89)"/>
    <path class="ef8bcf45-c0b2-497c-85b1-338800a3449e" d="M231.15,311.83v-1.9h-.05a3.91,3.91,0,0,1-1.59,1.63,4.71,4.71,0,0,1-2.28.52,5.27,5.27,0,0,1-2-.31,3,3,0,0,1-1.27-.89,3.22,3.22,0,0,1-.68-1.37,7,7,0,0,1-.2-1.77V299.9h2V308a2.23,2.23,0,0,0,2.42,2.4,4.11,4.11,0,0,0,1.56-.27,3,3,0,0,0,1.1-.79,3.45,3.45,0,0,0,.66-1.19,5,5,0,0,0,.21-1.49V299.9h2v11.93Z" transform="translate(-67.21 -52.89)"/>
    <path class="ef8bcf45-c0b2-497c-85b1-338800a3449e" d="M237.8,299.9v1.89h0a4.13,4.13,0,0,1,3.88-2.17,5.29,5.29,0,0,1,2,.32,3.32,3.32,0,0,1,1.27.9,3.4,3.4,0,0,1,.68,1.37,7.49,7.49,0,0,1,.2,1.77v7.85h-2v-8.08a2.36,2.36,0,0,0-.65-1.75,2.4,2.4,0,0,0-1.78-.65,3.83,3.83,0,0,0-1.55.28,2.83,2.83,0,0,0-1.1.78,3.54,3.54,0,0,0-.66,1.19,5,5,0,0,0-.22,1.49v6.74h-2V299.9Z" transform="translate(-67.21 -52.89)"/>
    <path class="ef8bcf45-c0b2-497c-85b1-338800a3449e" d="M253.88,299.9v1.73h-2.37V309a2.1,2.1,0,0,0,.05.55.57.57,0,0,0,.22.32.92.92,0,0,0,.45.15,7,7,0,0,0,.75,0h.9v1.73h-1.5a6.85,6.85,0,0,1-1.3-.11,1.87,1.87,0,0,1-.88-.38,1.54,1.54,0,0,1-.49-.78,4.46,4.46,0,0,1-.17-1.34v-7.59h-2V299.9h2v-3.58h2v3.58Z" transform="translate(-67.21 -52.89)"/>
    <path class="ef8bcf45-c0b2-497c-85b1-338800a3449e" d="M266.62,311.78a2.79,2.79,0,0,1-1.41.3,1.68,1.68,0,0,1-1.21-.43,1.84,1.84,0,0,1-.45-1.39,4.67,4.67,0,0,1-1.88,1.39,6.1,6.1,0,0,1-2.32.43,6.29,6.29,0,0,1-1.53-.18,3.66,3.66,0,0,1-1.26-.58,2.67,2.67,0,0,1-.84-1,3.39,3.39,0,0,1-.31-1.53,3.5,3.5,0,0,1,.34-1.66,3.09,3.09,0,0,1,.91-1.05,4.23,4.23,0,0,1,1.3-.62c.48-.13,1-.25,1.48-.34s1.05-.19,1.54-.24a9.56,9.56,0,0,0,1.28-.23,2.2,2.2,0,0,0,.88-.44,1.12,1.12,0,0,0,.32-.85,1.94,1.94,0,0,0-.24-1,1.51,1.51,0,0,0-.63-.6,2.37,2.37,0,0,0-.85-.28,6,6,0,0,0-.93-.07,4.18,4.18,0,0,0-2.08.47,2,2,0,0,0-.9,1.79h-2a4.19,4.19,0,0,1,.46-1.87,3.29,3.29,0,0,1,1.11-1.23,4.33,4.33,0,0,1,1.58-.68,8.19,8.19,0,0,1,1.9-.21,12.17,12.17,0,0,1,1.6.11,4.2,4.2,0,0,1,1.45.48,2.77,2.77,0,0,1,1,1,3.21,3.21,0,0,1,.39,1.68V309a4.27,4.27,0,0,0,.08,1c0,.21.23.32.54.32a1.87,1.87,0,0,0,.6-.12Zm-3.18-6.14a2.47,2.47,0,0,1-1,.41c-.4.08-.82.15-1.26.2l-1.33.19a5.26,5.26,0,0,0-1.2.33,2.28,2.28,0,0,0-.86.66,1.81,1.81,0,0,0-.34,1.17,1.55,1.55,0,0,0,.71,1.36,2,2,0,0,0,.72.3,4.17,4.17,0,0,0,.88.09,4.55,4.55,0,0,0,1.66-.27,3.51,3.51,0,0,0,1.13-.66,2.79,2.79,0,0,0,.65-.88,2.21,2.21,0,0,0,.21-.89Zm.67-11.58-3.26,3.74h-1.48l2.22-3.74Z" transform="translate(-67.21 -52.89)"/>
    <path class="ef8bcf45-c0b2-497c-85b1-338800a3449e" d="M270.22,299.9v2.51h0a5.34,5.34,0,0,1,1.75-2.15,4.42,4.42,0,0,1,2.63-.64v2.08a5.51,5.51,0,0,0-2,.32,3.1,3.1,0,0,0-1.33.94,3.86,3.86,0,0,0-.74,1.52,7.85,7.85,0,0,0-.23,2v5.31h-2V299.9Z" transform="translate(-67.21 -52.89)"/>
    <path class="ef8bcf45-c0b2-497c-85b1-338800a3449e" d="M276.24,297.75v-2.4h2v2.4Zm2,2.15v11.93h-2V299.9Z" transform="translate(-67.21 -52.89)"/>
    <path class="ef8bcf45-c0b2-497c-85b1-338800a3449e" d="M281,303.42a5.6,5.6,0,0,1,1.11-2,5.27,5.27,0,0,1,1.83-1.33,6.72,6.72,0,0,1,5,0,5.32,5.32,0,0,1,2.92,3.32,7.81,7.81,0,0,1,.37,2.45,7.72,7.72,0,0,1-.37,2.45,5.39,5.39,0,0,1-1.11,2,5.14,5.14,0,0,1-1.81,1.32,6.86,6.86,0,0,1-5,0,5.13,5.13,0,0,1-1.83-1.32,5.69,5.69,0,0,1-1.11-2,8,8,0,0,1-.36-2.45A8.11,8.11,0,0,1,281,303.42Zm2,4.38a4,4,0,0,0,.8,1.41,3.58,3.58,0,0,0,4.07.86,3.59,3.59,0,0,0,1.19-.86,4.19,4.19,0,0,0,.8-1.41,6.76,6.76,0,0,0,0-3.85,4.15,4.15,0,0,0-.8-1.42,3.39,3.39,0,0,0-1.19-.88,3.61,3.61,0,0,0-2.88,0,3.3,3.3,0,0,0-1.19.88A4,4,0,0,0,283,304a6.53,6.53,0,0,0,0,3.85Z" transform="translate(-67.21 -52.89)"/>
    <path class="ef8bcf45-c0b2-497c-85b1-338800a3449e" d="M296,309.16a2.1,2.1,0,0,0,.73.72,3.47,3.47,0,0,0,1,.38,6.45,6.45,0,0,0,1.17.11,6.71,6.71,0,0,0,1-.07,3.44,3.44,0,0,0,.93-.25,1.7,1.7,0,0,0,.7-.54,1.41,1.41,0,0,0,.28-.91,1.3,1.3,0,0,0-.58-1.16,4.8,4.8,0,0,0-1.44-.63c-.57-.16-1.2-.31-1.88-.44a10.33,10.33,0,0,1-1.88-.55,3.86,3.86,0,0,1-1.44-1A2.58,2.58,0,0,1,294,303a2.89,2.89,0,0,1,.4-1.55,3.23,3.23,0,0,1,1-1,4.81,4.81,0,0,1,1.43-.6,6.19,6.19,0,0,1,1.59-.2,9.73,9.73,0,0,1,1.86.17,4.56,4.56,0,0,1,1.52.6,3.27,3.27,0,0,1,1.05,1.16,4.41,4.41,0,0,1,.46,1.81h-2a2.05,2.05,0,0,0-.3-1,2,2,0,0,0-.65-.61,2.77,2.77,0,0,0-.87-.34,4.32,4.32,0,0,0-.95-.1,5.34,5.34,0,0,0-.89.07,2.91,2.91,0,0,0-.82.24,1.66,1.66,0,0,0-.6.46,1.16,1.16,0,0,0-.23.75,1.09,1.09,0,0,0,.36.84,2.71,2.71,0,0,0,.91.56,7.58,7.58,0,0,0,1.24.37L300,305q.73.17,1.44.39a5.19,5.19,0,0,1,1.25.61,3.07,3.07,0,0,1,.87,1,2.75,2.75,0,0,1,.34,1.43,3.29,3.29,0,0,1-.45,1.8,3.54,3.54,0,0,1-1.18,1.16,5,5,0,0,1-1.64.61,10.08,10.08,0,0,1-1.81.17,8.29,8.29,0,0,1-1.89-.21,4.56,4.56,0,0,1-1.59-.68A3.41,3.41,0,0,1,294.2,310a4.31,4.31,0,0,1-.46-1.88h2A2.08,2.08,0,0,0,296,309.16Z" transform="translate(-67.21 -52.89)"/>
    <path class="ef8bcf45-c0b2-497c-85b1-338800a3449e" d="M307.77,313.8a19.18,19.18,0,0,1-1.14-2.6,16.28,16.28,0,0,1-.73-2.7,16,16,0,0,1-.25-2.9A17.8,17.8,0,0,1,309.27,295h1.5a18.85,18.85,0,0,0-2.35,5.21,20.57,20.57,0,0,0-.7,5.43,21.06,21.06,0,0,0,.71,5.51,20,20,0,0,0,2.34,5.26h-1.5C308.71,315.51,308.21,314.65,307.77,313.8Z" transform="translate(-67.21 -52.89)"/>
    <path class="ef8bcf45-c0b2-497c-85b1-338800a3449e" d="M322.58,311.78a2.72,2.72,0,0,1-1.4.3,1.68,1.68,0,0,1-1.22-.43,1.84,1.84,0,0,1-.45-1.39,4.6,4.6,0,0,1-1.88,1.39,6.06,6.06,0,0,1-2.32.43,6.35,6.35,0,0,1-1.53-.18,3.75,3.75,0,0,1-1.26-.58,2.77,2.77,0,0,1-.84-1,3.39,3.39,0,0,1-.31-1.53,3.5,3.5,0,0,1,.34-1.66,3.12,3.12,0,0,1,.92-1.05,4.07,4.07,0,0,1,1.29-.62c.48-.13,1-.25,1.49-.34s1-.19,1.53-.24a9.28,9.28,0,0,0,1.28-.23,2.2,2.2,0,0,0,.88-.44,1.12,1.12,0,0,0,.32-.85,1.94,1.94,0,0,0-.24-1,1.55,1.55,0,0,0-.62-.6,2.42,2.42,0,0,0-.86-.28,5.82,5.82,0,0,0-.93-.07,4.24,4.24,0,0,0-2.08.47,2,2,0,0,0-.9,1.79h-2a4.19,4.19,0,0,1,.46-1.87,3.47,3.47,0,0,1,1.11-1.23,4.41,4.41,0,0,1,1.58-.68,8.26,8.26,0,0,1,1.9-.21,12.32,12.32,0,0,1,1.61.11,4.22,4.22,0,0,1,1.44.48,2.7,2.7,0,0,1,1,1,3.21,3.21,0,0,1,.39,1.68V309a4.88,4.88,0,0,0,.08,1c.06.21.24.32.54.32a1.87,1.87,0,0,0,.6-.12Zm-3.18-6.14a2.47,2.47,0,0,1-1,.41c-.4.08-.82.15-1.26.2l-1.33.19a5,5,0,0,0-1.19.33,2.24,2.24,0,0,0-.87.66,1.87,1.87,0,0,0-.33,1.17,1.63,1.63,0,0,0,.19.82,1.65,1.65,0,0,0,.51.54,2.08,2.08,0,0,0,.73.3,4,4,0,0,0,.87.09,4.55,4.55,0,0,0,1.66-.27,3.41,3.41,0,0,0,1.13-.66,2.64,2.64,0,0,0,.65-.88,2.21,2.21,0,0,0,.21-.89Z" transform="translate(-67.21 -52.89)"/>
    <path class="ef8bcf45-c0b2-497c-85b1-338800a3449e" d="M325.91,309.16a2.07,2.07,0,0,0,.72.72,3.54,3.54,0,0,0,1,.38,6.34,6.34,0,0,0,1.16.11,6.52,6.52,0,0,0,1-.07,3.51,3.51,0,0,0,.94-.25,1.7,1.7,0,0,0,.7-.54,1.41,1.41,0,0,0,.28-.91,1.3,1.3,0,0,0-.58-1.16,4.8,4.8,0,0,0-1.44-.63c-.58-.16-1.2-.31-1.88-.44a10.33,10.33,0,0,1-1.88-.55,3.86,3.86,0,0,1-1.44-1,2.58,2.58,0,0,1-.58-1.8,2.89,2.89,0,0,1,.4-1.55,3.23,3.23,0,0,1,1-1,4.7,4.7,0,0,1,1.43-.6,6.17,6.17,0,0,1,1.58-.2,9.84,9.84,0,0,1,1.87.17,4.42,4.42,0,0,1,1.51.6,3.1,3.1,0,0,1,1,1.16,4.26,4.26,0,0,1,.47,1.81h-2a1.89,1.89,0,0,0-.94-1.57,2.77,2.77,0,0,0-.87-.34,4.34,4.34,0,0,0-1-.1,5.3,5.3,0,0,0-.88.07,2.91,2.91,0,0,0-.82.24,1.66,1.66,0,0,0-.6.46,1.16,1.16,0,0,0-.23.75,1.08,1.08,0,0,0,.35.84,2.86,2.86,0,0,0,.92.56,7.29,7.29,0,0,0,1.24.37l1.39.31q.74.17,1.44.39a4.94,4.94,0,0,1,1.24.61,3,3,0,0,1,.88,1,2.75,2.75,0,0,1,.34,1.43,3.29,3.29,0,0,1-.45,1.8,3.63,3.63,0,0,1-1.18,1.16,5,5,0,0,1-1.64.61,10.17,10.17,0,0,1-1.81.17,8.29,8.29,0,0,1-1.89-.21,4.69,4.69,0,0,1-1.6-.68,3.38,3.38,0,0,1-1.1-1.24,4.31,4.31,0,0,1-.46-1.88h2A2.08,2.08,0,0,0,325.91,309.16Z" transform="translate(-67.21 -52.89)"/>
    <path class="ef8bcf45-c0b2-497c-85b1-338800a3449e" d="M336.59,311.17a21,21,0,0,0,.69-5.41,21.22,21.22,0,0,0-.7-5.53,20.17,20.17,0,0,0-2.32-5.27h1.48c.55.86,1.05,1.72,1.5,2.57a20,20,0,0,1,1.14,2.61,16.94,16.94,0,0,1,.73,2.71,16,16,0,0,1,.25,2.91,17.34,17.34,0,0,1-.91,5.48,17.57,17.57,0,0,1-2.71,5.13h-1.48A19,19,0,0,0,336.59,311.17Z" transform="translate(-67.21 -52.89)"/>
    <path class="ef8bcf45-c0b2-497c-85b1-338800a3449e" d="M154.59,329.32v-1.73h2v-1.78a2.79,2.79,0,0,1,.84-2.2,3.58,3.58,0,0,1,2.46-.75,5.27,5.27,0,0,1,.63.05,3.61,3.61,0,0,1,.64.13v1.71a3.06,3.06,0,0,0-.56-.13l-.55,0a1.86,1.86,0,0,0-1.11.28,1.22,1.22,0,0,0-.39,1.06v1.66h2.31v1.73h-2.31v10.2h-2v-10.2Z" transform="translate(-67.21 -52.89)"/>
    <path class="ef8bcf45-c0b2-497c-85b1-338800a3449e" d="M162.34,331.11a5.78,5.78,0,0,1,1.11-2,5.18,5.18,0,0,1,1.82-1.32,6,6,0,0,1,2.5-.49,5.9,5.9,0,0,1,2.5.49,5.14,5.14,0,0,1,1.81,1.32,5.62,5.62,0,0,1,1.11,2,7.83,7.83,0,0,1,.37,2.46,7.7,7.7,0,0,1-.37,2.44,5.49,5.49,0,0,1-1.11,2,5,5,0,0,1-1.81,1.31,6.06,6.06,0,0,1-2.5.48,6.16,6.16,0,0,1-2.5-.48,5,5,0,0,1-1.82-1.31,5.65,5.65,0,0,1-1.11-2,8,8,0,0,1-.36-2.44A8.13,8.13,0,0,1,162.34,331.11Zm2,4.38a3.86,3.86,0,0,0,.8,1.41,3.3,3.3,0,0,0,1.19.87,3.53,3.53,0,0,0,4.07-.87,3.84,3.84,0,0,0,.79-1.41,6.53,6.53,0,0,0,0-3.85,4.15,4.15,0,0,0-.79-1.42,3.55,3.55,0,0,0-4.07-.88,3.33,3.33,0,0,0-1.19.88,4.17,4.17,0,0,0-.8,1.42,6.53,6.53,0,0,0,0,3.85Z" transform="translate(-67.21 -52.89)"/>
    <path class="ef8bcf45-c0b2-497c-85b1-338800a3449e" d="M177.64,327.59v2.52h.05a5.35,5.35,0,0,1,1.75-2.15,4.45,4.45,0,0,1,2.64-.65v2.08a5.65,5.65,0,0,0-2,.32,3.15,3.15,0,0,0-1.34,1,3.88,3.88,0,0,0-.74,1.51,8.3,8.3,0,0,0-.23,2v5.31h-2V327.59Z" transform="translate(-67.21 -52.89)"/>
    <path class="ef8bcf45-c0b2-497c-85b1-338800a3449e" d="M194.12,339.47a2.78,2.78,0,0,1-1.41.31,1.72,1.72,0,0,1-1.21-.43,1.87,1.87,0,0,1-.45-1.4,4.69,4.69,0,0,1-1.88,1.4,6.39,6.39,0,0,1-3.85.24,3.32,3.32,0,0,1-1.26-.58,2.81,2.81,0,0,1-.84-1,3.47,3.47,0,0,1-.31-1.54,3.53,3.53,0,0,1,.34-1.66,3.09,3.09,0,0,1,.91-1.05,4.21,4.21,0,0,1,1.3-.61c.48-.14,1-.25,1.48-.35s1.05-.19,1.54-.24a8.2,8.2,0,0,0,1.28-.23,2.2,2.2,0,0,0,.88-.44A1.08,1.08,0,0,0,191,331a2,2,0,0,0-.24-1,1.65,1.65,0,0,0-.63-.6,2.5,2.5,0,0,0-.85-.28,7.41,7.41,0,0,0-.93-.07,4.1,4.1,0,0,0-2.08.48,2,2,0,0,0-.9,1.79h-2a4.16,4.16,0,0,1,.46-1.87,3.59,3.59,0,0,1,1.11-1.24,4.79,4.79,0,0,1,1.58-.68,8.19,8.19,0,0,1,1.9-.21,10.91,10.91,0,0,1,1.61.12,4,4,0,0,1,1.44.47,2.85,2.85,0,0,1,1,1,3.21,3.21,0,0,1,.39,1.68v6.13a4.77,4.77,0,0,0,.08,1c.05.22.23.32.54.32a1.83,1.83,0,0,0,.6-.11Zm-3.18-6.13a2.47,2.47,0,0,1-1,.4c-.4.09-.82.15-1.26.21l-1.33.18a4.8,4.8,0,0,0-1.2.34,2.16,2.16,0,0,0-.86.65,1.83,1.83,0,0,0-.34,1.17,1.61,1.61,0,0,0,.2.82,1.65,1.65,0,0,0,.51.54,2,2,0,0,0,.72.3,4.17,4.17,0,0,0,.88.09,4.56,4.56,0,0,0,1.66-.26,3.52,3.52,0,0,0,1.13-.67,2.54,2.54,0,0,0,.65-.88,2.17,2.17,0,0,0,.21-.89Z" transform="translate(-67.21 -52.89)"/>
    <path class="ef8bcf45-c0b2-497c-85b1-338800a3449e" d="M197.79,327.59v1.75h.05a4.33,4.33,0,0,1,3.85-2,4.44,4.44,0,0,1,2,.46,2.63,2.63,0,0,1,1.27,1.57,4.29,4.29,0,0,1,1.58-1.5,4.49,4.49,0,0,1,2.16-.53,6.19,6.19,0,0,1,1.62.2,3.32,3.32,0,0,1,1.25.61,2.79,2.79,0,0,1,.81,1.07,4,4,0,0,1,.29,1.58v8.75h-2V331.7a5.65,5.65,0,0,0-.1-1,2.1,2.1,0,0,0-.34-.84,1.76,1.76,0,0,0-.71-.57,2.77,2.77,0,0,0-1.16-.21,3.09,3.09,0,0,0-2.29.84,3,3,0,0,0-.83,2.21v7.43h-2V331.7a5,5,0,0,0-.1-1.06,2.25,2.25,0,0,0-.36-.85,1.76,1.76,0,0,0-.68-.55,2.67,2.67,0,0,0-1.1-.2,2.89,2.89,0,0,0-1.46.35,3.44,3.44,0,0,0-1,.83,3.53,3.53,0,0,0-.55,1,2.74,2.74,0,0,0-.17.87v7.43h-2V327.59Z" transform="translate(-67.21 -52.89)"/>
    <path class="ef8bcf45-c0b2-497c-85b1-338800a3449e" d="M232.62,339.47a2.78,2.78,0,0,1-1.41.31,1.7,1.7,0,0,1-1.21-.43,1.87,1.87,0,0,1-.45-1.4,4.76,4.76,0,0,1-1.88,1.4,6.34,6.34,0,0,1-2.32.43,6.43,6.43,0,0,1-1.54-.19,3.47,3.47,0,0,1-1.26-.58,2.81,2.81,0,0,1-.84-1,3.47,3.47,0,0,1-.31-1.54,3.52,3.52,0,0,1,.35-1.66,3,3,0,0,1,.91-1.05,4.15,4.15,0,0,1,1.29-.61c.49-.14,1-.25,1.49-.35s1.05-.19,1.53-.24a7.78,7.78,0,0,0,1.28-.23,2.14,2.14,0,0,0,.88-.44,1,1,0,0,0,.32-.84,2,2,0,0,0-.24-1,1.69,1.69,0,0,0-.62-.6,2.64,2.64,0,0,0-.86-.28,7.28,7.28,0,0,0-.93-.07,4.13,4.13,0,0,0-2.08.48,2,2,0,0,0-.9,1.79h-2a4.29,4.29,0,0,1,.46-1.87,3.59,3.59,0,0,1,1.11-1.24,4.79,4.79,0,0,1,1.58-.68,8.28,8.28,0,0,1,1.91-.21,10.77,10.77,0,0,1,1.6.12,4,4,0,0,1,1.44.47,2.77,2.77,0,0,1,1,1,3.21,3.21,0,0,1,.39,1.68v6.13a4.77,4.77,0,0,0,.08,1c.06.22.24.32.55.32a1.83,1.83,0,0,0,.6-.11Zm-3.19-6.13a2.41,2.41,0,0,1-1,.4c-.4.09-.82.15-1.26.21l-1.32.18a4.57,4.57,0,0,0-1.2.34,2.13,2.13,0,0,0-.87.65,1.89,1.89,0,0,0-.33,1.17,1.61,1.61,0,0,0,.19.82,1.65,1.65,0,0,0,.51.54,2.08,2.08,0,0,0,.73.3,4.17,4.17,0,0,0,.88.09,4.63,4.63,0,0,0,1.66-.26,3.52,3.52,0,0,0,1.13-.67,2.64,2.64,0,0,0,.64-.88,2.17,2.17,0,0,0,.21-.89Z" transform="translate(-67.21 -52.89)"/>
    <path class="ef8bcf45-c0b2-497c-85b1-338800a3449e" d="M243.14,339.52v-1.61h0a2.91,2.91,0,0,1-1.52,1.43,5.83,5.83,0,0,1-2.28.44,5.39,5.39,0,0,1-2.42-.51,5,5,0,0,1-1.7-1.36,5.79,5.79,0,0,1-1-2,8.52,8.52,0,0,1,0-4.8,5.66,5.66,0,0,1,1-2,5,5,0,0,1,1.71-1.34,5.46,5.46,0,0,1,2.39-.5,5,5,0,0,1,1,.1,4.95,4.95,0,0,1,2.07.88,3.22,3.22,0,0,1,.79.89h0V323h2v16.48Zm-7-4.23a4.32,4.32,0,0,0,.67,1.42,3.35,3.35,0,0,0,1.15,1,3.58,3.58,0,0,0,1.65.37,3.3,3.3,0,0,0,1.69-.4,3.36,3.36,0,0,0,1.13-1,4.35,4.35,0,0,0,.63-1.44,7,7,0,0,0,.2-1.64,6.83,6.83,0,0,0-.21-1.7,4.23,4.23,0,0,0-.66-1.44,3.44,3.44,0,0,0-1.16-1,3.71,3.71,0,0,0-1.73-.38,3.3,3.3,0,0,0-1.69.4,3.14,3.14,0,0,0-1.11,1,5,5,0,0,0-.6,1.48,8.14,8.14,0,0,0-.18,1.71A6,6,0,0,0,236.09,335.29Z" transform="translate(-67.21 -52.89)"/>
    <path class="ef8bcf45-c0b2-497c-85b1-338800a3449e" d="M248.24,325.44V323h2v2.4Zm2,2.15v11.93h-2V327.59Z" transform="translate(-67.21 -52.89)"/>
    <path class="ef8bcf45-c0b2-497c-85b1-338800a3449e" d="M263.82,339.47a2.78,2.78,0,0,1-1.41.31,1.7,1.7,0,0,1-1.21-.43,1.87,1.87,0,0,1-.45-1.4,4.76,4.76,0,0,1-1.88,1.4,6.34,6.34,0,0,1-2.32.43,6.43,6.43,0,0,1-1.54-.19,3.47,3.47,0,0,1-1.26-.58,2.81,2.81,0,0,1-.84-1,3.47,3.47,0,0,1-.31-1.54,3.52,3.52,0,0,1,.35-1.66,3,3,0,0,1,.91-1.05,4.26,4.26,0,0,1,1.29-.61c.49-.14,1-.25,1.49-.35s1.05-.19,1.53-.24a8.12,8.12,0,0,0,1.29-.23,2.16,2.16,0,0,0,.87-.44,1,1,0,0,0,.32-.84,2,2,0,0,0-.24-1,1.69,1.69,0,0,0-.62-.6,2.58,2.58,0,0,0-.85-.28A7.57,7.57,0,0,0,258,329a4.13,4.13,0,0,0-2.08.48,2,2,0,0,0-.9,1.79h-2a4.29,4.29,0,0,1,.46-1.87,3.59,3.59,0,0,1,1.11-1.24,4.79,4.79,0,0,1,1.58-.68,8.28,8.28,0,0,1,1.91-.21,10.77,10.77,0,0,1,1.6.12,4,4,0,0,1,1.44.47,2.77,2.77,0,0,1,1,1,3.21,3.21,0,0,1,.39,1.68v6.13a4.77,4.77,0,0,0,.08,1c.06.22.24.32.55.32a1.83,1.83,0,0,0,.6-.11Zm-3.19-6.13a2.41,2.41,0,0,1-1,.4c-.4.09-.82.15-1.26.21l-1.32.18a4.57,4.57,0,0,0-1.2.34,2.19,2.19,0,0,0-.87.65,1.89,1.89,0,0,0-.33,1.17,1.61,1.61,0,0,0,.19.82,1.65,1.65,0,0,0,.51.54,2.08,2.08,0,0,0,.73.3,4.17,4.17,0,0,0,.88.09,4.59,4.59,0,0,0,1.66-.26,3.52,3.52,0,0,0,1.13-.67,2.51,2.51,0,0,0,.64-.88,2.17,2.17,0,0,0,.21-.89Z" transform="translate(-67.21 -52.89)"/>
    <path class="ef8bcf45-c0b2-497c-85b1-338800a3449e" d="M274.34,339.52v-1.61h0a2.91,2.91,0,0,1-1.52,1.43,5.83,5.83,0,0,1-2.28.44,5.32,5.32,0,0,1-2.41-.51,4.89,4.89,0,0,1-1.71-1.36,5.79,5.79,0,0,1-1-2,8.14,8.14,0,0,1-.35-2.4,8.54,8.54,0,0,1,.34-2.4,5.66,5.66,0,0,1,1-2,5,5,0,0,1,1.71-1.34,5.46,5.46,0,0,1,2.39-.5,5,5,0,0,1,1,.1,4.95,4.95,0,0,1,2.07.88,3.22,3.22,0,0,1,.79.89h0V323h2v16.48Zm-7-4.23a4.53,4.53,0,0,0,.67,1.42,3.35,3.35,0,0,0,1.15,1,3.58,3.58,0,0,0,1.65.37,3.3,3.3,0,0,0,1.69-.4,3.36,3.36,0,0,0,1.13-1,4.35,4.35,0,0,0,.63-1.44,7,7,0,0,0,.2-1.64,6.83,6.83,0,0,0-.21-1.7,4.23,4.23,0,0,0-.66-1.44,3.35,3.35,0,0,0-1.16-1,3.68,3.68,0,0,0-1.73-.38,3.3,3.3,0,0,0-1.69.4,3,3,0,0,0-1.1,1,4.52,4.52,0,0,0-.6,1.48,7.53,7.53,0,0,0-.19,1.71A6,6,0,0,0,267.29,335.29Z" transform="translate(-67.21 -52.89)"/>
    <path class="ef8bcf45-c0b2-497c-85b1-338800a3449e" d="M289.89,339.47a2.72,2.72,0,0,1-1.4.31,1.7,1.7,0,0,1-1.21-.43,1.83,1.83,0,0,1-.45-1.4,4.72,4.72,0,0,1-1.89,1.4,6.26,6.26,0,0,1-2.32.43,6.41,6.41,0,0,1-1.53-.19,3.47,3.47,0,0,1-1.26-.58,2.81,2.81,0,0,1-.84-1,3.47,3.47,0,0,1-.31-1.54,3.53,3.53,0,0,1,.34-1.66,3.12,3.12,0,0,1,.92-1.05,4,4,0,0,1,1.29-.61c.48-.14,1-.25,1.49-.35s1-.19,1.53-.24a8,8,0,0,0,1.28-.23,2.2,2.2,0,0,0,.88-.44,1.08,1.08,0,0,0,.32-.84,2,2,0,0,0-.24-1,1.69,1.69,0,0,0-.62-.6,2.64,2.64,0,0,0-.86-.28,7.28,7.28,0,0,0-.93-.07,4.13,4.13,0,0,0-2.08.48,2,2,0,0,0-.9,1.79h-2a4.16,4.16,0,0,1,.46-1.87,3.59,3.59,0,0,1,1.11-1.24,4.79,4.79,0,0,1,1.58-.68,8.26,8.26,0,0,1,1.9-.21,10.81,10.81,0,0,1,1.61.12,4,4,0,0,1,1.44.47,2.77,2.77,0,0,1,1,1,3.21,3.21,0,0,1,.39,1.68v6.13a4.77,4.77,0,0,0,.08,1c.06.22.24.32.54.32a1.83,1.83,0,0,0,.6-.11Zm-3.18-6.13a2.47,2.47,0,0,1-1,.4c-.4.09-.82.15-1.26.21l-1.32.18a4.57,4.57,0,0,0-1.2.34,2.13,2.13,0,0,0-.87.65,1.89,1.89,0,0,0-.33,1.17,1.61,1.61,0,0,0,.19.82,1.65,1.65,0,0,0,.51.54,2.08,2.08,0,0,0,.73.3,4,4,0,0,0,.87.09,4.56,4.56,0,0,0,1.66-.26,3.58,3.58,0,0,0,1.14-.67,2.64,2.64,0,0,0,.64-.88,2.17,2.17,0,0,0,.21-.89Z" transform="translate(-67.21 -52.89)"/>
    <path class="ef8bcf45-c0b2-497c-85b1-338800a3449e" d="M293.22,336.86a2,2,0,0,0,.72.71,3,3,0,0,0,1,.38,5.57,5.57,0,0,0,1.16.12,8.2,8.2,0,0,0,1-.07,3.52,3.52,0,0,0,.94-.26,1.7,1.7,0,0,0,.7-.54,1.41,1.41,0,0,0,.28-.91,1.29,1.29,0,0,0-.58-1.15,4.81,4.81,0,0,0-1.44-.64c-.58-.16-1.2-.31-1.88-.44a9.59,9.59,0,0,1-1.88-.55,3.84,3.84,0,0,1-1.44-1,2.58,2.58,0,0,1-.58-1.8,2.86,2.86,0,0,1,.4-1.55,3.36,3.36,0,0,1,1-1.05,4.81,4.81,0,0,1,1.43-.6,6.64,6.64,0,0,1,1.58-.2,9.06,9.06,0,0,1,1.87.18,4.06,4.06,0,0,1,1.51.6,3.07,3.07,0,0,1,1,1.15,4.3,4.3,0,0,1,.47,1.81h-2a2,2,0,0,0-.3-1,2.07,2.07,0,0,0-.64-.61,3,3,0,0,0-.87-.33,4.33,4.33,0,0,0-.95-.11,6.67,6.67,0,0,0-.89.07,2.91,2.91,0,0,0-.82.25,1.46,1.46,0,0,0-.6.46,1.25,1.25,0,0,0,.12,1.59,2.85,2.85,0,0,0,.92.55,7.29,7.29,0,0,0,1.24.37l1.39.31a13.92,13.92,0,0,1,1.44.4,4.54,4.54,0,0,1,1.25.61,2.87,2.87,0,0,1,.87,1,2.73,2.73,0,0,1,.34,1.43,3.34,3.34,0,0,1-.45,1.8,3.6,3.6,0,0,1-1.18,1.15,4.81,4.81,0,0,1-1.64.61,9.33,9.33,0,0,1-1.81.18,8.29,8.29,0,0,1-1.89-.21,4.75,4.75,0,0,1-1.59-.68,3.35,3.35,0,0,1-1.11-1.25,4.27,4.27,0,0,1-.46-1.88h2A2.12,2.12,0,0,0,293.22,336.86Z" transform="translate(-67.21 -52.89)"/>
    <path class="ef8bcf45-c0b2-497c-85b1-338800a3449e" d="M320.24,339.47a2.78,2.78,0,0,1-1.41.31,1.72,1.72,0,0,1-1.21-.43,1.87,1.87,0,0,1-.45-1.4,4.69,4.69,0,0,1-1.88,1.4,6.39,6.39,0,0,1-3.85.24,3.32,3.32,0,0,1-1.26-.58,2.72,2.72,0,0,1-.84-1,3.47,3.47,0,0,1-.31-1.54,3.53,3.53,0,0,1,.34-1.66,3.09,3.09,0,0,1,.91-1.05,4.21,4.21,0,0,1,1.3-.61c.48-.14,1-.25,1.48-.35s1.06-.19,1.54-.24a8.2,8.2,0,0,0,1.28-.23,2.2,2.2,0,0,0,.88-.44,1.08,1.08,0,0,0,.32-.84,2,2,0,0,0-.24-1,1.65,1.65,0,0,0-.63-.6,2.5,2.5,0,0,0-.85-.28,7.41,7.41,0,0,0-.93-.07,4.1,4.1,0,0,0-2.08.48,2,2,0,0,0-.9,1.79h-2a4.16,4.16,0,0,1,.46-1.87,3.59,3.59,0,0,1,1.11-1.24,4.7,4.7,0,0,1,1.58-.68,8.19,8.19,0,0,1,1.9-.21,10.81,10.81,0,0,1,1.61.12,4,4,0,0,1,1.44.47,2.77,2.77,0,0,1,1,1,3.21,3.21,0,0,1,.39,1.68v6.13a4.77,4.77,0,0,0,.08,1c0,.22.23.32.54.32a1.83,1.83,0,0,0,.6-.11Zm-3.18-6.13a2.47,2.47,0,0,1-1,.4c-.4.09-.82.15-1.26.21l-1.33.18a4.8,4.8,0,0,0-1.2.34,2.16,2.16,0,0,0-.86.65,1.83,1.83,0,0,0-.34,1.17,1.61,1.61,0,0,0,.2.82,1.65,1.65,0,0,0,.51.54,2,2,0,0,0,.72.3,4.17,4.17,0,0,0,.88.09,4.56,4.56,0,0,0,1.66-.26,3.52,3.52,0,0,0,1.13-.67,2.54,2.54,0,0,0,.65-.88,2.17,2.17,0,0,0,.21-.89Z" transform="translate(-67.21 -52.89)"/>
    <path class="ef8bcf45-c0b2-497c-85b1-338800a3449e" d="M327.17,327.59v1.73h-2.38v7.41a2,2,0,0,0,.06.55.54.54,0,0,0,.22.33,1.07,1.07,0,0,0,.44.15q.3,0,.75,0h.91v1.73h-1.5a7.05,7.05,0,0,1-1.31-.1,2,2,0,0,1-.88-.38,1.7,1.7,0,0,1-.49-.79,4.45,4.45,0,0,1-.16-1.34v-7.59h-2v-1.73h2V324h2v3.58Z" transform="translate(-67.21 -52.89)"/>
    <path class="ef8bcf45-c0b2-497c-85b1-338800a3449e" d="M337.78,338.76a5.38,5.38,0,0,1-3.37,1,6.1,6.1,0,0,1-2.48-.47,4.66,4.66,0,0,1-1.76-1.29,5.42,5.42,0,0,1-1.08-2,9.5,9.5,0,0,1-.4-2.52,7.31,7.31,0,0,1,.41-2.49,6,6,0,0,1,1.17-2,5.22,5.22,0,0,1,1.78-1.3,5.52,5.52,0,0,1,2.25-.46,4.88,4.88,0,0,1,2.64.66,5.26,5.26,0,0,1,1.68,1.67,6.49,6.49,0,0,1,.88,2.22,9.6,9.6,0,0,1,.2,2.28h-8.93a4.55,4.55,0,0,0,.18,1.49,3.36,3.36,0,0,0,.67,1.25,3.25,3.25,0,0,0,1.18.86,3.93,3.93,0,0,0,1.68.33,3.35,3.35,0,0,0,2-.58,2.79,2.79,0,0,0,1.05-1.75h1.94A4.77,4.77,0,0,1,337.78,338.76Zm-.47-7.66a3.52,3.52,0,0,0-.72-1.08,3.4,3.4,0,0,0-1.06-.71,3.56,3.56,0,0,0-2.72,0,3.14,3.14,0,0,0-1.05.73,3.08,3.08,0,0,0-.69,1.07,4,4,0,0,0-.3,1.3h6.85A4.12,4.12,0,0,0,337.31,331.1Zm-2.44-9.35-2.21,3.74h1.47l3.26-3.74Z" transform="translate(-67.21 -52.89)"/>
    <path class="ef8bcf45-c0b2-497c-85b1-338800a3449e" d="M356.84,339.52v-1.61h0a2.93,2.93,0,0,1-1.53,1.43,5.83,5.83,0,0,1-2.28.44,5.35,5.35,0,0,1-2.41-.51,4.89,4.89,0,0,1-1.71-1.36,6,6,0,0,1-1-2,8.14,8.14,0,0,1-.34-2.4,8.54,8.54,0,0,1,.33-2.4,5.51,5.51,0,0,1,1-2,4.9,4.9,0,0,1,1.7-1.34,5.49,5.49,0,0,1,2.39-.5,5.21,5.21,0,0,1,1,.1,4.88,4.88,0,0,1,1.06.31,4.52,4.52,0,0,1,1,.57,3.25,3.25,0,0,1,.8.89h0V323h2v16.48Zm-7-4.23a4.53,4.53,0,0,0,.67,1.42,3.38,3.38,0,0,0,1.16,1,3.55,3.55,0,0,0,1.65.37,3.27,3.27,0,0,0,1.68-.4,3.36,3.36,0,0,0,1.13-1,4.37,4.37,0,0,0,.64-1.44,7,7,0,0,0,.19-1.64,7.32,7.32,0,0,0-.2-1.7,4.23,4.23,0,0,0-.66-1.44,3.38,3.38,0,0,0-1.17-1,3.68,3.68,0,0,0-1.73-.38,3.27,3.27,0,0,0-1.68.4,3.06,3.06,0,0,0-1.11,1,4.52,4.52,0,0,0-.6,1.48,7.53,7.53,0,0,0-.19,1.71A6.4,6.4,0,0,0,349.79,335.29Z" transform="translate(-67.21 -52.89)"/>
    <path class="ef8bcf45-c0b2-497c-85b1-338800a3449e" d="M361.94,325.44V323h2v2.4Zm2,2.15v11.93h-2V327.59Z" transform="translate(-67.21 -52.89)"/>
    <path class="ef8bcf45-c0b2-497c-85b1-338800a3449e" d="M377.52,339.47a2.78,2.78,0,0,1-1.41.31,1.7,1.7,0,0,1-1.21-.43,1.87,1.87,0,0,1-.45-1.4,4.69,4.69,0,0,1-1.88,1.4,6.39,6.39,0,0,1-3.85.24,3.32,3.32,0,0,1-1.26-.58,2.63,2.63,0,0,1-.84-1,3.47,3.47,0,0,1-.32-1.54,3.52,3.52,0,0,1,.35-1.66,3,3,0,0,1,.91-1.05,4.26,4.26,0,0,1,1.29-.61c.49-.14,1-.25,1.49-.35s1.05-.19,1.54-.24a8.2,8.2,0,0,0,1.28-.23,2.2,2.2,0,0,0,.88-.44,1.08,1.08,0,0,0,.32-.84,2,2,0,0,0-.24-1,1.65,1.65,0,0,0-.63-.6,2.58,2.58,0,0,0-.85-.28,7.56,7.56,0,0,0-.93-.07,4.08,4.08,0,0,0-2.08.48,2,2,0,0,0-.9,1.79h-2a4.16,4.16,0,0,1,.46-1.87,3.46,3.46,0,0,1,1.1-1.24,4.84,4.84,0,0,1,1.59-.68,8.19,8.19,0,0,1,1.9-.21,10.67,10.67,0,0,1,1.6.12,4,4,0,0,1,1.45.47,2.85,2.85,0,0,1,1,1,3.21,3.21,0,0,1,.39,1.68v6.13a4.18,4.18,0,0,0,.08,1c.05.22.23.32.54.32a1.83,1.83,0,0,0,.6-.11Zm-3.18-6.13a2.47,2.47,0,0,1-1,.4c-.4.09-.82.15-1.26.21l-1.33.18a4.68,4.68,0,0,0-1.2.34,2.16,2.16,0,0,0-.86.65,1.83,1.83,0,0,0-.34,1.17,1.61,1.61,0,0,0,.2.82,1.73,1.73,0,0,0,.5.54,2.16,2.16,0,0,0,.73.3,4.17,4.17,0,0,0,.88.09,4.56,4.56,0,0,0,1.66-.26,3.52,3.52,0,0,0,1.13-.67,2.68,2.68,0,0,0,.65-.88,2.17,2.17,0,0,0,.21-.89Z" transform="translate(-67.21 -52.89)"/>
    <path class="ef8bcf45-c0b2-497c-85b1-338800a3449e" d="M166.14,357.89h.65a4.16,4.16,0,0,0,1.18-.17,3.25,3.25,0,0,0,1-.51,2.45,2.45,0,0,0,.68-.84,2.54,2.54,0,0,0,.25-1.16,2.38,2.38,0,0,0-.83-2,3.24,3.24,0,0,0-2.08-.66,3.1,3.1,0,0,0-1.37.29,2.74,2.74,0,0,0-1,.77,3.28,3.28,0,0,0-.56,1.14,4.66,4.66,0,0,0-.19,1.36h-2a7.54,7.54,0,0,1,.38-2.15,4.62,4.62,0,0,1,1-1.66,4.19,4.19,0,0,1,1.56-1.08,5.36,5.36,0,0,1,2.15-.4,7,7,0,0,1,2,.27,4.6,4.6,0,0,1,1.58.79,3.8,3.8,0,0,1,1,1.37,4.69,4.69,0,0,1,.38,2,3.17,3.17,0,0,1-.65,2,4.12,4.12,0,0,1-1.61,1.29v.05a3.34,3.34,0,0,1,2.22,1.41,4.43,4.43,0,0,1,.73,2.56,5,5,0,0,1-.45,2.16,4.43,4.43,0,0,1-1.21,1.55,5.19,5.19,0,0,1-1.79.94,7.37,7.37,0,0,1-2.18.31,7,7,0,0,1-2.26-.35,4.59,4.59,0,0,1-1.73-1,4.51,4.51,0,0,1-1.1-1.68,6.13,6.13,0,0,1-.36-2.26h2a4,4,0,0,0,.93,2.6,3.21,3.21,0,0,0,2.56,1,4.08,4.08,0,0,0,1.36-.22,3.35,3.35,0,0,0,1.13-.62,3.17,3.17,0,0,0,.78-1,3,3,0,0,0,.28-1.33,3.19,3.19,0,0,0-.27-1.35,3.06,3.06,0,0,0-.74-1,2.93,2.93,0,0,0-1.1-.6,4.63,4.63,0,0,0-1.37-.2,8.81,8.81,0,0,0-1.18.07v-1.66Z" transform="translate(-67.21 -52.89)"/>
    <path class="ef8bcf45-c0b2-497c-85b1-338800a3449e" d="M180,367.21V355.49h-4.25v-1.57a9.66,9.66,0,0,0,1.62-.13,4.26,4.26,0,0,0,1.41-.47,3.15,3.15,0,0,0,1.08-.94,3.66,3.66,0,0,0,.6-1.53H182v16.36Z" transform="translate(-67.21 -52.89)"/>
    <path class="ef8bcf45-c0b2-497c-85b1-338800a3449e" d="M203.16,367.21V365.6h0a2.87,2.87,0,0,1-1.52,1.43,5.88,5.88,0,0,1-2.29.44,5.38,5.38,0,0,1-2.41-.51,5.08,5.08,0,0,1-1.71-1.36,6,6,0,0,1-1-2,8.14,8.14,0,0,1-.35-2.4,8.24,8.24,0,0,1,.34-2.4,5.66,5.66,0,0,1,1-2,4.84,4.84,0,0,1,1.71-1.34,5.43,5.43,0,0,1,2.39-.49,6,6,0,0,1,1,.09,4.72,4.72,0,0,1,1.06.31,4.57,4.57,0,0,1,1,.58,3,3,0,0,1,.8.89h0v-6.14h2v16.47Zm-7-4.23a4.32,4.32,0,0,0,.67,1.42,3.25,3.25,0,0,0,1.15,1,3.46,3.46,0,0,0,1.65.37,3.37,3.37,0,0,0,1.68-.39,3.42,3.42,0,0,0,1.14-1,4.26,4.26,0,0,0,.63-1.44,7,7,0,0,0,.2-1.64,6.88,6.88,0,0,0-.21-1.7,4.31,4.31,0,0,0-.66-1.44,3.41,3.41,0,0,0-1.16-1,3.61,3.61,0,0,0-1.74-.38,3.37,3.37,0,0,0-1.68.39,3.17,3.17,0,0,0-1.11,1,4.56,4.56,0,0,0-.6,1.48,8,8,0,0,0-.18,1.7A5.94,5.94,0,0,0,196.11,363Z" transform="translate(-67.21 -52.89)"/>
    <path class="ef8bcf45-c0b2-497c-85b1-338800a3449e" d="M216.59,366.45a5.4,5.4,0,0,1-3.37,1,6.24,6.24,0,0,1-2.48-.46,4.91,4.91,0,0,1-1.77-1.3,5.55,5.55,0,0,1-1.07-2,9.5,9.5,0,0,1-.4-2.52,7.15,7.15,0,0,1,.41-2.49,6,6,0,0,1,1.17-2,5.28,5.28,0,0,1,4-1.75,5,5,0,0,1,2.65.65,5.19,5.19,0,0,1,1.68,1.68,6.57,6.57,0,0,1,.88,2.21,9.62,9.62,0,0,1,.19,2.29h-8.93a4.88,4.88,0,0,0,.19,1.49,3.32,3.32,0,0,0,.67,1.24,3.35,3.35,0,0,0,1.17.87,4.18,4.18,0,0,0,1.69.32,3.35,3.35,0,0,0,2-.58,2.79,2.79,0,0,0,1-1.75h1.94A4.74,4.74,0,0,1,216.59,366.45Zm-.47-7.66a3.47,3.47,0,0,0-.72-1.07,3.43,3.43,0,0,0-1.06-.72,3.49,3.49,0,0,0-1.35-.26,3.57,3.57,0,0,0-1.38.26,3.36,3.36,0,0,0-1.05.73,3.64,3.64,0,0,0-.69,1.07,4.11,4.11,0,0,0-.3,1.31h6.86A4.24,4.24,0,0,0,216.12,358.79Z" transform="translate(-67.21 -52.89)"/>
    <path class="ef8bcf45-c0b2-497c-85b1-338800a3449e" d="M228.25,371a2.88,2.88,0,0,1-2.08.73,5.24,5.24,0,0,1-1-.09V370l.2,0H226a1,1,0,0,0,.87-.36,2.45,2.45,0,0,0,.23-1.28V355.28h2v13.43A3,3,0,0,1,228.25,371Zm-1.19-17.89v-2.4h2v2.4Z" transform="translate(-67.21 -52.89)"/>
    <path class="ef8bcf45-c0b2-497c-85b1-338800a3449e" d="M240.1,367.21v-1.89h0a4.1,4.1,0,0,1-1.59,1.63,4.75,4.75,0,0,1-2.29.52,5.3,5.3,0,0,1-2-.31,3.2,3.2,0,0,1-1.27-.89,3.4,3.4,0,0,1-.68-1.37,7.49,7.49,0,0,1-.2-1.77v-7.85h2v8.08a2.24,2.24,0,0,0,2.43,2.4,3.92,3.92,0,0,0,1.56-.28,2.87,2.87,0,0,0,1.09-.78,3.54,3.54,0,0,0,.66-1.19A4.71,4.71,0,0,0,240,362v-6.74h2v11.93Z" transform="translate(-67.21 -52.89)"/>
    <path class="ef8bcf45-c0b2-497c-85b1-338800a3449e" d="M247,350.74v16.47h-2V350.74Z" transform="translate(-67.21 -52.89)"/>
    <path class="ef8bcf45-c0b2-497c-85b1-338800a3449e" d="M252,350.74V357h0a2.58,2.58,0,0,1,.64-.94,3.74,3.74,0,0,1,.94-.62,4.9,4.9,0,0,1,1.08-.36,5.26,5.26,0,0,1,1.1-.11,5.09,5.09,0,0,1,2,.32,3.22,3.22,0,0,1,1.27.9,3.33,3.33,0,0,1,.68,1.37,7.45,7.45,0,0,1,.19,1.77v7.84h-2v-8.07a2.38,2.38,0,0,0-.64-1.76,2.41,2.41,0,0,0-1.78-.64A4.11,4.11,0,0,0,254,357a2.92,2.92,0,0,0-1.09.79,3.15,3.15,0,0,0-.66,1.19,4.71,4.71,0,0,0-.22,1.49v6.73h-2V350.74Z" transform="translate(-67.21 -52.89)"/>
    <path class="ef8bcf45-c0b2-497c-85b1-338800a3449e" d="M262.58,358.8a5.65,5.65,0,0,1,1.11-2,5.2,5.2,0,0,1,1.82-1.33,6.75,6.75,0,0,1,5,0,5.26,5.26,0,0,1,1.81,1.33,5.65,5.65,0,0,1,1.11,2,8.33,8.33,0,0,1,0,4.91,5.69,5.69,0,0,1-1.11,2,5.23,5.23,0,0,1-1.81,1.32,6.88,6.88,0,0,1-5,0,5.18,5.18,0,0,1-1.82-1.32,5.69,5.69,0,0,1-1.11-2,8.33,8.33,0,0,1,0-4.91Zm2,4.39a4.18,4.18,0,0,0,.79,1.41,3.56,3.56,0,0,0,5.27,0,4.18,4.18,0,0,0,.79-1.41,6.57,6.57,0,0,0,0-3.86,4.33,4.33,0,0,0-.79-1.42,3.48,3.48,0,0,0-1.19-.87,3.63,3.63,0,0,0-2.89,0,3.48,3.48,0,0,0-1.19.87,4.33,4.33,0,0,0-.79,1.42,6.57,6.57,0,0,0,0,3.86Z" transform="translate(-67.21 -52.89)"/>
    <path class="ef8bcf45-c0b2-497c-85b1-338800a3449e" d="M291.22,367.21V365.6h-.05a2.87,2.87,0,0,1-1.52,1.43,5.83,5.83,0,0,1-2.28.44A5.32,5.32,0,0,1,285,367a4.89,4.89,0,0,1-1.71-1.36,5.79,5.79,0,0,1-1-2,8.14,8.14,0,0,1-.34-2.4,8.59,8.59,0,0,1,.33-2.4,5.66,5.66,0,0,1,1-2,5,5,0,0,1,1.71-1.34,5.46,5.46,0,0,1,2.39-.49,5.87,5.87,0,0,1,1,.09,4.67,4.67,0,0,1,2.07.89,3.08,3.08,0,0,1,.79.89h.05v-6.14h2v16.47ZM284.17,363a4.53,4.53,0,0,0,.67,1.42,3.25,3.25,0,0,0,1.15,1,3.46,3.46,0,0,0,1.65.37,3.22,3.22,0,0,0,2.82-1.42,4.26,4.26,0,0,0,.63-1.44,7,7,0,0,0,.2-1.64,6.88,6.88,0,0,0-.21-1.7,4.13,4.13,0,0,0-.66-1.44,3.32,3.32,0,0,0-1.16-1,3.57,3.57,0,0,0-1.73-.38,3.43,3.43,0,0,0-1.69.39,3.05,3.05,0,0,0-1.1,1,4.35,4.35,0,0,0-.6,1.48,7.38,7.38,0,0,0-.19,1.7A5.94,5.94,0,0,0,284.17,363Z" transform="translate(-67.21 -52.89)"/>
    <path class="ef8bcf45-c0b2-497c-85b1-338800a3449e" d="M304.65,366.45a5.38,5.38,0,0,1-3.37,1,6.27,6.27,0,0,1-2.48-.46,4.79,4.79,0,0,1-1.76-1.3,5.42,5.42,0,0,1-1.08-2,9.92,9.92,0,0,1-.4-2.52,7.15,7.15,0,0,1,.42-2.49,5.82,5.82,0,0,1,1.16-2,5.32,5.32,0,0,1,4-1.75,5,5,0,0,1,2.64.65,5.32,5.32,0,0,1,1.69,1.68,6.55,6.55,0,0,1,.87,2.21,9.64,9.64,0,0,1,.2,2.29h-8.93a4.58,4.58,0,0,0,.18,1.49,3.32,3.32,0,0,0,.67,1.24,3.39,3.39,0,0,0,1.18.87,4.13,4.13,0,0,0,1.68.32,3.4,3.4,0,0,0,2-.58,2.79,2.79,0,0,0,1.05-1.75h1.93A4.74,4.74,0,0,1,304.65,366.45Zm-.47-7.66a3.47,3.47,0,0,0-.72-1.07,3.31,3.31,0,0,0-1.06-.72,3.46,3.46,0,0,0-1.35-.26,3.52,3.52,0,0,0-1.37.26,3.14,3.14,0,0,0-1.05.73,3.64,3.64,0,0,0-.69,1.07,4.11,4.11,0,0,0-.3,1.31h6.85A4,4,0,0,0,304.18,358.79Z" transform="translate(-67.21 -52.89)"/>
    <path class="ef8bcf45-c0b2-497c-85b1-338800a3449e" d="M314.81,354.34a4.9,4.9,0,0,1,1-1.84,4.7,4.7,0,0,1,1.7-1.21,5.75,5.75,0,0,1,2.3-.44,6.49,6.49,0,0,1,2,.31,5,5,0,0,1,1.63.9,4.34,4.34,0,0,1,1.09,1.47,4.78,4.78,0,0,1,.41,2,5,5,0,0,1-.34,1.92,5.26,5.26,0,0,1-.89,1.48,7.13,7.13,0,0,1-1.26,1.19c-.48.36-1,.7-1.48,1l-1.52.91a11.46,11.46,0,0,0-1.4,1,6.61,6.61,0,0,0-1.09,1.09,3.14,3.14,0,0,0-.58,1.35h8.4v1.73H314.09a8.87,8.87,0,0,1,.52-2.48,6.44,6.44,0,0,1,1-1.78,7.4,7.4,0,0,1,1.4-1.34c.53-.39,1.07-.75,1.64-1.09s1.3-.82,1.83-1.19a8.21,8.21,0,0,0,1.3-1.09,4,4,0,0,0,.79-1.2,4.06,4.06,0,0,0,.26-1.5,2.79,2.79,0,0,0-.25-1.21,3,3,0,0,0-.68-.94,3,3,0,0,0-1-.6,3.51,3.51,0,0,0-1.22-.21,2.86,2.86,0,0,0-1.47.36,3.1,3.1,0,0,0-1,.94,4,4,0,0,0-.57,1.3,6,6,0,0,0-.15,1.47h-2A6.62,6.62,0,0,1,314.81,354.34Z" transform="translate(-67.21 -52.89)"/>
    <path class="ef8bcf45-c0b2-497c-85b1-338800a3449e" d="M327.38,357.31a13.2,13.2,0,0,1,.24-1.89,9.11,9.11,0,0,1,.53-1.75,4.64,4.64,0,0,1,.94-1.46,4.5,4.5,0,0,1,1.51-1,6.64,6.64,0,0,1,4.37,0,4.5,4.5,0,0,1,1.51,1,4.64,4.64,0,0,1,.94,1.46,9.11,9.11,0,0,1,.53,1.75,13.2,13.2,0,0,1,.24,1.89c0,.65,0,1.27,0,1.87s0,1.23,0,1.87A13.16,13.16,0,0,1,338,363a9,9,0,0,1-.53,1.74,4.78,4.78,0,0,1-.94,1.44,4.16,4.16,0,0,1-1.5,1,5.91,5.91,0,0,1-2.19.36,6,6,0,0,1-2.19-.36,4.2,4.2,0,0,1-1.51-1,4.78,4.78,0,0,1-.94-1.44,9,9,0,0,1-.53-1.74,13.16,13.16,0,0,1-.24-1.9c0-.64,0-1.27,0-1.87S327.35,358,327.38,357.31Zm2.09,3.92a8.63,8.63,0,0,0,.37,2.14,4,4,0,0,0,1,1.7,3.06,3.06,0,0,0,3.87,0,4.1,4.1,0,0,0,1-1.7,9.12,9.12,0,0,0,.37-2.14c0-.77,0-1.45,0-2.07,0-.4,0-.84,0-1.33a11.79,11.79,0,0,0-.11-1.45,10.83,10.83,0,0,0-.3-1.42,3.78,3.78,0,0,0-.58-1.21,2.93,2.93,0,0,0-4.73,0,3.78,3.78,0,0,0-.58,1.21,10.83,10.83,0,0,0-.3,1.42,10.11,10.11,0,0,0-.11,1.45c0,.49,0,.93,0,1.33C329.42,359.78,329.43,360.46,329.47,361.23Z" transform="translate(-67.21 -52.89)"/>
    <path class="ef8bcf45-c0b2-497c-85b1-338800a3449e" d="M340.47,354.34a4.9,4.9,0,0,1,1-1.84,4.79,4.79,0,0,1,1.7-1.21,5.84,5.84,0,0,1,2.31-.44,6.48,6.48,0,0,1,2,.31,4.86,4.86,0,0,1,1.63.9,4.37,4.37,0,0,1,1.1,1.47,4.78,4.78,0,0,1,.4,2,5.22,5.22,0,0,1-.33,1.92,5.5,5.5,0,0,1-.89,1.48,7.56,7.56,0,0,1-1.27,1.19c-.48.36-1,.7-1.48,1l-1.52.91a11.46,11.46,0,0,0-1.4,1,6.54,6.54,0,0,0-1.08,1.09,3.16,3.16,0,0,0-.59,1.35h8.4v1.73H339.75a8.87,8.87,0,0,1,.52-2.48,6.44,6.44,0,0,1,1-1.78,7.45,7.45,0,0,1,1.41-1.34,18.66,18.66,0,0,1,1.64-1.09c.69-.43,1.3-.82,1.82-1.19a7.78,7.78,0,0,0,1.3-1.09,4,4,0,0,0,.79-1.2,3.87,3.87,0,0,0,.26-1.5,2.79,2.79,0,0,0-.25-1.21,3,3,0,0,0-.68-.94,3,3,0,0,0-1-.6,3.51,3.51,0,0,0-1.22-.21,2.8,2.8,0,0,0-1.46.36,3,3,0,0,0-1,.94,3.8,3.8,0,0,0-.56,1.3,5.18,5.18,0,0,0-.15,1.47h-2A6.39,6.39,0,0,1,340.47,354.34Z" transform="translate(-67.21 -52.89)"/>
    <path class="ef8bcf45-c0b2-497c-85b1-338800a3449e" d="M353.05,357.31a13.19,13.19,0,0,1,.23-1.89,9.11,9.11,0,0,1,.53-1.75,4.66,4.66,0,0,1,.95-1.46,4.41,4.41,0,0,1,1.51-1,6.61,6.61,0,0,1,4.36,0,4.41,4.41,0,0,1,1.51,1,4.66,4.66,0,0,1,.95,1.46,9.87,9.87,0,0,1,.53,1.75,13.19,13.19,0,0,1,.23,1.89c0,.65,0,1.27,0,1.87s0,1.23,0,1.87a13.15,13.15,0,0,1-.23,1.9,9.77,9.77,0,0,1-.53,1.74,4.81,4.81,0,0,1-.95,1.44,4.16,4.16,0,0,1-1.5,1,6.81,6.81,0,0,1-4.37,0,4.12,4.12,0,0,1-1.51-1,4.81,4.81,0,0,1-.95-1.44,9,9,0,0,1-.53-1.74,13.15,13.15,0,0,1-.23-1.9c0-.64-.05-1.27-.05-1.87S353,358,353.05,357.31Zm2.09,3.92a8.19,8.19,0,0,0,.37,2.14,4,4,0,0,0,1,1.7,3.07,3.07,0,0,0,3.88,0,4.09,4.09,0,0,0,1-1.7,8.63,8.63,0,0,0,.37-2.14c0-.77.06-1.45.06-2.07,0-.4,0-.84,0-1.33a11.81,11.81,0,0,0-.12-1.45,10.83,10.83,0,0,0-.3-1.42,3.58,3.58,0,0,0-.58-1.21,2.78,2.78,0,0,0-2.36-1.17,2.78,2.78,0,0,0-1.41.33,3,3,0,0,0-1,.84,3.76,3.76,0,0,0-.57,1.21,9.41,9.41,0,0,0-.3,1.42,11.81,11.81,0,0,0-.12,1.45c0,.49,0,.93,0,1.33C355.08,359.78,355.1,360.46,355.14,361.23Z" transform="translate(-67.21 -52.89)"/>
    <path class="ef8bcf45-c0b2-497c-85b1-338800a3449e" d="M369.34,364.65v2.56h-2.56v-2.56Z" transform="translate(-67.21 -52.89)"/>
  </g>
</svg>
