<?xml version="1.0" encoding="utf-8"?>
<!-- Generator: Adobe Illustrator 24.1.0, SVG Export Plug-In . SVG Version: 6.00 Build 0)  -->
<svg version="1.1" id="Layer_1" xmlns="http://www.w3.org/2000/svg" xmlns:xlink="http://www.w3.org/1999/xlink" x="0px" y="0px"
	 viewBox="0 0 200 88.78" style="enable-background:new 0 0 200 88.78;" xml:space="preserve">
<style type="text/css">
	.st0{fill:#11B5C8;}
	.st1{fill:#F26C3F;}
	.st2{fill:#EA2227;}
	.st3{fill:#48161A;}
	.st4{fill:#F26C3D;}
	.st5{fill:#471114;}
	.st6{fill:#EC1E24;}
	.st7{fill:#EC2224;}
	.st8{fill:#4F1117;}
	.st9{fill:#F26F33;}
	.st10{enable-background:new    ;}
</style>
<g id="Layer_2_1_">
	<g id="Layer_1-2">
		<g id="M">
			<path class="st0" d="M197.65,7.64V39.1h-8.27V26.74L181,38.58l0,0l-8.41-11.84V39.1h-8.28V7.64h3.33L181,26l13.33-18.36H197.65z"
				/>
		</g>
		<g id="E">
			<path class="st1" d="M105.56,15.55v4.35l9.9-0.08l0.05,6.9l-9.9,0.08v4.47l12-0.09l0.06,7.75l-20.21,0.15L97.32,7.91l20.21-0.15
				v7.69L105.56,15.55z"/>
		</g>
		<g id="S">
			<path class="st2" d="M118.47,33.82l5-4.91c1.47,2.01,3.84,3.16,6.33,3.09c1.76,0,3.48-0.63,3.48-1.91c0-1.6-3.19-3-6.25-4.37
				c-3.94-1.7-7.32-4.29-7.32-9c0-5.4,5.12-9.24,11-9.24c4.75,0,8.47,2.24,9.68,5.31l-4.77,4.61c-0.93-1.65-3.33-2.36-4.82-2.36
				c-1.7,0-2.92,0.87-2.92,1.93c0,1.43,2.21,1.89,5.57,3.31c4.88,2.05,8.11,5,8.11,9.63c0,5.93-5.54,9.63-11.78,9.63
				C124.7,39.53,120,37.26,118.47,33.82z"/>
		</g>
		<g id="F">
			<path class="st3" d="M151.31,15.63v5h9.9v6.97h-9.9v11.54h-8.18V7.85h20.21v7.78H151.31z"/>
		</g>
		<g id="Pangeia">
			<path class="st0" d="M88.78,44.39c0,24.52-19.87,44.39-44.39,44.39S0,68.91,0,44.39C0,19.87,19.87,0,44.39,0c0,0,0,0,0,0
				C68.9-0.01,88.77,19.86,88.78,44.37C88.78,44.38,88.78,44.38,88.78,44.39z"/>
			<polygon class="st4" points="60.54,35.26 59.69,34.64 60.12,34.02 60.54,33.33 60.54,32.33 60.12,31.24 58.92,31.24 58.22,30.24 
				56.76,29.08 55.44,29.08 53.66,29.08 53.2,27.23 51.96,26.38 51.27,27.07 49.49,27.15 47.95,27.3 47.33,28.77 45.86,28.69 
				43.16,28.85 40.99,30.01 39.83,30.82 39.29,31.55 38.91,32.79 38.21,33.33 36.97,34.26 36.36,35.26 36.36,36.27 36.66,36.88 
				36.66,37.89 36.05,38.51 35.66,39.9 36.28,41.6 36.97,41.98 38.17,42.87 38.44,43.38 37.59,43.53 36.74,44.26 36.9,46.08 
				37.67,46.47 38.67,45.46 39.14,45.46 40.55,45.46 41.45,46.16 43.93,46.62 44.93,47.78 45.82,49.09 46.61,50.02 47.3,50.87 
				47.1,51.8 45.55,54.12 45.47,56.2 45.47,57.59 45.52,59.22 45.09,60.3 43.84,61.15 42.77,61.46 41.38,62.77 40.68,64.32 
				39.75,65.78 39.52,66.56 39.22,68.26 38.52,69.26 37.75,70.42 37.67,71.58 37.21,73.36 37.59,74.9 38.52,75.67 40.99,75.67 
				42.54,75.67 43.93,76.53 45.24,75.6 47.17,75.29 48.72,74.67 50.73,73.82 52.97,73.05 55.05,72.58 59.15,70.65 60.08,70.27 
				60.85,69.26 62.78,68.02 64.64,66.86 66.03,65.86 67.88,64.24 69.12,62.23 70.51,60.76 71.82,58.91 71.82,57.98 70.66,57.28 
				69.04,57.83 68.5,56.67 68.96,55.2 69.27,52.49 69.35,50.25 69.81,47.47 69.97,45.15 69.97,44.16 69.97,42.52 69.04,41.75 
				68.66,40.52 67.34,40.83 67.11,39.74 65.56,39.74 65.33,39.13 64.72,37.73 63.01,38.43 61.7,38.51 61.31,37.97 60.7,36.96 			"/>
			<polygon class="st5" points="33.5,80.19 33.5,78.46 33.11,77.38 33.11,76.29 32.41,75.37 32.41,74.13 32.96,72.97 34.27,71.73 
				35.97,70.81 36.94,69.78 37.82,68.49 38.37,66.02 39.29,64.55 40.3,62.7 41.8,61.57 43.31,60.79 44.13,59.78 44.13,58.75 
				44.08,57.83 44.1,56.05 44.13,55.12 44.16,54.35 44.65,53.62 45.27,52.69 45.91,51.68 45.91,51.1 44.78,49.71 44.08,48.94 
				43.54,48.01 42.54,46.85 40.06,46.39 39.16,45.69 37.28,45.69 36.28,46.7 35.51,46.31 35.35,44.49 36.2,43.76 37.05,43.61 
				36.78,42.91 34.89,41.83 33.34,41.83 30.95,41.83 30.17,40.36 29.02,39.74 27.7,38.35 26.31,38.35 24.61,38.9 23.68,38.82 
				22.06,38.35 20.44,38.35 18.51,39.2 17.89,39.74 17.11,40.98 17.11,41.6 17.66,41.98 17.58,42.84 17.11,43.45 17.11,44.49 
				17.11,45.08 16.42,45.38 16.11,46.16 15.65,47.16 15.65,48.09 15.65,48.86 15.65,49.71 15.65,50.02 16.19,51.1 16.73,51.1 
				16.88,51.68 17.89,52.65 18.35,53.65 19.05,55.74 20.2,56.74 21.21,57.9 22.14,58.37 22.83,58.91 23.53,59.27 23.99,59.68 
				24.46,60.07 24.69,60.99 25.07,62.38 25.07,63.39 25.15,64.63 25.23,66.25 25.54,67.33 26,69.03 26.39,70.42 26.62,71.66 
				26.85,72.58 27.39,73.97 28.24,75.83 29.02,76.75 29.94,77.68 30.77,78.76 31.64,79.46 32.18,80.19 			"/>
			<polygon class="st6" points="59,72.28 59.92,72.28 61.24,72.28 62.01,72.28 62.55,71.89 63.32,72.28 63.32,73.36 64.48,73.36 
				65.49,73.74 65.87,74.44 66.72,74.44 67.81,74.44 67.81,75.29 67.81,76.29 66.88,77.61 65.72,78.15 64.41,79.31 63.4,80.08 
				62.01,80.85 59.92,82.17 59,82.78 56.83,83.63 54.36,84.56 52.12,84.56 50.65,85.03 47.95,85.03 45.71,85.03 44.47,84.33 
				42.46,84.33 40.6,83.94 39.22,83.48 37.67,83.4 36.43,83.17 35.27,82.63 34.35,81.94 33.96,81.59 33.96,80.23 33.96,79.85 
				33.57,77.68 32.88,76.75 33.01,75.24 33.42,74.36 34.73,73.12 36.66,72.2 36.74,73.2 36.59,73.97 36.28,74.67 36.43,75.75 
				36.66,76.75 37.28,77.14 38.6,77.22 40.14,77.14 40.99,77.14 41.84,77.37 42.15,77.84 43,78.15 43.77,77.61 44.55,77.14 
				46.25,76.91 48.18,76.06 49.8,75.29 51.11,74.83 53.43,74.36 54.9,73.59 56.21,72.89 57.53,72.43 			"/>
			<polygon class="st5" points="72.98,60.34 73.45,60.14 73.91,60.34 74.76,60.92 75.07,61.38 75.72,61.38 76.34,61.65 76.69,61.65 
				76.69,62.15 76.96,63 76.96,63.54 76.65,64.24 76.34,64.97 75.96,65.51 75.42,66.05 74.97,66.98 74.26,68.02 73.83,68.45 
				73.64,69.19 73.25,70 72.98,70.73 72.06,72.28 71.75,73.05 71.24,74.13 70.9,74.67 70.43,75.4 70.05,75.4 69.89,75.06 
				69.89,73.74 68.19,73.74 67.57,73.05 66.94,72.81 66.57,72.66 65.41,72.66 65.41,71.58 64.56,71 63.86,71.58 62.01,71.58 
				61.08,71.58 60.09,71.68 61.39,71 61.84,70.4 62.36,70.03 63.17,69.38 64.02,68.8 64.98,68.33 65.56,67.99 66.92,66.87 
				67.84,66.09 68.93,65.13 69.24,64.66 69.7,63.81 70.39,63 71.17,62.23 71.75,61.26 72.46,60.57 			"/>
			<polygon class="st7" points="78.01,55.93 78.28,56.74 78.14,57.83 78.01,59.06 77.42,60.34 77.42,60.8 77.16,61.11 76.42,60.78 
				75.88,60.69 75.4,60.49 74.37,59.64 73.45,59.64 73.23,59.45 73.23,58.33 72.9,57.89 72.29,57.52 73.68,57.32 74.37,57.52 
				74.45,57.17 76.23,56.86 76.65,57.01 76.85,56.36 			"/>
			<polygon class="st5" points="71.13,41.56 71.13,43 71.13,43.99 71.13,44.88 71,45.93 70.84,47.13 70.6,48.58 70.48,49.87 
				70.48,50.79 70.35,52.03 69.97,53.38 69.97,54.97 69.66,55.51 70.39,56.6 71.13,56.36 72.18,56.08 72.82,55.99 73.68,56.06 
				73.68,55.78 74.31,55.72 75.14,55.78 75.77,55.47 75.99,55.55 76.34,55.11 76.96,54.75 77.35,54.85 77.66,54 78.12,53.73 
				78.12,52.88 78.12,52.22 77.81,51.76 77.39,51.3 76.61,51.34 76.31,51.03 75.92,51.03 76.19,49.83 76.07,48.82 76.11,47.78 
				76.11,46.85 76.34,46.35 77.19,45.66 77.5,44.57 77.5,43.84 77.39,43 77.35,42.37 77.16,41.56 76.69,40.67 76.31,39.86 
				75.76,39.36 74.99,39.2 74.53,38.31 73.89,38.31 72.98,38.93 72.98,39.86 72.48,40.48 71.82,40.94 71.24,41.17 			"/>
			<polyline class="st6" points="27.85,3.19 29.34,2.62 31.26,2.04 31.26,2.88 31.7,3.43 31.7,4.2 32.18,4.82 32.96,5.28 33.5,5.67 
				34.11,6.36 35.74,6.59 36.66,7.06 37.28,7.98 38.21,8.37 39.14,7.98 39.45,9.3 38.6,10.07 37.67,9.99 36.2,10.07 35.2,10.38 
				33.96,11.38 32.57,11.93 32.49,12.54 33.11,13.32 33.81,13.55 34.35,13.86 34.81,14.63 35.2,15.32 35.2,16.25 35.2,17.18 
				35.74,17.95 36.51,17.95 36.9,17.18 37.67,16.25 38.44,15.4 38.75,14.55 39.14,13.01 39.45,12.16 40.68,11.77 41.3,11.31 
				43.38,11.46 44.39,12.08 44.39,13.47 45.32,14.01 46.02,14.86 46.83,16.1 47.33,16.1 48.1,15.4 48.49,14.55 49.34,13.39 
				50.34,13.01 51.73,12.39 52.2,11.77 53.28,11.54 53.66,12.23 53.66,13.01 53.66,14.78 54.52,15.09 54.98,15.48 55.29,16.79 
				56.37,17.41 57.37,17.41 57.84,18.42 57.45,19.58 57.45,20.19 56.6,21.2 56.76,21.82 56.76,22.67 57.84,23.28 58.84,23.36 
				59.38,23.36 60.47,23.59 61.31,24.21 62.32,25.22 62.32,25.68 64.33,26.53 65.41,27.61 65.87,28.69 65.87,29.85 64.87,30.08 
				65.87,31.24 65.49,32.09 64.33,32.48 63.94,31.86 63.17,32.63 62.55,32.33 62.09,31.48 61.7,31.01 60.62,31.4 60.08,31.48 
				59.65,30.08 58.38,29.85 57.53,28.93 56.52,28 54.98,27.92 53.28,28.31 53.2,27.61 53.05,26.84 52.58,25.91 51.5,25.22 
				50.49,25.93 49.03,25.99 47.87,26.07 47.26,26.68 47.05,27.16 46.86,27.61 45.63,27.53 44.16,27.53 43,27.61 42.46,27.77 
				40.76,28.85 39.37,29.66 38.83,30.39 38.54,31.32 38.2,31.82 37.31,32.49 36.31,33.43 35.89,34.57 36.03,35.39 36.2,36.19 
				36.2,36.73 35.49,37.7 35.2,38.74 35.82,40.44 34.73,40.59 33.42,40.36 31.87,40.44 31.26,38.9 29.94,38.35 28.71,37.19 
				27.24,36.96 25.54,37.5 23.61,37.19 21.36,36.96 20.05,37.5 19.05,37.97 18.22,39.31 16.57,39.31 15.49,39.82 14.41,39.82 
				14.41,38.82 14.41,36.96 14.41,34.49 13.72,34.18 14.41,32.94 14.26,32.48 13.72,31.78 13.72,30.08 14.26,28.77 13.72,28.08 
				13.72,27.07 14.41,25.99 14.72,24.21 15.57,22.98 15.11,21.82 14.8,20.27 15.03,19.27 15.97,18.03 17.11,16.64 18.74,15.4 
				19.28,14.4 19.98,13.7 20.98,12.08 21.91,10.84 22.76,9.53 24.69,7.83 24.69,6.83 25.07,5.82 25.69,5.82 26,4.89 26.04,3.98 
				27.45,3.35 			"/>
			<polygon class="st8" points="79.09,18.73 78.12,17.72 77.39,16.41 76.15,15.02 74.53,13.55 72.98,12.08 71.59,10.54 70.05,9.45 
				69.12,8.45 67.5,7.44 65.49,6.13 63.86,5.05 62.16,4.2 61.08,3.5 59.15,2.73 57.6,2.27 56.37,1.96 54.9,1.42 54.44,1.42 
				53.82,1.42 53.82,2.19 54.2,2.27 54.9,2.27 56.06,2.73 57.14,2.81 57.76,3.35 58.38,3.43 59.31,4.04 60.39,4.43 60.39,5.74 
				60.39,7.13 59.46,7.06 57.68,6.98 56.68,7.37 55.52,8.84 55.29,10.07 54.9,11.54 55.29,12.23 54.9,13.39 55.29,14.24 
				56.14,15.09 56.7,15.9 56.91,16.79 57.51,17.14 58.45,17.41 59.46,18.42 59.36,18.73 59.07,19.89 58.7,20.64 58.22,21.2 
				58.38,22.67 59.13,23.1 61.01,23.36 62.09,23.59 63.36,24.64 63.94,25.68 64.33,24.52 64.17,23.44 63.48,22.9 62.71,22.13 
				62.86,21 64.02,20.12 65.02,19.96 65.87,20.19 65.87,18.8 65.64,17.34 66.88,16.87 67.88,17.18 68.66,17.64 69.2,18.57 
				69.66,19.5 70.66,19.65 71.13,19.11 71.59,17.88 72.98,17.95 73.89,18.42 74.37,18.34 73.89,17.26 73.89,16.25 73.89,15.02 
				74.68,15.25 75.3,16.41 76.31,17.49 76.77,18.03 77.31,18.88 77.77,19.19 78.55,19.5 			"/>
			<polygon class="st9" points="47.3,14.48 48.23,14.08 48.77,13.33 49.52,12.16 50.28,11.59 51.57,11.05 52.66,10.15 53.38,9.99 
				53.38,8.22 52.66,7.13 52.66,5.51 51.81,4.89 50.81,4.12 51.04,3.04 50.34,3.04 49.88,3.04 48.72,3.73 48.1,4.35 46.94,4.12 
				46.02,3.66 45.16,3.04 43.93,3.04 43.84,3.73 43,4.51 42,4.51 41.22,4.04 39.22,4.89 38.83,4.89 38.29,4.66 37.75,4.04 
				36.82,3.35 36.36,3.04 35.66,3.04 34.66,3.73 34.66,4.35 34.66,5.13 36.05,4.97 36.59,5.2 37.28,5.67 38.06,6.36 39.14,6.36 
				40.26,6.28 41.3,6.21 42.38,6.52 42.77,7.06 42.92,8.76 42,9.14 40.84,9.68 39.82,10.79 41.15,10.84 41.77,10.3 42.85,10.07 
				43.84,9.45 44.02,9.95 44.86,10.46 44.86,11.15 44.86,11.85 44.78,12.62 45.55,13.08 46.17,13.94 			"/>
		</g>
	</g>
	<g id="Novos_dados">
		<g class="st10">
			<path class="st0" d="M104.66,79.85v1.97h-7.61V69.2h1.98v10.65H104.66z"/>
			<path class="st0" d="M106.25,69.2h1.98v12.62h-1.98V69.2z"/>
			<path class="st0" d="M109.93,79.61l1.57-1.12c0.56,0.99,1.61,1.55,2.83,1.55c1.42,0,2.49-0.68,2.49-1.64
				c0-1.17-1.66-1.87-3.13-2.5c-1.48-0.66-3.12-1.42-3.12-3.41c0-2.07,1.79-3.51,4.06-3.51c1.8,0,3.15,0.87,3.66,2.25l-1.47,1.02
				c-0.39-0.85-1.26-1.33-2.18-1.33c-1.16,0-2.08,0.72-2.08,1.61c0,0.99,1.17,1.34,2.7,2c2,0.88,3.55,1.84,3.55,3.83
				c0,2.24-1.94,3.68-4.5,3.68C112.22,82.03,110.65,81.06,109.93,79.61z"/>
			<path class="st0" d="M129.19,77.98c0,1.93-1.46,3.84-3.97,3.84h-4.72V69.2h3.44c2.18,0,3.65,1.57,3.65,3.24
				c0,1.36-0.95,2.27-1.42,2.27C127.59,74.71,129.19,76.01,129.19,77.98z M122.48,71.13v3.15l1.57-0.01c0.98,0.01,1.7-0.67,1.7-1.57
				s-0.78-1.57-1.67-1.57H122.48z M127.26,77.84c0-0.96-0.81-1.83-2.25-1.83l-2.54,0.01v3.87h2.57
				C126.18,79.89,127.26,79.06,127.26,77.84z"/>
			<path class="st0" d="M130.17,75.53c0-3.6,2.93-6.54,6.52-6.54c3.59,0,6.53,2.94,6.53,6.54c0,3.57-2.94,6.5-6.54,6.5
				C133.09,82.02,130.17,79.1,130.17,75.53z M141.21,75.51c0-2.5-2.04-4.53-4.53-4.53s-4.52,2.04-4.52,4.53
				c0,2.48,2.03,4.51,4.52,4.51S141.21,77.99,141.21,75.51z"/>
			<path class="st0" d="M155.18,69.17v12.87h-0.09l-8.07-8.43v8.23h-1.98V68.98h0.1l8.05,8.42v-8.23H155.18z"/>
			<path class="st0" d="M171.17,79.85v1.97h-9.46V81.4c5.19-4.2,7.3-6.39,7.3-7.92c0-1.42-1.16-2.48-2.36-2.48
				c-1.47,0-2.65,1.17-2.65,2.69l-1.81-0.44c0-2.37,1.96-4.24,4.4-4.24c2.47,0,4.42,2.04,4.42,4.36c0,2.18-2.22,4.65-5.08,6.47
				H171.17z"/>
			<path class="st0" d="M172.39,75.51c0-3.8,2.08-6.5,5.15-6.5s5.15,2.69,5.15,6.5c0,3.8-2.08,6.49-5.15,6.49
				S172.39,79.31,172.39,75.51z M180.7,75.51c0-2.64-1.27-4.51-3.17-4.51c-1.91,0-3.17,1.87-3.17,4.51c0,2.63,1.26,4.49,3.17,4.49
				C179.44,80,180.7,78.14,180.7,75.51z"/>
			<path class="st0" d="M193.37,79.85v1.97h-9.46V81.4c5.19-4.2,7.3-6.39,7.3-7.92c0-1.42-1.16-2.48-2.36-2.48
				c-1.47,0-2.65,1.17-2.65,2.69l-1.81-0.44c0-2.37,1.96-4.24,4.4-4.24c2.47,0,4.42,2.04,4.42,4.36c0,2.18-2.22,4.65-5.08,6.47
				H193.37z"/>
			<path class="st0" d="M198.27,69.08v12.74h-1.98V71.63l-1.71,0.51v-2.07l3.11-0.99H198.27z"/>
		</g>
		<g class="st10">
			<path class="st3" d="M109.53,51.89v12.85h-1.42v-8.56l-4.74,8.35h-0.02l-4.75-8.37v8.58h-1.42V51.89h0.16l6.02,10.04l6.02-10.04
				H109.53z"/>
			<path class="st3" d="M113.16,52.12h1.42v12.62h-1.42V52.12z"/>
			<path class="st3" d="M130.07,58.96c0,3.54-2.72,5.96-5.98,5.96c-3.62,0-6.54-2.91-6.54-6.47c0-3.56,2.92-6.49,6.48-6.49
				c1.55,0.01,3.44,0.79,4.57,1.89l-0.8,1.18c-0.98-0.97-2.51-1.65-3.78-1.65c-2.66,0-5.03,2.21-5.03,5.06
				c0,2.77,2.23,5.03,5.14,5.03c2.47,0,4.41-1.65,4.41-3.88c0-0.09,0-0.18-0.01-0.25h-4.53v-1.28h6
				C130.03,58.26,130.07,58.6,130.07,58.96z"/>
			<path class="st3" d="M140.34,64.74l-3.52-4.92h-2.36v4.92h-1.42l-0.01-12.62h3.73c2.34,0,4.25,1.8,4.25,4.02
				c0,1.64-1.12,3.04-2.65,3.51l3.75,5.09H140.34z M136.8,58.62c1.5,0,2.74-1.14,2.74-2.5c0-1.46-1.25-2.58-2.74-2.58h-2.35v5.08
				L136.8,58.62z"/>
		</g>
		<g class="st10">
			<path class="st3" d="M153.01,62.67h-6.89l-0.92,2.07h-1.54l5.83-12.81h0.16l5.84,12.81h-1.55L153.01,62.67z M152.46,61.43
				l-2.89-6.49l-2.9,6.49H152.46z"/>
		</g>
		<g class="st10">
			<path class="st3" d="M164.29,53.53h-3.66v11.21h-1.42V53.53h-3.67v-1.41h8.75V53.53z"/>
			<path class="st3" d="M166.99,52.12h1.42v12.62h-1.42V52.12z"/>
			<path class="st3" d="M171.37,58.44c0-3.58,2.92-6.5,6.48-6.5c3.57,0,6.49,2.92,6.49,6.5c0,3.55-2.92,6.47-6.5,6.47
				C174.29,64.9,171.37,61.99,171.37,58.44z M182.9,58.43c0-2.78-2.27-5.06-5.06-5.06c-2.77,0-5.03,2.28-5.03,5.06
				c0,2.77,2.26,5.03,5.03,5.03C180.63,63.46,182.9,61.2,182.9,58.43z"/>
			<path class="st3" d="M197.46,52.09v12.84h-0.07l-8.65-9.6v9.42h-1.42V51.93h0.08l8.64,9.6v-9.43H197.46z"/>
		</g>
		<g class="st10">
			<path class="st3" d="M97.7,43.23v1.6h2.07v0.57H97.7v1.75h2.39v0.57h-2.96v-5.04h2.96v0.56H97.7z"/>
			<path class="st3" d="M100.94,45.75v-3.08h0.57v3.08c0,0.85,0.55,1.46,1.3,1.46c0.74,0,1.29-0.62,1.29-1.46v-3.08h0.57v3.08
				c0,1.18-0.79,2.04-1.87,2.04C101.74,47.79,100.94,46.93,100.94,45.75z"/>
			<path class="st3" d="M108.6,47.71l-1.41-1.97h-0.94v1.97h-0.57l0-5.04h1.49c0.94,0,1.7,0.72,1.7,1.61c0,0.65-0.45,1.22-1.06,1.4
				l1.5,2.03H108.6z M107.19,45.26c0.6,0,1.09-0.46,1.09-1c0-0.58-0.5-1.03-1.09-1.03h-0.94v2.03L107.19,45.26z"/>
			<path class="st3" d="M109.62,45.19c0-1.43,1.17-2.6,2.59-2.6c1.43,0,2.59,1.17,2.59,2.6c0,1.42-1.17,2.58-2.6,2.58
				C110.79,47.78,109.62,46.61,109.62,45.19z M114.23,45.19c0-1.11-0.91-2.02-2.02-2.02c-1.11,0-2.01,0.91-2.01,2.02
				c0,1.11,0.9,2.01,2.01,2.01C113.32,47.2,114.23,46.3,114.23,45.19z"/>
			<path class="st3" d="M115.6,42.67h1.6c0.98,0,1.77,0.73,1.77,1.63c0,0.86-0.8,1.55-1.77,1.55h-1.03v1.86h-0.57V42.67z
				 M118.4,44.29c0-0.58-0.54-1.06-1.2-1.06h-1.03v2.06l1.03,0C117.86,45.29,118.4,44.84,118.4,44.29z"/>
			<path class="st3" d="M120.23,43.23v1.6h2.07v0.57h-2.07v1.75h2.39v0.57h-2.96v-5.04h2.96v0.56H120.23z"/>
			<path class="st3" d="M126.81,46.88h-2.75l-0.37,0.83h-0.62l2.33-5.12h0.06l2.33,5.12h-0.62L126.81,46.88z M126.59,46.39
				l-1.15-2.59l-1.16,2.59H126.59z"/>
			<path class="st3" d="M132.45,42.66v5.13h-0.03l-3.46-3.84v3.77h-0.57v-5.13h0.03l3.45,3.84v-3.77H132.45z"/>
			<path class="st3" d="M135.07,46.81l0.44-0.32c0.23,0.43,0.74,0.72,1.28,0.72c0.66,0,1.2-0.36,1.2-0.85
				c0-0.57-0.72-0.84-1.37-1.08c-0.62-0.24-1.31-0.54-1.31-1.32c0-0.78,0.7-1.35,1.58-1.35c0.75,0,1.26,0.41,1.45,0.91l-0.43,0.29
				c-0.16-0.38-0.57-0.63-1.02-0.63c-0.54,0-1,0.36-1,0.81c0,0.49,0.55,0.67,1.2,0.92c0.76,0.31,1.47,0.66,1.47,1.47
				c0,0.87-0.8,1.44-1.77,1.44C135.95,47.78,135.31,47.35,135.07,46.81z"/>
			<path class="st3" d="M139.03,45.19c0-1.43,1.17-2.6,2.59-2.6c1.43,0,2.59,1.17,2.59,2.6c0,1.42-1.17,2.58-2.6,2.58
				C140.2,47.78,139.03,46.61,139.03,45.19z M143.64,45.19c0-1.11-0.91-2.02-2.02-2.02c-1.11,0-2.01,0.91-2.01,2.02
				c0,1.11,0.9,2.01,2.01,2.01C142.73,47.2,143.64,46.3,143.64,45.19z"/>
			<path class="st3" d="M144.74,45.19c0-1.42,1.18-2.6,2.59-2.6c0.65,0.01,1.28,0.3,1.73,0.76l-0.33,0.45
				c-0.36-0.37-0.87-0.63-1.42-0.63c-1.01,0-1.99,0.88-1.99,2.02c0,1.14,0.97,2.01,2,2.01c0.57,0,1.05-0.27,1.42-0.63l0.33,0.46
				c-0.42,0.42-0.99,0.74-1.73,0.74C145.93,47.78,144.74,46.62,144.74,45.19z"/>
			<path class="st3" d="M149.75,42.67h0.57v5.04h-0.57V42.67z"/>
			<path class="st3" d="M154.67,46.88h-2.75l-0.37,0.83h-0.62l2.33-5.12h0.06l2.33,5.12h-0.62L154.67,46.88z M154.45,46.39
				l-1.15-2.59l-1.16,2.59H154.45z"/>
			<path class="st3" d="M159.3,47.14v0.57h-3.04v-5.04h0.57v4.48H159.3z"/>
		</g>
		<g class="st10">
			<path class="st3" d="M162.47,43.22v1.68h2.07v0.57h-2.07v2.25h-0.57v-5.06h2.96v0.57H162.47z"/>
		</g>
		<g class="st10">
			<path class="st3" d="M165.18,45.19c0-1.43,1.17-2.6,2.59-2.6c1.43,0,2.59,1.17,2.59,2.6c0,1.42-1.17,2.58-2.6,2.58
				C166.34,47.78,165.18,46.61,165.18,45.19z M169.78,45.19c0-1.11-0.91-2.02-2.02-2.02c-1.11,0-2.01,0.91-2.01,2.02
				c0,1.11,0.9,2.01,2.01,2.01C168.88,47.2,169.78,46.3,169.78,45.19z"/>
		</g>
		<g class="st10">
			<path class="st3" d="M174.08,47.71l-1.41-1.97h-0.94v1.97h-0.57l0-5.04h1.49c0.94,0,1.7,0.72,1.7,1.61c0,0.65-0.45,1.22-1.06,1.4
				l1.5,2.03H174.08z M172.67,45.26c0.6,0,1.09-0.46,1.09-1c0-0.58-0.5-1.03-1.09-1.03h-0.94v2.03L172.67,45.26z"/>
		</g>
		<g class="st10">
			<path class="st3" d="M175.13,45.75v-3.08h0.57v3.08c0,0.85,0.55,1.46,1.29,1.46s1.29-0.62,1.29-1.46v-3.08h0.57v3.08
				c0,1.18-0.79,2.04-1.87,2.04C175.93,47.79,175.13,46.93,175.13,45.75z"/>
			<path class="st3" d="M184.81,42.57v5.14h-0.57v-3.42l-1.9,3.34h-0.01l-1.9-3.34v3.43h-0.57v-5.14h0.07l2.41,4.01l2.41-4.01
				H184.81z"/>
			<path class="st3" d="M187.48,45.19c0-1.43,1.17-2.6,2.59-2.6c1.43,0,2.59,1.17,2.59,2.6c0,1.42-1.17,2.58-2.6,2.58
				C188.64,47.78,187.48,46.61,187.48,45.19z M192.08,45.19c0-1.11-0.91-2.02-2.02-2.02c-1.11,0-2.01,0.91-2.01,2.02
				c0,1.11,0.9,2.01,2.01,2.01C191.18,47.2,192.08,46.3,192.08,45.19z"/>
			<path class="st3" d="M197.5,42.66v5.13h-0.03l-3.46-3.84v3.77h-0.57v-5.13h0.03l3.45,3.84v-3.77H197.5z"/>
		</g>
	</g>
</g>
</svg>
