<?xml version="1.0" encoding="utf-8"?>
<!-- Generator: Adobe Illustrator 24.1.0, SVG Export Plug-In . SVG Version: 6.00 Build 0)  -->
<svg version="1.1" id="Layer_1" xmlns="http://www.w3.org/2000/svg" xmlns:xlink="http://www.w3.org/1999/xlink" x="0px" y="0px"
	 viewBox="0 0 200 89.54" style="enable-background:new 0 0 200 89.54;" xml:space="preserve">
<style type="text/css">
	.st0{fill:#11B5C8;}
	.st1{fill:#F26C3F;}
	.st2{fill:#EA2227;}
	.st3{fill:#48161A;}
	.st4{fill:#F26C3D;}
	.st5{fill:#471114;}
	.st6{fill:#EC1E24;}
	.st7{fill:#EC2224;}
	.st8{fill:#4F1117;}
	.st9{fill:#F26F33;}
	.st10{enable-background:new    ;}
</style>
<g id="Layer_2_1_">
	<g id="Novos_dados">
		<g id="M">
			<path class="st0" d="M199.33,7.7v31.73H191V27l-8.46,11.94h-0.06L174,27v12.43h-8.35V7.7H169l13.5,18.49L196,7.7H199.33z"/>
		</g>
		<g id="E">
			<path class="st1" d="M151.41,15.68v4.38l10-0.07v7l-10,0.08v4.5l12.13-0.09l0.06,7.82l-20.38,0.15L143.1,8l20.38-0.15l0.06,7.76
				L151.41,15.68z"/>
		</g>
		<g id="S">
			<path class="st2" d="M118.83,34.11l5-5c1.49,2.02,3.87,3.18,6.38,3.11c1.77,0,3.51-0.65,3.51-1.93c0-1.62-3.22-3-6.3-4.41
				c-4-1.72-7.39-4.33-7.39-9.07c0-5.44,5.17-9.32,11.13-9.32c4.8,0,8.55,2.26,9.77,5.36l-4.81,4.64c-0.94-1.66-3.36-2.38-4.86-2.38
				c-1.71,0-2.94,0.88-2.94,2c0,1.45,2.22,1.91,5.61,3.34c4.92,2.07,8.18,5.07,8.18,9.71c0,6-5.58,9.71-11.88,9.71
				C125.11,39.86,120.41,37.58,118.83,34.11z"/>
		</g>
		<g id="F">
			<path class="st3" d="M106.51,15.76v5.09h10v7h-10v11.62h-8.25V7.92h20.38v7.84H106.51z"/>
		</g>
		<g id="Pangeia">
			<path class="st0" d="M89.54,44.77c0,24.73-20.04,44.77-44.77,44.77S0,69.5,0,44.77S20.04,0,44.77,0
				C69.49,0.01,89.53,20.05,89.54,44.77z"/>
			<polygon class="st4" points="61.05,35.56 60.2,34.94 60.63,34.31 61.05,33.61 61.05,32.6 60.63,31.51 59.42,31.51 58.72,30.5 
				57.24,29.33 55.91,29.33 54.12,29.33 53.65,27.45 52.4,26.6 51.7,27.3 49.91,27.38 48.35,27.53 47.73,29.02 46.25,28.94 
				43.52,29.09 41.34,30.26 40.17,31.08 39.62,31.82 39.23,33.07 38.53,33.61 37.29,34.55 36.66,35.56 36.66,36.57 36.98,37.2 
				36.98,38.21 36.35,38.83 35.96,40.24 36.59,41.95 37.29,42.34 38.49,43.24 38.77,43.74 37.91,43.9 37.05,44.64 37.21,46.47 
				37.99,46.86 39,45.85 39.47,45.85 40.89,45.85 41.81,46.55 44.3,47.02 45.31,48.19 46.21,49.51 47.01,50.45 47.7,51.3 
				47.49,52.24 45.94,54.57 45.86,56.68 45.86,58.08 45.9,59.72 45.47,60.81 44.22,61.66 43.13,61.98 41.73,63.3 41.03,64.86 
				40.09,66.34 39.86,67.12 39.55,68.83 38.85,69.85 38.07,71.02 37.99,72.19 37.52,73.98 37.91,75.54 38.85,76.32 41.34,76.32 
				42.9,76.32 44.3,77.17 45.63,76.24 47.57,75.93 49.13,75.3 51.16,74.45 53.42,73.67 55.52,73.2 59.65,71.25 60.59,70.86 
				61.37,69.85 63.31,68.6 65.18,67.43 66.59,66.42 68.46,64.78 69.7,62.76 71.11,61.27 72.43,59.41 72.43,58.47 71.26,57.77 
				69.63,58.31 69.08,57.15 69.55,55.67 69.86,52.94 69.94,50.68 70.41,47.87 70.56,45.53 70.56,44.53 70.56,42.88 69.63,42.11 
				69.24,40.86 67.91,41.17 67.68,40.08 66.12,40.08 65.89,39.46 65.26,38.05 63.55,38.76 62.22,38.83 61.83,38.29 61.21,37.27 			
				"/>
			<polygon class="st5" points="33.78,80.87 33.78,79.12 33.39,78.03 33.39,76.94 32.69,76 32.69,74.76 33.23,73.59 34.56,72.34 
				36.27,71.41 37.25,70.37 38.14,69.07 38.69,66.58 39.62,65.09 40.65,63.23 42.15,62.09 43.67,61.31 44.5,60.29 44.5,59.25 
				44.46,58.31 44.47,56.53 44.5,55.59 44.53,54.81 45.03,54.07 45.65,53.13 46.29,52.12 46.29,51.53 45.16,50.13 44.46,49.35 
				43.91,48.42 42.9,47.25 40.4,46.78 39.49,46.08 37.6,46.08 36.59,47.09 35.81,46.7 35.65,44.87 36.51,44.13 37.37,43.98 
				37.09,43.27 35.18,42.18 33.62,42.18 31.21,42.18 30.43,40.7 29.26,40.08 27.94,38.68 26.53,38.68 24.82,39.22 23.88,39.15 
				22.25,38.68 20.61,38.68 18.66,39.53 18.04,40.08 17.26,41.33 17.26,41.95 17.8,42.34 17.73,43.2 17.26,43.82 17.26,44.87 
				17.26,45.46 16.56,45.77 16.25,46.55 15.78,47.56 15.78,48.5 15.78,49.27 15.78,50.13 15.78,50.44 16.32,51.53 16.87,51.53 
				17.03,52.12 18.04,53.09 18.51,54.11 19.21,56.21 20.38,57.22 21.39,58.39 22.32,58.86 23.02,59.41 23.73,59.78 24.2,60.19 
				24.66,60.58 24.9,61.51 25.29,62.91 25.29,63.92 25.36,65.17 25.44,66.81 25.75,67.9 26.22,69.61 26.61,71.02 26.84,72.26 
				27.08,73.2 27.62,74.6 28.48,76.47 29.26,77.41 30.2,78.34 31.04,79.43 31.91,80.13 32.46,80.87 			"/>
			<polygon class="st6" points="59.49,72.89 60.43,72.89 61.76,72.89 62.53,72.89 63.08,72.5 63.86,72.89 63.86,73.98 65.03,73.98 
				66.04,74.37 66.43,75.07 67.29,75.07 68.38,75.07 68.38,75.92 68.38,76.94 67.44,78.26 66.28,78.81 64.95,79.98 63.94,80.76 
				62.53,81.53 60.43,82.86 59.49,83.48 57.31,84.34 54.82,85.28 52.56,85.28 51.08,85.75 48.35,85.75 46.09,85.75 44.84,85.04 
				42.82,85.04 40.95,84.65 39.55,84.19 37.99,84.11 36.74,83.87 35.57,83.33 34.64,82.63 34.25,82.28 34.25,80.91 34.25,80.52 
				33.86,78.34 33.16,77.41 33.29,75.88 33.7,74.99 35.03,73.74 36.98,72.81 37.05,73.82 36.9,74.6 36.59,75.3 36.74,76.39 
				36.98,77.41 37.6,77.8 38.92,77.87 40.48,77.8 41.34,77.8 42.2,78.03 42.51,78.5 43.37,78.81 44.13,78.26 44.92,77.8 
				46.64,77.56 48.59,76.7 50.22,75.92 51.55,75.46 53.88,74.99 55.37,74.21 56.69,73.51 58.02,73.04 			"/>
			<polygon class="st5" points="73.6,60.85 74.07,60.65 74.53,60.85 75.39,61.43 75.7,61.9 76.37,61.9 76.99,62.17 77.34,62.17 
				77.34,62.68 77.61,63.54 77.61,64.08 77.3,64.78 76.99,65.52 76.6,66.07 76.06,66.61 75.61,67.55 74.89,68.6 74.46,69.03 
				74.26,69.77 73.87,70.59 73.6,71.33 72.67,72.89 72.35,73.67 71.85,74.76 71.5,75.3 71.03,76.04 70.64,76.04 70.48,75.69 
				70.48,74.37 68.77,74.37 68.14,73.67 67.51,73.42 67.13,73.28 65.96,73.28 65.96,72.18 65.11,71.6 64.41,72.18 62.53,72.18 
				61.6,72.18 60.6,72.29 61.91,71.6 62.37,71 62.89,70.63 63.7,69.96 64.56,69.38 65.53,68.91 66.12,68.56 67.48,67.43 
				68.42,66.65 69.51,65.68 69.82,65.21 70.29,64.36 70.99,63.54 71.77,62.76 72.35,61.78 73.08,61.08 			"/>
			<polygon class="st7" points="78.67,56.41 78.94,57.22 78.8,58.31 78.67,59.56 78.08,60.85 78.08,61.31 77.81,61.63 77.06,61.3 
				76.52,61.2 76.04,61 75,60.15 74.07,60.15 73.85,59.95 73.85,58.82 73.52,58.38 72.9,58 74.3,57.81 75,58 75.08,57.65 
				76.87,57.34 77.3,57.5 77.5,56.84 			"/>
			<polygon class="st5" points="71.73,41.91 71.73,43.37 71.73,44.37 71.73,45.26 71.6,46.32 71.44,47.53 71.19,48.99 71.08,50.29 
				71.08,51.22 70.95,52.48 70.56,53.84 70.56,55.43 70.25,55.98 70.99,57.08 71.73,56.84 72.79,56.55 73.44,56.46 74.3,56.53 
				74.3,56.25 74.94,56.19 75.78,56.25 76.41,55.94 76.63,56.02 76.99,55.58 77.61,55.22 78,55.32 78.31,54.46 78.78,54.19 
				78.78,53.33 78.78,52.66 78.47,52.2 78.04,51.73 77.26,51.77 76.95,51.46 76.56,51.46 76.83,50.25 76.72,49.24 76.76,48.19 
				76.76,47.25 76.99,46.74 77.85,46.04 78.16,44.95 78.16,44.21 78.04,43.37 78,42.73 77.81,41.91 77.34,41.02 76.95,40.2 
				76.41,39.69 75.63,39.53 75.16,38.64 74.52,38.64 73.6,39.26 73.6,40.2 73.09,40.82 72.43,41.29 71.85,41.52 			"/>
			<polyline class="st6" points="28.08,3.21 29.59,2.64 31.52,2.05 31.52,2.91 31.97,3.46 31.97,4.23 32.46,4.86 33.23,5.33 
				33.78,5.71 34.4,6.42 36.04,6.65 36.98,7.12 37.6,8.05 38.53,8.44 39.47,8.05 39.78,9.38 38.92,10.16 37.99,10.08 36.51,10.16 
				35.49,10.47 34.25,11.48 32.84,12.03 32.77,12.65 33.39,13.43 34.09,13.66 34.64,13.97 35.1,14.75 35.49,15.46 35.49,16.39 
				35.49,17.33 36.04,18.11 36.82,18.11 37.21,17.33 37.99,16.39 38.77,15.53 39.08,14.68 39.47,13.12 39.78,12.26 41.03,11.87 
				41.65,11.4 43.75,11.56 44.77,12.18 44.77,13.59 45.7,14.13 46.41,14.99 47.23,16.23 47.73,16.23 48.51,15.53 48.9,14.68 
				49.76,13.51 50.77,13.12 52.17,12.49 52.64,11.87 53.73,11.64 54.12,12.34 54.12,13.12 54.12,14.91 54.98,15.22 55.44,15.61 
				55.76,16.93 56.85,17.56 57.86,17.56 58.33,18.57 57.94,19.74 57.94,20.36 57.08,21.38 57.24,22 57.24,22.86 58.33,23.48 
				59.34,23.56 59.89,23.56 60.98,23.79 61.83,24.42 62.85,25.43 62.85,25.9 64.87,26.75 65.96,27.84 66.43,28.94 66.43,30.11 
				65.42,30.34 66.43,31.51 66.04,32.37 64.87,32.76 64.48,32.13 63.7,32.91 63.08,32.6 62.61,31.74 62.22,31.27 61.13,31.66 
				60.59,31.74 60.16,30.34 58.87,30.11 58.02,29.17 57,28.23 55.44,28.16 53.73,28.55 53.65,27.84 53.5,27.07 53.03,26.13 
				51.94,25.43 50.92,26.14 49.44,26.21 48.27,26.29 47.66,26.91 47.45,27.39 47.26,27.84 46.02,27.77 44.53,27.77 43.37,27.84 
				42.82,28 41.11,29.09 39.7,29.91 39.16,30.65 38.87,31.59 38.52,32.09 37.63,32.77 36.62,33.71 36.2,34.86 36.34,35.69 
				36.51,36.49 36.51,37.04 35.79,38.01 35.49,39.07 36.12,40.78 35.03,40.94 33.7,40.7 32.14,40.78 31.52,39.22 30.2,38.68 
				28.95,37.51 27.47,37.27 25.75,37.82 23.81,37.51 21.55,37.27 20.22,37.82 19.21,38.29 18.37,39.64 16.71,39.64 15.62,40.16 
				14.53,40.16 14.53,39.15 14.53,37.27 14.53,34.78 13.83,34.47 14.53,33.22 14.38,32.76 13.83,32.05 13.83,30.34 14.38,29.02 
				13.83,28.31 13.83,27.3 14.53,26.21 14.84,24.42 15.7,23.17 15.23,22 14.92,20.44 15.16,19.43 16.1,18.18 17.26,16.78 
				18.9,15.53 19.44,14.52 20.14,13.82 21.16,12.18 22.09,10.94 22.95,9.61 24.9,7.9 24.9,6.88 25.29,5.87 25.91,5.87 26.22,4.93 
				26.26,4.02 27.68,3.38 			"/>
			<polygon class="st8" points="79.76,18.88 78.78,17.87 78.04,16.55 76.8,15.14 75.16,13.66 73.6,12.18 72.2,10.62 70.64,9.53 
				69.7,8.52 68.07,7.51 66.04,6.18 64.41,5.09 62.69,4.23 61.6,3.53 59.65,2.75 58.09,2.29 56.85,1.97 55.37,1.43 54.9,1.43 
				54.27,1.43 54.27,2.21 54.66,2.29 55.37,2.29 56.54,2.75 57.63,2.83 58.25,3.38 58.87,3.46 59.81,4.08 60.9,4.47 60.9,5.79 
				60.9,7.2 59.96,7.12 58.17,7.04 57.16,7.43 55.99,8.91 55.76,10.16 55.37,11.64 55.76,12.34 55.37,13.51 55.76,14.36 
				56.61,15.22 57.18,16.04 57.39,16.93 58,17.28 58.95,17.56 59.96,18.57 59.86,18.88 59.57,20.05 59.2,20.81 58.72,21.38 
				58.87,22.86 59.64,23.3 61.52,23.56 62.61,23.79 63.9,24.84 64.48,25.9 64.87,24.73 64.72,23.64 64.02,23.09 63.24,22.31 
				63.39,21.18 64.56,20.29 65.57,20.13 66.43,20.36 66.43,18.96 66.2,17.48 67.44,17.01 68.46,17.33 69.24,17.79 69.78,18.73 
				70.25,19.66 71.26,19.82 71.73,19.27 72.2,18.03 73.6,18.11 74.52,18.57 75,18.49 74.52,17.4 74.52,16.39 74.52,15.14 
				75.31,15.38 75.94,16.55 76.95,17.64 77.42,18.18 77.97,19.04 78.43,19.35 79.21,19.66 			"/>
			<polygon class="st9" points="47.7,14.6 48.64,14.2 49.18,13.44 49.94,12.26 50.71,11.68 52,11.14 53.11,10.23 53.83,10.08 
				53.83,8.29 53.11,7.2 53.11,5.56 52.25,4.93 51.24,4.16 51.47,3.06 50.76,3.06 50.3,3.06 49.13,3.77 48.51,4.39 47.34,4.16 
				46.41,3.69 45.55,3.06 44.3,3.06 44.22,3.77 43.37,4.55 42.35,4.55 41.57,4.08 39.55,4.93 39.16,4.93 38.61,4.7 38.07,4.08 
				37.13,3.38 36.66,3.06 35.96,3.06 34.95,3.77 34.95,4.39 34.95,5.17 36.35,5.01 36.9,5.25 37.6,5.71 38.38,6.42 39.47,6.42 
				40.6,6.34 41.65,6.26 42.74,6.57 43.13,7.12 43.29,8.83 42.35,9.22 41.18,9.77 40.15,10.89 41.49,10.94 42.12,10.39 43.21,10.16 
				44.22,9.53 44.39,10.03 45.24,10.55 45.24,11.25 45.24,11.95 45.16,12.73 45.94,13.2 46.56,14.05 			"/>
		</g>
		<g class="st10">
			<path class="st0" d="M105.54,80.52v1.99h-7.67V69.79h2v10.73H105.54z"/>
			<path class="st0" d="M107.14,69.79h2v12.72h-2V69.79z"/>
			<path class="st0" d="M110.85,80.28l1.58-1.13c0.57,0.99,1.62,1.56,2.85,1.56c1.43,0,2.51-0.69,2.51-1.66
				c0-1.18-1.67-1.89-3.16-2.52c-1.49-0.66-3.15-1.44-3.15-3.43c0-2.08,1.81-3.53,4.09-3.53c1.81,0,3.17,0.88,3.69,2.27l-1.48,1.03
				c-0.39-0.86-1.27-1.34-2.19-1.34c-1.17,0-2.1,0.73-2.1,1.62c0,0.99,1.18,1.35,2.72,2.01c2.01,0.88,3.57,1.85,3.57,3.86
				c0,2.26-1.96,3.71-4.54,3.71C113.17,82.72,111.58,81.74,110.85,80.28z"/>
			<path class="st0" d="M130.27,78.64c0,1.95-1.48,3.87-4,3.87h-4.76V69.79h3.47c2.19,0,3.68,1.58,3.68,3.27
				c0,1.37-0.95,2.29-1.43,2.29C128.66,75.35,130.27,76.66,130.27,78.64z M123.5,71.73v3.17l1.58-0.01
				c0.99,0.01,1.71-0.67,1.71-1.58s-0.79-1.59-1.69-1.59H123.5z M128.32,78.5c0-0.96-0.82-1.85-2.26-1.85l-2.56,0.01v3.9h2.59
				C127.23,80.56,128.32,79.73,128.32,78.5z"/>
		</g>
		<g class="st10">
			<path class="st0" d="M131.25,76.17c0-3.63,2.95-6.59,6.57-6.59c3.61,0,6.58,2.97,6.58,6.59c0,3.6-2.97,6.55-6.59,6.55
				C134.21,82.71,131.25,79.76,131.25,76.17z M142.39,76.15c0-2.52-2.06-4.57-4.57-4.57s-4.55,2.05-4.55,4.57
				c0,2.5,2.04,4.54,4.55,4.54S142.39,78.65,142.39,76.15z"/>
		</g>
		<g class="st10">
			<path class="st0" d="M153.09,80.58h-6.02l-0.87,1.93h-2.16l5.98-12.98h0.12l5.98,12.98h-2.16L153.09,80.58z M152.32,78.87
				l-2.23-4.97l-2.24,4.97H152.32z"/>
			<path class="st0" d="M171.2,80.52v1.99h-9.53v-0.43c5.23-4.24,7.36-6.44,7.36-7.98c0-1.44-1.17-2.5-2.38-2.5
				c-1.48,0-2.67,1.18-2.67,2.71l-1.82-0.44c0-2.39,1.98-4.27,4.43-4.27c2.49,0,4.45,2.05,4.45,4.39c0,2.2-2.24,4.69-5.12,6.52
				H171.2z"/>
			<path class="st0" d="M172.43,76.15c0-3.83,2.1-6.55,5.19-6.55c3.09,0,5.19,2.71,5.19,6.55c0,3.83-2.1,6.54-5.19,6.54
				C174.53,82.69,172.43,79.98,172.43,76.15z M180.81,76.15c0-2.66-1.28-4.54-3.2-4.54c-1.92,0-3.19,1.89-3.19,4.54
				c0,2.65,1.27,4.53,3.19,4.53C179.53,80.68,180.81,78.8,180.81,76.15z"/>
			<path class="st0" d="M193.58,80.52v1.99h-9.53v-0.43c5.23-4.24,7.36-6.44,7.36-7.98c0-1.44-1.17-2.5-2.38-2.5
				c-1.48,0-2.67,1.18-2.67,2.71l-1.82-0.44c0-2.39,1.98-4.27,4.43-4.27c2.49,0,4.45,2.05,4.45,4.39c0,2.2-2.24,4.69-5.12,6.52
				H193.58z"/>
			<path class="st0" d="M198.53,69.67v12.83h-2V72.24l-1.72,0.51v-2.08l3.13-0.99H198.53z"/>
		</g>
		<g class="st10">
			<path class="st3" d="M109.22,52.21v11.8h-1.31v-7.86l-4.36,7.67h-0.01l-4.36-7.68v7.88h-1.31v-11.8h0.15l5.53,9.21l5.53-9.21
				H109.22z"/>
			<path class="st3" d="M111.21,52.42h1.31v11.58h-1.31V52.42z"/>
			<path class="st3" d="M125.4,58.7c0,3.25-2.5,5.47-5.49,5.47c-3.33,0-6-2.67-6-5.94c0-3.27,2.68-5.96,5.95-5.96
				c1.42,0.01,3.16,0.73,4.2,1.74l-0.73,1.08c-0.9-0.89-2.31-1.52-3.47-1.52c-2.44,0-4.61,2.03-4.61,4.65
				c0,2.54,2.05,4.62,4.72,4.62c2.26,0,4.05-1.52,4.05-3.56c0-0.09,0-0.17-0.01-0.23h-4.15v-1.18h5.5
				C125.38,58.06,125.4,58.37,125.4,58.7z"/>
			<path class="st3" d="M133.5,64.01l-3.23-4.52h-2.16v4.52h-1.31l-0.01-11.58h3.42c2.15,0,3.9,1.65,3.9,3.69
				c0,1.5-1.03,2.8-2.44,3.22l3.44,4.67H133.5z M130.25,58.39c1.38,0,2.52-1.05,2.52-2.3c0-1.34-1.15-2.37-2.52-2.37h-2.16v4.67
				L130.25,58.39z"/>
		</g>
		<g class="st10">
			<path class="st3" d="M143.62,62.11h-6.32l-0.85,1.9h-1.42l5.35-11.76h0.14l5.36,11.76h-1.42L143.62,62.11z M143.11,60.97
				l-2.65-5.96l-2.66,5.96H143.11z"/>
		</g>
		<g class="st10">
			<path class="st3" d="M145.16,58.22c0-3.26,2.7-5.97,5.95-5.97c1.49,0.01,2.93,0.7,3.98,1.75l-0.76,1.03
				c-0.83-0.86-2-1.45-3.27-1.45c-2.33,0-4.58,2.01-4.58,4.64c0,2.62,2.23,4.62,4.6,4.62c1.31,0,2.42-0.62,3.26-1.44l0.75,1.05
				c-0.96,0.96-2.26,1.7-3.97,1.7C147.9,64.16,145.16,61.51,145.16,58.22z"/>
			<path class="st3" d="M156.23,52.42h1.31v11.58h-1.31V52.42z"/>
			<path class="st3" d="M158.93,58.22c0-3.29,2.68-5.97,5.95-5.97c3.28,0,5.96,2.68,5.96,5.97c0,3.26-2.68,5.94-5.97,5.94
				C161.61,64.16,158.93,61.49,158.93,58.22z M169.52,58.22c0-2.55-2.08-4.64-4.64-4.64c-2.54,0-4.62,2.09-4.62,4.64
				c0,2.54,2.08,4.62,4.62,4.62C167.43,62.84,169.52,60.76,169.52,58.22z"/>
			<path class="st3" d="M181.54,52.4v11.79h-0.06l-7.94-8.82v8.65h-1.31V52.25h0.07l7.93,8.81V52.4H181.54z"/>
			<path class="st3" d="M184.84,53.71v3.67h4.76v1.31h-4.76v4.02h5.5v1.3h-6.81V52.42h6.81v1.29H184.84z"/>
			<path class="st3" d="M191.24,61.94l1.01-0.74c0.52,0.99,1.71,1.65,2.94,1.65c1.52,0,2.75-0.82,2.75-1.96
				c0-1.3-1.66-1.93-3.14-2.49c-1.42-0.55-3.01-1.25-3.01-3.04c0-1.78,1.6-3.11,3.64-3.11c1.72,0,2.89,0.94,3.32,2.08L197.75,55
				c-0.37-0.87-1.31-1.46-2.35-1.46c-1.24,0-2.31,0.82-2.31,1.85c0,1.12,1.27,1.53,2.77,2.11c1.74,0.71,3.38,1.51,3.38,3.37
				c0,2-1.85,3.3-4.07,3.3C193.27,64.17,191.79,63.18,191.24,61.94z"/>
		</g>
		<g class="st10">
			<path class="st3" d="M98.53,43.58v1.7h2.09v0.57h-2.09v2.27h-0.57v-5.11h2.99v0.57H98.53z"/>
		</g>
		<g class="st10">
			<path class="st3" d="M101.8,45.57c0-1.44,1.18-2.62,2.62-2.62c1.44,0,2.62,1.18,2.62,2.62c0,1.44-1.18,2.61-2.62,2.61
				C102.98,48.18,101.8,47,101.8,45.57z M106.45,45.56c0-1.12-0.92-2.04-2.04-2.04c-1.12,0-2.03,0.92-2.03,2.04
				c0,1.12,0.91,2.03,2.03,2.03C105.54,47.6,106.45,46.68,106.45,45.56z"/>
			<path class="st3" d="M111.3,48.11l-1.42-1.99h-0.95v1.99h-0.58l0-5.09h1.5c0.94,0,1.71,0.73,1.71,1.62
				c0,0.66-0.45,1.23-1.07,1.42l1.51,2.05H111.3z M109.87,45.64c0.61,0,1.11-0.46,1.11-1.01c0-0.59-0.5-1.04-1.11-1.04h-0.95v2.05
				L109.87,45.64z"/>
			<path class="st3" d="M112.84,45.57c0-1.44,1.18-2.62,2.62-2.62c1.44,0,2.62,1.18,2.62,2.62c0,1.44-1.18,2.61-2.62,2.61
				C114.02,48.18,112.84,47,112.84,45.57z M117.49,45.56c0-1.12-0.92-2.04-2.04-2.04c-1.12,0-2.03,0.92-2.03,2.04
				c0,1.12,0.91,2.03,2.03,2.03C116.58,47.6,117.49,46.68,117.49,45.56z"/>
			<path class="st3" d="M121.48,47.2l0.44-0.33c0.23,0.44,0.75,0.73,1.29,0.73c0.67,0,1.21-0.36,1.21-0.86
				c0-0.57-0.73-0.85-1.38-1.09c-0.63-0.24-1.32-0.55-1.32-1.34c0-0.78,0.7-1.37,1.6-1.37c0.75,0,1.27,0.41,1.46,0.92l-0.43,0.29
				c-0.16-0.38-0.57-0.64-1.03-0.64c-0.55,0-1.01,0.36-1.01,0.81c0,0.49,0.56,0.67,1.22,0.93c0.76,0.31,1.49,0.66,1.49,1.48
				c0,0.88-0.81,1.45-1.79,1.45C122.37,48.18,121.72,47.74,121.48,47.2z"/>
			<path class="st3" d="M125.99,45.57c0-1.44,1.18-2.62,2.62-2.62c1.44,0,2.62,1.18,2.62,2.62c0,1.44-1.18,2.61-2.62,2.61
				C127.17,48.18,125.99,47,125.99,45.57z M130.64,45.56c0-1.12-0.92-2.04-2.04-2.04c-1.12,0-2.03,0.92-2.03,2.04
				c0,1.12,0.91,2.03,2.03,2.03C129.73,47.6,130.64,46.68,130.64,45.56z"/>
			<path class="st3" d="M132.27,45.57c0-1.43,1.19-2.62,2.62-2.62c0.65,0.01,1.29,0.31,1.75,0.77l-0.33,0.45
				c-0.37-0.38-0.88-0.64-1.44-0.64c-1.02,0-2.01,0.88-2.01,2.04c0,1.15,0.98,2.03,2.02,2.03c0.57,0,1.06-0.27,1.43-0.63l0.33,0.46
				c-0.42,0.42-1,0.75-1.75,0.75C133.48,48.18,132.27,47.01,132.27,45.57z"/>
			<path class="st3" d="M137.85,43.02h0.58v5.09h-0.58V43.02z"/>
			<path class="st3" d="M143.33,47.27h-2.78l-0.37,0.84h-0.62l2.35-5.17h0.06l2.36,5.17h-0.62L143.33,47.27z M143.11,46.77
				l-1.17-2.62l-1.17,2.62H143.11z"/>
			<path class="st3" d="M148.52,47.54v0.57h-3.07v-5.09h0.57v4.52H148.52z"/>
			<path class="st3" d="M152.72,43.58v1.61h2.09v0.57h-2.09v1.77h2.42v0.57h-2.99v-5.09h2.99v0.57H152.72z"/>
			<path class="st3" d="M156.5,46.13v-3.11h0.58v3.11c0,0.86,0.56,1.48,1.31,1.48s1.31-0.63,1.31-1.48v-3.11h0.58v3.11
				c0,1.19-0.8,2.06-1.89,2.06C157.31,48.19,156.5,47.32,156.5,46.13z"/>
			<path class="st3" d="M164.76,48.11l-1.42-1.99h-0.95v1.99h-0.58l0-5.09h1.5c0.94,0,1.71,0.73,1.71,1.62
				c0,0.66-0.45,1.23-1.07,1.42l1.51,2.05H164.76z M163.33,45.64c0.61,0,1.11-0.46,1.11-1.01c0-0.59-0.5-1.04-1.11-1.04h-0.95v2.05
				L163.33,45.64z"/>
			<path class="st3" d="M166.3,45.57c0-1.44,1.18-2.62,2.62-2.62c1.44,0,2.62,1.18,2.62,2.62c0,1.44-1.18,2.61-2.62,2.61
				C167.48,48.18,166.3,47,166.3,45.57z M170.95,45.56c0-1.12-0.92-2.04-2.04-2.04c-1.12,0-2.03,0.92-2.03,2.04
				c0,1.12,0.91,2.03,2.03,2.03C170.04,47.6,170.95,46.68,170.95,45.56z"/>
			<path class="st3" d="M172.85,43.02h1.61c0.99,0,1.79,0.74,1.79,1.64c0,0.87-0.81,1.57-1.79,1.57h-1.04v1.88h-0.57V43.02z
				 M175.68,44.65c0-0.59-0.55-1.07-1.22-1.07h-1.04v2.08l1.04,0C175.13,45.67,175.68,45.21,175.68,44.65z"/>
			<path class="st3" d="M178.04,43.58v1.61h2.09v0.57h-2.09v1.77h2.42v0.57h-2.99v-5.09h2.99v0.57H178.04z"/>
			<path class="st3" d="M181.61,45.57c0-1.44,1.18-2.62,2.62-2.62c1.44,0,2.62,1.18,2.62,2.62c0,1.44-1.18,2.61-2.62,2.61
				C182.79,48.18,181.61,47,181.61,45.57z M186.26,45.56c0-1.12-0.92-2.04-2.04-2.04c-1.12,0-2.03,0.92-2.03,2.04
				c0,1.12,0.91,2.03,2.03,2.03C185.35,47.6,186.26,46.68,186.26,45.56z"/>
			<path class="st3" d="M194.58,45.57c0,1.56-1.01,2.54-2.6,2.54h-1.42v-5.09l1.42,0C193.57,43.02,194.58,44.01,194.58,45.57z
				 M194,45.57c0-1.2-0.79-1.98-2.02-1.98h-0.84v3.95h0.85C193.22,47.54,194,46.76,194,45.57z"/>
			<path class="st3" d="M196.47,43.58v1.61h2.09v0.57h-2.09v1.77h2.42v0.57h-2.99v-5.09h2.99v0.57H196.47z"/>
		</g>
	</g>
</g>
</svg>
