<?xml version="1.0" encoding="utf-8"?>
<!-- Generator: Adobe Illustrator 24.1.0, SVG Export Plug-In . SVG Version: 6.00 Build 0)  -->
<svg version="1.1" id="Layer_1" xmlns="http://www.w3.org/2000/svg" xmlns:xlink="http://www.w3.org/1999/xlink" x="0px" y="0px"
	 viewBox="0 0 200 89.54" style="enable-background:new 0 0 200 89.54;" xml:space="preserve">
<style type="text/css">
	.st0{fill:#FFFFFF;}
	.st1{enable-background:new    ;}
</style>
<g id="M">
	<path class="st0" d="M199.33,7.7v31.73H191V27l-8.46,11.94h-0.06L174,27v12.43h-8.35V7.7H169l13.5,18.49L196,7.7H199.33z"/>
</g>
<g id="E">
	<path class="st0" d="M151.41,15.68v4.38l10-0.07v7l-10,0.08v4.5l12.13-0.09l0.06,7.82l-20.38,0.15L143.1,8l20.38-0.15l0.06,7.76
		L151.41,15.68z"/>
</g>
<g id="S">
	<path class="st0" d="M118.83,34.11l5-5c1.49,2.02,3.87,3.18,6.38,3.11c1.77,0,3.51-0.65,3.51-1.93c0-1.62-3.22-3-6.3-4.41
		c-4-1.72-7.39-4.33-7.39-9.07c0-5.44,5.17-9.32,11.13-9.32c4.8,0,8.55,2.26,9.77,5.36l-4.81,4.64c-0.94-1.66-3.36-2.38-4.86-2.38
		c-1.71,0-2.94,0.88-2.94,2c0,1.45,2.22,1.91,5.61,3.34c4.92,2.07,8.18,5.07,8.18,9.71c0,6-5.58,9.71-11.88,9.71
		C125.11,39.86,120.41,37.58,118.83,34.11z"/>
</g>
<g id="F">
	<path class="st0" d="M106.51,15.76v5.09h10v7h-10v11.62h-8.25V7.92h20.38v7.84H106.51z"/>
</g>
<g class="st1">
	<path class="st0" d="M105.54,80.52v1.99h-7.67V69.79h2v10.73C99.87,80.52,105.54,80.52,105.54,80.52z"/>
	<path class="st0" d="M107.14,69.79h2v12.72h-2V69.79z"/>
	<path class="st0" d="M110.85,80.28l1.58-1.13c0.57,0.99,1.62,1.56,2.85,1.56c1.43,0,2.51-0.69,2.51-1.66
		c0-1.18-1.67-1.89-3.16-2.52c-1.49-0.66-3.15-1.44-3.15-3.43c0-2.08,1.81-3.53,4.09-3.53c1.81,0,3.17,0.88,3.69,2.27l-1.48,1.03
		c-0.39-0.86-1.27-1.34-2.19-1.34c-1.17,0-2.1,0.73-2.1,1.62c0,0.99,1.18,1.35,2.72,2.01c2.01,0.88,3.57,1.85,3.57,3.86
		c0,2.26-1.96,3.71-4.54,3.71C113.17,82.72,111.58,81.74,110.85,80.28z"/>
	<path class="st0" d="M130.27,78.64c0,1.95-1.48,3.87-4,3.87h-4.76V69.79h3.47c2.19,0,3.68,1.58,3.68,3.27
		c0,1.37-0.95,2.29-1.43,2.29C128.66,75.35,130.27,76.66,130.27,78.64z M123.5,71.73v3.17l1.58-0.01c0.99,0.01,1.71-0.67,1.71-1.58
		s-0.79-1.59-1.69-1.59h-1.6V71.73z M128.32,78.5c0-0.96-0.82-1.85-2.26-1.85l-2.56,0.01v3.9h2.59
		C127.23,80.56,128.32,79.73,128.32,78.5z"/>
</g>
<g class="st1">
	<path class="st0" d="M131.25,76.17c0-3.63,2.95-6.59,6.57-6.59c3.61,0,6.58,2.97,6.58,6.59c0,3.6-2.97,6.55-6.59,6.55
		C134.21,82.71,131.25,79.76,131.25,76.17z M142.39,76.15c0-2.52-2.06-4.57-4.57-4.57s-4.55,2.05-4.55,4.57
		c0,2.5,2.04,4.54,4.55,4.54S142.39,78.65,142.39,76.15z"/>
</g>
<g class="st1">
	<path class="st0" d="M153.09,80.58h-6.02l-0.87,1.93h-2.16l5.98-12.98h0.12l5.98,12.98h-2.16L153.09,80.58z M152.32,78.87
		l-2.23-4.97l-2.24,4.97H152.32z"/>
	<path class="st0" d="M171.2,80.52v1.99h-9.53v-0.43c5.23-4.24,7.36-6.44,7.36-7.98c0-1.44-1.17-2.5-2.38-2.5
		c-1.48,0-2.67,1.18-2.67,2.71l-1.82-0.44c0-2.39,1.98-4.27,4.43-4.27c2.49,0,4.45,2.05,4.45,4.39c0,2.2-2.24,4.69-5.12,6.52h5.28
		V80.52z"/>
	<path class="st0" d="M172.43,76.15c0-3.83,2.1-6.55,5.19-6.55s5.19,2.71,5.19,6.55c0,3.83-2.1,6.54-5.19,6.54
		S172.43,79.98,172.43,76.15z M180.81,76.15c0-2.66-1.28-4.54-3.2-4.54s-3.19,1.89-3.19,4.54s1.27,4.53,3.19,4.53
		S180.81,78.8,180.81,76.15z"/>
	<path class="st0" d="M193.58,80.52v1.99h-9.53v-0.43c5.23-4.24,7.36-6.44,7.36-7.98c0-1.44-1.17-2.5-2.38-2.5
		c-1.48,0-2.67,1.18-2.67,2.71l-1.82-0.44c0-2.39,1.98-4.27,4.43-4.27c2.49,0,4.45,2.05,4.45,4.39c0,2.2-2.24,4.69-5.12,6.52h5.28
		V80.52z"/>
	<path class="st0" d="M198.53,69.67V82.5h-2V72.24l-1.72,0.51v-2.08l3.13-0.99h0.59V69.67z"/>
</g>
<g class="st1">
	<path class="st0" d="M109.22,52.21v11.8h-1.31v-7.86l-4.36,7.67h-0.01l-4.36-7.68v7.88h-1.31v-11.8h0.15l5.53,9.21l5.53-9.21
		L109.22,52.21L109.22,52.21z"/>
	<path class="st0" d="M111.21,52.42h1.31V64h-1.31V52.42z"/>
	<path class="st0" d="M125.4,58.7c0,3.25-2.5,5.47-5.49,5.47c-3.33,0-6-2.67-6-5.94s2.68-5.96,5.95-5.96
		c1.42,0.01,3.16,0.73,4.2,1.74l-0.73,1.08c-0.9-0.89-2.31-1.52-3.47-1.52c-2.44,0-4.61,2.03-4.61,4.65c0,2.54,2.05,4.62,4.72,4.62
		c2.26,0,4.05-1.52,4.05-3.56c0-0.09,0-0.17-0.01-0.23h-4.15v-1.18h5.5C125.38,58.06,125.4,58.37,125.4,58.7z"/>
	<path class="st0" d="M133.5,64.01l-3.23-4.52h-2.16v4.52h-1.31l-0.01-11.58h3.42c2.15,0,3.9,1.65,3.9,3.69
		c0,1.5-1.03,2.8-2.44,3.22l3.44,4.67H133.5z M130.25,58.39c1.38,0,2.52-1.05,2.52-2.3c0-1.34-1.15-2.37-2.52-2.37h-2.16v4.67
		H130.25z"/>
</g>
<g class="st1">
	<path class="st0" d="M143.62,62.11h-6.32l-0.85,1.9h-1.42l5.35-11.76h0.14l5.36,11.76h-1.42L143.62,62.11z M143.11,60.97
		l-2.65-5.96l-2.66,5.96H143.11z"/>
</g>
<g class="st1">
	<path class="st0" d="M145.16,58.22c0-3.26,2.7-5.97,5.95-5.97c1.49,0.01,2.93,0.7,3.98,1.75l-0.76,1.03
		c-0.83-0.86-2-1.45-3.27-1.45c-2.33,0-4.58,2.01-4.58,4.64c0,2.62,2.23,4.62,4.6,4.62c1.31,0,2.42-0.62,3.26-1.44l0.75,1.05
		c-0.96,0.96-2.26,1.7-3.97,1.7C147.9,64.16,145.16,61.51,145.16,58.22z"/>
	<path class="st0" d="M156.23,52.42h1.31V64h-1.31V52.42z"/>
	<path class="st0" d="M158.93,58.22c0-3.29,2.68-5.97,5.95-5.97c3.28,0,5.96,2.68,5.96,5.97c0,3.26-2.68,5.94-5.97,5.94
		C161.61,64.16,158.93,61.49,158.93,58.22z M169.52,58.22c0-2.55-2.08-4.64-4.64-4.64c-2.54,0-4.62,2.09-4.62,4.64
		c0,2.54,2.08,4.62,4.62,4.62C167.43,62.84,169.52,60.76,169.52,58.22z"/>
	<path class="st0" d="M181.54,52.4v11.79h-0.06l-7.94-8.82v8.65h-1.31V52.25h0.07l7.93,8.81V52.4H181.54z"/>
	<path class="st0" d="M184.84,53.71v3.67h4.76v1.31h-4.76v4.02h5.5v1.3h-6.81V52.42h6.81v1.29H184.84z"/>
	<path class="st0" d="M191.24,61.94l1.01-0.74c0.52,0.99,1.71,1.65,2.94,1.65c1.52,0,2.75-0.82,2.75-1.96c0-1.3-1.66-1.93-3.14-2.49
		c-1.42-0.55-3.01-1.25-3.01-3.04c0-1.78,1.6-3.11,3.64-3.11c1.72,0,2.89,0.94,3.32,2.08l-1,0.67c-0.37-0.87-1.31-1.46-2.35-1.46
		c-1.24,0-2.31,0.82-2.31,1.85c0,1.12,1.27,1.53,2.77,2.11c1.74,0.71,3.38,1.51,3.38,3.37c0,2-1.85,3.3-4.07,3.3
		C193.27,64.17,191.79,63.18,191.24,61.94z"/>
</g>
<g class="st1">
	<path class="st0" d="M98.53,43.58v1.7h2.09v0.57h-2.09v2.27h-0.57v-5.11h2.99v0.57H98.53z"/>
</g>
<g class="st1">
	<path class="st0" d="M101.8,45.57c0-1.44,1.18-2.62,2.62-2.62s2.62,1.18,2.62,2.62s-1.18,2.61-2.62,2.61S101.8,47,101.8,45.57z
		 M106.45,45.56c0-1.12-0.92-2.04-2.04-2.04s-2.03,0.92-2.03,2.04c0,1.12,0.91,2.03,2.03,2.03
		C105.54,47.6,106.45,46.68,106.45,45.56z"/>
	<path class="st0" d="M111.3,48.11l-1.42-1.99h-0.95v1.99h-0.58v-5.09h1.5c0.94,0,1.71,0.73,1.71,1.62c0,0.66-0.45,1.23-1.07,1.42
		l1.51,2.05C112,48.11,111.3,48.11,111.3,48.11z M109.87,45.64c0.61,0,1.11-0.46,1.11-1.01c0-0.59-0.5-1.04-1.11-1.04h-0.95v2.05
		H109.87z"/>
	<path class="st0" d="M112.84,45.57c0-1.44,1.18-2.62,2.62-2.62s2.62,1.18,2.62,2.62s-1.18,2.61-2.62,2.61S112.84,47,112.84,45.57z
		 M117.49,45.56c0-1.12-0.92-2.04-2.04-2.04s-2.03,0.92-2.03,2.04c0,1.12,0.91,2.03,2.03,2.03
		C116.58,47.6,117.49,46.68,117.49,45.56z"/>
	<path class="st0" d="M121.48,47.2l0.44-0.33c0.23,0.44,0.75,0.73,1.29,0.73c0.67,0,1.21-0.36,1.21-0.86c0-0.57-0.73-0.85-1.38-1.09
		c-0.63-0.24-1.32-0.55-1.32-1.34c0-0.78,0.7-1.37,1.6-1.37c0.75,0,1.27,0.41,1.46,0.92l-0.43,0.29c-0.16-0.38-0.57-0.64-1.03-0.64
		c-0.55,0-1.01,0.36-1.01,0.81c0,0.49,0.56,0.67,1.22,0.93c0.76,0.31,1.49,0.66,1.49,1.48c0,0.88-0.81,1.45-1.79,1.45
		C122.37,48.18,121.72,47.74,121.48,47.2z"/>
	<path class="st0" d="M125.99,45.57c0-1.44,1.18-2.62,2.62-2.62s2.62,1.18,2.62,2.62s-1.18,2.61-2.62,2.61S125.99,47,125.99,45.57z
		 M130.64,45.56c0-1.12-0.92-2.04-2.04-2.04c-1.12,0-2.03,0.92-2.03,2.04c0,1.12,0.91,2.03,2.03,2.03
		C129.73,47.6,130.64,46.68,130.64,45.56z"/>
	<path class="st0" d="M132.27,45.57c0-1.43,1.19-2.62,2.62-2.62c0.65,0.01,1.29,0.31,1.75,0.77l-0.33,0.45
		c-0.37-0.38-0.88-0.64-1.44-0.64c-1.02,0-2.01,0.88-2.01,2.04c0,1.15,0.98,2.03,2.02,2.03c0.57,0,1.06-0.27,1.43-0.63l0.33,0.46
		c-0.42,0.42-1,0.75-1.75,0.75C133.48,48.18,132.27,47.01,132.27,45.57z"/>
	<path class="st0" d="M137.85,43.02h0.58v5.09h-0.58V43.02z"/>
	<path class="st0" d="M143.33,47.27h-2.78l-0.37,0.84h-0.62l2.35-5.17h0.06l2.36,5.17h-0.62L143.33,47.27z M143.11,46.77l-1.17-2.62
		l-1.17,2.62H143.11z"/>
	<path class="st0" d="M148.52,47.54v0.57h-3.07v-5.09h0.57v4.52H148.52z"/>
	<path class="st0" d="M152.72,43.58v1.61h2.09v0.57h-2.09v1.77h2.42v0.57h-2.99v-5.09h2.99v0.57H152.72z"/>
	<path class="st0" d="M156.5,46.13v-3.11h0.58v3.11c0,0.86,0.56,1.48,1.31,1.48s1.31-0.63,1.31-1.48v-3.11h0.58v3.11
		c0,1.19-0.8,2.06-1.89,2.06C157.31,48.19,156.5,47.32,156.5,46.13z"/>
	<path class="st0" d="M164.76,48.11l-1.42-1.99h-0.95v1.99h-0.58v-5.09h1.5c0.94,0,1.71,0.73,1.71,1.62c0,0.66-0.45,1.23-1.07,1.42
		l1.51,2.05C165.46,48.11,164.76,48.11,164.76,48.11z M163.33,45.64c0.61,0,1.11-0.46,1.11-1.01c0-0.59-0.5-1.04-1.11-1.04h-0.95
		v2.05H163.33z"/>
	<path class="st0" d="M166.3,45.57c0-1.44,1.18-2.62,2.62-2.62s2.62,1.18,2.62,2.62s-1.18,2.61-2.62,2.61S166.3,47,166.3,45.57z
		 M170.95,45.56c0-1.12-0.92-2.04-2.04-2.04s-2.03,0.92-2.03,2.04c0,1.12,0.91,2.03,2.03,2.03
		C170.04,47.6,170.95,46.68,170.95,45.56z"/>
	<path class="st0" d="M172.85,43.02h1.61c0.99,0,1.79,0.74,1.79,1.64c0,0.87-0.81,1.57-1.79,1.57h-1.04v1.88h-0.57V43.02z
		 M175.68,44.65c0-0.59-0.55-1.07-1.22-1.07h-1.04v2.08h1.04C175.13,45.67,175.68,45.21,175.68,44.65z"/>
	<path class="st0" d="M178.04,43.58v1.61h2.09v0.57h-2.09v1.77h2.42v0.57h-2.99v-5.09h2.99v0.57H178.04z"/>
	<path class="st0" d="M181.61,45.57c0-1.44,1.18-2.62,2.62-2.62s2.62,1.18,2.62,2.62s-1.18,2.61-2.62,2.61S181.61,47,181.61,45.57z
		 M186.26,45.56c0-1.12-0.92-2.04-2.04-2.04s-2.03,0.92-2.03,2.04c0,1.12,0.91,2.03,2.03,2.03
		C185.35,47.6,186.26,46.68,186.26,45.56z"/>
	<path class="st0" d="M194.58,45.57c0,1.56-1.01,2.54-2.6,2.54h-1.42v-5.09h1.42C193.57,43.02,194.58,44.01,194.58,45.57z
		 M194,45.57c0-1.2-0.79-1.98-2.02-1.98h-0.84v3.95h0.85C193.22,47.54,194,46.76,194,45.57z"/>
	<path class="st0" d="M196.47,43.58v1.61h2.09v0.57h-2.09v1.77h2.42v0.57h-2.99v-5.09h2.99v0.57H196.47z"/>
</g>
<path class="st0" d="M44.91,0.68c-5.07,0-10.1,0.87-14.88,2.57l1.78-0.54v0.85l0.44,0.54v0.77l0.48,0.63l0.78,0.45l0.54,0.39
	l0.63,0.69l1.62,0.23l0.92,0.46l0.63,0.92l0.92,0.39l0.92-0.39l0.31,1.32l-0.85,0.77l-0.92-0.08l-1.47,0.08l-1,0.3l-1.27,1.01
	l-1.39,0.54l-0.08,0.63l0.63,0.77l0.69,0.23l0.54,0.31l0.47,0.77l0.39,0.69v1.83l0.54,0.77h0.77l0.39-0.77l0.77-0.93L39,16.05
	l0.29-0.82l0.39-1.54l0.31-0.85l1.27-0.39l0.63-0.46l2.07,0.15l1.01,0.63v1.39l0.92,0.54l0.7,0.85l0.82,1.23h0.49l0.77-0.69
	l0.34-0.87l0.85-1.16l1.01-0.39l1.39-0.63l0.46-0.63l1.06-0.23l0.39,0.7v2.53L55,15.73l0.46,0.39l0.31,1.31l1.08,0.63h1.03
	l0.46,1.01l-0.39,1.16v0.63l-0.85,1l0.15,0.63v0.85l1.08,0.63l1,0.08h0.54l1.08,0.23l0.85,0.63l1.01,1v0.47l2.01,0.85l1.08,1.08
	l0.46,1.08v1.16l-1,0.23l1,1.16l-0.38,0.85l-1.16,0.39l-0.39-0.63l-0.77,0.77l-0.63-0.31l-0.46-0.85l-0.39-0.46l-1.08,0.38
	l-0.42,0.06l0.35,0.83v1l-0.42,0.7l-0.42,0.63l0.85,0.63l0.16,1.7l0.63,1l0.39,0.54l1.31-0.08l1.7-0.7l0.63,1.39l0.23,0.63h1.54
	l0.23,1.08l1.31-0.31l0.39,1.27l0.92,0.77v2.62l-0.15,2.32l-0.46,2.78l-0.08,2.23l-0.31,2.7l-0.46,1.46l0.54,1.16l1.62-0.54
	l1.16,0.69v0.93l-1.31,1.85l-1.44,1.39l-1.27,2.01l-1.85,1.61l-1.39,1.01l-1.82,1.16l-1.9,1.27l-0.77,1l-0.92,0.39l-4.09,1.9
	l-2.08,0.46l-2.26,0.77l-2.01,0.85l-1.54,0.63l-1.9,0.3l-1.31,0.93l-1.39-0.85h-4.03l-0.92-0.77l-0.39-1.54l0.46-1.77l0.08-1.16
	l0.77-1.16l0.69-1.01l0.31-1.7l0.23-0.77l0.92-1.46l0.7-1.56L43.3,62l1.08-0.31l1.27-0.85l0.42-1.08l-0.04-1.62v-1.38l0.08-2.08
	l1.54-2.32l0.2-0.92l-0.68-0.84l-0.79-0.94l-0.88-1.3l-1.01-1.16l-2.47-0.46l-0.9-0.7h-1.9l-0.23,0.23h0.71l0.9,0.7l2.47,0.46
	l1,1.16l0.54,0.92l0.7,0.77l1.13,1.39v0.58l-0.63,1.01l-0.63,0.92l-0.49,0.73l-0.03,0.77v0.93v1.77l0.04,0.92v1.02l-0.82,1.01
	l-1.51,0.77l-1.53,1.13l-0.99,1.84l-0.93,1.47l-0.54,2.47l-0.89,1.27l-0.97,1.03l-1.7,0.92l-1.31,1.25l-0.54,1.16v1.23l0.54,0.71
	l0.08-0.82l0.4-0.88l1.32-1.27l1.9-0.92l0.08,1l-0.15,0.77l-0.31,0.7l0.16,1.08l0.23,1.01l0.63,0.39l1.31,0.08l1.54-0.08h0.85
	l0.83,0.22l0.3,0.46l0.85,0.32l0.76-0.54l0.78-0.46l1.7-0.23l1.94-0.8l1.62-0.77l1.31-0.46l2.32-0.46l1.47-0.77l1.3-0.7l1.31-0.46
	l1.47-0.16h3l0.54-0.39l0.77,0.39v1.08h1.16l1,0.39l0.39,0.69h1.9v1.85l-0.92,1.31l-1.16,0.54l-1.31,1.15l-0.97,0.76l-1.39,0.77
	l-2.08,1.31l-0.92,0.63l-2.16,0.85l-2.47,0.92h-2.23l-1.47,0.46h-4.93l-1.27-0.69h-1.95l-1.85-0.39l-1.39-0.46l-1.54-0.08
	l-1.27-0.23l-1.16-0.54l-0.93-0.69L34.5,82.1v-1.74l-0.35-2.17l-0.46-0.63v0.31l0.38,1.08v1.73h-1.33l-0.54-0.73l-0.87-0.7
	l-0.83-1.08l-0.92-0.92l-0.77-0.92l-0.85-1.85l-0.54-1.39l-0.22-0.92l-0.23-1.23l-0.39-1.39l-0.46-1.7l-0.31-1.08l-0.08-1.62
	l-0.08-1.27v-0.96l-0.39-1.39l-0.23-0.92l-0.46-0.39l-0.46-0.4l-0.71-0.36l-0.69-0.54l-0.92-0.46l-1-1.16l-1.18-1l-0.63-2.08
	l-0.5-1.03l-1-0.96l-0.15-0.58h-0.54l-0.54-1.08v-2.83l0.46-1l0.31-0.77l0.7-0.31v-1.62l0.46-0.63l0.08-0.85l-0.54-0.37v-0.63
	l0.77-1.27l0.63-0.54l1.93-0.84h1.61l1.61,0.46l0.93,0.08l1.7-0.54h1.39l1.32,1.39l1.15,0.63l0.77,1.51h3.92l1.9,1.08l0.27,0.7
	l-0.84,0.13l-0.85,0.73l0.15,1.83l0.77,0.39l0.63-0.63l0,0l-0.14-1.8l0.85-0.73l0.84-0.15l-0.27-0.51l-1.2-0.89l-0.7-0.39l-0.63-1.7
	l0.39-1.39l0.63-0.63v-0.99l-0.31-0.63v-0.99l0.63-1.01l1.27-0.92l0.7-0.54l0.32-1.23l0.54-0.73l1.16-0.81l2.16-1.16l2.7-0.15
	l1.46,0.08l0.63-1.47l1.54-0.15l1.77-0.08L52.5,27l1.15,0.79l-0.06-0.33l-0.46-0.92l-1.08-0.7l-1,0.71l-1.47,0.06l-1.15,0.08
	l-0.63,0.63l-0.2,0.47l-0.19,0.45l-1.27-0.08h-1.44l-1.15,0.08l-0.53,0.15l-1.7,1.08l-1.4,0.81l-0.54,0.73l-0.28,0.92l-0.34,0.5
	l-0.88,0.68l-1.01,0.92l-0.42,1.14l0.14,0.82l0.17,0.8v0.54l-0.7,0.97l-0.28,1.04l0.63,1.7l-1.08,0.15l-1.32-0.23l-1.54,0.08
	l-0.63-1.54l-1.31-0.54l-1.23-1.16l-1.47-0.23l-1.7,0.54l-1.93-0.3l-2.26-0.23l-1.31,0.54l-1.03,0.46l-0.8,1.34h-1.64l-1.08,0.51H15
	v-5.31l-0.7-0.31l0.7-1.21l-0.15-0.46l-0.54-0.7V30.7l0.54-1.31l-0.54-0.7v-1l0.7-1.08l0.31-1.77l0.85-1.23l-0.46-1.16l-0.31-1.53
	l0.23-1l0.93-1.23l1.15-1.4l1.62-1.23l0.54-1.01l0.7-0.7l1-1.62l0.92-1.23l0.85-1.33l1.9-1.7V7.49l0.39-1.01h0.63l0.32-0.92
	l0.04-0.91l1.35-0.63C5.33,13.34-5.44,39.22,3.87,61.84s35.2,33.39,57.82,24.07s33.39-35.2,24.07-57.82
	C78.94,11.53,62.81,0.72,44.91,0.68z M53.89,10.65l-0.72,0.15l-1.09,0.89l-1.27,0.54l-0.76,0.58l-0.77,1.16l-0.53,0.75l-0.94,0.39
	l-1.13-0.51l-0.63-0.85l-0.77-0.46l0.08-0.77v-1.4l-0.84-0.51l-0.17-0.49l-1,0.63l-1.08,0.23l-0.63,0.54l-1.3-0.08l1.02-1.11
	l1.15-0.54l0.92-0.39L43.3,7.7l-0.39-0.54l-1.08-0.31l-1.04,0.08l-1.12,0.08h-1.09l-0.75-0.67l-0.7-0.46l-0.54-0.23L35.2,5.8V4.41
	l1.01-0.7h0.69l0.47,0.31l0.92,0.7l0.54,0.63l0.54,0.23h0.39l1.99-0.87l0.77,0.46h1.01l0.84-0.77l0.08-0.7h1.23l0.85,0.63l0.91,0.45
	l1.16,0.23l0.63-0.63l1.15-0.7h1.17l-0.23,1.09l1,0.77l0.85,0.63v1.62l0.72,1.09V10.65z M71.6,56.91l-0.73,0.25l-0.73-1.09l0.3-0.54
	v-1.58l0.39-1.34l0.13-1.27v-0.9l0.11-1.27l0.24-1.44l0.16-1.2l0.13-1.04v-3.35l0.12-0.38l0.58-0.23l0.63-0.46l0.51-0.63v-0.91
	l0.9-0.63h0.63l0.47,0.89l0.77,0.15l0.54,0.5l0.39,0.81l0.46,0.89l0.19,0.81l0.04,0.63l0.12,0.84v0.73l-0.31,1.08l-0.85,0.7
	l-0.23,0.5v0.93l-0.02,1.05l0.11,1l-0.27,1.2h0.39l0.3,0.31l0.77-0.04l0.42,0.46l0.31,0.46v1.51l-0.46,0.27l-0.32,0.85l-0.39-0.1
	l-0.63,0.36l-0.35,0.44l-0.22-0.08l-0.63,0.31l-0.84-0.06l-0.63,0.06v0.28l-0.86-0.08l-0.63,0.09L71.6,56.91z M77.42,64.09l-0.3,0.7
	l-0.31,0.73l-0.39,0.54l-0.54,0.54l-0.45,0.92l-0.71,1.04l-0.42,0.42l-0.2,0.73l-0.39,0.81l-0.27,0.73l-0.93,1.54l-0.31,0.77
	l-0.5,1.08l-0.35,0.54l-0.46,0.73h-0.39l-0.16-0.35v-1.31h-1.7l-0.63-0.7l-0.63-0.24l-0.37-0.15h-1.16V72.1l-0.85-0.58l-0.7,0.58
	h-2.75l-0.99,0.11l1.3-0.68l0.45-0.59l0.51-0.37l0.81-0.63l0.85-0.58l0.96-0.47l0.58-0.34l1.35-1.12l0.92-0.77l1.08-0.96l0.31-0.46
	l0.46-0.85l0.67-0.84l0.77-0.77l0.58-0.97l0.71-0.7l0.52-0.23l0.46-0.19l0.46,0.19l0.85,0.58l0.31,0.47h0.63l0.63,0.27h0.39v0.48
	l0.27,0.85L77.42,64.09z M78.6,58.39l-0.13,1.27l-0.58,1.27v0.46l-0.27,0.31l-0.74-0.33l-0.53-0.09l-0.48-0.2l-1.02-0.85h-0.92
	l-0.22-0.19v-1.16l-0.32-0.44l-0.63-0.37l1.39-0.19l0.69,0.19l0.08-0.35l1.78-0.3l0.42,0.15l0.19-0.63l1.16-0.42l0.27,0.81
	L78.6,58.39z M78.23,19.84l-0.46-0.31l-0.54-0.85l-0.46-0.54l-1.01-1.08l-0.63-1.16l-0.79-0.23v2.23l0.48,1.08l-0.48,0.08l-0.9-0.46
	l-1.39-0.08l-0.46,1.23l-0.46,0.54l-1-0.16l-0.46-0.92l-0.54-0.92l-0.77-0.46l-1-0.31l-1.23,0.46l0.23,1.47v1.39l-0.85-0.23l-1,0.15
	l-1.16,0.89l-0.15,1.12l0.77,0.77l0.69,0.54l0.16,1.08l-0.39,1.16l-0.58-1.04l-1.27-1.04L61.49,24l-1.9-0.26l-0.76-0.44l-0.15-1.47
	l0.47-0.56l0.37-0.75l0.28-1.15l0.11-0.31l-0.97-1.02l-0.94-0.29l-0.59-0.34l-0.22-0.89l-0.56-0.8l-0.85-0.85l-0.39-0.85l0.39-1.16
	l-0.39-0.7l0.39-1.46l0.23-1.27l1.16-1.47l1.01-0.34l1.77,0.08l0.92,0.08V5.11L59.8,4.72l-0.92-0.63l-0.63-0.08l-0.63-0.54
	L56.54,3.4l-1.13-0.46h-0.7l-0.39-0.08V2.09h1.08l1.46,0.54l1.27,0.31l1.54,0.46l1.9,0.77l1.08,0.69l1.7,0.87l1.63,1.08l2,1.31
	l1.61,0.98l0.92,1l1.54,1.08l1.39,1.54l1.54,1.47l1.63,1.47l1.23,1.39l0.75,1.34l0.97,1.01L79,20.16L78.23,19.84z"/>
<path class="st0" d="M29.34,3.5l0.46-0.17L29.34,3.5z"/>
<polygon class="st0" points="57.25,29.7 58.72,30.86 59.42,31.86 60.5,31.86 60.15,30.7 58.87,30.47 58.03,29.54 57.03,28.62 
	55.48,28.54 53.97,28.89 54.17,29.7 55.94,29.7 "/>
</svg>
