<?xml version="1.0" encoding="utf-8"?>
<!-- Generator: Adobe Illustrator 24.1.0, SVG Export Plug-In . SVG Version: 6.00 Build 0)  -->
<svg version="1.1" id="Layer_1" xmlns="http://www.w3.org/2000/svg" xmlns:xlink="http://www.w3.org/1999/xlink" x="0px" y="0px"
	 viewBox="0 0 311.79 140.04" style="enable-background:new 0 0 311.79 140.04;" xml:space="preserve">
<style type="text/css">
	.st0{fill:#FFFFFF;}
</style>
<g id="Slogam">
	<g id="Lisboa_2021">
		<path class="st0" d="M165.42,125.93v3.12h-12v-20h3.13v16.87L165.42,125.93z"/>
		<path class="st0" d="M167.92,109.06h3.14v20h-3.14V109.06z"/>
		<path class="st0" d="M173.75,125.54l2.48-1.77c0.93,1.58,2.65,2.52,4.48,2.46c2.25,0,3.95-1.08,3.95-2.61c0-1.85-2.63-3-5-4
			s-4.95-2.26-4.95-5.4s2.85-5.55,6.44-5.55c2.86,0,5,1.37,5.81,3.57l-2.33,1.61c-0.64-1.32-1.99-2.14-3.45-2.11
			c-1.84,0-3.3,1.14-3.3,2.56s1.85,2.12,4.28,3.16c3.16,1.39,5.62,2.92,5.62,6.07c0,3.55-3.08,5.83-7.14,5.83
			C177.8,129.52,175.12,128.04,173.75,125.54z"/>
		<path class="st0" d="M204.26,123c0.02,3.35-2.68,6.08-6.03,6.09c-0.09,0-0.18,0-0.26,0h-7.48v-20H196c3.45,0,5.78,2.48,5.78,5.13
			c0,2.16-1.5,3.6-2.24,3.6C202.24,118.01,204.32,120.29,204.26,123z M193.62,112.15v5h2.48c1.38,0.1,2.58-0.94,2.68-2.32
			c0-0.05,0.01-0.1,0.01-0.16c-0.04-1.42-1.23-2.53-2.65-2.49c0,0,0,0,0,0L193.62,112.15z M201.2,122.79c0-1.51-1.29-2.9-3.56-2.9
			h-4V126h4.07c1.86,0.07,3.42-1.39,3.49-3.25c0,0,0,0,0,0V122.79z"/>
		<path class="st0" d="M205.79,119.08c-0.02-5.71,4.59-10.36,10.3-10.38c5.71-0.02,10.36,4.59,10.38,10.3s-4.59,10.36-10.3,10.38
			c-0.02,0-0.04,0-0.06,0C210.43,129.35,205.83,124.76,205.79,119.08z M223.3,119.08c0.01-3.96-3.19-7.18-7.15-7.19
			c-3.96-0.01-7.18,3.19-7.19,7.15c-0.01,3.96,3.19,7.18,7.15,7.19c3.96-0.01,7.17-3.22,7.19-7.18L223.3,119.08z"/>
		<path class="st0" d="M240.1,126h-9.47l-1.36,3h-3.4l9.4-20.4h0.19l9.4,20.4h-3.4L240.1,126z M238.88,123.31l-3.51-7.81l-3.52,7.81
			H238.88z"/>
		<path class="st0" d="M268.54,125.93v3.12h-15v-0.67c8.22-6.66,11.57-10.12,11.57-12.55c0.03-2.11-1.64-3.86-3.75-3.93
			c-2.31-0.01-4.19,1.87-4.2,4.18c0,0.03,0,0.05,0,0.08l-2.87-0.69c0.05-3.76,3.15-6.77,6.91-6.71c0.03,0,0.06,0,0.09,0
			c3.83,0,6.95,3.08,7,6.91c0,3.46-3.52,7.37-8,10.26H268.54z"/>
		<path class="st0" d="M270.46,119.05c0-6,3.3-10.29,8.16-10.29s8.16,4.27,8.16,10.29s-3.3,10.29-8.16,10.29
			S270.46,125.07,270.46,119.05z M283.63,119.05c0-4.18-2-7.14-5-7.14s-5,3-5,7.14s2,7.13,5,7.13S283.63,123.22,283.63,119.05z"/>
		<path class="st0" d="M303.68,125.93v3.12h-15v-0.67c8.22-6.66,11.57-10.12,11.57-12.55c0.03-2.11-1.63-3.85-3.74-3.93
			c-2.32-0.01-4.2,1.87-4.21,4.19c0,0.02,0,0.05,0,0.07l-2.86-0.69c0.05-3.76,3.13-6.76,6.89-6.71c0.04,0,0.08,0,0.11,0
			c3.83,0,6.95,3.08,7,6.91c0,3.46-3.52,7.37-8.05,10.26H303.68z"/>
		<path class="st0" d="M311.44,108.87v20.18h-3.14V112.9l-2.7,0.81v-3.28l4.92-1.56H311.44z"/>
	</g>
	<g id="Migrações">
		<path class="st0" d="M173.28,81.6V102H171V88.41l-7.54,13.28l0,0l-7.56-13.3V102h-2.26V81.6h0.26l9.57,16l9.57-16H173.28z"/>
		<path class="st0" d="M177.5,82h2.27v20h-2.27V82z"/>
		<path class="st0" d="M202.83,92.83c0.1,5.13-3.98,9.37-9.11,9.47c-0.13,0-0.26,0-0.39,0c-5.69,0.02-10.32-4.57-10.35-10.26
			c-0.02-5.69,4.57-10.32,10.26-10.34l0,0c2.7,0.11,5.28,1.17,7.27,3l-1.28,1.88c-1.61-1.58-3.75-2.52-6-2.63
			c-4.43,0.05-7.98,3.68-7.93,8.11c0.05,4.43,3.68,7.98,8.11,7.94c3.93,0,7-2.63,7-6.17c0-0.15,0-0.29,0-0.4h-7.2v-2h9.54
			C202.78,91.72,202.83,92.26,202.83,92.83z"/>
		<path class="st0" d="M217.62,102L212,94.2h-3.74v7.8H206V82h5.92c3.63-0.1,6.65,2.76,6.76,6.39c-0.03,2.59-1.74,4.85-4.22,5.58
			l6,8.09L217.62,102z M212,92.3c2.23,0.19,4.2-1.46,4.39-3.7c0.19-2.23-1.46-4.2-3.7-4.39c-0.23-0.02-0.47-0.02-0.7,0h-3.73v8.07
			L212,92.3z"/>
		<path class="st0" d="M235.82,98.73h-10.95L223.4,102H221l9.27-20.37h0.25l9.23,20.37h-2.46L235.82,98.73z M234.95,96.73
			l-4.59-10.31l-4.6,10.31H234.95z"/>
		<path class="st0" d="M251.57,102.29l-1,1.28c0.19-0.01,0.39-0.01,0.58,0c0.9-0.09,1.71,0.56,1.8,1.46
			c0.01,0.06,0.01,0.11,0.01,0.17c0,1.56-1.83,2.87-4.67,3l-0.58-1.46c2.53-0.12,3.65-0.67,3.65-1.49c0-0.45-0.32-0.75-1.2-0.75
			c-0.29,0-0.58,0.03-0.86,0.08l-0.36-0.44l1.4-1.86c-5.66-0.61-9.76-5.7-9.14-11.36c0.56-5.2,4.92-9.15,10.14-9.2
			c2.6,0.07,5.07,1.15,6.89,3L257,86.5c-1.48-1.56-3.52-2.46-5.67-2.5c-4.42-0.07-8.05,3.46-8.12,7.88s3.46,8.05,7.88,8.12
			c2.23,0.03,4.37-0.86,5.91-2.48l1.31,1.82C256.55,101.18,254.12,102.25,251.57,102.29z"/>
		<path class="st0" d="M260,92c-0.02-5.69,4.59-10.32,10.28-10.34c5.69-0.02,10.32,4.59,10.34,10.28
			c0.02,5.69-4.59,10.32-10.28,10.34c-0.02,0-0.03,0-0.05,0C264.62,102.25,260.04,97.67,260,92z M278.33,92c0-4.42-3.58-8-8-8
			s-8,3.58-8,8s3.58,8,8,8C274.73,99.97,278.3,96.4,278.33,92z M265.65,79.41c0.17-1.42,1.37-2.48,2.8-2.48
			c1.87,0,2.37,1.79,3.74,1.79c0.79,0,1.35-0.63,1.62-1.65l1.17,0.46c-0.17,1.41-1.37,2.47-2.79,2.47c-1.86,0-2.39-1.79-3.75-1.79
			c-0.79,0-1.34,0.63-1.62,1.65L265.65,79.41z"/>
		<path class="st0" d="M286.05,84.2v6.34h8.25v2.27h-8.25v7h9.52V102h-11.78V82h11.78v2.2H286.05z"/>
		<path class="st0" d="M297.89,98.44l1.74-1.28c1.06,1.8,3,2.89,5.09,2.86c2.62,0,4.77-1.42,4.77-3.4c0-2.25-2.88-3.33-5.44-4.3
			s-5.21-2.16-5.21-5.26s2.77-5.39,6.29-5.39c2.49-0.14,4.79,1.31,5.75,3.61l-1.7,1.14c-0.74-1.57-2.34-2.55-4.07-2.52
			c-2.15,0-4,1.42-4,3.21s2.21,2.65,4.79,3.64c3,1.22,5.86,2.62,5.86,5.84c0,3.46-3.19,5.71-7.05,5.71
			C301.88,102.45,299.22,100.94,297.89,98.44z"/>
	</g>
	<g id="Forum">
		<path class="st0" d="M154.55,68v2.73h3.37v0.92h-3.37v3.64h-0.92V67h4.8v1H154.55z"/>
		<path class="st0" d="M159,71.15c-0.01-2.32,1.86-4.21,4.18-4.22s4.21,1.86,4.22,4.18c0.01,2.32-1.86,4.21-4.18,4.22
			c-0.01,0-0.02,0-0.03,0C160.88,75.32,159.02,73.46,159,71.15z M166.47,71.15c0.01-1.81-1.45-3.27-3.26-3.28
			c-1.81-0.01-3.27,1.45-3.28,3.26c-0.01,1.81,1.45,3.27,3.26,3.28c1.79-0.03,3.22-1.48,3.23-3.27L166.47,71.15z"/>
		<path class="st0" d="M173.38,75.23L171.1,72h-1.52v3.19h-0.93v-8.13h2.41c1.47-0.04,2.7,1.11,2.75,2.59c0,0,0,0.01,0,0.01
			c-0.01,1.05-0.7,1.97-1.71,2.27l2.42,3.3L173.38,75.23z M171.09,71.23c0.91,0.07,1.7-0.61,1.77-1.52c0.07-0.91-0.61-1.7-1.52-1.77
			c-0.09-0.01-0.17-0.01-0.26,0h-1.52v3.29H171.09z"/>
		<path class="st0" d="M175.09,72.05v-5H176v5c-0.16,1.16,0.65,2.23,1.81,2.39c1.16,0.16,2.23-0.65,2.39-1.81
			c0.03-0.19,0.03-0.39,0-0.58v-5h0.92v5c0,1.66-1.34,3-3,3s-3-1.34-3-3H175.09z"/>
		<path class="st0" d="M190.78,66.9v8.33h-0.92v-5.55l-3.07,5.41l0,0l-3.08-5.42v5.56h-0.92V66.9h0.1l3.9,6.5l3.9-6.5H190.78z"/>
		<path class="st0" d="M195,73.77l0.71-0.53c0.43,0.73,1.22,1.18,2.07,1.17c1.07,0,1.94-0.58,1.94-1.38s-1.17-1.36-2.21-1.76
			s-2.13-0.88-2.13-2.14c0.09-1.3,1.21-2.29,2.51-2.2c0.04,0,0.07,0.01,0.11,0.01c1.01-0.06,1.95,0.53,2.34,1.47l-0.7,0.46
			c-0.31-0.63-0.95-1.02-1.65-1c-0.81-0.08-1.53,0.5-1.63,1.31c0,0.79,0.9,1.08,2,1.48c1.23,0.5,2.39,1.07,2.39,2.38
			s-1.31,2.33-2.88,2.33C196.68,75.45,195.55,74.83,195,73.77z"/>
		<path class="st0" d="M201.47,71.15c-0.01-2.32,1.86-4.21,4.18-4.22s4.21,1.86,4.22,4.18c0.01,2.32-1.86,4.21-4.18,4.22
			c-0.01,0-0.02,0-0.03,0C203.35,75.32,201.49,73.46,201.47,71.15z M208.93,71.15c0.01-1.81-1.45-3.27-3.26-3.28
			c-1.81-0.01-3.27,1.45-3.28,3.26c-0.01,1.81,1.45,3.27,3.26,3.28c0,0,0.01,0,0.01,0c1.8-0.01,3.26-1.47,3.27-3.27L208.93,71.15z"
			/>
		<path class="st0" d="M210.73,71.15c0.02-2.31,1.89-4.19,4.2-4.21c1.06,0.03,2.07,0.48,2.81,1.24l-0.54,0.72
			c-0.61-0.63-1.44-0.99-2.31-1c-1.8,0.1-3.18,1.64-3.08,3.45c0.09,1.66,1.42,2.99,3.08,3.08c0.87-0.02,1.69-0.38,2.29-1l0.54,0.74
			c-0.73,0.77-1.75,1.2-2.81,1.2C212.59,75.35,210.73,73.47,210.73,71.15z"/>
		<path class="st0" d="M218.86,67.06h0.92v8.17h-0.92V67.06z"/>
		<path class="st0" d="M226.84,73.88h-4.46l-0.6,1.35h-1l3.78-8.3h0.1l3.78,8.3h-1L226.84,73.88z M226.48,73.08l-1.87-4.2l-1.87,4.2
			H226.48z"/>
		<path class="st0" d="M234.36,74.31v0.92h-4.93v-8.17h0.92v7.25H234.36z"/>
		<path class="st0" d="M239.45,68v2.59h3.36v0.92h-3.36v2.84h3.87v0.92h-4.79v-8.21h4.79V68H239.45z"/>
		<path class="st0" d="M244.71,72.05v-5h0.92v5c-0.16,1.16,0.65,2.23,1.81,2.39c1.16,0.16,2.23-0.65,2.39-1.81
			c0.03-0.19,0.03-0.39,0-0.58v-5h0.93v5c0,1.66-1.34,3-3,3s-3-1.34-3-3H244.71z"/>
		<path class="st0" d="M257.13,75.23L254.85,72h-1.52v3.19h-0.92v-8.13h2.41c1.47-0.04,2.7,1.11,2.75,2.59c0,0,0,0.01,0,0.01
			c-0.01,1.05-0.7,1.97-1.71,2.27l2.42,3.3L257.13,75.23z M254.84,71.23c0.91,0.07,1.7-0.61,1.77-1.52c0.07-0.91-0.61-1.7-1.52-1.77
			c-0.09-0.01-0.17-0.01-0.26,0h-1.52v3.29H254.84z"/>
		<path class="st0" d="M258.8,71.15c-0.01-2.32,1.86-4.21,4.18-4.22c2.32-0.01,4.21,1.86,4.22,4.18c0.01,2.32-1.86,4.21-4.18,4.22
			c-0.01,0-0.01,0-0.02,0C260.69,75.32,258.82,73.46,258.8,71.15z M266.26,71.15c0.01-1.81-1.44-3.28-3.25-3.29
			c-1.81-0.01-3.28,1.44-3.29,3.25c-0.01,1.81,1.44,3.28,3.25,3.29c0.01,0,0.02,0,0.03,0c1.8-0.01,3.25-1.46,3.26-3.26L266.26,71.15
			z"/>
		<path class="st0" d="M268.49,67.06h2.59c1.52-0.09,2.83,1.07,2.92,2.59c0,0.01,0,0.03,0,0.04c-0.11,1.48-1.39,2.61-2.87,2.52
			h-1.67v3h-0.92L268.49,67.06z M273,69.68c-0.08-0.98-0.93-1.73-1.92-1.68h-1.67v3.3h1.67C272.05,71.37,272.9,70.65,273,69.68z"/>
		<path class="st0" d="M276,68v2.59h3.36v0.92H276v2.84h3.88v0.92h-4.8v-8.21h4.8V68H276z"/>
		<path class="st0" d="M281.26,72.05v-5h0.93v5c-0.14,1.16,0.69,2.21,1.84,2.35c1.16,0.14,2.21-0.69,2.35-1.84
			c0.02-0.17,0.02-0.34,0-0.5v-5h0.93v5c0,1.67-1.35,3.02-3.02,3.02S281.26,73.72,281.26,72.05z"/>
		<path class="st0" d="M298.44,71.15c0.13,2.12-1.48,3.95-3.6,4.09c-0.19,0.01-0.38,0.01-0.57-0.01H292v-8.17h2.27
			c2.12-0.18,3.99,1.4,4.16,3.53C298.45,70.78,298.45,70.96,298.44,71.15z M297.51,71.15c0.09-1.65-1.18-3.07-2.84-3.16
			c-0.13-0.01-0.27-0.01-0.4,0.01h-1.35v6.3h1.37c1.65,0.12,3.09-1.12,3.22-2.77C297.52,71.41,297.52,71.28,297.51,71.15z"/>
		<path class="st0" d="M304.31,73.88h-4.46l-0.59,1.35h-1l3.77-8.3h0.1l3.78,8.3h-1L304.31,73.88z M303.96,73.08l-1.87-4.2
			l-1.88,4.2H303.96z"/>
		<path class="st0" d="M306.14,73.77l0.71-0.53c0.43,0.73,1.22,1.18,2.07,1.17c1.07,0,1.94-0.58,1.94-1.38s-1.17-1.36-2.21-1.76
			s-2.13-0.88-2.13-2.14c0.23-1.42,1.56-2.38,2.98-2.16c0.84,0.13,1.56,0.67,1.93,1.44l-0.7,0.46c-0.31-0.63-0.95-1.02-1.65-1
			c-0.81-0.08-1.53,0.5-1.63,1.31c0,0.79,0.9,1.08,1.95,1.48c1.23,0.5,2.39,1.07,2.39,2.38s-1.3,2.33-2.87,2.33
			C307.76,75.42,306.68,74.8,306.14,73.77z"/>
	</g>
	<g id="M">
		<path class="st0" d="M311.76,12.05v49.63h-13.05v-19.5l-13.24,18.67h-0.09l-13.27-18.67v19.5h-13.05V12.05h5.24L285.41,41
			l21.11-28.91L311.76,12.05z"/>
	</g>
	<g id="E">
		<path class="st0" d="M236.82,24.52l0.05,6.86l15.62-0.11l0.08,10.88L237,42.27l0.05,7l19-0.15l0.09,12.23l-31.87,0.24l-0.38-49.16
			l31.88-0.24l0.09,12.14L236.82,24.52z"/>
	</g>
	<g id="S">
		<path class="st0" d="M185.86,53.35l7.9-7.75c2.34,3.16,6.07,4.97,10,4.85c2.77,0,5.49-1,5.49-3c0-2.53-5-4.76-9.85-6.89
			c-6.23-2.69-11.57-6.77-11.57-14.19c0-8.51,8.09-14.58,17.42-14.58c7.5,0,13.36,3.54,15.28,8.39L213,27.42
			c-1.47-2.59-5.25-3.72-7.6-3.72c-2.68,0-4.6,1.37-4.6,3.05c0,2.26,3.47,3,8.78,5.22c7.69,3.23,12.78,7.93,12.78,15.19
			c0,9.36-8.72,15.19-18.57,15.19C195.69,62.35,188.33,58.78,185.86,53.35z"/>
	</g>
	<g id="F">
		<path class="st0" d="M166.59,24.65v8h15.62v10.88h-15.62v18.21h-12.9V12.38h31.87v12.27H166.59z"/>
	</g>
</g>
<path class="st0" d="M69.99,1.05c-7.89,0-15.73,1.35-23.16,4.01l2.78-0.85v1.32l0.69,0.84v1.2l0.75,0.98l1.22,0.7l0.84,0.6
	l0.98,1.07l2.52,0.36l1.44,0.72l0.98,1.44l1.44,0.6l1.44-0.6l0.48,2.05l-1.32,1.2l-1.44-0.13l-2.28,0.13l-1.56,0.47l-1.97,1.57
	l-2.17,0.84l-0.12,0.98l0.98,1.2l1.07,0.36l0.84,0.48l0.73,1.2l0.6,1.07v2.86l0.84,1.2h1.2l0.6-1.2l1.2-1.45l1.19-1.31l0.45-1.28
	l0.6-2.4l0.48-1.32l1.97-0.6l0.98-0.72l3.23,0.24l1.57,0.98v2.17l1.44,0.84l1.08,1.32l1.27,1.92h0.77l1.2-1.07l0.53-1.35l1.32-1.8
	l1.57-0.6l2.16-0.98l0.72-0.98l1.64-0.35l0.6,1.08V24l1.32,0.48l0.72,0.6l0.48,2.04l1.67,0.98h1.61l0.72,1.57l-0.6,1.8v0.98
	l-1.32,1.56L89.21,35v1.32l1.68,0.98l1.56,0.12h0.85l1.67,0.35l1.32,0.98l1.57,1.56v0.73l3.12,1.32l1.67,1.67l0.72,1.68v1.8
	l-1.56,0.35l1.56,1.8L102.78,51l-1.8,0.6l-0.6-0.98l-1.2,1.2l-0.98-0.48l-0.72-1.32l-0.6-0.72l-1.67,0.59l-0.65,0.1l0.54,1.29v1.56
	l-0.66,1.08l-0.66,0.98l1.32,0.98l0.25,2.64l0.98,1.56l0.6,0.85l2.04-0.12l2.65-1.08l0.98,2.16l0.36,0.98h2.39l0.36,1.68l2.04-0.48
	l0.6,1.97l1.44,1.2v4.08l-0.24,3.6l-0.72,4.32l-0.12,3.48l-0.48,4.21l-0.72,2.28l0.84,1.8l2.52-0.84l1.8,1.07v1.45l-2.04,2.88
	l-2.25,2.16l-1.97,3.12l-2.88,2.51l-2.17,1.57l-2.84,1.8l-2.95,1.97l-1.2,1.56l-1.44,0.6l-6.36,2.95l-3.24,0.72l-3.52,1.2
	l-3.12,1.32l-2.4,0.98l-2.95,0.47l-2.04,1.45l-2.16-1.33h-6.27l-1.44-1.2l-0.6-2.39l0.72-2.76l0.12-1.8l1.2-1.8l1.07-1.57l0.48-2.64
	l0.36-1.2l1.44-2.28l1.08-2.43l2.16-2.04l1.67-0.48l1.97-1.32l0.66-1.68l-0.06-2.52v-2.15l0.12-3.24l2.4-3.6l0.31-1.44l-1.06-1.31
	l-1.23-1.46l-1.37-2.03l-1.57-1.81l-3.84-0.71l-1.41-1.08h-2.95l-0.35,0.35h1.11l1.41,1.08l3.84,0.72l1.56,1.8l0.84,1.44l1.08,1.2
	l1.75,2.16v0.91l-0.98,1.57l-0.98,1.44l-0.76,1.13l-0.05,1.2v1.45v2.76l0.07,1.44v1.6l-1.27,1.58l-2.34,1.2l-2.38,1.76l-1.55,2.87
	l-1.45,2.28l-0.84,3.84l-1.38,1.97l-1.51,1.61l-2.64,1.44l-2.04,1.95l-0.84,1.8v1.92l0.84,1.1l0.12-1.28l0.63-1.37l2.05-1.97
	l2.95-1.44l0.12,1.56l-0.24,1.2l-0.48,1.08l0.25,1.67l0.35,1.57l0.98,0.6l2.04,0.12l2.4-0.12h1.32l1.29,0.34l0.47,0.72l1.33,0.49
	l1.18-0.85l1.21-0.72l2.64-0.36l3.01-1.25l2.52-1.2l2.04-0.72l3.6-0.72l2.28-1.2l2.03-1.08l2.04-0.72l2.28-0.25h4.68l0.84-0.6
	l1.2,0.6v1.68h1.8l1.56,0.6l0.6,1.07h2.95v2.89l-1.44,2.04l-1.8,0.85l-2.04,1.79l-1.52,1.18l-2.16,1.2l-3.24,2.04l-1.44,0.98
	l-3.37,1.32l-3.84,1.44h-3.48l-2.28,0.72h-7.68l-1.97-1.07h-3.04l-2.88-0.61l-2.17-0.72l-2.39-0.12l-1.97-0.35l-1.8-0.85l-1.45-1.07
	l-0.59-0.54v-2.71l-0.54-3.38l-0.72-0.98v0.48l0.59,1.67v2.7h-2.08l-0.84-1.13l-1.35-1.08l-1.29-1.68l-1.44-1.44l-1.2-1.44
	l-1.32-2.89l-0.85-2.16l-0.34-1.44l-0.36-1.91l-0.6-2.17l-0.72-2.64l-0.48-1.67l-0.12-2.52l-0.12-1.97v-1.5l-0.6-2.17l-0.36-1.44
	l-0.72-0.6l-0.72-0.63l-1.1-0.56l-1.07-0.85L33.99,91l-1.56-1.8l-1.84-1.56l-0.98-3.24l-0.78-1.61l-1.56-1.5l-0.24-0.91h-0.85
	l-0.84-1.67v-4.4l0.72-1.56l0.48-1.2l1.08-0.48v-2.52l0.72-0.98l0.12-1.32l-0.84-0.58v-0.98l1.19-1.97l0.98-0.85l3-1.31h2.5
	l2.51,0.72l1.45,0.12l2.64-0.84h2.16l2.05,2.16l1.79,0.98l1.2,2.35h6.1l2.95,1.67l0.42,1.08L57.28,69l-1.32,1.14l0.24,2.85l1.2,0.6
	l0.98-0.98l0,0l-0.22-2.8l1.33-1.14l1.31-0.24l-0.41-0.79l-1.86-1.38l-1.08-0.6l-0.98-2.64l0.6-2.16l0.98-0.98v-1.54l-0.48-0.98
	v-1.54l0.98-1.57l1.97-1.44l1.08-0.84l0.5-1.92l0.84-1.14l1.8-1.26l3.36-1.8l4.21-0.24l2.28,0.12l0.98-2.28l2.4-0.24l2.76-0.12
	l1.07-1.08l1.78,1.23l-0.1-0.51l-0.72-1.44l-1.68-1.08l-1.56,1.1l-2.28,0.1l-1.79,0.12l-0.98,0.98l-0.32,0.74l-0.3,0.7l-1.97-0.12
	h-2.25l-1.79,0.12l-0.82,0.23l-2.64,1.67l-2.19,1.26l-0.85,1.14l-0.44,1.44l-0.53,0.78l-1.37,1.05l-1.57,1.44l-0.65,1.77l0.22,1.27
	l0.27,1.25v0.84l-1.08,1.51l-0.44,1.62l0.98,2.65l-1.67,0.24l-2.05-0.36l-2.39,0.13l-0.98-2.4l-2.04-0.84l-1.92-1.8l-2.28-0.36
	l-2.64,0.84l-3-0.47l-3.52-0.36L32.2,59.3l-1.61,0.72l-1.25,2.09h-2.55l-1.67,0.79h-1.68v-8.27l-1.08-0.48l1.08-1.88l-0.24-0.72
	l-0.85-1.08v-2.68l0.85-2.04l-0.85-1.08V43.1l1.08-1.67l0.48-2.76l1.32-1.92l-0.72-1.8l-0.48-2.38l0.36-1.56l1.45-1.92l1.79-2.19
	l2.52-1.92L31,23.41l1.08-1.08l1.56-2.52l1.44-1.92l1.32-2.07l2.95-2.64v-1.53l0.6-1.57h0.98l0.49-1.44l0.06-1.42l2.1-0.98
	C8.38,20.76-8.4,61.05,6.11,96.26s54.8,51.98,90.01,37.47s51.98-54.8,37.47-90.01C122.97,17.94,97.87,1.1,69.99,1.05z M83.97,16.57
	l-1.12,0.24l-1.69,1.39l-1.97,0.84L78,19.93l-1.2,1.8l-0.83,1.16l-1.46,0.61l-1.75-0.79l-0.98-1.32l-1.2-0.72l0.12-1.2V17.3
	l-1.3-0.8l-0.27-0.77l-1.56,0.98l-1.67,0.35l-0.98,0.84l-2.02-0.12l1.6-1.73l1.79-0.84l1.44-0.6l-0.24-2.64l-0.6-0.84l-1.67-0.48
	l-1.63,0.12l-1.74,0.12h-1.7l-1.17-1.04l-1.08-0.72l-0.84-0.36l-2.17,0.25V6.85l1.57-1.08h1.07l0.73,0.48l1.44,1.08l0.84,0.98
	l0.85,0.36h0.6l3.09-1.35l1.2,0.72h1.57l1.31-1.2l0.13-1.08h1.92l1.32,0.98l1.42,0.7l1.8,0.36l0.98-0.98l1.79-1.08h1.82l-0.35,1.7
	l1.56,1.2l1.32,0.98v2.52l1.12,1.69V16.57z M111.55,88.59l-1.14,0.38l-1.13-1.7l0.47-0.84v-2.46l0.6-2.09l0.2-1.97v-1.4l0.18-1.97
	l0.37-2.25l0.26-1.87l0.2-1.62v-5.21l0.19-0.59l0.9-0.36l0.98-0.72l0.79-0.98v-1.42l1.41-0.98h0.98l0.73,1.38l1.19,0.24l0.85,0.78
	l0.6,1.26l0.72,1.38l0.3,1.26l0.06,0.98l0.19,1.3v1.14l-0.48,1.67l-1.32,1.08l-0.36,0.78v1.45l-0.03,1.63l0.18,1.56l-0.41,1.86h0.6
	l0.47,0.48l1.2-0.06l0.66,0.72l0.48,0.72v2.34l-0.72,0.42l-0.49,1.33l-0.6-0.16l-0.98,0.56l-0.54,0.68l-0.34-0.13l-0.98,0.48
	l-1.3-0.09l-0.98,0.09v0.44l-1.34-0.12l-0.98,0.14L111.55,88.59z M120.61,99.76l-0.47,1.08l-0.48,1.13l-0.6,0.85l-0.84,0.84
	l-0.7,1.44l-1.1,1.63l-0.66,0.66l-0.31,1.14l-0.6,1.26l-0.41,1.13l-1.45,2.4l-0.48,1.2l-0.78,1.68l-0.54,0.84l-0.72,1.14h-0.6
	l-0.25-0.54v-2.04h-2.64l-0.98-1.08l-0.98-0.37l-0.58-0.23h-1.8v-1.68l-1.32-0.9l-1.08,0.9h-4.28l-1.55,0.17l2.03-1.05l0.7-0.93
	l0.8-0.57l1.26-0.98l1.32-0.9l1.5-0.73l0.91-0.53l2.1-1.74l1.44-1.2l1.68-1.5l0.48-0.72l0.72-1.32l1.04-1.31l1.2-1.2l0.91-1.51
	l1.11-1.08l0.81-0.35l0.72-0.3l0.72,0.3l1.32,0.9l0.48,0.73h0.98l0.98,0.41h0.61v0.75l0.41,1.32L120.61,99.76z M122.44,90.9
	l-0.21,1.97l-0.91,1.97v0.72l-0.41,0.48l-1.15-0.51l-0.83-0.15l-0.75-0.31l-1.6-1.32h-1.44l-0.34-0.3v-1.8l-0.5-0.69l-0.98-0.57
	l2.17-0.3l1.07,0.3l0.12-0.54l2.77-0.47l0.66,0.24l0.3-0.98l1.8-0.66l0.42,1.26L122.44,90.9z M121.87,30.88l-0.72-0.48l-0.84-1.32
	l-0.72-0.84l-1.57-1.68l-0.98-1.8l-1.23-0.35v3.48l0.75,1.68l-0.75,0.12l-1.41-0.72l-2.17-0.12l-0.72,1.92l-0.72,0.84l-1.56-0.25
	l-0.72-1.44l-0.85-1.44l-1.2-0.72l-1.56-0.48L103,27.99l0.35,2.28v2.16l-1.32-0.35l-1.56,0.24l-1.8,1.38l-0.24,1.74l1.2,1.2
	l1.07,0.84l0.25,1.68l-0.6,1.8l-0.91-1.63l-1.97-1.63l-1.67-0.35l-2.95-0.4l-1.18-0.68l-0.24-2.28l0.74-0.87l0.58-1.17l0.43-1.79
	l0.17-0.48l-1.51-1.59l-1.47-0.45l-0.93-0.53l-0.33-1.39l-0.87-1.25l-1.32-1.32l-0.6-1.32l0.6-1.8l-0.6-1.08l0.6-2.28l0.35-1.97
	l1.8-2.28l1.58-0.53L93.43,12l1.44,0.12V7.94l-1.68-0.6l-1.44-0.98l-0.98-0.12L89.77,5.4L88.1,5.28l-1.76-0.71h-1.08l-0.6-0.13v-1.2
	h1.68l2.28,0.85l1.97,0.48l2.4,0.72l2.95,1.2l1.67,1.07l2.64,1.36l2.53,1.68l3.11,2.04l2.5,1.53l1.44,1.56l2.4,1.68l2.17,2.39
	l2.39,2.28l2.53,2.28l1.91,2.16l1.16,2.09l1.51,1.57l-0.85,1.19L121.87,30.88z"/>
<path class="st0" d="M45.76,5.44l0.72-0.27L45.76,5.44z"/>
<polygon class="st0" points="89.21,46.22 91.5,48.03 92.58,49.58 94.26,49.58 93.71,47.78 91.73,47.43 90.41,45.98 88.86,44.54 
	86.45,44.42 84.1,44.96 84.41,46.22 87.17,46.22 "/>
</svg>
