<?xml version="1.0" encoding="utf-8"?>
<!-- Generator: Adobe Illustrator 24.1.0, SVG Export Plug-In . SVG Version: 6.00 Build 0)  -->
<svg version="1.1" id="Layer_1" xmlns="http://www.w3.org/2000/svg" xmlns:xlink="http://www.w3.org/1999/xlink" x="0px" y="0px"
	 viewBox="0 0 200 89.35" style="enable-background:new 0 0 200 89.35;" xml:space="preserve">
<style type="text/css">
	.st0{fill:#11B5C8;}
	.st1{fill:#F26C3F;}
	.st2{fill:#EA2227;}
	.st3{fill:#48161A;}
	.st4{fill:#F26C3D;}
	.st5{fill:#471114;}
	.st6{fill:#EC1E24;}
	.st7{fill:#EC2224;}
	.st8{fill:#4F1117;}
	.st9{fill:#F26F33;}
	.st10{enable-background:new    ;}
</style>
<g id="Layer_2_1_">
	<g id="Layer_1-2">
		<g id="M">
			<path class="st0" d="M198.91,7.69v31.66h-8.33V26.91l-8.45,11.91l0,0l-8.47-11.91v12.44h-8.33V7.69h3.35l13.42,18.45l13.46-18.45
				H198.91z"/>
		</g>
		<g id="E">
			<path class="st1" d="M151.09,15.64v4.38l10-0.07v6.94l-10,0.08v4.49l12.11-0.09l0.05,7.81L143,39.33L142.8,8l20.34-0.15
				l0.06,7.74L151.09,15.64z"/>
		</g>
		<g id="S">
			<path class="st2" d="M118.58,34l5-4.95c1.49,2.01,3.87,3.17,6.37,3.1c1.77,0,3.5-0.64,3.5-1.93c0-1.61-3.21-3-6.29-4.4
				c-4-1.71-7.37-4.32-7.37-9c0-5.42,5.16-9.3,11.11-9.3c4.79,0,8.52,2.26,9.75,5.35l-4.81,4.64c-0.93-1.66-3.35-2.38-4.84-2.38
				c-1.72,0-2.94,0.88-2.94,2c0,1.44,2.22,1.9,5.6,3.33c4.91,2.06,8.16,5.06,8.16,9.69c0,6-5.57,9.69-11.85,9.69
				C124.85,39.78,120.16,37.5,118.58,34z"/>
		</g>
		<g id="F">
			<path class="st3" d="M106.29,15.73v5.07h10v7h-10v11.59h-8.23V7.9h20.33v7.83H106.29z"/>
		</g>
		<g id="Pangeia">
			<path class="st0" d="M89.35,44.67c0.01,24.68-19.99,44.68-44.67,44.69S0,69.37-0.01,44.69S19.98,0.01,44.66,0c0,0,0.01,0,0.01,0
				c24.67-0.01,44.67,19.99,44.68,44.66C89.35,44.66,89.35,44.67,89.35,44.67z"/>
			<polygon class="st4" points="60.93,35.49 60.07,34.86 60.5,34.24 60.93,33.54 60.93,32.53 60.5,31.44 59.29,31.44 58.59,30.43 
				57.12,29.27 55.79,29.27 54.01,29.27 53.54,27.4 52.29,26.54 51.59,27.24 49.81,27.32 48.25,27.48 47.63,28.95 46.15,28.88 
				43.43,29.03 41.25,30.2 40.09,31.01 39.54,31.75 39.15,33 38.45,33.54 37.21,34.47 36.59,35.49 36.59,36.5 36.9,37.12 
				36.9,38.13 36.27,38.75 35.89,40.15 36.51,41.86 37.21,42.25 38.41,43.15 38.69,43.65 37.83,43.81 36.98,44.54 37.13,46.37 
				37.91,46.76 38.92,45.75 39.39,45.75 40.81,45.75 41.72,46.45 44.21,46.92 45.22,48.08 46.11,49.4 46.91,50.34 47.59,51.19 
				47.4,52.13 45.84,54.46 45.76,56.56 45.76,57.96 45.8,59.59 45.37,60.68 44.12,61.54 43.04,61.85 41.64,63.17 40.94,64.72 
				40.01,66.2 39.77,66.98 39.46,68.69 38.76,69.7 37.99,70.87 37.91,72.03 37.44,73.82 37.83,75.38 38.76,76.16 41.25,76.16 
				42.81,76.16 44.21,77.01 45.53,76.08 47.47,75.77 49.03,75.14 51.05,74.29 53.3,73.51 55.4,73.05 59.53,71.1 60.46,70.71 
				61.24,69.7 63.18,68.46 65.05,67.29 66.45,66.28 68.31,64.65 69.56,62.63 70.96,61.15 72.28,59.28 72.28,58.35 71.11,57.65 
				69.48,58.19 68.94,57.03 69.4,55.55 69.71,52.83 69.79,50.57 70.26,47.77 70.41,45.44 70.41,44.44 70.41,42.8 69.48,42.02 
				69.09,40.77 67.77,41.09 67.54,40 65.98,40 65.75,39.37 65.13,37.97 63.41,38.67 62.09,38.75 61.7,38.21 61.08,37.2 			"/>
			<polygon class="st5" points="33.71,80.7 33.71,78.95 33.32,77.87 33.32,76.78 32.62,75.84 32.62,74.6 33.16,73.43 34.49,72.19 
				36.2,71.26 37.17,70.22 38.06,68.92 38.61,66.44 39.54,64.96 40.56,63.1 42.06,61.96 43.58,61.18 44.41,60.16 44.41,59.13 
				44.36,58.19 44.38,56.41 44.41,55.47 44.44,54.69 44.93,53.96 45.55,53.02 46.2,52.01 46.2,51.43 45.06,50.03 44.36,49.25 
				43.82,48.31 42.81,47.15 40.32,46.68 39.41,45.98 37.52,45.98 36.51,46.99 35.73,46.6 35.58,44.78 36.43,44.04 37.29,43.88 
				37.01,43.18 35.11,42.09 33.55,42.09 31.14,42.09 30.36,40.62 29.2,40 27.88,38.6 26.48,38.6 24.77,39.14 23.83,39.06 22.2,38.6 
				20.57,38.6 18.62,39.45 18,40 17.22,41.24 17.22,41.86 17.77,42.25 17.69,43.11 17.22,43.73 17.22,44.78 17.22,45.36 
				16.52,45.67 16.21,46.45 15.75,47.46 15.75,48.39 15.75,49.17 15.75,50.03 15.75,50.34 16.29,51.43 16.83,51.43 16.99,52.01 
				18,52.98 18.47,53.99 19.17,56.09 20.33,57.1 21.34,58.27 22.28,58.74 22.98,59.28 23.68,59.65 24.14,60.06 24.61,60.45 
				24.84,61.38 25.23,62.78 25.23,63.79 25.31,65.04 25.39,66.67 25.7,67.76 26.17,69.47 26.56,70.87 26.79,72.11 27.02,73.05 
				27.57,74.44 28.42,76.31 29.2,77.24 30.13,78.18 30.97,79.27 31.84,79.97 32.39,80.7 			"/>
			<polygon class="st6" points="59.37,72.73 60.3,72.73 61.63,72.73 62.4,72.73 62.95,72.35 63.73,72.73 63.73,73.82 64.89,73.82 
				65.9,74.21 66.29,74.91 67.15,74.91 68.24,74.91 68.24,75.77 68.24,76.78 67.3,78.1 66.14,78.64 64.81,79.81 63.8,80.59 
				62.4,81.36 60.3,82.69 59.37,83.31 57.19,84.16 54.7,85.1 52.45,85.1 50.97,85.56 48.25,85.56 46,85.56 44.75,84.86 42.73,84.86 
				40.86,84.48 39.46,84.01 37.91,83.93 36.66,83.7 35.5,83.15 34.56,82.45 34.17,82.11 34.17,80.74 34.17,80.35 33.79,78.18 
				33.09,77.24 33.22,75.72 33.63,74.83 34.95,73.59 36.9,72.66 36.98,73.67 36.82,74.44 36.51,75.14 36.66,76.23 36.9,77.24 
				37.52,77.63 38.84,77.71 40.4,77.63 41.25,77.63 42.11,77.86 42.42,78.33 43.27,78.64 44.04,78.1 44.83,77.63 46.54,77.4 
				48.48,76.54 50.12,75.77 51.44,75.3 53.77,74.83 55.25,74.06 56.57,73.36 57.89,72.89 			"/>
			<polygon class="st5" points="73.44,60.72 73.91,60.53 74.38,60.72 75.23,61.3 75.55,61.77 76.21,61.77 76.83,62.04 77.18,62.04 
				77.18,62.55 77.45,63.4 77.45,63.95 77.14,64.65 76.83,65.39 76.44,65.93 75.89,66.47 75.45,67.41 74.73,68.46 74.3,68.89 
				74.11,69.62 73.72,70.44 73.44,71.18 72.51,72.73 72.2,73.51 71.7,74.6 71.35,75.14 70.88,75.88 70.49,75.88 70.33,75.53 
				70.33,74.21 68.62,74.21 68,73.51 67.37,73.27 66.99,73.12 65.83,73.12 65.83,72.03 64.97,71.45 64.27,72.03 62.4,72.03 
				61.47,72.03 60.47,72.14 61.78,71.45 62.24,70.85 62.75,70.48 63.57,69.82 64.43,69.23 65.4,68.77 65.98,68.42 67.34,67.29 
				68.28,66.51 69.36,65.54 69.67,65.08 70.14,64.22 70.84,63.4 71.62,62.63 72.2,61.65 72.92,60.95 			"/>
			<polygon class="st7" points="78.5,56.29 78.77,57.1 78.64,58.19 78.5,59.44 77.92,60.72 77.92,61.19 77.65,61.5 76.9,61.17 
				76.36,61.07 75.88,60.87 74.84,60.02 73.91,60.02 73.69,59.83 73.69,58.7 73.36,58.25 72.75,57.88 74.15,57.69 74.84,57.88 
				74.92,57.53 76.71,57.22 77.14,57.38 77.33,56.72 			"/>
			<polygon class="st5" points="71.58,41.82 71.58,43.27 71.58,44.27 71.58,45.17 71.45,46.22 71.29,47.43 71.04,48.88 70.93,50.19 
				70.93,51.12 70.8,52.37 70.41,53.72 70.41,55.32 70.1,55.86 70.84,56.96 71.58,56.72 72.64,56.43 73.28,56.34 74.15,56.42 
				74.15,56.13 74.78,56.08 75.62,56.13 76.25,55.82 76.47,55.9 76.83,55.46 77.45,55.1 77.84,55.2 78.15,54.34 78.62,54.07 
				78.62,53.22 78.62,52.55 78.31,52.09 77.88,51.62 77.1,51.66 76.79,51.35 76.4,51.35 76.67,50.14 76.56,49.13 76.6,48.08 
				76.6,47.15 76.83,46.65 77.68,45.95 78,44.86 78,44.12 77.88,43.27 77.84,42.64 77.65,41.82 77.18,40.93 76.79,40.11 
				76.25,39.61 75.47,39.45 75,38.56 74.36,38.56 73.44,39.18 73.44,40.11 72.94,40.73 72.28,41.2 71.7,41.44 			"/>
			<polyline class="st6" points="28.02,3.21 29.53,2.63 31.45,2.05 31.45,2.9 31.9,3.45 31.9,4.22 32.39,4.85 33.16,5.31 33.71,5.7 
				34.33,6.4 35.97,6.64 36.9,7.1 37.52,8.04 38.45,8.42 39.39,8.04 39.7,9.36 38.84,10.13 37.91,10.06 36.43,10.13 35.42,10.45 
				34.18,11.46 32.78,12 32.7,12.62 33.32,13.4 34.02,13.63 34.56,13.95 35.03,14.72 35.42,15.42 35.42,16.36 35.42,17.29 
				35.97,18.07 36.74,18.07 37.13,17.29 37.91,16.36 38.69,15.5 39,14.65 39.39,13.09 39.7,12.23 40.94,11.85 41.56,11.38 
				43.66,11.54 44.67,12.16 44.67,13.56 45.61,14.1 46.31,14.96 47.13,16.2 47.63,16.2 48.41,15.5 48.8,14.65 49.65,13.48 
				50.66,13.09 52.06,12.47 52.53,11.85 53.62,11.61 54.01,12.31 54.01,13.09 54.01,14.88 54.86,15.19 55.33,15.58 55.64,16.9 
				56.73,17.52 57.74,17.52 58.21,18.53 57.82,19.7 57.82,20.32 56.96,21.33 57.12,21.95 57.12,22.81 58.21,23.43 59.22,23.51 
				59.76,23.51 60.85,23.74 61.7,24.36 62.72,25.38 62.72,25.84 64.74,26.7 65.83,27.79 66.29,28.88 66.29,30.04 65.28,30.27 
				66.29,31.44 65.9,32.3 64.74,32.69 64.35,32.06 63.57,32.84 62.95,32.53 62.48,31.68 62.09,31.21 61.01,31.6 60.46,31.68 
				60.03,30.27 58.75,30.04 57.89,29.11 56.88,28.18 55.33,28.1 53.62,28.49 53.54,27.79 53.38,27.01 52.92,26.08 51.83,25.38 
				50.81,26.09 49.34,26.15 48.17,26.23 47.55,26.85 47.35,27.34 47.16,27.79 45.92,27.71 44.44,27.71 43.27,27.79 42.73,27.94 
				41.02,29.03 39.62,29.85 39.08,30.59 38.78,31.52 38.44,32.02 37.55,32.7 36.54,33.64 36.12,34.79 36.26,35.61 36.43,36.42 
				36.43,36.96 35.71,37.93 35.42,38.98 36.04,40.7 34.95,40.85 33.63,40.62 32.08,40.7 31.45,39.14 30.13,38.6 28.89,37.43 
				27.41,37.2 25.7,37.74 23.76,37.43 21.5,37.2 20.18,37.74 19.17,38.21 18.33,39.56 16.68,39.56 15.59,40.07 14.5,40.07 
				14.5,39.06 14.5,37.2 14.5,34.71 13.8,34.4 14.5,33.15 14.35,32.69 13.8,31.99 13.8,30.27 14.35,28.95 13.8,28.25 13.8,27.24 
				14.5,26.15 14.81,24.36 15.67,23.12 15.2,21.95 14.89,20.4 15.13,19.39 16.07,18.14 17.22,16.75 18.86,15.5 19.4,14.49 
				20.1,13.79 21.11,12.16 22.05,10.91 22.9,9.59 24.84,7.88 24.84,6.87 25.23,5.86 25.86,5.86 26.17,4.92 26.2,4.01 27.62,3.38 			
				"/>
			<polygon class="st8" points="79.59,18.84 78.62,17.83 77.88,16.51 76.64,15.11 75,13.63 73.44,12.16 72.05,10.6 70.49,9.51 
				69.56,8.5 67.92,7.49 65.9,6.17 64.27,5.08 62.56,4.22 61.47,3.53 59.53,2.75 57.97,2.28 56.73,1.97 55.25,1.42 54.78,1.42 
				54.16,1.42 54.16,2.2 54.55,2.28 55.25,2.28 56.42,2.75 57.51,2.83 58.13,3.37 58.75,3.45 59.68,4.07 60.77,4.46 60.77,5.78 
				60.77,7.18 59.84,7.1 58.05,7.03 57.04,7.41 55.87,8.89 55.64,10.13 55.25,11.61 55.64,12.31 55.25,13.48 55.64,14.33 
				56.49,15.19 57.06,16 57.27,16.9 57.88,17.24 58.83,17.52 59.84,18.53 59.73,18.84 59.45,20.01 59.08,20.77 58.59,21.33 
				58.75,22.81 59.51,23.25 61.39,23.51 62.48,23.74 63.76,24.79 64.35,25.84 64.74,24.68 64.58,23.59 63.88,23.04 63.1,22.27 
				63.26,21.14 64.43,20.24 65.44,20.09 66.29,20.32 66.29,18.92 66.06,17.45 67.3,16.98 68.31,17.29 69.09,17.76 69.64,18.69 
				70.1,19.62 71.11,19.78 71.58,19.23 72.05,17.99 73.44,18.07 74.36,18.53 74.84,18.45 74.36,17.37 74.36,16.36 74.36,15.11 
				75.16,15.35 75.78,16.51 76.79,17.6 77.26,18.14 77.8,19 78.27,19.31 79.05,19.62 			"/>
			<polygon class="st9" points="47.59,14.57 48.54,14.17 49.08,13.42 49.83,12.23 50.6,11.66 51.89,11.12 52.99,10.21 53.72,10.06 
				53.72,8.27 52.99,7.18 52.99,5.55 52.14,4.92 51.13,4.15 51.36,3.06 50.66,3.06 50.2,3.06 49.03,3.76 48.41,4.38 47.24,4.15 
				46.31,3.68 45.45,3.06 44.21,3.06 44.12,3.76 43.27,4.54 42.26,4.54 41.48,4.07 39.47,4.92 39.08,4.92 38.53,4.69 37.99,4.07 
				37.05,3.37 36.59,3.06 35.89,3.06 34.88,3.76 34.88,4.38 34.88,5.16 36.27,5 36.82,5.24 37.52,5.7 38.3,6.4 39.39,6.4 
				40.51,6.32 41.56,6.25 42.65,6.56 43.04,7.1 43.2,8.81 42.26,9.2 41.1,9.75 40.07,10.86 41.41,10.91 42.03,10.37 43.12,10.13 
				44.12,9.51 44.3,10.01 45.14,10.52 45.14,11.22 45.14,11.92 45.06,12.7 45.84,13.17 46.46,14.02 			"/>
		</g>
	</g>
	<g id="Novos_dados">
		<g class="st10">
			<path class="st0" d="M104.17,80.61v1.73h-6.66V71.3h1.73v9.32H104.17z"/>
			<path class="st0" d="M105,71.3h1.73v11.04H105V71.3z"/>
			<path class="st0" d="M107.66,80.4l1.37-0.98c0.49,0.86,1.41,1.36,2.47,1.36c1.24,0,2.18-0.6,2.18-1.44
				c0-1.02-1.45-1.64-2.74-2.19c-1.29-0.58-2.73-1.25-2.73-2.98c0-1.81,1.57-3.07,3.56-3.07c1.58,0,2.75,0.76,3.21,1.97l-1.29,0.89
				c-0.34-0.75-1.1-1.17-1.9-1.17c-1.01,0-1.82,0.63-1.82,1.41c0,0.86,1.02,1.17,2.36,1.75c1.75,0.77,3.1,1.61,3.1,3.35
				c0,1.96-1.7,3.22-3.94,3.22C109.67,82.52,108.29,81.67,107.66,80.4z"/>
			<path class="st0" d="M123.96,78.98c0,1.69-1.28,3.36-3.47,3.36h-4.13V71.3h3.01c1.9,0,3.19,1.37,3.19,2.84
				c0,1.19-0.83,1.99-1.24,1.99C122.56,76.12,123.96,77.26,123.96,78.98z M118.08,72.98v2.75l1.37-0.01
				c0.86,0.01,1.49-0.58,1.49-1.37s-0.68-1.38-1.47-1.38H118.08z M122.26,78.86c0-0.84-0.71-1.6-1.97-1.6l-2.22,0.01v3.38h2.25
				C121.32,80.65,122.26,79.93,122.26,78.86z"/>
			<path class="st0" d="M124.25,76.83c0-3.15,2.56-5.73,5.71-5.73c3.14,0,5.71,2.58,5.71,5.73c0,3.12-2.58,5.69-5.72,5.69
				C126.81,82.52,124.25,79.96,124.25,76.83z M133.92,76.82c0-2.19-1.79-3.97-3.97-3.97c-2.18,0-3.95,1.78-3.95,3.97
				c0,2.17,1.78,3.95,3.95,3.95C132.13,80.76,133.92,78.99,133.92,76.82z"/>
			<path class="st0" d="M145.59,71.27v11.26h-0.08l-7.06-7.38v7.2h-1.73V71.1h0.09l7.05,7.37v-7.2H145.59z"/>
			<path class="st0" d="M156.03,71.27v11.26h-0.08l-7.06-7.38v7.2h-1.73V71.1h0.09l7.05,7.37v-7.2H156.03z"/>
			<path class="st0" d="M159.34,73v2.83h4.18v1.73h-4.18v3.06h4.84v1.73h-6.58V71.3h6.58V73H159.34z"/>
			<path class="st0" d="M176.73,80.61v1.73h-8.28v-0.37c4.54-3.68,6.39-5.59,6.39-6.93c0-1.25-1.01-2.17-2.07-2.17
				c-1.29,0-2.32,1.03-2.32,2.36l-1.58-0.38c0-2.08,1.72-3.71,3.85-3.71c2.17,0,3.86,1.78,3.86,3.82c0,1.91-1.95,4.07-4.45,5.67
				H176.73z"/>
			<path class="st0" d="M177.23,76.82c0-3.33,1.82-5.69,4.51-5.69s4.51,2.36,4.51,5.69c0,3.32-1.82,5.68-4.51,5.68
				S177.23,80.14,177.23,76.82z M184.51,76.82c0-2.31-1.11-3.95-2.77-3.95c-1.67,0-2.78,1.64-2.78,3.95c0,2.3,1.1,3.93,2.78,3.93
				C183.4,80.75,184.51,79.12,184.51,76.82z"/>
			<path class="st0" d="M195.03,80.61v1.73h-8.28v-0.37c4.54-3.68,6.39-5.59,6.39-6.93c0-1.25-1.01-2.17-2.07-2.17
				c-1.29,0-2.32,1.03-2.32,2.36l-1.58-0.38c0-2.08,1.72-3.71,3.85-3.71c2.17,0,3.86,1.78,3.86,3.82c0,1.91-1.95,4.07-4.45,5.67
				H195.03z"/>
			<path class="st0" d="M198.76,71.19v11.15h-1.73v-8.92l-1.49,0.45v-1.81l2.72-0.86H198.76z"/>
		</g>
		<g class="st10">
			<path class="st3" d="M110.22,52.22v12.93h-1.43v-8.61l-4.77,8.4H104l-4.78-8.42v8.63h-1.43V52.22h0.17l6.05,10.09l6.05-10.09
				H110.22z"/>
			<path class="st3" d="M112.59,52.46h1.43v12.69h-1.43V52.46z"/>
			<path class="st3" d="M128.3,59.33c0,3.56-2.74,5.99-6.02,5.99c-3.65,0-6.57-2.93-6.57-6.51c0-3.58,2.94-6.53,6.52-6.53
				c1.56,0.01,3.46,0.79,4.6,1.91l-0.8,1.19c-0.98-0.98-2.53-1.66-3.8-1.66c-2.68,0-5.05,2.22-5.05,5.09c0,2.79,2.24,5.06,5.17,5.06
				c2.48,0,4.43-1.66,4.43-3.91c0-0.09,0-0.18-0.01-0.25h-4.55v-1.29h6.03C128.27,58.63,128.3,58.97,128.3,59.33z"/>
			<path class="st3" d="M137.35,65.15l-3.54-4.95h-2.37v4.95h-1.43L130,52.46h3.75c2.35,0,4.28,1.81,4.28,4.05
				c0,1.65-1.13,3.06-2.67,3.53l3.77,5.12H137.35z M133.79,58.99c1.51,0,2.75-1.15,2.75-2.52c0-1.46-1.26-2.6-2.75-2.6h-2.36v5.11
				L133.79,58.99z"/>
		</g>
		<g class="st10">
			<path class="st3" d="M148.87,63.06h-6.93l-0.93,2.09h-1.55l5.87-12.89h0.16l5.87,12.89h-1.56L148.87,63.06z M148.32,61.82
				l-2.91-6.53l-2.91,6.53H148.32z"/>
		</g>
		<g class="st10">
			<path class="st3" d="M158.95,53.88h-3.68v11.28h-1.43V53.88h-3.69v-1.42h8.8V53.88z"/>
			<path class="st3" d="M160.38,52.46h1.43v12.69h-1.43V52.46z"/>
			<path class="st3" d="M163.5,58.81c0-3.6,2.94-6.54,6.52-6.54c3.59,0,6.53,2.94,6.53,6.54c0,3.57-2.94,6.5-6.54,6.5
				C166.44,65.32,163.5,62.39,163.5,58.81z M175.1,58.8c0-2.8-2.28-5.09-5.09-5.09c-2.79,0-5.06,2.29-5.06,5.09
				c0,2.79,2.28,5.06,5.06,5.06C172.82,63.87,175.1,61.59,175.1,58.8z"/>
			<path class="st3" d="M188.45,52.43v12.92h-0.07l-8.7-9.66v9.48h-1.43v-12.9h0.08l8.69,9.65v-9.49H188.45z"/>
			<path class="st3" d="M190.01,62.88l1.1-0.81c0.58,1.09,1.87,1.81,3.22,1.81c1.66,0,3.02-0.9,3.02-2.15
				c0-1.42-1.82-2.11-3.44-2.72c-1.56-0.61-3.3-1.37-3.3-3.33c0-1.95,1.76-3.41,3.98-3.41c1.88,0,3.17,1.03,3.64,2.28l-1.08,0.72
				c-0.41-0.95-1.43-1.6-2.58-1.6c-1.36,0-2.53,0.9-2.53,2.03c0,1.23,1.39,1.68,3.03,2.31c1.91,0.77,3.71,1.65,3.71,3.69
				c0,2.19-2.02,3.61-4.46,3.61C192.24,65.32,190.62,64.24,190.01,62.88z"/>
		</g>
		<g class="st10">
			<path class="st3" d="M98.32,43.5v1.69h2.08v0.57h-2.08v2.26h-0.57v-5.09h2.98v0.57H98.32z"/>
		</g>
		<g class="st10">
			<path class="st3" d="M101.05,45.48c0-1.44,1.17-2.61,2.6-2.61c1.43,0,2.61,1.17,2.61,2.61c0,1.43-1.17,2.6-2.61,2.6
				C102.22,48.08,101.05,46.91,101.05,45.48z M105.68,45.48c0-1.12-0.91-2.03-2.03-2.03c-1.11,0-2.02,0.92-2.02,2.03
				c0,1.11,0.91,2.02,2.02,2.02C104.77,47.5,105.68,46.59,105.68,45.48z"/>
		</g>
		<g class="st10">
			<path class="st3" d="M110,48.01l-1.41-1.98h-0.95v1.98h-0.57l0-5.07h1.5c0.94,0,1.71,0.72,1.71,1.62c0,0.66-0.45,1.22-1.07,1.41
				l1.5,2.04H110z M108.58,45.55c0.6,0,1.1-0.46,1.1-1.01c0-0.58-0.5-1.04-1.1-1.04h-0.94v2.04L108.58,45.55z"/>
		</g>
		<g class="st10">
			<path class="st3" d="M111.05,46.04v-3.1h0.58v3.1c0,0.85,0.55,1.47,1.3,1.47s1.3-0.62,1.3-1.47v-3.1h0.58v3.1
				c0,1.18-0.8,2.05-1.88,2.05C111.85,48.09,111.05,47.22,111.05,46.04z"/>
			<path class="st3" d="M120.78,42.85v5.16h-0.57v-3.44l-1.91,3.35h-0.01l-1.91-3.36v3.45h-0.57v-5.16h0.07l2.42,4.03l2.42-4.03
				H120.78z"/>
			<path class="st3" d="M123.42,47.1l0.44-0.32c0.23,0.43,0.75,0.72,1.29,0.72c0.66,0,1.2-0.36,1.2-0.86c0-0.57-0.73-0.84-1.37-1.09
				c-0.62-0.24-1.32-0.55-1.32-1.33c0-0.78,0.7-1.36,1.59-1.36c0.75,0,1.26,0.41,1.45,0.91l-0.43,0.29
				c-0.16-0.38-0.57-0.64-1.03-0.64c-0.54,0-1.01,0.36-1.01,0.81c0,0.49,0.56,0.67,1.21,0.92c0.76,0.31,1.48,0.66,1.48,1.47
				c0,0.87-0.81,1.44-1.78,1.44C124.31,48.08,123.66,47.65,123.42,47.1z"/>
			<path class="st3" d="M127.41,45.48c0-1.44,1.17-2.61,2.6-2.61c1.43,0,2.61,1.17,2.61,2.61c0,1.43-1.17,2.6-2.61,2.6
				C128.58,48.08,127.41,46.91,127.41,45.48z M132.04,45.48c0-1.12-0.91-2.03-2.03-2.03c-1.11,0-2.02,0.92-2.02,2.03
				c0,1.11,0.91,2.02,2.02,2.02C131.13,47.5,132.04,46.59,132.04,45.48z"/>
			<path class="st3" d="M133.15,45.48c0-1.42,1.18-2.61,2.6-2.61c0.65,0.01,1.28,0.31,1.74,0.77l-0.33,0.45
				c-0.36-0.37-0.87-0.63-1.43-0.63c-1.02,0-2,0.88-2,2.03c0,1.14,0.97,2.02,2.01,2.02c0.57,0,1.06-0.27,1.42-0.63l0.33,0.46
				c-0.42,0.42-0.99,0.75-1.74,0.75C134.35,48.08,133.15,46.92,133.15,45.48z"/>
			<path class="st3" d="M138.19,42.94h0.57v5.07h-0.57V42.94z"/>
			<path class="st3" d="M143.14,47.18h-2.77L140,48.01h-0.62l2.34-5.15h0.06l2.34,5.15h-0.62L143.14,47.18z M142.92,46.68
				l-1.16-2.61l-1.16,2.61H142.92z"/>
			<path class="st3" d="M147.8,47.44v0.57h-3.06v-5.07h0.57v4.5H147.8z"/>
			<path class="st3" d="M150.96,43.51v1.6h2.08v0.57h-2.08v1.76h2.4v0.57h-2.98v-5.07h2.98v0.56H150.96z"/>
			<path class="st3" d="M154.22,46.04v-3.1h0.58v3.1c0,0.85,0.55,1.47,1.3,1.47s1.3-0.62,1.3-1.47v-3.1h0.58v3.1
				c0,1.18-0.8,2.05-1.88,2.05C155.02,48.09,154.22,47.22,154.22,46.04z"/>
			<path class="st3" d="M161.92,48.01l-1.41-1.98h-0.95v1.98h-0.57l0-5.07h1.5c0.94,0,1.71,0.72,1.71,1.62
				c0,0.66-0.45,1.22-1.07,1.41l1.5,2.04H161.92z M160.5,45.55c0.6,0,1.1-0.46,1.1-1.01c0-0.58-0.5-1.04-1.1-1.04h-0.94v2.04
				L160.5,45.55z"/>
			<path class="st3" d="M162.95,45.48c0-1.44,1.17-2.61,2.6-2.61c1.43,0,2.61,1.17,2.61,2.61c0,1.43-1.17,2.6-2.61,2.6
				C164.13,48.08,162.95,46.91,162.95,45.48z M167.58,45.48c0-1.12-0.91-2.03-2.03-2.03c-1.11,0-2.02,0.92-2.02,2.03
				c0,1.11,0.91,2.02,2.02,2.02C166.67,47.5,167.58,46.59,167.58,45.48z"/>
			<path class="st3" d="M168.97,42.94h1.61c0.98,0,1.78,0.74,1.78,1.63c0,0.86-0.8,1.56-1.78,1.56h-1.03v1.87h-0.57V42.94z
				 M171.78,44.57c0-0.58-0.54-1.06-1.21-1.06h-1.03v2.06l1.03,0C171.24,45.58,171.78,45.13,171.78,44.57z"/>
			<path class="st3" d="M173.62,43.51v1.6h2.08v0.57h-2.08v1.76h2.4v0.57h-2.98v-5.07h2.98v0.56H173.62z M174.47,42.53h-0.43
				l0.66-1.03h0.52L174.47,42.53z"/>
			<path class="st3" d="M177.51,43.51v1.6h2.08v0.57h-2.08v1.76h2.4v0.57h-2.98v-5.07h2.98v0.56H177.51z"/>
			<path class="st3" d="M184.9,42.93v5.16h-0.03l-3.47-3.86v3.78h-0.57v-5.15h0.03l3.47,3.85v-3.79H184.9z"/>
			<path class="st3" d="M191.85,45.48c0,1.55-1.01,2.53-2.58,2.53h-1.41v-5.07l1.41,0C190.84,42.94,191.85,43.93,191.85,45.48z
				 M191.28,45.48c0-1.2-0.79-1.97-2.01-1.97h-0.84v3.93h0.85C190.49,47.44,191.28,46.67,191.28,45.48z"/>
			<path class="st3" d="M193.23,43.51v1.6h2.08v0.57h-2.08v1.76h2.41v0.57h-2.98v-5.07h2.98v0.56H193.23z"/>
			<path class="st3" d="M196.22,47.1l0.44-0.32c0.23,0.43,0.75,0.72,1.29,0.72c0.66,0,1.2-0.36,1.2-0.86c0-0.57-0.73-0.84-1.37-1.09
				c-0.62-0.24-1.32-0.55-1.32-1.33c0-0.78,0.7-1.36,1.59-1.36c0.75,0,1.26,0.41,1.45,0.91l-0.43,0.29
				c-0.16-0.38-0.57-0.64-1.03-0.64c-0.54,0-1.01,0.36-1.01,0.81c0,0.49,0.56,0.67,1.21,0.92c0.76,0.31,1.48,0.66,1.48,1.47
				c0,0.87-0.81,1.44-1.78,1.44C197.11,48.08,196.46,47.65,196.22,47.1z"/>
		</g>
	</g>
</g>
</svg>
