<?xml version="1.0" encoding="utf-8"?>
<!-- Generator: Adobe Illustrator 24.1.0, SVG Export Plug-In . SVG Version: 6.00 Build 0)  -->
<svg version="1.1" id="Layer_1" xmlns="http://www.w3.org/2000/svg" xmlns:xlink="http://www.w3.org/1999/xlink" x="0px" y="0px"
	 viewBox="0 0 200 88.78" style="enable-background:new 0 0 200 88.78;" xml:space="preserve">
<style type="text/css">
	.st0{fill:#FFFFFF;}
	.st1{enable-background:new    ;}
</style>
<g id="M">
	<path class="st0" d="M197.65,7.64V39.1h-8.27V26.74L181,38.58l0,0l-8.41-11.84V39.1h-8.28V7.64h3.33L181,26l13.33-18.36
		C194.33,7.64,197.65,7.64,197.65,7.64z"/>
</g>
<g id="E">
	<path class="st0" d="M105.56,15.55v4.35l9.9-0.08l0.05,6.9l-9.9,0.08v4.47l12-0.09l0.06,7.75l-20.21,0.15L97.32,7.91l20.21-0.15
		v7.69L105.56,15.55z"/>
</g>
<g id="S">
	<path class="st0" d="M118.47,33.82l5-4.91c1.47,2.01,3.84,3.16,6.33,3.09c1.76,0,3.48-0.63,3.48-1.91c0-1.6-3.19-3-6.25-4.37
		c-3.94-1.7-7.32-4.29-7.32-9c0-5.4,5.12-9.24,11-9.24c4.75,0,8.47,2.24,9.68,5.31l-4.77,4.61c-0.93-1.65-3.33-2.36-4.82-2.36
		c-1.7,0-2.92,0.87-2.92,1.93c0,1.43,2.21,1.89,5.57,3.31c4.88,2.05,8.11,5,8.11,9.63c0,5.93-5.54,9.63-11.78,9.63
		C124.7,39.53,120,37.26,118.47,33.82z"/>
</g>
<g id="F">
	<path class="st0" d="M151.31,15.63v5h9.9v6.97h-9.9v11.54h-8.18V7.85h20.21v7.78H151.31z"/>
</g>
<g id="Novos_dados">
	<g class="st1">
		<path class="st0" d="M104.66,79.85v1.97h-7.61V69.2h1.98v10.65H104.66z"/>
		<path class="st0" d="M106.25,69.2h1.98v12.62h-1.98V69.2z"/>
		<path class="st0" d="M109.93,79.61l1.57-1.12c0.56,0.99,1.61,1.55,2.83,1.55c1.42,0,2.49-0.68,2.49-1.64
			c0-1.17-1.66-1.87-3.13-2.5c-1.48-0.66-3.12-1.42-3.12-3.41c0-2.07,1.79-3.51,4.06-3.51c1.8,0,3.15,0.87,3.66,2.25l-1.47,1.02
			c-0.39-0.85-1.26-1.33-2.18-1.33c-1.16,0-2.08,0.72-2.08,1.61c0,0.99,1.17,1.34,2.7,2c2,0.88,3.55,1.84,3.55,3.83
			c0,2.24-1.94,3.68-4.5,3.68C112.22,82.03,110.65,81.06,109.93,79.61z"/>
		<path class="st0" d="M129.19,77.98c0,1.93-1.46,3.84-3.97,3.84h-4.72V69.2h3.44c2.18,0,3.65,1.57,3.65,3.24
			c0,1.36-0.95,2.27-1.42,2.27C127.59,74.71,129.19,76.01,129.19,77.98z M122.48,71.13v3.15l1.57-0.01c0.98,0.01,1.7-0.67,1.7-1.57
			s-0.78-1.57-1.67-1.57H122.48z M127.26,77.84c0-0.96-0.81-1.83-2.25-1.83l-2.54,0.01v3.87h2.57
			C126.18,79.89,127.26,79.06,127.26,77.84z"/>
		<path class="st0" d="M130.17,75.53c0-3.6,2.93-6.54,6.52-6.54c3.59,0,6.53,2.94,6.53,6.54c0,3.57-2.94,6.5-6.54,6.5
			C133.09,82.02,130.17,79.1,130.17,75.53z M141.21,75.51c0-2.5-2.04-4.53-4.53-4.53s-4.52,2.04-4.52,4.53
			c0,2.48,2.03,4.51,4.52,4.51S141.21,77.99,141.21,75.51z"/>
		<path class="st0" d="M155.18,69.17v12.87h-0.09l-8.07-8.43v8.23h-1.98V68.98h0.1l8.05,8.42v-8.23H155.18z"/>
		<path class="st0" d="M171.17,79.85v1.97h-9.46V81.4c5.19-4.2,7.3-6.39,7.3-7.92c0-1.42-1.16-2.48-2.36-2.48
			c-1.47,0-2.65,1.17-2.65,2.69l-1.81-0.44c0-2.37,1.96-4.24,4.4-4.24c2.47,0,4.42,2.04,4.42,4.36c0,2.18-2.22,4.65-5.08,6.47
			L171.17,79.85L171.17,79.85z"/>
		<path class="st0" d="M172.39,75.51c0-3.8,2.08-6.5,5.15-6.5s5.15,2.69,5.15,6.5c0,3.8-2.08,6.49-5.15,6.49
			S172.39,79.31,172.39,75.51z M180.7,75.51c0-2.64-1.27-4.51-3.17-4.51c-1.91,0-3.17,1.87-3.17,4.51c0,2.63,1.26,4.49,3.17,4.49
			S180.7,78.14,180.7,75.51z"/>
		<path class="st0" d="M193.37,79.85v1.97h-9.46V81.4c5.19-4.2,7.3-6.39,7.3-7.92c0-1.42-1.16-2.48-2.36-2.48
			c-1.47,0-2.65,1.17-2.65,2.69l-1.81-0.44c0-2.37,1.96-4.24,4.4-4.24c2.47,0,4.42,2.04,4.42,4.36c0,2.18-2.22,4.65-5.08,6.47
			L193.37,79.85L193.37,79.85z"/>
		<path class="st0" d="M198.27,69.08v12.74h-1.98V71.63l-1.71,0.51v-2.07l3.11-0.99H198.27z"/>
	</g>
	<g class="st1">
		<path class="st0" d="M109.53,51.89v12.85h-1.42v-8.56l-4.74,8.35h-0.02l-4.75-8.37v8.58h-1.42V51.89h0.16l6.02,10.04l6.02-10.04
			H109.53z"/>
		<path class="st0" d="M113.16,52.12h1.42v12.62h-1.42V52.12z"/>
		<path class="st0" d="M130.07,58.96c0,3.54-2.72,5.96-5.98,5.96c-3.62,0-6.54-2.91-6.54-6.47s2.92-6.49,6.48-6.49
			c1.55,0.01,3.44,0.79,4.57,1.89l-0.8,1.18c-0.98-0.97-2.51-1.65-3.78-1.65c-2.66,0-5.03,2.21-5.03,5.06
			c0,2.77,2.23,5.03,5.14,5.03c2.47,0,4.41-1.65,4.41-3.88c0-0.09,0-0.18-0.01-0.25H124v-1.28h6
			C130.03,58.26,130.07,58.6,130.07,58.96z"/>
		<path class="st0" d="M140.34,64.74l-3.52-4.92h-2.36v4.92h-1.42l-0.01-12.62h3.73c2.34,0,4.25,1.8,4.25,4.02
			c0,1.64-1.12,3.04-2.65,3.51l3.75,5.09H140.34z M136.8,58.62c1.5,0,2.74-1.14,2.74-2.5c0-1.46-1.25-2.58-2.74-2.58h-2.35v5.08
			L136.8,58.62z"/>
	</g>
	<g class="st1">
		<path class="st0" d="M153.01,62.67h-6.89l-0.92,2.07h-1.54l5.83-12.81h0.16l5.84,12.81h-1.55L153.01,62.67z M152.46,61.43
			l-2.89-6.49l-2.9,6.49H152.46z"/>
	</g>
	<g class="st1">
		<path class="st0" d="M164.29,53.53h-3.66v11.21h-1.42V53.53h-3.67v-1.41h8.75V53.53z"/>
		<path class="st0" d="M166.99,52.12h1.42v12.62h-1.42V52.12z"/>
		<path class="st0" d="M171.37,58.44c0-3.58,2.92-6.5,6.48-6.5c3.57,0,6.49,2.92,6.49,6.5c0,3.55-2.92,6.47-6.5,6.47
			C174.29,64.9,171.37,61.99,171.37,58.44z M182.9,58.43c0-2.78-2.27-5.06-5.06-5.06c-2.77,0-5.03,2.28-5.03,5.06
			c0,2.77,2.26,5.03,5.03,5.03C180.63,63.46,182.9,61.2,182.9,58.43z"/>
		<path class="st0" d="M197.46,52.09v12.84h-0.07l-8.65-9.6v9.42h-1.42V51.93h0.08l8.64,9.6V52.1L197.46,52.09L197.46,52.09z"/>
	</g>
	<g class="st1">
		<path class="st0" d="M97.7,43.23v1.6h2.07v0.57H97.7v1.75h2.39v0.57h-2.96v-5.04h2.96v0.56L97.7,43.23L97.7,43.23z"/>
		<path class="st0" d="M100.94,45.75v-3.08h0.57v3.08c0,0.85,0.55,1.46,1.3,1.46c0.74,0,1.29-0.62,1.29-1.46v-3.08h0.57v3.08
			c0,1.18-0.79,2.04-1.87,2.04C101.74,47.79,100.94,46.93,100.94,45.75z"/>
		<path class="st0" d="M108.6,47.71l-1.41-1.97h-0.94v1.97h-0.57v-5.04h1.49c0.94,0,1.7,0.72,1.7,1.61c0,0.65-0.45,1.22-1.06,1.4
			l1.5,2.03H108.6z M107.19,45.26c0.6,0,1.09-0.46,1.09-1c0-0.58-0.5-1.03-1.09-1.03h-0.94v2.03H107.19z"/>
		<path class="st0" d="M109.62,45.19c0-1.43,1.17-2.6,2.59-2.6c1.43,0,2.59,1.17,2.59,2.6c0,1.42-1.17,2.58-2.6,2.58
			C110.79,47.78,109.62,46.61,109.62,45.19z M114.23,45.19c0-1.11-0.91-2.02-2.02-2.02c-1.11,0-2.01,0.91-2.01,2.02
			s0.9,2.01,2.01,2.01C113.32,47.2,114.23,46.3,114.23,45.19z"/>
		<path class="st0" d="M115.6,42.67h1.6c0.98,0,1.77,0.73,1.77,1.63c0,0.86-0.8,1.55-1.77,1.55h-1.03v1.86h-0.57V42.67z
			 M118.4,44.29c0-0.58-0.54-1.06-1.2-1.06h-1.03v2.06h1.03C117.86,45.29,118.4,44.84,118.4,44.29z"/>
		<path class="st0" d="M120.23,43.23v1.6h2.07v0.57h-2.07v1.75h2.39v0.57h-2.96v-5.04h2.96v0.56L120.23,43.23L120.23,43.23z"/>
		<path class="st0" d="M126.81,46.88h-2.75l-0.37,0.83h-0.62l2.33-5.12h0.06l2.33,5.12h-0.62L126.81,46.88z M126.59,46.39
			l-1.15-2.59l-1.16,2.59H126.59z"/>
		<path class="st0" d="M132.45,42.66v5.13h-0.03l-3.46-3.84v3.77h-0.57v-5.13h0.03l3.45,3.84v-3.77H132.45z"/>
		<path class="st0" d="M135.07,46.81l0.44-0.32c0.23,0.43,0.74,0.72,1.28,0.72c0.66,0,1.2-0.36,1.2-0.85c0-0.57-0.72-0.84-1.37-1.08
			c-0.62-0.24-1.31-0.54-1.31-1.32s0.7-1.35,1.58-1.35c0.75,0,1.26,0.41,1.45,0.91l-0.43,0.29c-0.16-0.38-0.57-0.63-1.02-0.63
			c-0.54,0-1,0.36-1,0.81c0,0.49,0.55,0.67,1.2,0.92c0.76,0.31,1.47,0.66,1.47,1.47c0,0.87-0.8,1.44-1.77,1.44
			C135.95,47.78,135.31,47.35,135.07,46.81z"/>
		<path class="st0" d="M139.03,45.19c0-1.43,1.17-2.6,2.59-2.6c1.43,0,2.59,1.17,2.59,2.6c0,1.42-1.17,2.58-2.6,2.58
			C140.2,47.78,139.03,46.61,139.03,45.19z M143.64,45.19c0-1.11-0.91-2.02-2.02-2.02s-2.01,0.91-2.01,2.02s0.9,2.01,2.01,2.01
			C142.73,47.2,143.64,46.3,143.64,45.19z"/>
		<path class="st0" d="M144.74,45.19c0-1.42,1.18-2.6,2.59-2.6c0.65,0.01,1.28,0.3,1.73,0.76l-0.33,0.45
			c-0.36-0.37-0.87-0.63-1.42-0.63c-1.01,0-1.99,0.88-1.99,2.02s0.97,2.01,2,2.01c0.57,0,1.05-0.27,1.42-0.63l0.33,0.46
			c-0.42,0.42-0.99,0.74-1.73,0.74C145.93,47.78,144.74,46.62,144.74,45.19z"/>
		<path class="st0" d="M149.75,42.67h0.57v5.04h-0.57V42.67z"/>
		<path class="st0" d="M154.67,46.88h-2.75l-0.37,0.83h-0.62l2.33-5.12h0.06l2.33,5.12h-0.62L154.67,46.88z M154.45,46.39
			l-1.15-2.59l-1.16,2.59H154.45z"/>
		<path class="st0" d="M159.3,47.14v0.57h-3.04v-5.04h0.57v4.48L159.3,47.14L159.3,47.14z"/>
	</g>
	<g class="st1">
		<path class="st0" d="M162.47,43.22v1.68h2.07v0.57h-2.07v2.25h-0.57v-5.06h2.96v0.57L162.47,43.22L162.47,43.22z"/>
	</g>
	<g class="st1">
		<path class="st0" d="M165.18,45.19c0-1.43,1.17-2.6,2.59-2.6c1.43,0,2.59,1.17,2.59,2.6c0,1.42-1.17,2.58-2.6,2.58
			C166.34,47.78,165.18,46.61,165.18,45.19z M169.78,45.19c0-1.11-0.91-2.02-2.02-2.02s-2.01,0.91-2.01,2.02s0.9,2.01,2.01,2.01
			C168.88,47.2,169.78,46.3,169.78,45.19z"/>
	</g>
	<g class="st1">
		<path class="st0" d="M174.08,47.71l-1.41-1.97h-0.94v1.97h-0.57v-5.04h1.49c0.94,0,1.7,0.72,1.7,1.61c0,0.65-0.45,1.22-1.06,1.4
			l1.5,2.03H174.08z M172.67,45.26c0.6,0,1.09-0.46,1.09-1c0-0.58-0.5-1.03-1.09-1.03h-0.94v2.03H172.67z"/>
	</g>
	<g class="st1">
		<path class="st0" d="M175.13,45.75v-3.08h0.57v3.08c0,0.85,0.55,1.46,1.29,1.46s1.29-0.62,1.29-1.46v-3.08h0.57v3.08
			c0,1.18-0.79,2.04-1.87,2.04C175.93,47.79,175.13,46.93,175.13,45.75z"/>
		<path class="st0" d="M184.81,42.57v5.14h-0.57v-3.42l-1.9,3.34h-0.01l-1.9-3.34v3.43h-0.57v-5.14h0.07l2.41,4.01l2.41-4.01h0.06
			V42.57z"/>
		<path class="st0" d="M187.48,45.19c0-1.43,1.17-2.6,2.59-2.6c1.43,0,2.59,1.17,2.59,2.6c0,1.42-1.17,2.58-2.6,2.58
			C188.64,47.78,187.48,46.61,187.48,45.19z M192.08,45.19c0-1.11-0.91-2.02-2.02-2.02s-2.01,0.91-2.01,2.02s0.9,2.01,2.01,2.01
			C191.18,47.2,192.08,46.3,192.08,45.19z"/>
		<path class="st0" d="M197.5,42.66v5.13h-0.03l-3.46-3.84v3.77h-0.57v-5.13h0.03l3.45,3.84v-3.77H197.5z"/>
	</g>
</g>
<path class="st0" d="M44.91,0.68c-5.07,0-10.1,0.87-14.88,2.57l1.78-0.54v0.85l0.44,0.54v0.77l0.48,0.63l0.78,0.45l0.54,0.39
	l0.63,0.69l1.62,0.23l0.92,0.46l0.63,0.92l0.92,0.39l0.92-0.39l0.31,1.32l-0.85,0.77l-0.92-0.08l-1.47,0.08l-1,0.3l-1.27,1.01
	l-1.39,0.54l-0.08,0.63l0.63,0.77l0.69,0.23l0.54,0.31l0.47,0.77l0.39,0.69v1.83l0.54,0.77h0.77l0.39-0.77l0.77-0.93L39,16.05
	l0.29-0.82l0.39-1.54l0.31-0.85l1.27-0.39l0.63-0.46l2.07,0.15l1.01,0.63v1.39l0.92,0.54l0.7,0.85l0.82,1.23h0.49l0.77-0.69
	l0.34-0.87l0.85-1.16l1.01-0.39l1.39-0.63l0.46-0.63l1.06-0.23l0.39,0.7v2.53L55,15.73l0.46,0.39l0.31,1.31l1.08,0.63h1.03
	l0.46,1.01l-0.39,1.16v0.63l-0.85,1l0.15,0.63v0.85l1.08,0.63l1,0.08h0.54l1.08,0.23l0.85,0.63l1.01,1v0.47l2.01,0.85l1.08,1.08
	l0.46,1.08v1.16l-1,0.23l1,1.16l-0.38,0.85l-1.16,0.39l-0.39-0.63l-0.77,0.77l-0.63-0.31l-0.46-0.85l-0.39-0.46l-1.08,0.38
	l-0.42,0.06l0.35,0.83v1l-0.42,0.7l-0.42,0.63l0.85,0.63l0.16,1.7l0.63,1l0.39,0.54l1.31-0.08l1.7-0.7l0.63,1.39l0.23,0.63h1.54
	l0.23,1.08l1.31-0.31l0.39,1.27l0.92,0.77v2.62l-0.15,2.32l-0.46,2.78l-0.08,2.23l-0.31,2.7l-0.46,1.46l0.54,1.16l1.62-0.54
	l1.16,0.69v0.93l-1.31,1.85l-1.44,1.39l-1.27,2.01l-1.85,1.61l-1.39,1.01l-1.82,1.16l-1.9,1.27l-0.77,1l-0.92,0.39l-4.09,1.9
	l-2.08,0.46l-2.26,0.77l-2.01,0.85l-1.54,0.63l-1.9,0.3l-1.31,0.93l-1.39-0.85h-4.03l-0.92-0.77l-0.39-1.54l0.46-1.77l0.08-1.16
	l0.77-1.16l0.69-1.01l0.31-1.7l0.23-0.77l0.92-1.46l0.7-1.56L43.3,62l1.08-0.31l1.27-0.85l0.42-1.08l-0.04-1.62v-1.38l0.08-2.08
	l1.54-2.32l0.2-0.92l-0.68-0.84l-0.79-0.94l-0.88-1.3l-1.01-1.16l-2.47-0.46l-0.9-0.7h-1.9l-0.23,0.23h0.71l0.9,0.7l2.47,0.46
	l1,1.16l0.54,0.92l0.7,0.77l1.13,1.39v0.58l-0.63,1.01l-0.63,0.92l-0.49,0.73l-0.03,0.77v0.93v1.77l0.04,0.92v1.02l-0.82,1.01
	l-1.51,0.77l-1.53,1.13l-0.99,1.84l-0.93,1.47l-0.54,2.47l-0.89,1.27l-0.97,1.03l-1.7,0.92l-1.31,1.25l-0.54,1.16v1.23l0.54,0.71
	l0.08-0.82l0.4-0.88l1.32-1.27l1.9-0.92l0.08,1l-0.15,0.77l-0.31,0.7l0.16,1.08l0.23,1.01l0.63,0.39l1.31,0.08l1.54-0.08h0.85
	l0.83,0.22l0.3,0.46l0.85,0.32l0.76-0.54l0.78-0.46l1.7-0.23l1.94-0.8l1.62-0.77l1.31-0.46l2.32-0.46l1.47-0.77l1.3-0.7l1.31-0.46
	l1.47-0.16h3l0.54-0.39l0.77,0.39v1.08h1.16l1,0.39l0.39,0.69h1.9v1.85l-0.92,1.31l-1.16,0.54l-1.31,1.15l-0.97,0.76l-1.39,0.77
	l-2.08,1.31l-0.92,0.63l-2.16,0.85l-2.47,0.92h-2.23l-1.47,0.46h-4.93l-1.27-0.69h-1.95l-1.85-0.39l-1.39-0.46l-1.54-0.08
	l-1.27-0.23l-1.16-0.54l-0.93-0.69L34.5,82.1v-1.74l-0.35-2.17l-0.46-0.63v0.31l0.38,1.08v1.73h-1.33l-0.54-0.73l-0.87-0.7
	l-0.83-1.08l-0.92-0.92l-0.77-0.92l-0.85-1.85l-0.54-1.39l-0.22-0.92l-0.23-1.23l-0.39-1.39l-0.46-1.7l-0.31-1.08l-0.08-1.62
	l-0.08-1.27v-0.96l-0.39-1.39l-0.23-0.92l-0.46-0.39l-0.46-0.4l-0.71-0.36l-0.69-0.54l-0.92-0.46l-1-1.16l-1.18-1l-0.63-2.08
	l-0.5-1.03l-1-0.96l-0.15-0.58h-0.54l-0.54-1.08v-2.83l0.46-1l0.31-0.77l0.7-0.31v-1.62l0.46-0.63l0.08-0.85l-0.54-0.37v-0.63
	l0.77-1.27l0.63-0.54l1.93-0.84h1.61l1.61,0.46l0.93,0.08l1.7-0.54h1.39l1.32,1.39l1.15,0.63l0.77,1.51h3.92l1.9,1.08l0.27,0.7
	l-0.84,0.13l-0.85,0.73l0.15,1.83l0.77,0.39l0.63-0.63l0,0l-0.14-1.8l0.85-0.73l0.84-0.15l-0.27-0.51l-1.2-0.89l-0.7-0.39l-0.63-1.7
	l0.39-1.39l0.63-0.63v-0.99l-0.31-0.63v-0.99l0.63-1.01l1.27-0.92l0.7-0.54l0.32-1.23l0.54-0.73l1.16-0.81l2.16-1.16l2.7-0.15
	l1.46,0.08l0.63-1.47l1.54-0.15l1.77-0.08L52.5,27l1.15,0.79l-0.06-0.33l-0.46-0.92l-1.08-0.7l-1,0.71l-1.47,0.06l-1.15,0.08
	l-0.63,0.63l-0.2,0.47l-0.19,0.45l-1.27-0.08h-1.44l-1.15,0.08l-0.53,0.15l-1.7,1.08l-1.4,0.81l-0.54,0.73l-0.28,0.92l-0.34,0.5
	l-0.88,0.68l-1.01,0.92l-0.42,1.14l0.14,0.82l0.17,0.8v0.54l-0.7,0.97l-0.28,1.04l0.63,1.7l-1.08,0.15l-1.32-0.23l-1.54,0.08
	l-0.63-1.54l-1.31-0.54l-1.23-1.16l-1.47-0.23l-1.7,0.54l-1.93-0.3l-2.26-0.23l-1.31,0.54l-1.03,0.46l-0.8,1.34h-1.64l-1.08,0.51H15
	v-5.31l-0.7-0.31l0.7-1.21l-0.15-0.46l-0.54-0.7V30.7l0.54-1.31l-0.54-0.7v-1l0.7-1.08l0.31-1.77l0.85-1.23l-0.46-1.16l-0.31-1.53
	l0.23-1l0.93-1.23l1.15-1.4l1.62-1.23l0.54-1.01l0.7-0.7l1-1.62l0.92-1.23l0.85-1.33l1.9-1.7V7.49l0.39-1.01h0.63l0.32-0.92
	l0.04-0.91l1.35-0.63C5.33,13.34-5.44,39.22,3.87,61.84s35.2,33.39,57.82,24.07s33.39-35.2,24.07-57.82
	C78.94,11.53,62.81,0.72,44.91,0.68z M53.89,10.65l-0.72,0.15l-1.09,0.89l-1.27,0.54l-0.76,0.58l-0.77,1.16l-0.53,0.75l-0.94,0.39
	l-1.13-0.51l-0.63-0.85l-0.77-0.46l0.08-0.77v-1.4l-0.84-0.51l-0.17-0.49l-1,0.63l-1.08,0.23l-0.63,0.54l-1.3-0.08l1.02-1.11
	l1.15-0.54l0.92-0.39L43.3,7.7l-0.39-0.54l-1.08-0.31l-1.04,0.08l-1.12,0.08h-1.09l-0.75-0.67l-0.7-0.46l-0.54-0.23L35.2,5.8V4.41
	l1.01-0.7h0.69l0.47,0.31l0.92,0.7l0.54,0.63l0.54,0.23h0.39l1.99-0.87l0.77,0.46h1.01l0.84-0.77l0.08-0.7h1.23l0.85,0.63l0.91,0.45
	l1.16,0.23l0.63-0.63l1.15-0.7h1.17l-0.23,1.09l1,0.77l0.85,0.63v1.62l0.72,1.09V10.65z M71.6,56.91l-0.73,0.25l-0.73-1.09l0.3-0.54
	v-1.58l0.39-1.34l0.13-1.27v-0.9l0.11-1.27l0.24-1.44l0.16-1.2l0.13-1.04v-3.35l0.12-0.38l0.58-0.23l0.63-0.46l0.51-0.63v-0.91
	l0.9-0.63h0.63l0.47,0.89l0.77,0.15l0.54,0.5l0.39,0.81l0.46,0.89l0.19,0.81l0.04,0.63l0.12,0.84v0.73l-0.31,1.08l-0.85,0.7
	l-0.23,0.5v0.93l-0.02,1.05l0.11,1l-0.27,1.2h0.39l0.3,0.31l0.77-0.04l0.42,0.46l0.31,0.46v1.51l-0.46,0.27l-0.32,0.85l-0.39-0.1
	l-0.63,0.36l-0.35,0.44l-0.22-0.08l-0.63,0.31l-0.84-0.06l-0.63,0.06v0.28l-0.86-0.08l-0.63,0.09L71.6,56.91z M77.42,64.09l-0.3,0.7
	l-0.31,0.73l-0.39,0.54l-0.54,0.54l-0.45,0.92l-0.71,1.04l-0.42,0.42l-0.2,0.73l-0.39,0.81l-0.27,0.73l-0.93,1.54l-0.31,0.77
	l-0.5,1.08l-0.35,0.54l-0.46,0.73h-0.39l-0.16-0.35v-1.31h-1.7l-0.63-0.7l-0.63-0.24l-0.37-0.15h-1.16V72.1l-0.85-0.58l-0.7,0.58
	h-2.75l-0.99,0.11l1.3-0.68l0.45-0.59l0.51-0.37l0.81-0.63l0.85-0.58l0.96-0.47l0.58-0.34l1.35-1.12l0.92-0.77l1.08-0.96l0.31-0.46
	l0.46-0.85l0.67-0.84l0.77-0.77l0.58-0.97l0.71-0.7l0.52-0.23l0.46-0.19l0.46,0.19l0.85,0.58l0.31,0.47h0.63l0.63,0.27h0.39v0.48
	l0.27,0.85L77.42,64.09z M78.6,58.39l-0.13,1.27l-0.58,1.27v0.46l-0.27,0.31l-0.74-0.33l-0.53-0.09l-0.48-0.2l-1.02-0.85h-0.92
	l-0.22-0.19v-1.16l-0.32-0.44l-0.63-0.37l1.39-0.19l0.69,0.19l0.08-0.35l1.78-0.3l0.42,0.15l0.19-0.63l1.16-0.42l0.27,0.81
	L78.6,58.39z M78.23,19.84l-0.46-0.31l-0.54-0.85l-0.46-0.54l-1.01-1.08l-0.63-1.16l-0.79-0.23v2.23l0.48,1.08l-0.48,0.08l-0.9-0.46
	l-1.39-0.08l-0.46,1.23l-0.46,0.54l-1-0.16l-0.46-0.92l-0.54-0.92l-0.77-0.46l-1-0.31l-1.23,0.46l0.23,1.47v1.39l-0.85-0.23l-1,0.15
	l-1.16,0.89l-0.15,1.12l0.77,0.77l0.69,0.54l0.16,1.08l-0.39,1.16l-0.58-1.04l-1.27-1.04L61.49,24l-1.9-0.26l-0.76-0.44l-0.15-1.47
	l0.47-0.56l0.37-0.75l0.28-1.15l0.11-0.31l-0.97-1.02l-0.94-0.29l-0.59-0.34l-0.22-0.89l-0.56-0.8l-0.85-0.85l-0.39-0.85l0.39-1.16
	l-0.39-0.7l0.39-1.46l0.23-1.27l1.16-1.47l1.01-0.34l1.77,0.08l0.92,0.08V5.11L59.8,4.72l-0.92-0.63l-0.63-0.08l-0.63-0.54
	L56.54,3.4l-1.13-0.46h-0.7l-0.39-0.08V2.09h1.08l1.46,0.54l1.27,0.31l1.54,0.46l1.9,0.77l1.08,0.69l1.7,0.87l1.63,1.08l2,1.31
	l1.61,0.98l0.92,1l1.54,1.08l1.39,1.54l1.54,1.47l1.63,1.47l1.23,1.39l0.75,1.34l0.97,1.01L79,20.16L78.23,19.84z"/>
<path class="st0" d="M29.34,3.5l0.46-0.17L29.34,3.5z"/>
<polygon class="st0" points="57.25,29.7 58.72,30.86 59.42,31.86 60.5,31.86 60.15,30.7 58.87,30.47 58.03,29.54 57.03,28.62 
	55.48,28.54 53.97,28.89 54.17,29.7 55.94,29.7 "/>
</svg>
