<?xml version="1.0" encoding="utf-8"?>
<!-- Generator: Adobe Illustrator 24.1.0, SVG Export Plug-In . SVG Version: 6.00 Build 0)  -->
<svg version="1.1" id="Layer_1" xmlns="http://www.w3.org/2000/svg" xmlns:xlink="http://www.w3.org/1999/xlink" x="0px" y="0px"
	 viewBox="0 0 200 89.35" style="enable-background:new 0 0 200 89.35;" xml:space="preserve">
<style type="text/css">
	.st0{fill:#FFFFFF;}
	.st1{enable-background:new    ;}
</style>
<g id="M">
	<path class="st0" d="M198.91,7.69v31.66h-8.33V26.91l-8.45,11.91l0,0l-8.47-11.91v12.44h-8.33V7.69h3.35l13.42,18.45l13.46-18.45
		C195.56,7.69,198.91,7.69,198.91,7.69z"/>
</g>
<g id="E">
	<path class="st0" d="M151.09,15.64v4.38l10-0.07v6.94l-10,0.08v4.49l12.11-0.09l0.05,7.81L143,39.33L142.8,8l20.34-0.15l0.06,7.74
		L151.09,15.64z"/>
</g>
<g id="S">
	<path class="st0" d="M118.58,34l5-4.95c1.49,2.01,3.87,3.17,6.37,3.1c1.77,0,3.5-0.64,3.5-1.93c0-1.61-3.21-3-6.29-4.4
		c-4-1.71-7.37-4.32-7.37-9c0-5.42,5.16-9.3,11.11-9.3c4.79,0,8.52,2.26,9.75,5.35l-4.81,4.64c-0.93-1.66-3.35-2.38-4.84-2.38
		c-1.72,0-2.94,0.88-2.94,2c0,1.44,2.22,1.9,5.6,3.33c4.91,2.06,8.16,5.06,8.16,9.69c0,6-5.57,9.69-11.85,9.69
		C124.85,39.78,120.16,37.5,118.58,34z"/>
</g>
<g id="F">
	<path class="st0" d="M106.29,15.73v5.07h10v7h-10v11.59h-8.23V7.9h20.33v7.83H106.29z"/>
</g>
<g id="Novos_dados">
	<g class="st1">
		<path class="st0" d="M104.17,80.61v1.73h-6.66V71.3h1.73v9.32h4.93V80.61z"/>
		<path class="st0" d="M105,71.3h1.73v11.04H105V71.3z"/>
		<path class="st0" d="M107.66,80.4l1.37-0.98c0.49,0.86,1.41,1.36,2.47,1.36c1.24,0,2.18-0.6,2.18-1.44c0-1.02-1.45-1.64-2.74-2.19
			c-1.29-0.58-2.73-1.25-2.73-2.98c0-1.81,1.57-3.07,3.56-3.07c1.58,0,2.75,0.76,3.21,1.97l-1.29,0.89c-0.34-0.75-1.1-1.17-1.9-1.17
			c-1.01,0-1.82,0.63-1.82,1.41c0,0.86,1.02,1.17,2.36,1.75c1.75,0.77,3.1,1.61,3.1,3.35c0,1.96-1.7,3.22-3.94,3.22
			C109.67,82.52,108.29,81.67,107.66,80.4z"/>
		<path class="st0" d="M123.96,78.98c0,1.69-1.28,3.36-3.47,3.36h-4.13V71.3h3.01c1.9,0,3.19,1.37,3.19,2.84
			c0,1.19-0.83,1.99-1.24,1.99C122.56,76.12,123.96,77.26,123.96,78.98z M118.08,72.98v2.75l1.37-0.01
			c0.86,0.01,1.49-0.58,1.49-1.37s-0.68-1.38-1.47-1.38h-1.39V72.98z M122.26,78.86c0-0.84-0.71-1.6-1.97-1.6l-2.22,0.01v3.38h2.25
			C121.32,80.65,122.26,79.93,122.26,78.86z"/>
		<path class="st0" d="M124.25,76.83c0-3.15,2.56-5.73,5.71-5.73c3.14,0,5.71,2.58,5.71,5.73c0,3.12-2.58,5.69-5.72,5.69
			C126.81,82.52,124.25,79.96,124.25,76.83z M133.92,76.82c0-2.19-1.79-3.97-3.97-3.97c-2.18,0-3.95,1.78-3.95,3.97
			c0,2.17,1.78,3.95,3.95,3.95C132.13,80.76,133.92,78.99,133.92,76.82z"/>
		<path class="st0" d="M145.59,71.27v11.26h-0.08l-7.06-7.38v7.2h-1.73V71.1h0.09l7.05,7.37v-7.2
			C143.86,71.27,145.59,71.27,145.59,71.27z"/>
		<path class="st0" d="M156.03,71.27v11.26h-0.08l-7.06-7.38v7.2h-1.73V71.1h0.09l7.05,7.37v-7.2
			C154.3,71.27,156.03,71.27,156.03,71.27z"/>
		<path class="st0" d="M159.34,73v2.83h4.18v1.73h-4.18v3.06h4.84v1.73h-6.58V71.3h6.58V73H159.34z"/>
		<path class="st0" d="M176.73,80.61v1.73h-8.28v-0.37c4.54-3.68,6.39-5.59,6.39-6.93c0-1.25-1.01-2.17-2.07-2.17
			c-1.29,0-2.32,1.03-2.32,2.36l-1.58-0.38c0-2.08,1.72-3.71,3.85-3.71c2.17,0,3.86,1.78,3.86,3.82c0,1.91-1.95,4.07-4.45,5.67h4.6
			V80.61z"/>
		<path class="st0" d="M177.23,76.82c0-3.33,1.82-5.69,4.51-5.69s4.51,2.36,4.51,5.69c0,3.32-1.82,5.68-4.51,5.68
			S177.23,80.14,177.23,76.82z M184.51,76.82c0-2.31-1.11-3.95-2.77-3.95c-1.67,0-2.78,1.64-2.78,3.95c0,2.3,1.1,3.93,2.78,3.93
			C183.4,80.75,184.51,79.12,184.51,76.82z"/>
		<path class="st0" d="M195.03,80.61v1.73h-8.28v-0.37c4.54-3.68,6.39-5.59,6.39-6.93c0-1.25-1.01-2.17-2.07-2.17
			c-1.29,0-2.32,1.03-2.32,2.36l-1.58-0.38c0-2.08,1.72-3.71,3.85-3.71c2.17,0,3.86,1.78,3.86,3.82c0,1.91-1.95,4.07-4.45,5.67h4.6
			V80.61z"/>
		<path class="st0" d="M198.76,71.19v11.15h-1.73v-8.92l-1.49,0.45v-1.81l2.72-0.86h0.5V71.19z"/>
	</g>
	<g class="st1">
		<path class="st0" d="M110.22,52.22v12.93h-1.43v-8.61l-4.77,8.4H104l-4.78-8.42v8.63h-1.43V52.22h0.17l6.05,10.09l6.05-10.09
			H110.22z"/>
		<path class="st0" d="M112.59,52.46h1.43v12.69h-1.43V52.46z"/>
		<path class="st0" d="M128.3,59.33c0,3.56-2.74,5.99-6.02,5.99c-3.65,0-6.57-2.93-6.57-6.51s2.94-6.53,6.52-6.53
			c1.56,0.01,3.46,0.79,4.6,1.91l-0.8,1.19c-0.98-0.98-2.53-1.66-3.8-1.66c-2.68,0-5.05,2.22-5.05,5.09c0,2.79,2.24,5.06,5.17,5.06
			c2.48,0,4.43-1.66,4.43-3.91c0-0.09,0-0.18-0.01-0.25h-4.55v-1.29h6.03C128.27,58.63,128.3,58.97,128.3,59.33z"/>
		<path class="st0" d="M137.35,65.15l-3.54-4.95h-2.37v4.95h-1.43L130,52.46h3.75c2.35,0,4.28,1.81,4.28,4.05
			c0,1.65-1.13,3.06-2.67,3.53l3.77,5.12L137.35,65.15L137.35,65.15z M133.79,58.99c1.51,0,2.75-1.15,2.75-2.52
			c0-1.46-1.26-2.6-2.75-2.6h-2.36v5.11L133.79,58.99z"/>
	</g>
	<g class="st1">
		<path class="st0" d="M148.87,63.06h-6.93l-0.93,2.09h-1.55l5.87-12.89h0.16l5.87,12.89h-1.56L148.87,63.06z M148.32,61.82
			l-2.91-6.53l-2.91,6.53H148.32z"/>
	</g>
	<g class="st1">
		<path class="st0" d="M158.95,53.88h-3.68v11.28h-1.43V53.88h-3.69v-1.42h8.8L158.95,53.88L158.95,53.88z"/>
		<path class="st0" d="M160.38,52.46h1.43v12.69h-1.43V52.46z"/>
		<path class="st0" d="M163.5,58.81c0-3.6,2.94-6.54,6.52-6.54c3.59,0,6.53,2.94,6.53,6.54c0,3.57-2.94,6.5-6.54,6.5
			C166.44,65.32,163.5,62.39,163.5,58.81z M175.1,58.8c0-2.8-2.28-5.09-5.09-5.09c-2.79,0-5.06,2.29-5.06,5.09
			c0,2.79,2.28,5.06,5.06,5.06C172.82,63.87,175.1,61.59,175.1,58.8z"/>
		<path class="st0" d="M188.45,52.43v12.92h-0.07l-8.7-9.66v9.48h-1.43v-12.9h0.08l8.69,9.65v-9.49H188.45z"/>
		<path class="st0" d="M190.01,62.88l1.1-0.81c0.58,1.09,1.87,1.81,3.22,1.81c1.66,0,3.02-0.9,3.02-2.15c0-1.42-1.82-2.11-3.44-2.72
			c-1.56-0.61-3.3-1.37-3.3-3.33c0-1.95,1.76-3.41,3.98-3.41c1.88,0,3.17,1.03,3.64,2.28l-1.08,0.72c-0.41-0.95-1.43-1.6-2.58-1.6
			c-1.36,0-2.53,0.9-2.53,2.03c0,1.23,1.39,1.68,3.03,2.31c1.91,0.77,3.71,1.65,3.71,3.69c0,2.19-2.02,3.61-4.46,3.61
			C192.24,65.32,190.62,64.24,190.01,62.88z"/>
	</g>
	<g class="st1">
		<path class="st0" d="M98.32,43.5v1.69h2.08v0.57h-2.08v2.26h-0.57v-5.09h2.98v0.57C100.73,43.5,98.32,43.5,98.32,43.5z"/>
	</g>
	<g class="st1">
		<path class="st0" d="M101.05,45.48c0-1.44,1.17-2.61,2.6-2.61s2.61,1.17,2.61,2.61c0,1.43-1.17,2.6-2.61,2.6
			C102.22,48.08,101.05,46.91,101.05,45.48z M105.68,45.48c0-1.12-0.91-2.03-2.03-2.03c-1.11,0-2.02,0.92-2.02,2.03
			s0.91,2.02,2.02,2.02C104.77,47.5,105.68,46.59,105.68,45.48z"/>
	</g>
	<g class="st1">
		<path class="st0" d="M110,48.01l-1.41-1.98h-0.95v1.98h-0.57v-5.07h1.5c0.94,0,1.71,0.72,1.71,1.62c0,0.66-0.45,1.22-1.07,1.41
			l1.5,2.04H110z M108.58,45.55c0.6,0,1.1-0.46,1.1-1.01c0-0.58-0.5-1.04-1.1-1.04h-0.94v2.04L108.58,45.55z"/>
	</g>
	<g class="st1">
		<path class="st0" d="M111.05,46.04v-3.1h0.58v3.1c0,0.85,0.55,1.47,1.3,1.47s1.3-0.62,1.3-1.47v-3.1h0.58v3.1
			c0,1.18-0.8,2.05-1.88,2.05C111.85,48.09,111.05,47.22,111.05,46.04z"/>
		<path class="st0" d="M120.78,42.85v5.16h-0.57v-3.44l-1.91,3.35h-0.01l-1.91-3.36v3.45h-0.57v-5.16h0.07l2.42,4.03l2.42-4.03
			H120.78z"/>
		<path class="st0" d="M123.42,47.1l0.44-0.32c0.23,0.43,0.75,0.72,1.29,0.72c0.66,0,1.2-0.36,1.2-0.86c0-0.57-0.73-0.84-1.37-1.09
			c-0.62-0.24-1.32-0.55-1.32-1.33c0-0.78,0.7-1.36,1.59-1.36c0.75,0,1.26,0.41,1.45,0.91l-0.43,0.29
			c-0.16-0.38-0.57-0.64-1.03-0.64c-0.54,0-1.01,0.36-1.01,0.81c0,0.49,0.56,0.67,1.21,0.92c0.76,0.31,1.48,0.66,1.48,1.47
			c0,0.87-0.81,1.44-1.78,1.44C124.31,48.08,123.66,47.65,123.42,47.1z"/>
		<path class="st0" d="M127.41,45.48c0-1.44,1.17-2.61,2.6-2.61c1.43,0,2.61,1.17,2.61,2.61c0,1.43-1.17,2.6-2.61,2.6
			C128.58,48.08,127.41,46.91,127.41,45.48z M132.04,45.48c0-1.12-0.91-2.03-2.03-2.03c-1.11,0-2.02,0.92-2.02,2.03
			s0.91,2.02,2.02,2.02C131.13,47.5,132.04,46.59,132.04,45.48z"/>
		<path class="st0" d="M133.15,45.48c0-1.42,1.18-2.61,2.6-2.61c0.65,0.01,1.28,0.31,1.74,0.77l-0.33,0.45
			c-0.36-0.37-0.87-0.63-1.43-0.63c-1.02,0-2,0.88-2,2.03c0,1.14,0.97,2.02,2.01,2.02c0.57,0,1.06-0.27,1.42-0.63l0.33,0.46
			c-0.42,0.42-0.99,0.75-1.74,0.75C134.35,48.08,133.15,46.92,133.15,45.48z"/>
		<path class="st0" d="M138.19,42.94h0.57v5.07h-0.57V42.94z"/>
		<path class="st0" d="M143.14,47.18h-2.77L140,48.01h-0.62l2.34-5.15h0.06l2.34,5.15h-0.62L143.14,47.18z M142.92,46.68l-1.16-2.61
			l-1.16,2.61H142.92z"/>
		<path class="st0" d="M147.8,47.44v0.57h-3.06v-5.07h0.57v4.5H147.8z"/>
		<path class="st0" d="M150.96,43.51v1.6h2.08v0.57h-2.08v1.76h2.4v0.57h-2.98v-5.07h2.98v0.56h-2.4V43.51z"/>
		<path class="st0" d="M154.22,46.04v-3.1h0.58v3.1c0,0.85,0.55,1.47,1.3,1.47s1.3-0.62,1.3-1.47v-3.1h0.58v3.1
			c0,1.18-0.8,2.05-1.88,2.05S154.22,47.22,154.22,46.04z"/>
		<path class="st0" d="M161.92,48.01l-1.41-1.98h-0.95v1.98h-0.57v-5.07h1.5c0.94,0,1.71,0.72,1.71,1.62c0,0.66-0.45,1.22-1.07,1.41
			l1.5,2.04H161.92z M160.5,45.55c0.6,0,1.1-0.46,1.1-1.01c0-0.58-0.5-1.04-1.1-1.04h-0.94v2.04L160.5,45.55z"/>
		<path class="st0" d="M162.95,45.48c0-1.44,1.17-2.61,2.6-2.61c1.43,0,2.61,1.17,2.61,2.61c0,1.43-1.17,2.6-2.61,2.6
			C164.13,48.08,162.95,46.91,162.95,45.48z M167.58,45.48c0-1.12-0.91-2.03-2.03-2.03c-1.11,0-2.02,0.92-2.02,2.03
			s0.91,2.02,2.02,2.02C166.67,47.5,167.58,46.59,167.58,45.48z"/>
		<path class="st0" d="M168.97,42.94h1.61c0.98,0,1.78,0.74,1.78,1.63c0,0.86-0.8,1.56-1.78,1.56h-1.03V48h-0.57L168.97,42.94
			L168.97,42.94z M171.78,44.57c0-0.58-0.54-1.06-1.21-1.06h-1.03v2.06h1.03C171.24,45.58,171.78,45.13,171.78,44.57z"/>
		<path class="st0" d="M173.62,43.51v1.6h2.08v0.57h-2.08v1.76h2.4v0.57h-2.98v-5.07h2.98v0.56h-2.4V43.51z M174.47,42.53h-0.43
			l0.66-1.03h0.52L174.47,42.53z"/>
		<path class="st0" d="M177.51,43.51v1.6h2.08v0.57h-2.08v1.76h2.4v0.57h-2.98v-5.07h2.98v0.56h-2.4V43.51z"/>
		<path class="st0" d="M184.9,42.93v5.16h-0.03l-3.47-3.86v3.78h-0.57v-5.15h0.03l3.47,3.85v-3.79h0.57V42.93z"/>
		<path class="st0" d="M191.85,45.48c0,1.55-1.01,2.53-2.58,2.53h-1.41v-5.07h1.41C190.84,42.94,191.85,43.93,191.85,45.48z
			 M191.28,45.48c0-1.2-0.79-1.97-2.01-1.97h-0.84v3.93h0.85C190.49,47.44,191.28,46.67,191.28,45.48z"/>
		<path class="st0" d="M193.23,43.51v1.6h2.08v0.57h-2.08v1.76h2.41v0.57h-2.98v-5.07h2.98v0.56h-2.41V43.51z"/>
		<path class="st0" d="M196.22,47.1l0.44-0.32c0.23,0.43,0.75,0.72,1.29,0.72c0.66,0,1.2-0.36,1.2-0.86c0-0.57-0.73-0.84-1.37-1.09
			c-0.62-0.24-1.32-0.55-1.32-1.33c0-0.78,0.7-1.36,1.59-1.36c0.75,0,1.26,0.41,1.45,0.91l-0.43,0.29
			c-0.16-0.38-0.57-0.64-1.03-0.64c-0.54,0-1.01,0.36-1.01,0.81c0,0.49,0.56,0.67,1.21,0.92c0.76,0.31,1.48,0.66,1.48,1.47
			c0,0.87-0.81,1.44-1.78,1.44C197.11,48.08,196.46,47.65,196.22,47.1z"/>
	</g>
</g>
<path class="st0" d="M44.91,0.68c-5.07,0-10.1,0.87-14.88,2.57l1.78-0.54v0.85l0.44,0.54v0.77l0.48,0.63l0.78,0.45l0.54,0.39
	l0.63,0.69l1.62,0.23l0.92,0.46l0.63,0.92l0.92,0.39l0.92-0.39l0.31,1.32l-0.85,0.77l-0.92-0.08l-1.47,0.08l-1,0.3l-1.27,1.01
	l-1.39,0.54l-0.08,0.63l0.63,0.77l0.69,0.23l0.54,0.31l0.47,0.77l0.39,0.69v1.83l0.54,0.77h0.77l0.39-0.77l0.77-0.93L39,16.05
	l0.29-0.82l0.39-1.54l0.31-0.85l1.27-0.39l0.63-0.46l2.07,0.15l1.01,0.63v1.39l0.92,0.54l0.7,0.85l0.82,1.23h0.49l0.77-0.69
	l0.34-0.87l0.85-1.16l1.01-0.39l1.39-0.63l0.46-0.63l1.06-0.23l0.39,0.7v2.53L55,15.73l0.46,0.39l0.31,1.31l1.08,0.63h1.03
	l0.46,1.01l-0.39,1.16v0.63l-0.85,1l0.15,0.63v0.85l1.08,0.63l1,0.08h0.54l1.08,0.23l0.85,0.63l1.01,1v0.47l2.01,0.85l1.08,1.08
	l0.46,1.08v1.16l-1,0.23l1,1.16l-0.38,0.85l-1.16,0.39l-0.39-0.63l-0.77,0.77l-0.63-0.31l-0.46-0.85l-0.39-0.46l-1.08,0.38
	l-0.42,0.06l0.35,0.83v1l-0.42,0.7l-0.42,0.63l0.85,0.63l0.16,1.7l0.63,1l0.39,0.54l1.31-0.08l1.7-0.7l0.63,1.39l0.23,0.63h1.54
	l0.23,1.08l1.31-0.31l0.39,1.27l0.92,0.77v2.62l-0.15,2.32l-0.46,2.78l-0.08,2.23l-0.31,2.7l-0.46,1.46l0.54,1.16l1.62-0.54
	l1.16,0.69v0.93l-1.31,1.85l-1.44,1.39l-1.27,2.01l-1.85,1.61l-1.39,1.01l-1.82,1.16l-1.9,1.27l-0.77,1l-0.92,0.39l-4.09,1.9
	l-2.08,0.46l-2.26,0.77l-2.01,0.85l-1.54,0.63l-1.9,0.3l-1.31,0.93l-1.39-0.85h-4.03l-0.92-0.77l-0.39-1.54l0.46-1.77l0.08-1.16
	l0.77-1.16l0.69-1.01l0.31-1.7l0.23-0.77l0.92-1.46l0.7-1.56L43.3,62l1.08-0.31l1.27-0.85l0.42-1.08l-0.04-1.62v-1.38l0.08-2.08
	l1.54-2.32l0.2-0.92l-0.68-0.84l-0.79-0.94l-0.88-1.3l-1.01-1.16l-2.47-0.46l-0.9-0.7h-1.9l-0.23,0.23h0.71l0.9,0.7l2.47,0.46
	l1,1.16l0.54,0.92l0.7,0.77l1.13,1.39v0.58l-0.63,1.01l-0.63,0.92l-0.49,0.73l-0.03,0.77v0.93v1.77l0.04,0.92v1.02l-0.82,1.01
	l-1.51,0.77l-1.53,1.13l-0.99,1.84l-0.93,1.47l-0.54,2.47l-0.89,1.27l-0.97,1.03l-1.7,0.92l-1.31,1.25l-0.54,1.16v1.23l0.54,0.71
	l0.08-0.82l0.4-0.88l1.32-1.27l1.9-0.92l0.08,1l-0.15,0.77l-0.31,0.7l0.16,1.08l0.23,1.01l0.63,0.39l1.31,0.08l1.54-0.08h0.85
	l0.83,0.22l0.3,0.46l0.85,0.32l0.76-0.54l0.78-0.46l1.7-0.23l1.94-0.8l1.62-0.77l1.31-0.46l2.32-0.46l1.47-0.77l1.3-0.7l1.31-0.46
	l1.47-0.16h3l0.54-0.39l0.77,0.39v1.08h1.16l1,0.39l0.39,0.69h1.9v1.85l-0.92,1.31l-1.16,0.54l-1.31,1.15l-0.97,0.76l-1.39,0.77
	l-2.08,1.31l-0.92,0.63l-2.16,0.85l-2.47,0.92h-2.23l-1.47,0.46h-4.93l-1.27-0.69h-1.95l-1.85-0.39l-1.39-0.46l-1.54-0.08
	l-1.27-0.23l-1.16-0.54l-0.93-0.69L34.5,82.1v-1.74l-0.35-2.17l-0.46-0.63v0.31l0.38,1.08v1.73h-1.33l-0.54-0.73l-0.87-0.7
	l-0.83-1.08l-0.92-0.92l-0.77-0.92l-0.85-1.85l-0.54-1.39l-0.22-0.92l-0.23-1.23l-0.39-1.39l-0.46-1.7l-0.31-1.08l-0.08-1.62
	l-0.08-1.27v-0.96l-0.39-1.39l-0.23-0.92l-0.46-0.39l-0.46-0.4l-0.71-0.36l-0.69-0.54l-0.92-0.46l-1-1.16l-1.18-1l-0.63-2.08
	l-0.5-1.03l-1-0.96l-0.15-0.58h-0.54l-0.54-1.08v-2.83l0.46-1l0.31-0.77l0.7-0.31v-1.62l0.46-0.63l0.08-0.85l-0.54-0.37v-0.63
	l0.77-1.27l0.63-0.54l1.93-0.84h1.61l1.61,0.46l0.93,0.08l1.7-0.54h1.39l1.32,1.39l1.15,0.63l0.77,1.51h3.92l1.9,1.08l0.27,0.7
	l-0.84,0.13l-0.85,0.73l0.15,1.83l0.77,0.39l0.63-0.63l0,0l-0.14-1.8l0.85-0.73l0.84-0.15l-0.27-0.51l-1.2-0.89l-0.7-0.39l-0.63-1.7
	l0.39-1.39l0.63-0.63v-0.99l-0.31-0.63v-0.99l0.63-1.01l1.27-0.92l0.7-0.54l0.32-1.23l0.54-0.73l1.16-0.81l2.16-1.16l2.7-0.15
	l1.46,0.08l0.63-1.47l1.54-0.15l1.77-0.08L52.5,27l1.15,0.79l-0.06-0.33l-0.46-0.92l-1.08-0.7l-1,0.71l-1.47,0.06l-1.15,0.08
	l-0.63,0.63l-0.2,0.47l-0.19,0.45l-1.27-0.08h-1.44l-1.15,0.08l-0.53,0.15l-1.7,1.08l-1.4,0.81l-0.54,0.73l-0.28,0.92l-0.34,0.5
	l-0.88,0.68l-1.01,0.92l-0.42,1.14l0.14,0.82l0.17,0.8v0.54l-0.7,0.97l-0.28,1.04l0.63,1.7l-1.08,0.15l-1.32-0.23l-1.54,0.08
	l-0.63-1.54l-1.31-0.54l-1.23-1.16l-1.47-0.23l-1.7,0.54l-1.93-0.3l-2.26-0.23l-1.31,0.54l-1.03,0.46l-0.8,1.34h-1.64l-1.08,0.51H15
	v-5.31l-0.7-0.31l0.7-1.21l-0.15-0.46l-0.54-0.7V30.7l0.54-1.31l-0.54-0.7v-1l0.7-1.08l0.31-1.77l0.85-1.23l-0.46-1.16l-0.31-1.53
	l0.23-1l0.93-1.23l1.15-1.4l1.62-1.23l0.54-1.01l0.7-0.7l1-1.62l0.92-1.23l0.85-1.33l1.9-1.7V7.49l0.39-1.01h0.63l0.32-0.92
	l0.04-0.91l1.35-0.63C5.33,13.34-5.44,39.22,3.87,61.84s35.2,33.39,57.82,24.07s33.39-35.2,24.07-57.82
	C78.94,11.53,62.81,0.72,44.91,0.68z M53.89,10.65l-0.72,0.15l-1.09,0.89l-1.27,0.54l-0.76,0.58l-0.77,1.16l-0.53,0.75l-0.94,0.39
	l-1.13-0.51l-0.63-0.85l-0.77-0.46l0.08-0.77v-1.4l-0.84-0.51l-0.17-0.49l-1,0.63l-1.08,0.23l-0.63,0.54l-1.3-0.08l1.02-1.11
	l1.15-0.54l0.92-0.39L43.3,7.7l-0.39-0.54l-1.08-0.31l-1.04,0.08l-1.12,0.08h-1.09l-0.75-0.67l-0.7-0.46l-0.54-0.23L35.2,5.8V4.41
	l1.01-0.7h0.69l0.47,0.31l0.92,0.7l0.54,0.63l0.54,0.23h0.39l1.99-0.87l0.77,0.46h1.01l0.84-0.77l0.08-0.7h1.23l0.85,0.63l0.91,0.45
	l1.16,0.23l0.63-0.63l1.15-0.7h1.17l-0.23,1.09l1,0.77l0.85,0.63v1.62l0.72,1.09V10.65z M71.6,56.91l-0.73,0.25l-0.73-1.09l0.3-0.54
	v-1.58l0.39-1.34l0.13-1.27v-0.9l0.11-1.27l0.24-1.44l0.16-1.2l0.13-1.04v-3.35l0.12-0.38l0.58-0.23l0.63-0.46l0.51-0.63v-0.91
	l0.9-0.63h0.63l0.47,0.89l0.77,0.15l0.54,0.5l0.39,0.81l0.46,0.89l0.19,0.81l0.04,0.63l0.12,0.84v0.73l-0.31,1.08l-0.85,0.7
	l-0.23,0.5v0.93l-0.02,1.05l0.11,1l-0.27,1.2h0.39l0.3,0.31l0.77-0.04l0.42,0.46l0.31,0.46v1.51l-0.46,0.27l-0.32,0.85l-0.39-0.1
	l-0.63,0.36l-0.35,0.44l-0.22-0.08l-0.63,0.31l-0.84-0.06l-0.63,0.06v0.28l-0.86-0.08l-0.63,0.09L71.6,56.91z M77.42,64.09l-0.3,0.7
	l-0.31,0.73l-0.39,0.54l-0.54,0.54l-0.45,0.92l-0.71,1.04l-0.42,0.42l-0.2,0.73l-0.39,0.81l-0.27,0.73l-0.93,1.54l-0.31,0.77
	l-0.5,1.08l-0.35,0.54l-0.46,0.73h-0.39l-0.16-0.35v-1.31h-1.7l-0.63-0.7l-0.63-0.24l-0.37-0.15h-1.16V72.1l-0.85-0.58l-0.7,0.58
	h-2.75l-0.99,0.11l1.3-0.68l0.45-0.59l0.51-0.37l0.81-0.63l0.85-0.58l0.96-0.47l0.58-0.34l1.35-1.12l0.92-0.77l1.08-0.96l0.31-0.46
	l0.46-0.85l0.67-0.84l0.77-0.77l0.58-0.97l0.71-0.7l0.52-0.23l0.46-0.19l0.46,0.19l0.85,0.58l0.31,0.47h0.63l0.63,0.27h0.39v0.48
	l0.27,0.85L77.42,64.09z M78.6,58.39l-0.13,1.27l-0.58,1.27v0.46l-0.27,0.31l-0.74-0.33l-0.53-0.09l-0.48-0.2l-1.02-0.85h-0.92
	l-0.22-0.19v-1.16l-0.32-0.44l-0.63-0.37l1.39-0.19l0.69,0.19l0.08-0.35l1.78-0.3l0.42,0.15l0.19-0.63l1.16-0.42l0.27,0.81
	L78.6,58.39z M78.23,19.84l-0.46-0.31l-0.54-0.85l-0.46-0.54l-1.01-1.08l-0.63-1.16l-0.79-0.23v2.23l0.48,1.08l-0.48,0.08l-0.9-0.46
	l-1.39-0.08l-0.46,1.23l-0.46,0.54l-1-0.16l-0.46-0.92l-0.54-0.92l-0.77-0.46l-1-0.31l-1.23,0.46l0.23,1.47v1.39l-0.85-0.23l-1,0.15
	l-1.16,0.89l-0.15,1.12l0.77,0.77l0.69,0.54l0.16,1.08l-0.39,1.16l-0.58-1.04l-1.27-1.04L61.49,24l-1.9-0.26l-0.76-0.44l-0.15-1.47
	l0.47-0.56l0.37-0.75l0.28-1.15l0.11-0.31l-0.97-1.02l-0.94-0.29l-0.59-0.34l-0.22-0.89l-0.56-0.8l-0.85-0.85l-0.39-0.85l0.39-1.16
	l-0.39-0.7l0.39-1.46l0.23-1.27l1.16-1.47l1.01-0.34l1.77,0.08l0.92,0.08V5.11L59.8,4.72l-0.92-0.63l-0.63-0.08l-0.63-0.54
	L56.54,3.4l-1.13-0.46h-0.7l-0.39-0.08V2.09h1.08l1.46,0.54l1.27,0.31l1.54,0.46l1.9,0.77l1.08,0.69l1.7,0.87l1.63,1.08l2,1.31
	l1.61,0.98l0.92,1l1.54,1.08l1.39,1.54l1.54,1.47l1.63,1.47l1.23,1.39l0.75,1.34l0.97,1.01L79,20.16L78.23,19.84z"/>
<path class="st0" d="M29.34,3.5l0.46-0.17L29.34,3.5z"/>
<polygon class="st0" points="57.25,29.7 58.72,30.86 59.42,31.86 60.5,31.86 60.15,30.7 58.87,30.47 58.03,29.54 57.03,28.62 
	55.48,28.54 53.97,28.89 54.17,29.7 55.94,29.7 "/>
</svg>
