<svg xmlns="http://www.w3.org/2000/svg" viewBox="0 0 165.24 165.24">
  <defs>
    <style>
      .e4fef7e8-07ef-48e7-8946-df97e4026e2a {
        fill: #dcd6c2;
      }

      .a4eac145-880a-43ce-a19e-eb19447cf2ce {
        fill: #665c53;
      }

      .b1cf8aff-da11-480b-a9d1-11c2101183aa {
        fill: #f08611;
      }
    </style>
  </defs>
  <g id="ad77c2ca-b501-4986-993d-00ae844c5c59" data-name="Layer 2">
    <g id="b4acee77-d3fc-4fa5-90b0-4e7d3cd20155" data-name="texto">
      <path class="e4fef7e8-07ef-48e7-8946-df97e4026e2a" d="M82.62,0a82.62,82.62,0,1,0,82.62,82.62A82.62,82.62,0,0,0,82.62,0Zm61,83c-1.46-2.6-4.75-5.4-12.18-4a33.59,33.59,0,0,0-6.15,1.86l-12.13-2.91c-1.28-2.09-4.2-7.69-3.17-13.74.75-4.38,3.51-8.23,8.2-11.43,15.34-10.47,31.86-2.44,34.59-1a76.44,76.44,0,0,1-2.35,66.55c-6.4-7.81-6-15.27-5.52-17C146,97.82,146.73,88.52,143.61,83ZM71.33,6.81c0,2.19.08,6.86,0,8.16-.07.83-2.12,3.53-4.86,3.83l-.59.07c-3.8.41-7.38.8-10.31,4.63a7.59,7.59,0,0,0-1.48,6A8.16,8.16,0,0,0,58.15,35a3.13,3.13,0,0,1,1,3.4c-.54,1.22-4.42,4.85-5.69,6-.56.52-1,1-1.3,1.24-3.71,3.7-9.89,9.47-11.51,10.44a133.52,133.52,0,0,1-13.72,1.19c-3.88.07-12.16-.21-16.51-.37A76.88,76.88,0,0,1,71.33,6.81ZM82.62,159.27A76.65,76.65,0,0,1,8.57,62.83c3.17.13,11.79.46,16.89.46l1.58,0c1.69,0,4.31-.19,6.94-.41-1.61,4.68-3.8,12.57-2.7,18.42,1,5.38,10.41,18.06,12.28,20.55l.19.22c.48.53,11.81,12.85,14.49,15.54,2,2,5.41,9.15,7.86,14.33l.91,1.91c2.75,5.78,6.46,7,9.36,7a14.58,14.58,0,0,0,3.35-.45c6-1.32,6.49-12.43,6.51-12.9.15-3.7-1.73-19.61-2-21.42l-6,.72c.83,6.88,2,18,1.91,20.45-.14,3.4-1.25,6.64-2,7.33-2.33.52-3.89.76-5.82-3.3l-.9-1.89c-3.67-7.75-6.47-13.44-9-16s-13.07-14-14.22-15.25c-4.31-5.73-10.54-15-11.09-17.94-1-5.26,1.88-14.07,3.45-18,.73-.1,1.31-.2,1.68-.29,2.32-.58,8.94-6.84,14.09-12,.25-.25.66-.63,1.15-1.1,3.28-3.05,6.29-6,7.17-8.19,1.33-3.33.4-8.39-3.42-10.74A2.6,2.6,0,0,1,60,28.37a1.58,1.58,0,0,1,.35-1.22c1.3-1.71,2.52-1.92,6.19-2.32l.6-.06c5.45-.61,10-5.57,10.19-9.44.11-1.88,0-8.35,0-9.08L76,6.27c2.19-.18,4.4-.3,6.64-.3a76.66,76.66,0,0,1,65.93,37.61c-8-2.54-21.14-4.39-33.75,4.22-6.09,4.16-9.7,9.33-10.73,15.38-1.73,10.11,4.54,18.8,4.81,19.17l.65.88,16.34,3.92.95-.44c3.32-1.55,10.12-3.37,11.56-.81,1.83,3.27,1.74,10.56.78,13.7-1.45,4.77-.41,15,8.07,24.2A76.64,76.64,0,0,1,82.62,159.27Z"/>
      <g>
        <path class="a4eac145-880a-43ce-a19e-eb19447cf2ce" d="M145.91,95.17a31.14,31.14,0,0,0-16.17-15.63,20.64,20.64,0,1,0-26.49,0A31.16,31.16,0,0,0,87,95.24c-.24.53-1.48,8.54.63,8.91,10.43,1.85,21.31,5.92,58.21,0C147.65,103.87,146.12,95.63,145.91,95.17Z"/>
        <path class="a4eac145-880a-43ce-a19e-eb19447cf2ce" d="M79.8,95.17A31.16,31.16,0,0,0,63.62,79.54a20.64,20.64,0,1,0-26.49,0,31.16,31.16,0,0,0-16.21,15.7c-.24.53-1.48,8.54.63,8.91,10.43,1.85,21.31,5.92,58.21,0C81.53,103.87,80,95.63,79.8,95.17Z"/>
        <path class="b1cf8aff-da11-480b-a9d1-11c2101183aa" d="M115,108.14A33.35,33.35,0,0,0,97.7,91.41a22.1,22.1,0,1,0-28.36,0A33.33,33.33,0,0,0,52,108.22c-.26.56-1.59,9.14.67,9.54,11.17,2,22.82,6.34,62.32,0C116.87,117.46,115.24,108.63,115,108.14Z"/>
      </g>
    </g>
  </g>
</svg>
