<svg xmlns="http://www.w3.org/2000/svg" viewBox="0 0 200 89.83"><defs><style>.cls-1{fill:#11b5c8;}.cls-2{fill:#461417;}.cls-3{fill:#f26c3f;}.cls-4{fill:#ea2227;}.cls-5{fill:#48161a;}.cls-6{fill:#f26c3d;}.cls-7{fill:#471114;}.cls-8{fill:#ec1e24;}.cls-9{fill:#ec2224;}.cls-10{fill:#4f1117;}.cls-11{fill:#f26f33;}</style></defs><g id="Layer_2" data-name="Layer 2"><g id="Layer_1-2" data-name="Layer 1"><g id="Slogam"><g id="Lisboa_2021" data-name="Lisboa 2021"><path class="cls-1" d="M106.11,80.78v2H98.38V70h2V80.78Z"></path><path class="cls-1" d="M107.72,70h2V82.78h-2Z"></path><path class="cls-1" d="M111.45,80.53l1.6-1.14A3.2,3.2,0,0,0,115.92,81c1.44,0,2.53-.69,2.53-1.67,0-1.19-1.69-1.9-3.18-2.55s-3.18-1.45-3.18-3.46,1.82-3.57,4.13-3.57A3.74,3.74,0,0,1,120,72l-1.5,1a2.39,2.39,0,0,0-2.21-1.35,1.92,1.92,0,0,0-2.12,1.64c0,1,1.19,1.36,2.75,2,2,.89,3.6,1.87,3.6,3.89,0,2.27-2,3.74-4.58,3.74A4.75,4.75,0,0,1,111.45,80.53Z"></path><path class="cls-1" d="M131,78.88a3.88,3.88,0,0,1-4,3.9h-4.8V70h3.5a3.49,3.49,0,0,1,3.71,3.29c0,1.38-1,2.31-1.44,2.31A3.25,3.25,0,0,1,131,78.88Zm-6.82-7v3.2h1.59a1.61,1.61,0,0,0,1.73-1.59,1.66,1.66,0,0,0-1.71-1.6Zm4.86,6.83a2,2,0,0,0-2.28-1.86H124.2v3.93h2.61A2.17,2.17,0,0,0,129.06,78.74Z"></path><path class="cls-1" d="M132,76.38A6.63,6.63,0,1,1,138.63,83,6.65,6.65,0,0,1,132,76.38Zm11.23,0A4.6,4.6,0,1,0,138.63,81,4.62,4.62,0,0,0,143.24,76.37Z"></path><path class="cls-1" d="M154,80.83h-6.07l-.87,2h-2.19l6-13.09H151l6,13.09h-2.18Zm-.78-1.72-2.25-5-2.26,5Z"></path><path class="cls-1" d="M172.26,80.78v2h-9.61v-.43c5.27-4.27,7.42-6.49,7.42-8a2.49,2.49,0,0,0-2.4-2.52,2.69,2.69,0,0,0-2.7,2.73l-1.84-.44a4.37,4.37,0,0,1,4.47-4.31,4.49,4.49,0,0,1,4.49,4.44c0,2.22-2.26,4.72-5.16,6.58Z"></path><path class="cls-1" d="M173.49,76.37c0-3.87,2.11-6.61,5.23-6.61S184,72.5,184,76.37s-2.12,6.6-5.24,6.6S173.49,80.23,173.49,76.37Zm8.45,0c0-2.68-1.29-4.59-3.22-4.59s-3.23,1.91-3.23,4.59,1.28,4.57,3.23,4.57S181.94,79,181.94,76.37Z"></path><path class="cls-1" d="M194.8,80.78v2h-9.61v-.43c5.27-4.27,7.42-6.49,7.42-8a2.49,2.49,0,0,0-2.4-2.52,2.69,2.69,0,0,0-2.7,2.73l-1.84-.44a4.37,4.37,0,0,1,4.48-4.31,4.49,4.49,0,0,1,4.48,4.44c0,2.22-2.26,4.72-5.16,6.58Z"></path><path class="cls-1" d="M199.78,69.84V82.78h-2V72.42l-1.73.52v-2.1l3.16-1Z"></path></g><g id="Migra&#xE7;&#xF5;es"><path class="cls-2" d="M111.15,52.34V65.45H109.7V56.71l-4.84,8.52h0L100,56.7v8.75H98.55V52.34h.17l6.13,10.23L111,52.34Z"></path><path class="cls-2" d="M113.86,52.58h1.45V65.45h-1.45Z"></path><path class="cls-2" d="M130.11,59.55a6,6,0,0,1-6.1,6.07A6.61,6.61,0,1,1,124,52.41a7.26,7.26,0,0,1,4.66,1.93l-.82,1.2A5.94,5.94,0,0,0,124,53.86a5.15,5.15,0,1,0,.12,10.29c2.51,0,4.49-1.68,4.49-4a1.93,1.93,0,0,0,0-.25h-4.61V58.63h6.11A6.91,6.91,0,0,1,130.11,59.55Z"></path><path class="cls-2" d="M139.6,65.45l-3.6-5h-2.4v5h-1.45V52.58h3.8a4.22,4.22,0,0,1,4.33,4.1,3.77,3.77,0,0,1-2.7,3.58l3.82,5.19ZM136,59.2A2.6,2.6,0,1,0,136,54h-2.4V59.2Z"></path><path class="cls-2" d="M151.27,63.33h-7l-.95,2.12h-1.57l6-13.07h.16l5.95,13.07h-1.58Zm-.56-1.26-3-6.62-2.95,6.62Z"></path><path class="cls-2" d="M161.37,65.61l-.62.82.37,0a1.05,1.05,0,0,1,1.16,1c0,1-1.17,1.84-3,1.92l-.38-.93c1.63-.08,2.35-.43,2.35-1,0-.29-.21-.48-.78-.48a3.86,3.86,0,0,0-.54,0l-.24-.28.9-1.2a6.61,6.61,0,0,1,.67-13.18,6.43,6.43,0,0,1,4.43,1.94l-.85,1.15a5.15,5.15,0,0,0-3.63-1.62,5.14,5.14,0,1,0,3.64,8.69l.84,1.16A6.11,6.11,0,0,1,161.37,65.61Z"></path><path class="cls-2" d="M166.78,59a6.61,6.61,0,1,1,6.6,6.59A6.63,6.63,0,0,1,166.78,59Zm11.75,0a5.14,5.14,0,1,0-5.15,5.13A5.16,5.16,0,0,0,178.53,59Zm-8.13-8.07a1.82,1.82,0,0,1,1.8-1.59c1.2,0,1.52,1.15,2.4,1.15.5,0,.86-.41,1-1.06l.75.29a1.8,1.8,0,0,1-1.79,1.59c-1.2,0-1.53-1.15-2.41-1.15-.5,0-.85.4-1,1Z"></path><path class="cls-2" d="M183.49,54v4.07h5.29v1.45h-5.29V64h6.1v1.45H182V52.58h7.55V54Z"></path><path class="cls-2" d="M191.08,63.15l1.12-.82a3.73,3.73,0,0,0,3.27,1.83c1.68,0,3.05-.91,3.05-2.18,0-1.44-1.84-2.14-3.48-2.76s-3.35-1.39-3.35-3.38,1.78-3.45,4-3.45a3.78,3.78,0,0,1,3.69,2.31l-1.1.74a2.81,2.81,0,0,0-2.61-1.62,2.36,2.36,0,0,0-2.56,2.06c0,1.24,1.42,1.7,3.08,2.33C198.16,59,200,59.89,200,62c0,2.22-2,3.66-4.52,3.66A4.7,4.7,0,0,1,191.08,63.15Z"></path></g><g id="Forum"><path class="cls-2" d="M99.14,43.59v1.75h2.16v.59H99.14v2.33h-.59V43h3.08v.59Z"></path><path class="cls-2" d="M102,45.64a2.7,2.7,0,1,1,2.69,2.68A2.7,2.7,0,0,1,102,45.64Zm4.79,0a2.1,2.1,0,1,0-2.1,2.1A2.11,2.11,0,0,0,106.75,45.63Z"></path><path class="cls-2" d="M111.22,48.25l-1.47-2h-1v2h-.6V43h1.55a1.71,1.71,0,0,1,1.76,1.67,1.52,1.52,0,0,1-1.1,1.45L112,48.25Zm-1.47-2.54a1.06,1.06,0,1,0,0-2.11h-1v2.11Z"></path><path class="cls-2" d="M112.31,46.22V43h.59v3.2a1.36,1.36,0,1,0,2.7,0V43h.59v3.2a1.95,1.95,0,1,1-3.88,0Z"></path><path class="cls-2" d="M122.38,42.92v5.33h-.59V44.7l-2,3.47h0l-2-3.48v3.56h-.59V42.92h.06l2.5,4.16,2.5-4.16Z"></path><path class="cls-2" d="M125.11,47.32l.45-.34a1.53,1.53,0,0,0,1.33.75c.69,0,1.25-.37,1.25-.89s-.75-.87-1.42-1.12-1.36-.57-1.36-1.38a1.66,1.66,0,0,1,3.14-.46l-.44.3a1.15,1.15,0,0,0-1.07-.66,1,1,0,0,0-1,.84c0,.5.58.69,1.25,1s1.53.68,1.53,1.52a1.65,1.65,0,0,1-1.84,1.5A1.91,1.91,0,0,1,125.11,47.32Z"></path><path class="cls-2" d="M129.23,45.64a2.7,2.7,0,1,1,2.69,2.68A2.71,2.71,0,0,1,129.23,45.64Zm4.79,0a2.1,2.1,0,1,0-2.1,2.1A2.11,2.11,0,0,0,134,45.63Z"></path><path class="cls-2" d="M135.18,45.64a2.71,2.71,0,0,1,2.69-2.7,2.68,2.68,0,0,1,1.8.79l-.35.47a2.06,2.06,0,0,0-1.47-.66,2.1,2.1,0,1,0,1.48,3.54l.34.47a2.47,2.47,0,0,1-1.8.77A2.71,2.71,0,0,1,135.18,45.64Z"></path><path class="cls-2" d="M140.39,43H141v5.23h-.59Z"></path><path class="cls-2" d="M145.51,47.39h-2.87l-.38.86h-.64L144,42.93h.07l2.42,5.32h-.64Zm-.23-.51-1.2-2.69-1.2,2.69Z"></path><path class="cls-2" d="M150.33,47.67v.58h-3.16V43h.59v4.65Z"></path><path class="cls-2" d="M153.59,43.6v1.65h2.16v.6h-2.16v1.82h2.49v.58H153V43h3.08v.58Z"></path><path class="cls-2" d="M157,46.22V43h.59v3.2a1.36,1.36,0,1,0,2.7,0V43h.59v3.2a1.95,1.95,0,1,1-3.88,0Z"></path><path class="cls-2" d="M164.94,48.25l-1.46-2h-1v2h-.59V43h1.55a1.72,1.72,0,0,1,1.77,1.67,1.53,1.53,0,0,1-1.11,1.45l1.56,2.11Zm-1.47-2.54a1.06,1.06,0,1,0,0-2.11h-1v2.11Z"></path><path class="cls-2" d="M166,45.64a2.69,2.69,0,1,1,2.69,2.68A2.7,2.7,0,0,1,166,45.64Zm4.79,0a2.1,2.1,0,1,0-2.1,2.1A2.11,2.11,0,0,0,170.8,45.63Z"></path><path class="cls-2" d="M172.23,43h1.66a1.77,1.77,0,0,1,1.84,1.68,1.74,1.74,0,0,1-1.84,1.62h-1.07v1.93h-.59Zm2.91,1.68a1.18,1.18,0,0,0-1.25-1.1h-1.07v2.14h1.07A1.16,1.16,0,0,0,175.14,44.7Z"></path><path class="cls-2" d="M177,43.6v1.65h2.16v.6H177v1.82h2.49v.58h-3.08V43h3.08v.58Z"></path><path class="cls-2" d="M180.42,46.22V43H181v3.2a1.36,1.36,0,1,0,2.69,0V43h.6v3.2a1.95,1.95,0,1,1-3.88,0Z"></path><path class="cls-2" d="M191.44,45.64a2.46,2.46,0,0,1-2.67,2.61h-1.46V43h1.46A2.47,2.47,0,0,1,191.44,45.64Zm-.6,0a1.93,1.93,0,0,0-2.08-2h-.86v4.06h.87A1.91,1.91,0,0,0,190.84,45.64Z"></path><path class="cls-2" d="M195.2,47.39h-2.86l-.38.86h-.64l2.42-5.32h.07l2.42,5.32h-.64Zm-.22-.51-1.2-2.69-1.21,2.69Z"></path><path class="cls-2" d="M196.38,47.32l.45-.34a1.52,1.52,0,0,0,1.33.75c.69,0,1.24-.37,1.24-.89s-.75-.87-1.42-1.12-1.36-.57-1.36-1.38a1.52,1.52,0,0,1,1.65-1.4,1.54,1.54,0,0,1,1.5.94l-.45.3a1.14,1.14,0,0,0-1.06-.66,1,1,0,0,0-1,.84c0,.5.57.69,1.25,1S200,46,200,46.83a1.65,1.65,0,0,1-1.84,1.5A1.9,1.9,0,0,1,196.38,47.32Z"></path></g><g id="M"><path class="cls-1" d="M200,7.73V39.56h-8.37V27.06l-8.49,12h-.06l-8.51-12v12.5h-8.38V7.73h3.37l13.54,18.55L196.62,7.73Z"></path></g><g id="E"><path class="cls-3" d="M151.91,15.73l0,4.4,10-.07,0,7-10,.07,0,4.52,12.17-.09.06,7.85-20.45.15L143.57,8,164,7.85l.06,7.79Z"></path></g><g id="S"><path class="cls-4" d="M119.22,34.22l5.07-5a7.68,7.68,0,0,0,6.4,3.11c1.78,0,3.52-.64,3.52-1.93,0-1.63-3.23-3.06-6.32-4.43-4-1.72-7.41-4.34-7.41-9.09,0-5.46,5.18-9.36,11.17-9.36,4.81,0,8.57,2.27,9.8,5.38l-4.83,4.66c-.94-1.66-3.37-2.39-4.88-2.39-1.72,0-3,.88-3,2,0,1.45,2.23,1.92,5.63,3.35,4.94,2.07,8.2,5.08,8.2,9.74,0,6-5.59,9.74-11.91,9.74C125.52,40,120.81,37.7,119.22,34.22Z"></path></g><g id="F"><path class="cls-5" d="M106.86,15.81v5.11h10v7h-10V39.6H98.59V7.94H119v7.87Z"></path></g></g><g id="Pangeia"><path class="cls-1" d="M89.83,44.92A44.92,44.92,0,1,1,44.92,0,44.91,44.91,0,0,1,89.83,44.92Z"></path><polygon class="cls-6" points="61.26 35.68 60.4 35.05 60.83 34.43 61.26 33.72 61.26 32.71 60.83 31.61 59.61 31.61 58.91 30.6 57.42 29.42 56.09 29.42 54.3 29.42 53.83 27.55 52.58 26.68 51.87 27.39 50.08 27.47 48.51 27.62 47.89 29.11 46.4 29.03 43.66 29.19 41.48 30.36 40.3 31.18 39.76 31.93 39.37 33.17 38.66 33.72 37.41 34.66 36.78 35.68 36.78 36.69 37.1 37.32 37.1 38.34 36.47 38.96 36.08 40.37 36.71 42.09 37.41 42.48 38.62 43.38 38.9 43.89 38.03 44.04 37.17 44.78 37.33 46.62 38.11 47.01 39.13 46 39.6 46 41.03 46 41.94 46.7 44.45 47.17 45.46 48.34 46.36 49.67 47.16 50.62 47.85 51.47 47.65 52.41 46.09 54.75 46.01 56.87 46.01 58.27 46.05 59.91 45.62 61.01 44.36 61.87 43.27 62.18 41.87 63.51 41.16 65.07 40.22 66.56 39.99 67.34 39.68 69.06 38.97 70.08 38.19 71.25 38.11 72.42 37.64 74.22 38.03 75.78 38.97 76.57 41.48 76.57 43.04 76.57 44.45 77.43 45.77 76.49 47.73 76.18 49.29 75.55 51.33 74.69 53.59 73.91 55.7 73.44 59.85 71.48 60.79 71.09 61.57 70.08 63.52 68.83 65.4 67.65 66.81 66.64 68.68 65 69.94 62.96 71.34 61.48 72.67 59.6 72.67 58.66 71.5 57.96 69.86 58.51 69.31 57.33 69.78 55.85 70.09 53.11 70.17 50.84 70.64 48.03 70.79 45.69 70.79 44.68 70.79 43.03 69.86 42.24 69.47 40.99 68.14 41.31 67.9 40.21 66.34 40.21 66.1 39.59 65.48 38.18 63.76 38.88 62.43 38.96 62.04 38.41 61.41 37.4 61.26 35.68"></polygon><polygon class="cls-7" points="33.89 81.14 33.89 79.38 33.5 78.29 33.5 77.19 32.8 76.25 32.8 75 33.34 73.83 34.67 72.58 36.39 71.64 37.37 70.6 38.27 69.3 38.82 66.79 39.76 65.31 40.78 63.44 42.29 62.3 43.82 61.51 44.65 60.48 44.65 59.45 44.6 58.51 44.62 56.71 44.65 55.77 44.68 54.99 45.17 54.25 45.8 53.31 46.45 52.29 46.45 51.7 45.31 50.3 44.6 49.52 44.06 48.58 43.04 47.41 40.54 46.94 39.62 46.23 37.72 46.23 36.71 47.25 35.92 46.86 35.77 45.02 36.63 44.28 37.49 44.12 37.21 43.41 35.3 42.32 33.73 42.32 31.31 42.32 30.53 40.84 29.36 40.21 28.03 38.81 26.62 38.81 24.9 39.35 23.96 39.27 22.32 38.81 20.68 38.81 18.72 39.66 18.1 40.21 17.32 41.46 17.32 42.09 17.86 42.48 17.79 43.34 17.32 43.97 17.32 45.02 17.32 45.61 16.61 45.92 16.3 46.7 15.83 47.72 15.83 48.66 15.83 49.44 15.83 50.3 15.83 50.61 16.38 51.7 16.93 51.7 17.08 52.29 18.1 53.27 18.57 54.28 19.27 56.4 20.44 57.41 21.46 58.59 22.4 59.05 23.1 59.6 23.81 59.97 24.27 60.38 24.74 60.77 24.98 61.71 25.37 63.12 25.37 64.14 25.45 65.39 25.53 67.03 25.84 68.12 26.31 69.84 26.7 71.25 26.93 72.5 27.17 73.44 27.71 74.85 28.57 76.72 29.36 77.66 30.29 78.6 31.14 79.69 32.02 80.4 32.56 81.14 33.89 81.14"></polygon><polygon class="cls-8" points="59.69 73.13 60.63 73.13 61.96 73.13 62.74 73.13 63.29 72.74 64.07 73.13 64.07 74.22 65.24 74.22 66.26 74.61 66.65 75.32 67.51 75.32 68.61 75.32 68.61 76.17 68.61 77.19 67.67 78.52 66.49 79.07 65.16 80.24 64.15 81.02 62.74 81.8 60.63 83.13 59.69 83.76 57.5 84.62 55 85.56 52.73 85.56 51.25 86.03 48.51 86.03 46.24 86.03 44.99 85.32 42.96 85.32 41.08 84.93 39.68 84.46 38.11 84.39 36.86 84.15 35.69 83.6 34.75 82.9 34.36 82.55 34.36 81.18 34.36 80.79 33.97 78.6 33.27 77.66 33.4 76.13 33.81 75.24 35.14 73.99 37.1 73.05 37.17 74.07 37.02 74.85 36.71 75.55 36.86 76.64 37.1 77.66 37.72 78.05 39.05 78.13 40.62 78.05 41.48 78.05 42.34 78.29 42.65 78.75 43.51 79.07 44.28 78.52 45.07 78.05 46.79 77.82 48.75 76.96 50.39 76.17 51.72 75.71 54.06 75.24 55.55 74.46 56.88 73.75 58.21 73.28 59.69 73.13"></polygon><polygon class="cls-7" points="73.84 61.05 74.31 60.85 74.78 61.05 75.64 61.63 75.95 62.1 76.62 62.1 77.24 62.38 77.6 62.38 77.6 62.89 77.87 63.74 77.87 64.29 77.56 65 77.24 65.74 76.85 66.29 76.31 66.83 75.86 67.77 75.13 68.83 74.7 69.26 74.51 70 74.12 70.82 73.84 71.56 72.91 73.13 72.59 73.91 72.08 75 71.73 75.55 71.26 76.29 70.87 76.29 70.72 75.94 70.72 74.61 69 74.61 68.37 73.91 67.73 73.66 67.35 73.52 66.18 73.52 66.18 72.42 65.32 71.84 64.62 72.42 62.74 72.42 61.8 72.42 60.8 72.53 62.12 71.84 62.57 71.23 63.09 70.86 63.91 70.19 64.77 69.61 65.75 69.14 66.34 68.79 67.7 67.65 68.64 66.87 69.74 65.9 70.05 65.43 70.52 64.57 71.22 63.74 72.01 62.96 72.59 61.99 73.32 61.28 73.84 61.05"></polygon><polygon class="cls-9" points="78.92 56.59 79.2 57.41 79.06 58.51 78.92 59.76 78.34 61.05 78.34 61.52 78.06 61.83 77.32 61.5 76.78 61.4 76.29 61.2 75.25 60.34 74.31 60.34 74.09 60.15 74.09 59.02 73.76 58.57 73.14 58.19 74.55 58 75.25 58.2 75.33 57.84 77.13 57.53 77.56 57.69 77.75 57.02 78.92 56.59"></polygon><polygon class="cls-7" points="71.97 42.05 71.97 43.51 71.97 44.51 71.97 45.41 71.84 46.47 71.67 47.68 71.43 49.15 71.31 50.46 71.31 51.39 71.18 52.65 70.79 54.01 70.79 55.62 70.48 56.16 71.22 57.27 71.97 57.02 73.03 56.74 73.68 56.65 74.55 56.72 74.55 56.44 75.19 56.38 76.03 56.44 76.66 56.12 76.89 56.2 77.24 55.76 77.87 55.4 78.26 55.5 78.57 54.64 79.04 54.37 79.04 53.5 79.04 52.84 78.73 52.37 78.3 51.9 77.52 51.94 77.2 51.63 76.81 51.63 77.09 50.41 76.97 49.4 77.01 48.34 77.01 47.41 77.24 46.9 78.1 46.19 78.42 45.1 78.42 44.36 78.3 43.51 78.26 42.87 78.06 42.05 77.59 41.15 77.2 40.33 76.66 39.82 75.88 39.67 75.41 38.77 74.76 38.77 73.84 39.39 73.84 40.33 73.33 40.95 72.67 41.42 72.08 41.66 71.97 42.05"></polygon><polyline class="cls-8" points="28.18 3.22 29.69 2.65 31.62 2.06 31.62 2.92 32.08 3.47 32.08 4.25 32.56 4.87 33.34 5.34 33.89 5.73 34.52 6.44 36.16 6.67 37.1 7.14 37.72 8.08 38.66 8.47 39.6 8.08 39.91 9.41 39.05 10.19 38.11 10.11 36.63 10.19 35.61 10.5 34.36 11.52 32.95 12.07 32.87 12.69 33.5 13.47 34.2 13.71 34.75 14.02 35.22 14.8 35.61 15.51 35.61 16.44 35.61 17.38 36.16 18.16 36.94 18.16 37.33 17.38 38.11 16.44 38.9 15.59 39.21 14.72 39.6 13.16 39.91 12.3 41.16 11.91 41.79 11.44 43.89 11.6 44.91 12.22 44.91 13.63 45.85 14.18 46.56 15.04 47.38 16.29 47.89 16.29 48.67 15.59 49.06 14.72 49.92 13.55 50.94 13.16 52.34 12.54 52.81 11.91 53.91 11.68 54.3 12.38 54.3 13.16 54.3 14.96 55.16 15.27 55.63 15.66 55.94 16.99 57.03 17.62 58.05 17.62 58.52 18.63 58.13 19.81 58.13 20.43 57.27 21.45 57.42 22.07 57.42 22.93 58.52 23.56 59.54 23.64 60.08 23.64 61.18 23.87 62.04 24.5 63.05 25.51 63.05 25.98 65.09 26.84 66.18 27.94 66.65 29.03 66.65 30.2 65.63 30.44 66.65 31.61 66.26 32.47 65.09 32.86 64.7 32.24 63.91 33.02 63.29 32.71 62.82 31.85 62.43 31.38 61.34 31.77 60.79 31.85 60.36 30.44 59.07 30.2 58.21 29.27 57.19 28.33 55.63 28.25 53.91 28.64 53.83 27.94 53.67 27.16 53.2 26.22 52.11 25.51 51.09 26.23 49.61 26.3 48.43 26.37 47.81 27 47.61 27.48 47.42 27.94 46.17 27.86 44.68 27.86 43.51 27.94 42.96 28.09 41.24 29.19 39.83 30.01 39.29 30.75 38.99 31.69 38.65 32.2 37.75 32.88 36.74 33.82 36.31 34.97 36.46 35.8 36.63 36.62 36.63 37.16 35.91 38.14 35.61 39.2 36.24 40.92 35.14 41.07 33.81 40.84 32.25 40.92 31.62 39.35 30.29 38.81 29.05 37.63 27.56 37.4 25.84 37.94 23.89 37.63 21.62 37.4 20.29 37.94 19.27 38.41 18.43 39.77 16.77 39.77 15.68 40.29 14.58 40.29 14.58 39.27 14.58 37.4 14.58 34.9 13.88 34.58 14.58 33.33 14.42 32.86 13.88 32.16 13.88 30.44 14.42 29.11 13.88 28.41 13.88 27.39 14.58 26.3 14.89 24.5 15.75 23.25 15.28 22.07 14.97 20.51 15.21 19.49 16.15 18.24 17.32 16.84 18.96 15.59 19.5 14.57 20.21 13.86 21.23 12.22 22.16 10.97 23.02 9.64 24.98 7.92 24.98 6.91 25.37 5.89 26 5.89 26.31 4.95 26.34 4.03 27.77 3.39"></polyline><polygon class="cls-10" points="80.02 18.95 79.04 17.93 78.3 16.6 77.05 15.19 75.41 13.71 73.84 12.22 72.44 10.66 70.87 9.56 69.94 8.55 68.29 7.53 66.26 6.2 64.62 5.11 62.9 4.25 61.8 3.54 59.85 2.76 58.28 2.29 57.03 1.98 55.55 1.43 55.08 1.43 54.45 1.43 54.45 2.21 54.84 2.29 55.55 2.29 56.72 2.76 57.81 2.84 58.44 3.39 59.07 3.47 60.01 4.09 61.1 4.48 61.1 5.81 61.1 7.22 60.16 7.14 58.36 7.06 57.35 7.45 56.17 8.94 55.94 10.19 55.55 11.68 55.94 12.38 55.55 13.55 55.94 14.41 56.8 15.27 57.37 16.09 57.58 16.99 58.19 17.34 59.14 17.62 60.16 18.63 60.06 18.95 59.77 20.12 59.39 20.88 58.91 21.45 59.07 22.93 59.83 23.37 61.72 23.64 62.82 23.87 64.11 24.93 64.7 25.98 65.09 24.81 64.93 23.72 64.23 23.17 63.45 22.39 63.6 21.25 64.77 20.35 65.79 20.2 66.65 20.43 66.65 19.02 66.42 17.54 67.67 17.07 68.68 17.38 69.47 17.85 70.01 18.79 70.48 19.73 71.5 19.89 71.97 19.34 72.44 18.09 73.84 18.16 74.76 18.63 75.25 18.55 74.76 17.46 74.76 16.44 74.76 15.19 75.56 15.43 76.19 16.6 77.2 17.7 77.67 18.24 78.22 19.1 78.69 19.42 79.47 19.73 80.02 18.95"></polygon><polygon class="cls-11" points="47.85 14.65 48.8 14.25 49.34 13.49 50.1 12.3 50.88 11.72 52.17 11.18 53.28 10.27 54.01 10.11 54.01 8.31 53.28 7.22 53.28 5.58 52.42 4.95 51.41 4.17 51.64 3.08 50.93 3.08 50.47 3.08 49.29 3.78 48.67 4.41 47.5 4.17 46.56 3.7 45.7 3.08 44.45 3.08 44.36 3.78 43.51 4.56 42.49 4.56 41.71 4.09 39.68 4.95 39.29 4.95 38.74 4.72 38.19 4.09 37.25 3.39 36.78 3.08 36.08 3.08 35.06 3.78 35.06 4.41 35.06 5.19 36.47 5.03 37.02 5.26 37.72 5.73 38.51 6.44 39.6 6.44 40.73 6.36 41.79 6.28 42.88 6.59 43.27 7.14 43.43 8.86 42.49 9.25 41.32 9.8 40.29 10.92 41.63 10.97 42.26 10.43 43.35 10.19 44.36 9.56 44.54 10.06 45.38 10.58 45.38 11.28 45.38 11.99 45.31 12.77 46.09 13.24 46.71 14.1 47.85 14.65"></polygon></g></g></g></svg>