<svg xmlns="http://www.w3.org/2000/svg" viewBox="0 0 397.15 397.15"><defs><style>.class-popup-atencao{fill:#ec1e24;}.cls-2{fill:#11b5c8;}.cls-3{fill:#f26c3d;}.cls-4{fill:#471114;}.cls-5{fill:#ec2224;}.cls-6{fill:#4f1117;}.cls-7{fill:#f26f33;}.cls-8{font-size:50.45px;font-family:HelveticaNeue-Bold, Helvetica Neue;font-weight:700;}.class-popup-atencao0,.cls-8{fill:#fff;}.cls-9{letter-spacing:-0.09em;}.class-popup-atencao0{font-size:23.08px;font-family:HelveticaNeue, Helvetica Neue;}</style></defs><g id="Layer_2" data-name="Layer 2"><g id="Layer_1-2" data-name="Layer 1"><circle class="class-popup-atencao" cx="198.57" cy="198.57" r="198.57"/><g id="Pangeia"><path class="cls-2" d="M234.72,81A37.44,37.44,0,1,1,197.29,43.6,37.43,37.43,0,0,1,234.72,81Z"/><polygon class="cls-3" points="210.91 73.34 210.19 72.82 210.55 72.3 210.91 71.71 210.91 70.86 210.55 69.95 209.54 69.95 208.95 69.1 207.71 68.13 206.61 68.13 205.11 68.13 204.72 66.56 203.67 65.84 203.09 66.43 201.59 66.5 200.29 66.63 199.76 67.86 198.53 67.8 196.25 67.93 194.42 68.91 193.44 69.59 192.99 70.21 192.66 71.25 192.07 71.71 191.03 72.49 190.51 73.34 190.51 74.19 190.77 74.7 190.77 75.55 190.25 76.07 189.92 77.25 190.45 78.68 191.03 79.01 192.04 79.75 192.27 80.18 191.55 80.31 190.84 80.93 190.97 82.46 191.62 82.78 192.47 81.94 192.86 81.94 194.05 81.94 194.81 82.53 196.9 82.92 197.75 83.89 198.49 85 199.16 85.79 199.74 86.5 199.57 87.28 198.26 89.23 198.2 91 198.2 92.17 198.24 93.54 197.87 94.45 196.83 95.17 195.92 95.43 194.75 96.53 194.16 97.84 193.38 99.07 193.18 99.73 192.92 101.16 192.34 102.01 191.68 102.98 191.62 103.96 191.23 105.46 191.55 106.76 192.34 107.42 194.42 107.42 195.72 107.42 196.9 108.13 198 107.35 199.63 107.09 200.94 106.57 202.63 105.85 204.52 105.2 206.28 104.81 209.73 103.18 210.51 102.86 211.17 102.01 212.79 100.96 214.36 99.99 215.53 99.14 217.1 97.77 218.14 96.08 219.31 94.84 220.42 93.28 220.42 92.49 219.44 91.91 218.07 92.36 217.62 91.39 218.01 90.15 218.27 87.87 218.33 85.98 218.72 83.63 218.85 81.68 218.85 80.84 218.85 79.46 218.07 78.81 217.75 77.77 216.64 78.03 216.44 77.12 215.14 77.12 214.95 76.59 214.43 75.42 212.99 76.01 211.88 76.07 211.56 75.62 211.04 74.77 210.91 73.34"/><polygon class="cls-4" points="188.1 111.23 188.1 109.76 187.78 108.85 187.78 107.94 187.19 107.16 187.19 106.11 187.65 105.14 188.75 104.09 190.19 103.31 191 102.44 191.75 101.36 192.21 99.27 192.99 98.03 193.84 96.48 195.1 95.52 196.37 94.87 197.06 94.01 197.06 93.14 197.03 92.36 197.04 90.87 197.06 90.08 197.09 89.43 197.5 88.81 198.03 88.03 198.56 87.18 198.56 86.69 197.61 85.52 197.03 84.87 196.57 84.09 195.72 83.11 193.64 82.72 192.88 82.13 191.29 82.13 190.45 82.98 189.79 82.65 189.66 81.12 190.38 80.5 191.1 80.38 190.87 79.78 189.27 78.88 187.97 78.88 185.95 78.88 185.3 77.64 184.32 77.12 183.21 75.94 182.04 75.94 180.61 76.4 179.82 76.33 178.46 75.94 177.09 75.94 175.46 76.66 174.94 77.12 174.29 78.16 174.29 78.68 174.74 79.01 174.68 79.72 174.29 80.24 174.29 81.12 174.29 81.61 173.7 81.87 173.44 82.53 173.05 83.37 173.05 84.15 173.05 84.81 173.05 85.52 173.05 85.78 173.5 86.69 173.96 86.69 174.09 87.18 174.94 88 175.33 88.84 175.91 90.6 176.89 91.45 177.74 92.43 178.52 92.82 179.11 93.28 179.69 93.58 180.09 93.93 180.48 94.25 180.67 95.03 181 96.21 181 97.06 181.06 98.1 181.13 99.47 181.39 100.38 181.78 101.81 182.11 102.98 182.3 104.03 182.5 104.81 182.95 105.98 183.67 107.55 184.32 108.33 185.1 109.11 185.81 110.02 186.54 110.61 186.99 111.23 188.1 111.23"/><polygon class="class-popup-atencao" points="209.6 104.55 210.38 104.55 211.49 104.55 212.14 104.55 212.6 104.22 213.25 104.55 213.25 105.46 214.23 105.46 215.08 105.79 215.4 106.37 216.12 106.37 217.03 106.37 217.03 107.09 217.03 107.94 216.25 109.04 215.27 109.5 214.16 110.48 213.32 111.13 212.14 111.78 210.38 112.89 209.6 113.41 207.78 114.13 205.69 114.91 203.8 114.91 202.56 115.3 200.28 115.3 198.4 115.3 197.35 114.71 195.66 114.71 194.09 114.39 192.92 114 191.62 113.93 190.58 113.73 189.6 113.28 188.82 112.69 188.49 112.4 188.49 111.26 188.49 110.93 188.17 109.11 187.58 108.33 187.69 107.05 188.03 106.31 189.14 105.26 190.77 104.48 190.84 105.33 190.71 105.98 190.45 106.57 190.58 107.48 190.77 108.33 191.29 108.65 192.4 108.72 193.7 108.65 194.42 108.65 195.14 108.85 195.4 109.24 196.12 109.5 196.76 109.04 197.42 108.65 198.85 108.46 200.48 107.74 201.85 107.09 202.96 106.7 204.91 106.31 206.15 105.66 207.26 105.07 208.36 104.68 209.6 104.55"/><polygon class="cls-4" points="221.4 94.48 221.79 94.32 222.18 94.48 222.89 94.97 223.16 95.36 223.71 95.36 224.23 95.59 224.52 95.59 224.52 96.01 224.75 96.73 224.75 97.19 224.49 97.77 224.23 98.39 223.91 98.85 223.45 99.3 223.07 100.08 222.47 100.96 222.11 101.32 221.95 101.94 221.63 102.63 221.4 103.25 220.62 104.55 220.35 105.2 219.93 106.11 219.64 106.57 219.25 107.19 218.92 107.19 218.79 106.89 218.79 105.79 217.36 105.79 216.84 105.2 216.31 105 215.99 104.87 215.01 104.87 215.01 103.96 214.29 103.47 213.71 103.96 212.14 103.96 211.36 103.96 210.52 104.05 211.62 103.47 212 102.97 212.44 102.66 213.12 102.1 213.84 101.62 214.65 101.22 215.14 100.93 216.28 99.99 217.06 99.33 217.98 98.52 218.24 98.13 218.63 97.41 219.21 96.73 219.87 96.08 220.35 95.26 220.96 94.68 221.4 94.48"/><polygon class="cls-5" points="225.63 90.77 225.86 91.45 225.75 92.36 225.63 93.41 225.14 94.48 225.14 94.87 224.91 95.13 224.29 94.86 223.84 94.78 223.44 94.61 222.57 93.89 221.79 93.89 221.6 93.73 221.6 92.79 221.33 92.41 220.81 92.1 221.98 91.94 222.57 92.1 222.63 91.81 224.13 91.55 224.49 91.68 224.66 91.13 225.63 90.77"/><polygon class="cls-4" points="219.83 78.65 219.83 79.86 219.83 80.7 219.83 81.45 219.72 82.33 219.59 83.34 219.38 84.56 219.29 85.66 219.29 86.43 219.18 87.48 218.85 88.62 218.85 89.95 218.59 90.41 219.21 91.33 219.83 91.13 220.72 90.89 221.26 90.81 221.98 90.88 221.98 90.64 222.52 90.59 223.22 90.64 223.74 90.38 223.93 90.44 224.23 90.07 224.75 89.77 225.08 89.86 225.34 89.14 225.73 88.91 225.73 88.19 225.73 87.64 225.47 87.25 225.11 86.86 224.46 86.89 224.2 86.63 223.87 86.63 224.1 85.62 224 84.77 224.04 83.89 224.04 83.11 224.23 82.69 224.95 82.1 225.21 81.19 225.21 80.57 225.11 79.86 225.08 79.33 224.91 78.65 224.52 77.9 224.2 77.21 223.74 76.79 223.09 76.66 222.7 75.91 222.16 75.91 221.4 76.43 221.4 77.21 220.97 77.74 220.42 78.13 219.93 78.32 219.83 78.65"/><polyline class="class-popup-atencao" points="183.34 46.29 184.6 45.81 186.21 45.32 186.21 46.04 186.59 46.49 186.59 47.14 186.99 47.66 187.65 48.06 188.1 48.38 188.62 48.97 189.99 49.16 190.77 49.55 191.29 50.34 192.08 50.66 192.86 50.34 193.12 51.44 192.4 52.1 191.62 52.03 190.38 52.1 189.53 52.36 188.49 53.2 187.32 53.66 187.25 54.18 187.78 54.83 188.36 55.03 188.82 55.29 189.21 55.94 189.53 56.53 189.53 57.31 189.53 58.09 189.99 58.74 190.64 58.74 190.97 58.09 191.62 57.31 192.27 56.59 192.53 55.88 192.86 54.57 193.12 53.85 194.16 53.53 194.68 53.14 196.44 53.27 197.29 53.79 197.29 54.96 198.07 55.42 198.66 56.13 199.34 57.18 199.76 57.18 200.42 56.59 200.74 55.88 201.46 54.9 202.31 54.57 203.48 54.05 203.87 53.53 204.78 53.33 205.11 53.92 205.11 54.57 205.11 56.07 205.82 56.33 206.22 56.66 206.48 57.76 207.39 58.29 208.24 58.29 208.63 59.13 208.3 60.11 208.3 60.63 207.58 61.48 207.71 62 207.71 62.72 208.63 63.24 209.47 63.3 209.93 63.3 210.84 63.5 211.56 64.02 212.4 64.87 212.4 65.26 214.1 65.97 215.01 66.89 215.4 67.8 215.4 68.78 214.56 68.97 215.4 69.95 215.08 70.67 214.1 70.99 213.77 70.47 213.12 71.12 212.6 70.86 212.21 70.14 211.88 69.75 210.97 70.08 210.51 70.14 210.16 68.97 209.08 68.78 208.37 67.99 207.52 67.21 206.22 67.15 204.78 67.47 204.72 66.89 204.59 66.23 204.19 65.45 203.28 64.87 202.43 65.47 201.2 65.52 200.22 65.58 199.7 66.1 199.53 66.51 199.37 66.89 198.33 66.82 197.09 66.82 196.12 66.89 195.66 67.02 194.23 67.93 193.05 68.61 192.6 69.23 192.35 70.02 192.06 70.44 191.32 71 190.47 71.79 190.12 72.75 190.24 73.44 190.38 74.12 190.38 74.58 189.78 75.39 189.53 76.27 190.06 77.7 189.14 77.83 188.03 77.64 186.73 77.7 186.21 76.4 185.1 75.94 184.06 74.97 182.82 74.77 181.39 75.23 179.76 74.97 177.87 74.77 176.76 75.23 175.91 75.62 175.22 76.75 173.83 76.75 172.92 77.18 172.01 77.18 172.01 76.33 172.01 74.77 172.01 72.69 171.42 72.42 172.01 71.38 171.88 70.99 171.42 70.4 171.42 68.97 171.88 67.86 171.42 67.28 171.42 66.43 172.01 65.52 172.27 64.02 172.98 62.98 172.59 62 172.33 60.7 172.53 59.85 173.32 58.81 174.29 57.63 175.66 56.59 176.11 55.74 176.7 55.16 177.54 53.79 178.33 52.75 179.04 51.64 180.67 50.21 180.67 49.36 181 48.51 181.52 48.51 181.78 47.73 181.81 46.96 183 46.43"/><polygon class="cls-6" points="226.54 59.39 225.73 58.55 225.11 57.44 224.07 56.27 222.7 55.03 221.4 53.79 220.22 52.49 218.92 51.57 218.14 50.73 216.77 49.88 215.08 48.77 213.71 47.86 212.28 47.14 211.36 46.56 209.73 45.91 208.43 45.51 207.39 45.25 206.15 44.8 205.76 44.8 205.24 44.8 205.24 45.45 205.56 45.51 206.15 45.51 207.13 45.91 208.04 45.97 208.56 46.43 209.08 46.49 209.86 47.01 210.78 47.34 210.78 48.45 210.78 49.62 209.99 49.55 208.5 49.49 207.65 49.81 206.67 51.05 206.48 52.1 206.15 53.33 206.48 53.92 206.15 54.9 206.48 55.61 207.19 56.33 207.67 57.01 207.84 57.76 208.35 58.05 209.15 58.29 209.99 59.13 209.91 59.39 209.67 60.37 209.35 61 208.95 61.48 209.08 62.72 209.72 63.08 211.3 63.3 212.21 63.5 213.28 64.38 213.77 65.26 214.1 64.28 213.97 63.37 213.38 62.91 212.73 62.26 212.86 61.31 213.84 60.57 214.69 60.44 215.4 60.63 215.4 59.46 215.21 58.22 216.25 57.83 217.1 58.09 217.75 58.48 218.21 59.26 218.59 60.05 219.44 60.18 219.83 59.72 220.22 58.68 221.4 58.74 222.16 59.13 222.57 59.07 222.16 58.16 222.16 57.31 222.16 56.27 222.83 56.46 223.35 57.44 224.2 58.35 224.59 58.81 225.05 59.52 225.44 59.78 226.09 60.05 226.54 59.39"/><polygon class="cls-7" points="199.74 55.81 200.53 55.48 200.98 54.84 201.61 53.85 202.25 53.37 203.34 52.92 204.26 52.16 204.87 52.03 204.87 50.53 204.26 49.62 204.26 48.25 203.54 47.73 202.7 47.08 202.89 46.17 202.3 46.17 201.91 46.17 200.94 46.75 200.42 47.27 199.44 47.08 198.66 46.69 197.94 46.17 196.9 46.17 196.83 46.75 196.12 47.4 195.27 47.4 194.62 47.01 192.92 47.73 192.6 47.73 192.14 47.53 191.69 47.01 190.9 46.43 190.51 46.17 189.92 46.17 189.08 46.75 189.08 47.27 189.08 47.92 190.25 47.8 190.71 47.99 191.29 48.38 191.95 48.97 192.86 48.97 193.8 48.9 194.68 48.84 195.59 49.1 195.92 49.55 196.05 50.99 195.27 51.31 194.29 51.77 193.43 52.71 194.55 52.75 195.07 52.29 195.99 52.1 196.83 51.57 196.97 51.99 197.68 52.42 197.68 53.01 197.68 53.59 197.61 54.25 198.27 54.64 198.79 55.35 199.74 55.81"/></g><text class="cls-8" transform="translate(78.8 180.26)"><tspan class="cls-9">A</tspan><tspan x="29.92" y="0">TENÇÃO</tspan></text><text class="class-popup-atencao0" transform="translate(104.01 231.24)">As inscrições para<tspan x="20.52" y="27.69">voluntários(as)</tspan><tspan x="-16.9" y="55.39">foram adiadas até dia</tspan><tspan x="-10.32" y="83.08">31 de julho de 2021.</tspan></text></g></g></svg>