<svg width="96" height="70" viewBox="0 0 96 70" fill="none" xmlns="http://www.w3.org/2000/svg">
<rect width="95.9596" height="69.0909" rx="15" fill="#F36B3F"/>
<path d="M26.3753 28.546C26.4208 28.8748 26.5103 29.1205 26.6438 29.2833C26.888 29.5795 27.3062 29.7276 27.8987 29.7276C28.2535 29.7276 28.5416 29.6886 28.763 29.6104C29.1829 29.4607 29.3928 29.1824 29.3928 28.7755C29.3928 28.5379 29.2887 28.3539 29.0803 28.2237C28.872 28.0968 28.5449 27.9845 28.0989 27.8868L27.3372 27.7159C26.5885 27.5466 26.0709 27.3627 25.7844 27.1642C25.2994 26.8321 25.0569 26.3129 25.0569 25.6065C25.0569 24.962 25.2913 24.4265 25.76 24.0001C26.2288 23.5737 26.9172 23.3604 27.8255 23.3604C28.5839 23.3604 29.2301 23.5623 29.7639 23.9659C30.301 24.3663 30.5826 24.949 30.6087 25.714H29.1633C29.1373 25.281 28.9485 24.9734 28.5969 24.7911C28.3626 24.6707 28.0712 24.6104 27.7229 24.6104C27.3355 24.6104 27.0263 24.6886 26.7952 24.8448C26.5641 25.0011 26.4485 25.2192 26.4485 25.4991C26.4485 25.7563 26.5624 25.9483 26.7903 26.0753C26.9368 26.1599 27.2493 26.2592 27.7278 26.3731L28.968 26.671C29.5116 26.8012 29.9218 26.9754 30.1985 27.1935C30.6282 27.532 30.843 28.0219 30.843 28.6632C30.843 29.3207 30.5908 29.8676 30.0862 30.3038C29.5849 30.7367 28.8753 30.9532 27.9573 30.9532C27.0198 30.9532 26.2825 30.74 25.7454 30.3136C25.2083 29.8839 24.9397 29.2947 24.9397 28.546H26.3753ZM35.1399 29.6935C35.7356 29.6935 36.2076 29.4737 36.5559 29.0343C36.9075 28.5948 37.0833 27.9698 37.0833 27.1593C37.0833 26.352 36.9075 25.7286 36.5559 25.2892C36.2076 24.8464 35.7356 24.6251 35.1399 24.6251C34.5442 24.6251 34.0689 24.8448 33.7141 25.2843C33.3593 25.7237 33.1819 26.3487 33.1819 27.1593C33.1819 27.9698 33.3593 28.5948 33.7141 29.0343C34.0689 29.4737 34.5442 29.6935 35.1399 29.6935ZM38.5872 27.1593C38.5872 28.4516 38.2242 29.4412 37.4983 30.128C36.9547 30.6879 36.1685 30.9679 35.1399 30.9679C34.1113 30.9679 33.3251 30.6879 32.7815 30.128C32.0523 29.4412 31.6878 28.4516 31.6878 27.1593C31.6878 25.8409 32.0523 24.8513 32.7815 24.1905C33.3251 23.6306 34.1113 23.3507 35.1399 23.3507C36.1685 23.3507 36.9547 23.6306 37.4983 24.1905C38.2242 24.8513 38.5872 25.8409 38.5872 27.1593ZM41.1995 24.8204V26.4073H42.9671C43.2828 26.4073 43.5383 26.3487 43.7337 26.2315C43.9322 26.1111 44.0315 25.8995 44.0315 25.5968C44.0315 25.2615 43.9013 25.0401 43.6409 24.9327C43.4163 24.8578 43.1298 24.8204 42.7815 24.8204H41.1995ZM41.1995 27.5987V29.5177H42.9671C43.2828 29.5177 43.5286 29.4754 43.7044 29.3907C44.0234 29.2345 44.1829 28.935 44.1829 28.4923C44.1829 28.1179 44.0283 27.8608 43.719 27.7208C43.5465 27.6427 43.304 27.602 42.9915 27.5987H41.1995ZM43.26 23.5704C44.1422 23.5834 44.7672 23.839 45.135 24.337C45.3564 24.643 45.4671 25.0092 45.4671 25.4356C45.4671 25.8751 45.3564 26.2283 45.135 26.4952C45.0113 26.6449 44.829 26.7817 44.5881 26.9054C44.956 27.0388 45.2327 27.2504 45.4182 27.5401C45.607 27.8298 45.7014 28.1814 45.7014 28.5948C45.7014 29.0213 45.594 29.4037 45.3792 29.7423C45.2424 29.9669 45.0715 30.1557 44.8665 30.3087C44.6353 30.4845 44.3619 30.6049 44.0462 30.67C43.7337 30.7351 43.3935 30.7677 43.0256 30.7677H39.7639V23.5704H43.26ZM48.47 24.8204V26.754H50.1741C50.5126 26.754 50.7665 26.7149 50.9358 26.6368C51.2353 26.5001 51.385 26.2299 51.385 25.8263C51.385 25.3901 51.2402 25.0971 50.9505 24.9474C50.7877 24.8627 50.5435 24.8204 50.218 24.8204H48.47ZM50.5305 23.5704C51.0351 23.5802 51.4225 23.642 51.6926 23.756C51.9661 23.8699 52.1972 24.0375 52.386 24.2589C52.5422 24.4412 52.6659 24.643 52.7571 24.8643C52.8482 25.0857 52.8938 25.338 52.8938 25.6212C52.8938 25.963 52.8075 26.2999 52.635 26.6319C52.4625 26.9607 52.1777 27.1935 51.7805 27.3302C52.1126 27.4636 52.3469 27.6541 52.4837 27.9015C52.6236 28.1456 52.6936 28.5199 52.6936 29.0245V29.5079C52.6936 29.8367 52.7066 30.0597 52.7327 30.1768C52.7717 30.3624 52.8629 30.4991 53.0061 30.587V30.7677H51.3508C51.3053 30.6082 51.2727 30.4796 51.2532 30.3819C51.2141 30.1801 51.193 29.9734 51.1897 29.7618L51.1799 29.0929C51.1734 28.6339 51.0888 28.3279 50.926 28.1749C50.7665 28.0219 50.4654 27.9454 50.0227 27.9454H48.47V30.7677H47.0003V23.5704H50.5305ZM59.5149 24.8448H55.7063V26.3731H59.2024V27.6231H55.7063V29.4737H59.6907V30.7677H54.2366V23.5704H59.5149V24.8448ZM66.8294 29.6935C67.4251 29.6935 67.8971 29.4737 68.2454 29.0343C68.5969 28.5948 68.7727 27.9698 68.7727 27.1593C68.7727 26.352 68.5969 25.7286 68.2454 25.2892C67.8971 24.8464 67.4251 24.6251 66.8294 24.6251C66.2337 24.6251 65.7584 24.8448 65.4036 25.2843C65.0488 25.7237 64.8713 26.3487 64.8713 27.1593C64.8713 27.9698 65.0488 28.5948 65.4036 29.0343C65.7584 29.4737 66.2337 29.6935 66.8294 29.6935ZM70.2766 27.1593C70.2766 28.4516 69.9137 29.4412 69.1878 30.128C68.6441 30.6879 67.858 30.9679 66.8294 30.9679C65.8007 30.9679 65.0146 30.6879 64.471 30.128C63.7418 29.4412 63.3772 28.4516 63.3772 27.1593C63.3772 25.8409 63.7418 24.8513 64.471 24.1905C65.0146 23.6306 65.8007 23.3507 66.8294 23.3507C67.858 23.3507 68.6441 23.6306 69.1878 24.1905C69.9137 24.8513 70.2766 25.8409 70.2766 27.1593ZM34.4661 38.5802H39.5686V39.8448H35.9602V41.5001H39.1194V42.7501H35.9602V45.7677H34.4661V38.5802ZM41.6682 43.546C41.7138 43.8748 41.8033 44.1205 41.9368 44.2833C42.1809 44.5795 42.5992 44.7276 43.1917 44.7276C43.5465 44.7276 43.8346 44.6886 44.0559 44.6104C44.4758 44.4607 44.6858 44.1824 44.6858 43.7755C44.6858 43.5379 44.5816 43.3539 44.3733 43.2237C44.165 43.0968 43.8378 42.9845 43.3919 42.8868L42.6301 42.7159C41.8814 42.5466 41.3639 42.3627 41.0774 42.1642C40.5924 41.8321 40.3499 41.3129 40.3499 40.6065C40.3499 39.962 40.5842 39.4265 41.053 39.0001C41.5217 38.5737 42.2102 38.3604 43.1184 38.3604C43.8769 38.3604 44.523 38.5623 45.0569 38.9659C45.594 39.3663 45.8756 39.949 45.9016 40.714H44.4563C44.4303 40.281 44.2415 39.9734 43.8899 39.7911C43.6555 39.6707 43.3642 39.6104 43.0159 39.6104C42.6285 39.6104 42.3193 39.6886 42.0881 39.8448C41.857 40.0011 41.7415 40.2192 41.7415 40.4991C41.7415 40.7563 41.8554 40.9483 42.0833 41.0753C42.2297 41.1599 42.5422 41.2592 43.0208 41.3731L44.261 41.671C44.8046 41.8012 45.2148 41.9754 45.4915 42.1935C45.9212 42.532 46.136 43.0219 46.136 43.6632C46.136 44.3207 45.8837 44.8676 45.3792 45.3038C44.8779 45.7367 44.1682 45.9532 43.2503 45.9532C42.3128 45.9532 41.5755 45.74 41.0383 45.3136C40.5012 44.8839 40.2327 44.2947 40.2327 43.546H41.6682ZM52.5715 39.8448H48.763V41.3731H52.259V42.6231H48.763V44.4737H52.7473V45.7677H47.2932V38.5704H52.5715V39.8448ZM58.6897 38.5704H60.8528V45.7677H59.4514V40.8995C59.4514 40.7595 59.4531 40.5642 59.4563 40.3136C59.4596 40.0597 59.4612 39.8643 59.4612 39.7276L58.0989 45.7677H56.6389L55.2864 39.7276C55.2864 39.8643 55.288 40.0597 55.2913 40.3136C55.2945 40.5642 55.2962 40.7595 55.2962 40.8995V45.7677H53.8948V38.5704H56.0823L57.3909 44.2296L58.6897 38.5704Z" fill="white"/>
</svg>
