<svg width="96" height="70" viewBox="0 0 96 70" fill="none" xmlns="http://www.w3.org/2000/svg">
<rect width="95.9596" height="69.0909" rx="15" fill="#F36B3F"/>
<path d="M24.427 31.5704H26.0042L28.8704 36.5948V31.5704H30.2717V38.7677H28.7678L25.8284 33.6554V38.7677H24.427V31.5704ZM34.8616 37.6935C35.4573 37.6935 35.9293 37.4737 36.2776 37.0343C36.6292 36.5948 36.8049 35.9698 36.8049 35.1593C36.8049 34.352 36.6292 33.7286 36.2776 33.2892C35.9293 32.8464 35.4573 32.6251 34.8616 32.6251C34.2659 32.6251 33.7906 32.8448 33.4358 33.2843C33.081 33.7237 32.9036 34.3487 32.9036 35.1593C32.9036 35.9698 33.081 36.5948 33.4358 37.0343C33.7906 37.4737 34.2659 37.6935 34.8616 37.6935ZM38.3088 35.1593C38.3088 36.4516 37.9459 37.4412 37.22 38.128C36.6764 38.6879 35.8902 38.9679 34.8616 38.9679C33.8329 38.9679 33.0468 38.6879 32.5032 38.128C31.774 37.4412 31.4094 36.4516 31.4094 35.1593C31.4094 33.8409 31.774 32.8513 32.5032 32.1905C33.0468 31.6306 33.8329 31.3507 34.8616 31.3507C35.8902 31.3507 36.6764 31.6306 37.22 32.1905C37.9459 32.8513 38.3088 33.8409 38.3088 35.1593ZM44.6907 31.5704V32.8448H42.5374V38.7677H41.0237V32.8448H38.8606V31.5704H44.6907ZM46.9514 38.7677H45.4573V31.5704H46.9514V38.7677ZM47.8792 29.3927L46.3948 30.8526H45.3889L46.3264 29.3927H47.8792ZM48.0452 35.2276C48.0452 33.9711 48.3821 33.0027 49.0559 32.3224C49.6419 31.7299 50.3873 31.4337 51.2922 31.4337C52.5032 31.4337 53.3886 31.8308 53.9485 32.6251C54.2577 33.0711 54.4238 33.5186 54.4465 33.9679H52.9426C52.845 33.6228 52.7197 33.3624 52.5667 33.1866C52.2932 32.8741 51.888 32.7179 51.3508 32.7179C50.804 32.7179 50.3727 32.9392 50.0569 33.3819C49.7411 33.8214 49.5833 34.4448 49.5833 35.252C49.5833 36.0593 49.7493 36.6648 50.0813 37.0685C50.4166 37.4688 50.8414 37.669 51.3557 37.669C51.8831 37.669 52.2851 37.4965 52.5618 37.1515C52.7148 36.9659 52.8417 36.6876 52.9426 36.3165H54.4319C54.3017 37.101 53.968 37.739 53.4309 38.2306C52.8971 38.7221 52.2118 38.9679 51.3753 38.9679C50.3401 38.9679 49.5263 38.6358 48.9338 37.9718C48.3414 37.3045 48.0452 36.3897 48.0452 35.2276ZM56.9612 38.7677H55.4671V31.5704H56.9612V38.7677ZM60.3352 36.0479H62.1614L61.263 33.2159L60.3352 36.0479ZM60.428 31.5704H62.1272L64.676 38.7677H63.0452L62.5813 37.2882H59.9299L59.4319 38.7677H57.8596L60.428 31.5704ZM66.6829 36.546C66.7284 36.8748 66.818 37.1205 66.9514 37.2833C67.1956 37.5795 67.6139 37.7276 68.2063 37.7276C68.5611 37.7276 68.8492 37.6886 69.0706 37.6104C69.4905 37.4607 69.7005 37.1824 69.7005 36.7755C69.7005 36.5379 69.5963 36.3539 69.388 36.2237C69.1796 36.0968 68.8525 35.9845 68.4065 35.8868L67.6448 35.7159C66.8961 35.5466 66.3785 35.3627 66.0921 35.1642C65.607 34.8321 65.3645 34.3129 65.3645 33.6065C65.3645 32.962 65.5989 32.4265 66.0676 32.0001C66.5364 31.5737 67.2249 31.3604 68.1331 31.3604C68.8915 31.3604 69.5377 31.5623 70.0715 31.9659C70.6087 32.3663 70.8902 32.949 70.9163 33.714H69.471C69.4449 33.281 69.2561 32.9734 68.9046 32.7911C68.6702 32.6707 68.3788 32.6104 68.0305 32.6104C67.6432 32.6104 67.3339 32.6886 67.1028 32.8448C66.8717 33.0011 66.7561 33.2192 66.7561 33.4991C66.7561 33.7563 66.8701 33.9483 67.0979 34.0753C67.2444 34.1599 67.5569 34.2592 68.0354 34.3731L69.2757 34.671C69.8193 34.8012 70.2294 34.9754 70.5061 35.1935C70.9358 35.532 71.1507 36.0219 71.1507 36.6632C71.1507 37.3207 70.8984 37.8676 70.3938 38.3038C69.8925 38.7367 69.1829 38.9532 68.2649 38.9532C67.3274 38.9532 66.5901 38.74 66.053 38.3136C65.5159 37.8839 65.2473 37.2947 65.2473 36.546H66.6829Z" fill="white"/>
</svg>
