<svg width="96" height="70" viewBox="0 0 96 70" fill="none" xmlns="http://www.w3.org/2000/svg">
<rect width="95.9596" height="69.0909" rx="15" fill="#F36B3F"/>
<path d="M24.4221 20.2276C24.4221 18.9711 24.759 18.0027 25.4329 17.3224C26.0188 16.7299 26.7643 16.4337 27.6692 16.4337C28.8801 16.4337 29.7656 16.8308 30.3255 17.6251C30.6347 18.0711 30.8007 18.5186 30.8235 18.9679H29.3196C29.2219 18.6228 29.0966 18.3624 28.9436 18.1866C28.6702 17.8741 28.2649 17.7179 27.7278 17.7179C27.1809 17.7179 26.7496 17.9392 26.4338 18.3819C26.1181 18.8214 25.9602 19.4448 25.9602 20.252C25.9602 21.0593 26.1262 21.6648 26.4583 22.0685C26.7935 22.4688 27.2184 22.669 27.7327 22.669C28.26 22.669 28.662 22.4965 28.9387 22.1515C29.0917 21.9659 29.2187 21.6876 29.3196 21.3165H30.8088C30.6786 22.101 30.345 22.739 29.8079 23.2306C29.274 23.7221 28.5888 23.9679 27.7522 23.9679C26.7171 23.9679 25.9033 23.6358 25.3108 22.9718C24.7184 22.3045 24.4221 21.3897 24.4221 20.2276ZM35.1448 22.6935C35.7405 22.6935 36.2125 22.4737 36.5608 22.0343C36.9124 21.5948 37.0881 20.9698 37.0881 20.1593C37.0881 19.352 36.9124 18.7286 36.5608 18.2892C36.2125 17.8464 35.7405 17.6251 35.1448 17.6251C34.5491 17.6251 34.0738 17.8448 33.719 18.2843C33.3642 18.7237 33.1868 19.3487 33.1868 20.1593C33.1868 20.9698 33.3642 21.5948 33.719 22.0343C34.0738 22.4737 34.5491 22.6935 35.1448 22.6935ZM38.5921 20.1593C38.5921 21.4516 38.2291 22.4412 37.5032 23.128C36.9596 23.6879 36.1734 23.9679 35.1448 23.9679C34.1161 23.9679 33.33 23.6879 32.7864 23.128C32.0572 22.4412 31.6926 21.4516 31.6926 20.1593C31.6926 18.8409 32.0572 17.8513 32.7864 17.1905C33.33 16.6306 34.1161 16.3507 35.1448 16.3507C36.1734 16.3507 36.9596 16.6306 37.5032 17.1905C38.2291 17.8513 38.5921 18.8409 38.5921 20.1593ZM44.5149 16.5704H46.678V23.7677H45.2766V18.8995C45.2766 18.7595 45.2783 18.5642 45.2815 18.3136C45.2848 18.0597 45.2864 17.8643 45.2864 17.7276L43.9241 23.7677H42.4641L41.1116 17.7276C41.1116 17.8643 41.1132 18.0597 41.1165 18.3136C41.1197 18.5642 41.1213 18.7595 41.1213 18.8995V23.7677H39.72V16.5704H41.9075L43.2161 22.2296L44.5149 16.5704ZM51.2581 22.6935C51.8538 22.6935 52.3258 22.4737 52.6741 22.0343C53.0256 21.5948 53.2014 20.9698 53.2014 20.1593C53.2014 19.352 53.0256 18.7286 52.6741 18.2892C52.3258 17.8464 51.8538 17.6251 51.2581 17.6251C50.6624 17.6251 50.1871 17.8448 49.8323 18.2843C49.4775 18.7237 49.3001 19.3487 49.3001 20.1593C49.3001 20.9698 49.4775 21.5948 49.8323 22.0343C50.1871 22.4737 50.6624 22.6935 51.2581 22.6935ZM54.7053 20.1593C54.7053 21.4516 54.3424 22.4412 53.6165 23.128C53.0728 23.6879 52.2867 23.9679 51.2581 23.9679C50.2294 23.9679 49.4433 23.6879 48.8997 23.128C48.1705 22.4412 47.8059 21.4516 47.8059 20.1593C47.8059 18.8409 48.1705 17.8513 48.8997 17.1905C49.4433 16.6306 50.2294 16.3507 51.2581 16.3507C52.2867 16.3507 53.0728 16.6306 53.6165 17.1905C54.3424 17.8513 54.7053 18.8409 54.7053 20.1593ZM59.7297 21.546C59.7753 21.8748 59.8648 22.1205 59.9983 22.2833C60.2424 22.5795 60.6607 22.7276 61.2532 22.7276C61.608 22.7276 61.8961 22.6886 62.1174 22.6104C62.5374 22.4607 62.7473 22.1824 62.7473 21.7755C62.7473 21.5379 62.6432 21.3539 62.4348 21.2237C62.2265 21.0968 61.8993 20.9845 61.4534 20.8868L60.6917 20.7159C59.943 20.5466 59.4254 20.3627 59.1389 20.1642C58.6539 19.8321 58.4114 19.3129 58.4114 18.6065C58.4114 17.962 58.6458 17.4265 59.1145 17.0001C59.5833 16.5737 60.2717 16.3604 61.1799 16.3604C61.9384 16.3604 62.5846 16.5623 63.1184 16.9659C63.6555 17.3663 63.9371 17.949 63.9631 18.714H62.5178C62.4918 18.281 62.303 17.9734 61.9514 17.7911C61.7171 17.6707 61.4257 17.6104 61.0774 17.6104C60.69 17.6104 60.3808 17.6886 60.1497 17.8448C59.9185 18.0011 59.803 18.2192 59.803 18.4991C59.803 18.7563 59.9169 18.9483 60.1448 19.0753C60.2913 19.1599 60.6038 19.2592 61.0823 19.3731L62.3225 19.671C62.8661 19.8012 63.2763 19.9754 63.553 20.1935C63.9827 20.532 64.1975 21.0219 64.1975 21.6632C64.1975 22.3207 63.9452 22.8676 63.4407 23.3038C62.9394 23.7367 62.2297 23.9532 61.3118 23.9532C60.3743 23.9532 59.637 23.74 59.0999 23.3136C58.5628 22.8839 58.2942 22.2947 58.2942 21.546H59.7297ZM70.6331 17.8448H66.8245V19.3731H70.3206V20.6231H66.8245V22.4737H70.8089V23.7677H65.3548V16.5704H70.6331V17.8448ZM21.0823 35.2276C21.0823 33.9711 21.4192 33.0027 22.093 32.3224C22.679 31.7299 23.4244 31.4337 24.3294 31.4337C25.5403 31.4337 26.4257 31.8308 26.9856 32.6251C27.2949 33.0711 27.4609 33.5186 27.4837 33.9679H25.9797C25.8821 33.6228 25.7568 33.3624 25.6038 33.1866C25.3303 32.8741 24.9251 32.7179 24.388 32.7179C23.8411 32.7179 23.4098 32.9392 23.094 33.3819C22.7783 33.8214 22.6204 34.4448 22.6204 35.252C22.6204 36.0593 22.7864 36.6648 23.1184 37.0685C23.4537 37.4688 23.8785 37.669 24.3928 37.669C24.9202 37.669 25.3222 37.4965 25.5989 37.1515C25.7519 36.9659 25.8788 36.6876 25.9797 36.3165H27.469C27.3388 37.101 27.0051 37.739 26.468 38.2306C25.9342 38.7221 25.249 38.9679 24.4124 38.9679C23.3772 38.9679 22.5634 38.6358 21.971 37.9718C21.3785 37.3045 21.0823 36.3897 21.0823 35.2276ZM31.8049 37.6935C32.4006 37.6935 32.8727 37.4737 33.221 37.0343C33.5725 36.5948 33.7483 35.9698 33.7483 35.1593C33.7483 34.352 33.5725 33.7286 33.221 33.2892C32.8727 32.8464 32.4006 32.6251 31.8049 32.6251C31.2092 32.6251 30.734 32.8448 30.3792 33.2843C30.0243 33.7237 29.8469 34.3487 29.8469 35.1593C29.8469 35.9698 30.0243 36.5948 30.3792 37.0343C30.734 37.4737 31.2092 37.6935 31.8049 37.6935ZM35.2522 35.1593C35.2522 36.4516 34.8893 37.4412 34.1633 38.128C33.6197 38.6879 32.8336 38.9679 31.8049 38.9679C30.7763 38.9679 29.9902 38.6879 29.4465 38.128C28.7174 37.4412 28.3528 36.4516 28.3528 35.1593C28.3528 33.8409 28.7174 32.8513 29.4465 32.1905C29.9902 31.6306 30.7763 31.3507 31.8049 31.3507C32.8336 31.3507 33.6197 31.6306 34.1633 32.1905C34.8893 32.8513 35.2522 33.8409 35.2522 35.1593ZM36.3801 31.5704H37.9573L40.8235 36.5948V31.5704H42.2249V38.7677H40.721L37.7815 33.6554V38.7677H36.3801V31.5704ZM44.72 36.546C44.7656 36.8748 44.8551 37.1205 44.9885 37.2833C45.2327 37.5795 45.651 37.7276 46.2434 37.7276C46.5982 37.7276 46.8863 37.6886 47.1077 37.6104C47.5276 37.4607 47.7376 37.1824 47.7376 36.7755C47.7376 36.5379 47.6334 36.3539 47.4251 36.2237C47.2167 36.0968 46.8896 35.9845 46.4436 35.8868L45.6819 35.7159C44.9332 35.5466 44.4156 35.3627 44.1292 35.1642C43.6441 34.8321 43.4016 34.3129 43.4016 33.6065C43.4016 32.962 43.636 32.4265 44.1047 32.0001C44.5735 31.5737 45.262 31.3604 46.1702 31.3604C46.9286 31.3604 47.5748 31.5623 48.1087 31.9659C48.6458 32.3663 48.9273 32.949 48.9534 33.714H47.5081C47.482 33.281 47.2932 32.9734 46.9417 32.7911C46.7073 32.6707 46.4159 32.6104 46.0676 32.6104C45.6803 32.6104 45.371 32.6886 45.1399 32.8448C44.9088 33.0011 44.7932 33.2192 44.7932 33.4991C44.7932 33.7563 44.9072 33.9483 45.135 34.0753C45.2815 34.1599 45.594 34.2592 46.0725 34.3731L47.3128 34.671C47.8564 34.8012 48.2665 34.9754 48.5432 35.1935C48.9729 35.532 49.1878 36.0219 49.1878 36.6632C49.1878 37.3207 48.9355 37.8676 48.4309 38.3038C47.9296 38.7367 47.22 38.9532 46.302 38.9532C45.3645 38.9532 44.6272 38.74 44.0901 38.3136C43.553 37.8839 43.2844 37.2947 43.2844 36.546H44.72ZM55.5305 31.5704V32.8448H53.3772V38.7677H51.8635V32.8448H49.7005V31.5704H55.5305ZM57.7913 38.7677H56.2971V31.5704H57.7913V38.7677ZM64.427 31.5704V32.8448H62.2737V38.7677H60.76V32.8448H58.5969V31.5704H64.427ZM65.3108 31.5704H66.8391V35.9942C66.8391 36.489 66.8977 36.8504 67.0149 37.0782C67.1972 37.4819 67.5943 37.6837 68.2063 37.6837C68.815 37.6837 69.2105 37.4819 69.3928 37.0782C69.51 36.8504 69.5686 36.489 69.5686 35.9942V31.5704H71.0969V35.9942C71.0969 36.7592 70.9781 37.3549 70.7405 37.7813C70.2978 38.5626 69.4531 38.9532 68.2063 38.9532C66.9596 38.9532 66.1132 38.5626 65.6673 37.7813C65.4296 37.3549 65.3108 36.7592 65.3108 35.9942V31.5704ZM73.9143 38.7677H72.4202V31.5704H73.9143V38.7677ZM32.3665 52.6935C32.9622 52.6935 33.4342 52.4737 33.7825 52.0343C34.134 51.5948 34.3098 50.9698 34.3098 50.1593C34.3098 49.352 34.134 48.7286 33.7825 48.2892C33.4342 47.8464 32.9622 47.6251 32.3665 47.6251C31.7708 47.6251 31.2955 47.8448 30.9407 48.2843C30.5859 48.7237 30.4085 49.3487 30.4085 50.1593C30.4085 50.9698 30.5859 51.5948 30.9407 52.0343C31.2955 52.4737 31.7708 52.6935 32.3665 52.6935ZM35.8137 50.1593C35.8137 51.4516 35.4508 52.4412 34.7249 53.128C34.1812 53.6879 33.3951 53.9679 32.3665 53.9679C31.3378 53.9679 30.5517 53.6879 30.0081 53.128C29.2789 52.4412 28.9143 51.4516 28.9143 50.1593C28.9143 48.8409 29.2789 47.8513 30.0081 47.1905C30.5517 46.6306 31.3378 46.3507 32.3665 46.3507C33.3951 46.3507 34.1812 46.6306 34.7249 47.1905C35.4508 47.8513 35.8137 48.8409 35.8137 50.1593ZM39.7493 46.5802H44.8518V47.8448H41.2434V49.5001H44.4026V50.7501H41.2434V53.7677H39.7493V46.5802ZM46.9514 51.546C46.997 51.8748 47.0865 52.1205 47.22 52.2833C47.4641 52.5795 47.8824 52.7276 48.4749 52.7276C48.8297 52.7276 49.1178 52.6886 49.3391 52.6104C49.759 52.4607 49.969 52.1824 49.969 51.7755C49.969 51.5379 49.8648 51.3539 49.6565 51.2237C49.4482 51.0968 49.121 50.9845 48.6751 50.8868L47.9133 50.7159C47.1646 50.5466 46.6471 50.3627 46.3606 50.1642C45.8756 49.8321 45.6331 49.3129 45.6331 48.6065C45.6331 47.962 45.8674 47.4265 46.3362 47.0001C46.8049 46.5737 47.4934 46.3604 48.4016 46.3604C49.1601 46.3604 49.8062 46.5623 50.3401 46.9659C50.8772 47.3663 51.1588 47.949 51.1848 48.714H49.7395C49.7135 48.281 49.5247 47.9734 49.1731 47.7911C48.9387 47.6707 48.6474 47.6104 48.2991 47.6104C47.9117 47.6104 47.6025 47.6886 47.3713 47.8448C47.1402 48.0011 47.0247 48.2192 47.0247 48.4991C47.0247 48.7563 47.1386 48.9483 47.3665 49.0753C47.513 49.1599 47.8255 49.2592 48.304 49.3731L49.5442 49.671C50.0878 49.8012 50.498 49.9754 50.7747 50.1935C51.2044 50.532 51.4192 51.0219 51.4192 51.6632C51.4192 52.3207 51.1669 52.8676 50.6624 53.3038C50.1611 53.7367 49.4514 53.9532 48.5335 53.9532C47.596 53.9532 46.8587 53.74 46.3215 53.3136C45.7844 52.8839 45.5159 52.2947 45.5159 51.546H46.9514ZM57.8547 47.8448H54.0462V49.3731H57.5422V50.6231H54.0462V52.4737H58.0305V53.7677H52.5764V46.5704H57.8547V47.8448ZM63.9729 46.5704H66.136V53.7677H64.7346V48.8995C64.7346 48.7595 64.7363 48.5642 64.7395 48.3136C64.7428 48.0597 64.7444 47.8643 64.7444 47.7276L63.3821 53.7677H61.9221L60.5696 47.7276C60.5696 47.8643 60.5712 48.0597 60.5745 48.3136C60.5777 48.5642 60.5794 48.7595 60.5794 48.8995V53.7677H59.178V46.5704H61.3655L62.6741 52.2296L63.9729 46.5704Z" fill="white"/>
</svg>
